<?xml version="1.0" encoding="UTF-8" standalone="no"?>
<!-- Uploaded to: SVG Repo, www.svgrepo.com, Generator: SVG Repo Mixer Tools -->

<svg
   width="564"
   height="564"
   viewBox="0 0 16.92 16.92"
   fill="none"
   version="1.1"
   id="svg2547"
   sodipodi:docname="gridflex-svgrepo-com.svg"
   inkscape:version="1.2.1 (9c6d41e, 2022-07-14)"
   xmlns:inkscape="http://www.inkscape.org/namespaces/inkscape"
   xmlns:sodipodi="http://sodipodi.sourceforge.net/DTD/sodipodi-0.dtd"
   xmlns="http://www.w3.org/2000/svg"
   xmlns:svg="http://www.w3.org/2000/svg">
  <defs
     id="defs2551" />
  <sodipodi:namedview
     id="namedview2549"
     pagecolor="#ffffff"
     bordercolor="#000000"
     borderopacity="0.25"
     inkscape:showpageshadow="2"
     inkscape:pageopacity="0.0"
     inkscape:pagecheckerboard="0"
     inkscape:deskcolor="#d1d1d1"
     showgrid="false"
     inkscape:zoom="1.0625"
     inkscape:cx="194.35294"
     inkscape:cy="522.35294"
     inkscape:window-width="1920"
     inkscape:window-height="1024"
     inkscape:window-x="0"
     inkscape:window-y="0"
     inkscape:window-maximized="1"
     inkscape:current-layer="svg2547" />
  <path
     id="path6071"
     style="color:#000000;clip-rule:evenodd;fill:#000000;fill-rule:evenodd;stroke-width:0.24;stroke-linecap:round;stroke-linejoin:round"
     d="M 14.951191 0.11912109 L 1.9511719 0.13476562 C 0.93066764 0.13599023 0.11912034 0.94827102 0.11912109 1.96875 L 0.11912109 14.951191 C 0.11912109 15.972587 0.93170968 16.785176 1.9531055 16.785176 L 14.953125 16.785176 C 15.974521 16.785176 16.787109 15.972591 16.787109 14.951191 L 16.787109 1.9550977 C 16.78711 0.93277531 15.97334 0.11789809 14.951191 0.11912109 z M 14.953125 0.78908203 L 14.953184 0.78908203 C 15.591188 0.78911444 16.119141 1.3170799 16.119141 1.9550977 L 16.119141 14.951191 C 16.119141 15.58923 15.591163 16.117207 14.953125 16.117207 L 9.4531055 16.117207 C 9.0860883 16.117453 8.7869238 15.818189 8.7871289 15.451172 L 8.7871289 1.460918 C 8.7869235 1.0939006 9.0860997 0.79469642 9.4531641 0.79494141 L 14.953125 0.78908203 z M 7.453125 0.796875 L 7.4531836 0.796875 C 7.8201741 0.79666158 8.1193655 1.0959124 8.1191602 1.4629102 L 8.1191602 7.4511914 C 8.1194057 7.8182483 7.8201819 8.1174302 7.453125 8.117168 L 1.453125 8.117168 C 1.0861076 8.1173734 0.78685606 7.8182087 0.78714844 7.4511914 L 0.78714844 1.96875 C 0.78714844 1.3307124 1.3151265 0.80273438 1.9531641 0.80273438 L 7.453125 0.796875 z M 1.4531836 8.7851367 L 7.453125 8.7851367 C 7.8201702 8.7848912 8.1194057 9.0841266 8.1191602 9.4511719 L 8.1191602 15.451172 C 8.1193653 15.818189 7.8201421 16.117453 7.453125 16.117207 L 1.9531055 16.117207 C 1.315068 16.117207 0.78708984 15.58923 0.78708984 14.951191 L 0.78708984 9.4511719 C 0.78684446 9.0841545 1.0861192 8.7849332 1.4531836 8.7851367 z " />
</svg>
