<?xml version="1.0" encoding="UTF-8" standalone="no"?>
<!-- Uploaded to: SVG Repo, www.svgrepo.com, Generator: SVG Repo Mixer Tools -->

<svg
   fill="#000000"
   width="800px"
   height="800px"
   viewBox="0 0 846.66 846.66"
   style="shape-rendering:geometricPrecision; text-rendering:geometricPrecision; image-rendering:optimizeQuality; fill-rule:evenodd; clip-rule:evenodd"
   version="1.1"
   xml:space="preserve"
   id="svg7440"
   sodipodi:docname="resume-business-cv-work-job-curriculum-2-svgrepo-com.svg"
   inkscape:version="1.2.1 (9c6d41e, 2022-07-14)"
   xmlns:inkscape="http://www.inkscape.org/namespaces/inkscape"
   xmlns:sodipodi="http://sodipodi.sourceforge.net/DTD/sodipodi-0.dtd"
   xmlns="http://www.w3.org/2000/svg"
   xmlns:svg="http://www.w3.org/2000/svg"><sodipodi:namedview
   id="namedview7442"
   pagecolor="#ffffff"
   bordercolor="#000000"
   borderopacity="0.25"
   inkscape:showpageshadow="2"
   inkscape:pageopacity="0.0"
   inkscape:pagecheckerboard="0"
   inkscape:deskcolor="#d1d1d1"
   showgrid="false"
   inkscape:zoom="0.75130096"
   inkscape:cx="204.31227"
   inkscape:cy="324.76999"
   inkscape:window-width="1920"
   inkscape:window-height="1024"
   inkscape:window-x="0"
   inkscape:window-y="0"
   inkscape:window-maximized="1"
   inkscape:current-layer="svg7440" />

<defs
   id="defs7435">

<style
   type="text/css"
   id="style7433">
   <![CDATA[
    .fil0 {fill:black;fill-rule:nonzero}
   ]]>
  </style>





</defs>

<path
   id="path7927"
   style="color:#000000;clip-rule:nonzero;fill:#000000;fill-rule:nonzero;stroke-width:10.5833;stroke-linecap:round;stroke-linejoin:round;shape-rendering:auto"
   d="M 191.49895 5.291625 C 182.67118 5.291625 175.62821 12.33253 175.62821 21.160299 L 175.62821 515.28852 A 5.2921542 5.2921542 0 0 1 171.00424 520.5388 C 90.74244 530.72542 30.44338 599.2434 30.44338 680.30247 C 30.44338 769.3197 102.4923 841.36838 191.49895 841.36838 C 272.56903 841.36838 341.08626 781.07978 351.27295 700.80752 A 5.2921542 5.2921542 0 0 1 356.52117 696.18148 L 804.3332 696.18148 C 813.16097 696.18148 820.20187 689.143 820.20187 680.30247 L 820.20187 163.68071 C 820.20188 76.490963 749.00253 5.291625 661.81279 5.291625 L 191.49895 5.291625 z M 212.66751 37.039308 L 661.81279 37.039308 C 731.40187 37.039308 788.45419 94.091626 788.45419 163.68071 L 788.45419 659.14217 A 5.2921542 5.2921542 0 0 1 783.16463 664.43587 L 356.52117 664.43587 A 5.2921542 5.2921542 0 0 1 351.27295 659.80983 C 342.06173 587.24175 284.56003 529.75001 212.00193 520.5388 A 5.2921542 5.2921542 0 0 1 207.37796 515.28852 L 207.37796 42.330933 A 5.2921542 5.2921542 0 0 1 212.66751 37.039308 z M 271.66707 90.803045 C 262.8393 90.803045 255.79839 97.84189 255.79839 106.66965 L 255.79839 263.44231 C 255.79839 272.27007 262.8424 279.32132 271.66707 279.32132 L 428.43973 279.32132 C 437.26441 279.32132 444.30633 272.27007 444.30633 263.44231 L 444.30633 106.66965 C 444.30633 97.84189 437.2675 90.803045 428.43973 90.803045 L 271.66707 90.803045 z M 292.8377 122.54866 L 407.26909 122.54866 A 5.2921542 5.2921542 0 0 1 412.56072 127.84029 L 412.56072 242.28201 A 5.2921542 5.2921542 0 0 1 407.26909 247.57364 L 292.8377 247.57364 A 5.2921542 5.2921542 0 0 1 287.54608 242.28201 L 287.54608 127.84029 A 5.2921542 5.2921542 0 0 1 292.8377 122.54866 z M 529.09222 133.55359 C 523.47199 133.55359 519.92681 135.49081 517.40724 138.36359 C 514.88767 141.23637 513.50053 145.29542 513.50053 149.4264 C 513.50053 153.55737 514.88767 157.61642 517.40724 160.4892 C 519.92681 163.36198 523.47199 165.2992 529.09222 165.2992 L 689.42019 165.2992 C 695.04042 165.2992 698.58561 163.36198 701.10517 160.4892 C 703.62474 157.61642 705.01188 153.55737 705.01188 149.4264 C 705.01188 145.29542 703.62474 141.23637 701.10517 138.36359 C 698.58561 135.49081 695.04042 133.55359 689.42019 133.55359 L 529.09222 133.55359 z M 529.09222 204.81276 C 523.47199 204.81276 519.92681 206.75205 517.40724 209.62483 C 514.88767 212.49761 513.50053 216.55666 513.50053 220.68763 C 513.50053 224.81861 514.88767 228.87558 517.40724 231.74837 C 519.92681 234.62115 523.47199 236.56044 529.09222 236.56044 L 689.42019 236.56044 C 695.04042 236.56044 698.58561 234.62115 701.10517 231.74837 C 703.62474 228.87558 705.01188 224.81861 705.01188 220.68763 C 705.01188 216.55666 703.62474 212.49761 701.10517 209.62483 C 698.58561 206.75205 695.04042 204.81276 689.42019 204.81276 L 529.09222 204.81276 z M 630.62734 301.00665 C 621.80267 301.00665 614.74833 308.06097 614.74833 316.88566 L 614.74833 539.56592 C 614.74833 548.39059 621.80267 555.44286 630.62734 555.44286 L 725.04564 555.44286 C 733.87031 555.44286 740.91432 548.39368 740.91432 539.56592 L 740.91432 316.88566 C 740.91432 308.05788 733.87031 301.00665 725.04564 301.00665 L 630.62734 301.00665 z M 267.21879 308.13174 C 261.59889 308.13174 258.05561 310.07015 255.53588 312.94381 C 253.01614 315.81747 251.6271 319.8782 251.6271 324.01075 C 251.6271 328.14328 253.01614 332.20196 255.53588 335.07562 C 258.05561 337.94928 261.59889 339.88769 267.21879 339.88769 L 477.4224 339.88769 C 483.04231 339.88769 486.58558 337.94928 489.10531 335.07562 C 491.62504 332.20196 493.01409 328.14328 493.01409 324.01075 C 493.01409 319.8782 491.62504 315.81747 489.10531 312.94381 C 486.58558 310.07015 483.04231 308.13174 477.4224 308.13174 L 267.21879 308.13174 z M 651.78557 332.75433 L 703.87501 332.75433 A 5.2921542 5.2921542 0 0 1 709.1687 338.04389 L 709.1687 518.39528 A 5.2921542 5.2921542 0 0 1 703.87501 523.68691 L 651.78557 523.68691 A 5.2921542 5.2921542 0 0 1 646.49395 518.39528 L 646.49395 338.04389 A 5.2921542 5.2921542 0 0 1 651.78557 332.75433 z M 267.21879 368.70844 C 261.59856 368.70844 258.05545 370.64774 255.53588 373.52051 C 253.01631 376.3933 251.6271 380.45234 251.6271 384.58332 C 251.6271 388.7143 253.01631 392.77128 255.53588 395.64405 C 258.05545 398.51683 261.59856 400.45612 267.21879 400.45612 L 559.37437 400.45612 C 564.99155 400.45612 568.53463 398.51879 571.05315 395.64612 C 573.57169 392.77346 574.95986 388.71473 574.95986 384.58332 C 574.95986 380.45191 573.57169 376.39318 571.05315 373.52051 C 568.53463 370.64786 564.99155 368.70844 559.37437 368.70844 L 267.21879 368.70844 z M 267.21879 429.27688 C 261.59856 429.27688 258.05545 431.21617 255.53588 434.08895 C 253.01631 436.96174 251.6271 441.01871 251.6271 445.14968 C 251.6271 449.28067 253.01631 453.33971 255.53588 456.21249 C 258.05545 459.08527 261.59856 461.02456 267.21879 461.02456 L 559.37437 461.02456 C 564.99155 461.02456 568.53463 459.08515 571.05315 456.21249 C 573.57169 453.33983 574.95986 449.28109 574.95986 445.14968 C 574.95986 441.01828 573.57169 436.95954 571.05315 434.08688 C 568.53463 431.21422 564.99155 429.27688 559.37437 429.27688 L 267.21879 429.27688 z M 191.49895 550.99459 C 262.8611 550.99459 320.81717 608.95015 320.81717 680.30247 C 320.81717 751.66462 262.8611 809.62069 191.49895 809.62069 C 120.14662 809.62069 62.188996 751.66462 62.188996 680.30247 C 62.188996 608.95015 120.14662 550.99459 191.49895 550.99459 z M 258.26437 598.09212 C 257.293 598.0355 256.32958 598.07228 255.38912 598.20787 C 251.62729 598.75024 248.09313 600.64708 245.05185 605.33089 A 5.2921542 5.2921542 0 0 1 245.04978 605.3371 L 172.89558 716.1801 A 5.2921542 5.2921542 0 0 1 164.72043 717.03586 L 135.92448 688.23784 C 131.95187 684.26523 128.07519 683.13051 124.26224 683.3803 C 120.44928 683.63009 116.59639 685.51781 113.67485 688.43835 C 110.75332 691.35888 108.86518 695.20801 108.61474 699.01953 C 108.36431 702.83104 109.4976 706.70708 113.47022 710.67971 L 160.68143 757.88886 C 168.35077 765.5582 180.81409 763.57112 185.86833 754.21572 A 5.2921542 5.2921542 0 0 1 186.0895 753.84366 L 271.56578 622.55348 C 274.60706 617.86967 274.90538 613.86926 273.87053 610.21118 C 272.83569 606.55308 270.19773 603.19095 266.74544 600.94877 C 264.15623 599.26713 261.17848 598.26198 258.26437 598.09212 z " />

</svg>
