<?xml version="1.0" encoding="UTF-8" standalone="no"?>
<!-- Created with Inkscape (http://www.inkscape.org/) -->

<svg
   width="45mm"
   height="16mm"
   viewBox="0 0 45 15.999999"
   version="1.1"
   id="svg1567"
   xml:space="preserve"
   inkscape:version="1.2.1 (9c6d41e, 2022-07-14)"
   sodipodi:docname="sutech.svg"
   inkscape:export-filename="kanoon_logo.svg"
   inkscape:export-xdpi="300"
   inkscape:export-ydpi="300"
   xmlns:inkscape="http://www.inkscape.org/namespaces/inkscape"
   xmlns:sodipodi="http://sodipodi.sourceforge.net/DTD/sodipodi-0.dtd"
   xmlns="http://www.w3.org/2000/svg"
   xmlns:svg="http://www.w3.org/2000/svg"><sodipodi:namedview
     id="namedview1569"
     pagecolor="#ffffff"
     bordercolor="#000000"
     borderopacity="0.25"
     inkscape:showpageshadow="2"
     inkscape:pageopacity="0.0"
     inkscape:pagecheckerboard="0"
     inkscape:deskcolor="#d1d1d1"
     inkscape:document-units="mm"
     showgrid="false"
     inkscape:zoom="4.2835116"
     inkscape:cx="74.588335"
     inkscape:cy="68.401822"
     inkscape:window-width="1920"
     inkscape:window-height="1024"
     inkscape:window-x="0"
     inkscape:window-y="0"
     inkscape:window-maximized="1"
     inkscape:current-layer="layer1" /><defs
     id="defs1564" /><g
     inkscape:label="Layer 1"
     inkscape:groupmode="layer"
     id="layer1"
     transform="translate(84.916674,-50.137206)"><path
       id="path91018"
       style="fill:#cccccc;fill-opacity:1;stroke-width:0.304554;stroke-linecap:round;stroke-linejoin:round"
       d="m -48.043308,50.137206 a 8.0000098,8.0000098 0 0 0 -8.000275,8.000273 8.0000098,8.0000098 0 0 0 8.000275,7.999727 8.0000098,8.0000098 0 0 0 7.999725,-7.999727 8.0000098,8.0000098 0 0 0 -7.999725,-8.000273 z m -0.04168,0.499125 c 0.214119,-0.0021 0.424397,0.0031 0.59566,0.017 0.906591,0.07328 1.879843,0.347704 2.647011,0.746494 0.474656,0.246737 0.493423,0.257466 0.766241,0.440439 0.600202,0.402541 1.098417,0.847008 1.546741,1.379451 0.616064,0.731657 1.075385,1.535627 1.376162,2.408969 0.268223,0.778817 0.383443,1.378263 0.425628,2.214254 0.01756,0.347909 0.0036,0.812561 -0.0362,1.214906 -0.02446,0.246748 -0.116246,0.811663 -0.163451,1.006478 -0.01866,0.07699 -0.03401,0.152148 -0.03401,0.167291 0,0.01514 -0.01114,0.04243 -0.02523,0.06034 -0.01409,0.01791 -0.02992,0.05523 -0.03509,0.08282 -0.0052,0.02758 -0.02651,0.0841 -0.04716,0.125605 -0.02066,0.04151 -0.05479,0.124027 -0.07569,0.183742 -0.20124,0.575117 -0.539887,1.219033 -0.97357,1.849509 -0.370649,0.538845 -0.983211,1.181882 -1.506154,1.581298 -0.413233,0.315621 -0.834474,0.581689 -1.205031,0.761303 -0.456001,0.221029 -0.704773,0.321099 -1.139763,0.45799 -0.398924,0.125538 -0.933174,0.231312 -1.398101,0.276987 -0.255512,0.0251 -0.886716,0.03593 -1.146892,0.01974 -0.453323,-0.02819 -0.990801,-0.120583 -1.451853,-0.250113 -0.122461,-0.03441 -0.450614,-0.141513 -0.543005,-0.177162 -0.226374,-0.08734 -0.46055,-0.183638 -0.486511,-0.200199 -0.01604,-0.01019 -0.05652,-0.02962 -0.08996,-0.04278 -0.09227,-0.03629 -0.526108,-0.269072 -0.704262,-0.377911 -0.170444,-0.104133 -0.465397,-0.305177 -0.585786,-0.3993 -0.267402,-0.209063 -0.36766,-0.291524 -0.493093,-0.404787 -0.572614,-0.51705 -1.090114,-1.159245 -1.477082,-1.832503 -0.30423,-0.529308 -0.487943,-0.922263 -0.739367,-1.640534 -0.09208,-0.256853 -0.09222,-0.255639 -0.127249,-0.422886 -0.0079,-0.05186 -0.01935,-0.130729 -0.02578,-0.175517 -0.0066,-0.04479 -0.02453,-0.155052 -0.04003,-0.244628 -0.120684,-0.696982 -0.118241,-1.821218 0.0055,-2.540057 0.249777,-1.450279 0.857185,-2.726682 1.820439,-3.825167 0.461763,-0.526589 1.001812,-0.980859 1.701416,-1.43101 0.105152,-0.06766 0.742606,-0.384132 0.915978,-0.454698 0.06718,-0.02735 0.149604,-0.06235 0.183196,-0.07789 0.256241,-0.118478 0.976479,-0.323965 1.348188,-0.384491 0.113135,-0.01842 0.240227,-0.03943 0.282473,-0.04716 0.21183,-0.03889 0.578856,-0.06251 0.935725,-0.06582 z m -1.25385,0.97741 c -0.02405,-0.0046 -1.10309,0.340508 -1.377257,0.440436 l -0.05759,0.02085 v 0.08391 c 1.09e-4,0.078 0.04645,0.681833 0.08282,1.079976 0.0087,0.09594 0.01241,0.18954 0.0076,0.208427 -0.0061,0.02463 -0.04427,0.057 -0.13438,0.113537 -0.211144,0.132501 -0.440275,0.299191 -0.648863,0.4728 -0.06744,0.05613 -0.129174,0.10202 -0.137122,0.10202 -0.0079,0 -0.08528,-0.03138 -0.172226,-0.06966 -0.277739,-0.122314 -0.847579,-0.378329 -0.93353,-0.419594 -0.135645,-0.06512 -0.130123,-0.06807 -0.297829,0.167289 -0.08111,0.113835 -0.163523,0.227824 -0.183197,0.25395 -0.110441,0.146657 -0.506409,0.70292 -0.531486,0.746495 -0.02628,0.04566 -0.02748,0.05439 -0.0099,0.07624 0.0109,0.01352 0.207608,0.246398 0.437146,0.517775 0.242423,0.286612 0.417401,0.504824 0.417401,0.520517 0,0.01486 -0.0082,0.04347 -0.01864,0.06362 -0.04669,0.09133 -0.207207,0.560236 -0.261083,0.762949 -0.04101,0.154322 -0.0677,0.23049 -0.08612,0.245725 -0.01468,0.01216 -0.108132,0.04118 -0.20733,0.06416 -0.238995,0.05537 -0.710162,0.160933 -0.912688,0.204587 -0.142186,0.03065 -0.164342,0.03943 -0.179356,0.06911 -0.02482,0.04906 -0.0259,1.523605 -9.8e-4,1.543999 0.0094,0.0076 0.0511,0.02378 0.09215,0.03565 0.0692,0.02002 0.170198,0.04381 0.87539,0.205135 0.275731,0.06308 0.324054,0.0779 0.338966,0.102022 0.0052,0.0084 0.0207,0.05886 0.03401,0.11244 0.05971,0.24058 0.144539,0.519658 0.218299,0.716329 0.04404,0.117441 0.08008,0.229212 0.08008,0.247917 0,0.01871 -0.01676,0.05415 -0.0373,0.07897 -0.0589,0.07127 -0.193579,0.227207 -0.471703,0.546297 -0.141827,0.162716 -0.281997,0.325902 -0.311542,0.3631 l -0.05376,0.06802 0.02688,0.04607 c 0.01461,0.02541 0.11215,0.16615 0.216654,0.312641 0.228635,0.320489 0.368837,0.519767 0.519967,0.737717 0.06858,0.0989 0.122358,0.163083 0.136026,0.162902 0.01241,-1.63e-4 0.0498,-0.01289 0.08337,-0.02853 0.03359,-0.01563 0.110315,-0.04894 0.170032,-0.07351 0.05971,-0.02456 0.193873,-0.08236 0.29838,-0.128347 0.536414,-0.236056 0.66297,-0.287064 0.692193,-0.279729 0.01665,0.0042 0.08164,0.05197 0.144253,0.106406 0.184919,0.16074 0.360986,0.294888 0.557816,0.424532 0.101666,0.06696 0.191119,0.135521 0.1991,0.152482 0.01411,0.02997 -0.01757,0.427859 -0.07296,0.912687 -0.03242,0.283702 -0.04034,0.456146 -0.02138,0.467861 0.01615,0.01 0.522675,0.183911 1.088753,0.37407 0.154438,0.05189 0.296225,0.09434 0.314832,0.09434 0.02147,0 0.04362,-0.01361 0.06034,-0.0373 0.01449,-0.02053 0.154535,-0.257275 0.311542,-0.526002 0.157005,-0.268726 0.303113,-0.512598 0.324704,-0.542455 0.03918,-0.0542 0.03987,-0.05473 0.127251,-0.05266 0.04814,0.0012 0.300941,0.0058 0.562202,0.0099 0.261263,0.0042 0.479611,0.008 0.484865,0.0082 0.0052,3.59e-4 0.04276,0.0571 0.08337,0.126154 0.07335,0.124757 0.119755,0.204728 0.416851,0.719619 0.08529,0.147813 0.165777,0.280344 0.178809,0.294538 0.02746,0.02992 0.01081,0.0338 0.349387,-0.07897 0.115703,-0.03853 0.409006,-0.13463 0.651607,-0.213911 0.243379,-0.07953 0.449307,-0.154491 0.459085,-0.166741 0.01039,-0.013 0.01422,-0.03868 0.0099,-0.06253 -0.0079,-0.04389 -0.03675,-0.373785 -0.06856,-0.787632 -0.01091,-0.141828 -0.02355,-0.304457 -0.02853,-0.361455 -0.0127,-0.145178 -0.0043,-0.166635 0.08502,-0.223784 0.219435,-0.14037 0.556298,-0.391737 0.722911,-0.539715 0.103263,-0.0917 0.08393,-0.09554 0.516677,0.100933 0.548881,0.249186 0.882746,0.392026 0.899523,0.385588 0.01077,-0.0042 0.03821,-0.03282 0.06143,-0.06417 0.08305,-0.112059 0.37795,-0.52529 0.504612,-0.707003 0.07091,-0.101738 0.188871,-0.265917 0.261629,-0.364747 0.07276,-0.09882 0.132164,-0.189901 0.132187,-0.202392 0,-0.0125 -0.01406,-0.04034 -0.03128,-0.06143 -0.160982,-0.197259 -0.53651,-0.643444 -0.665317,-0.790921 -0.189049,-0.216453 -0.183795,-0.188138 -0.08063,-0.455248 0.03749,-0.09704 0.07831,-0.206755 0.09105,-0.244078 0.02826,-0.08284 0.13658,-0.458294 0.149737,-0.51942 0.0052,-0.02432 0.02021,-0.04995 0.03346,-0.05704 0.02302,-0.01232 0.181801,-0.04996 0.781049,-0.184293 0.38611,-0.08654 0.377852,-0.08308 0.38943,-0.14864 0.0052,-0.02986 0.01,-0.376493 0.01039,-0.770081 l 5.6e-4,-0.71523 -0.03126,-0.02085 c -0.01725,-0.0113 -0.138029,-0.04506 -0.268212,-0.07514 -0.130181,-0.03008 -0.322219,-0.07552 -0.426726,-0.100922 -0.104503,-0.0254 -0.273668,-0.06527 -0.376263,-0.08885 -0.205684,-0.04731 -0.230039,-0.06319 -0.24737,-0.159611 -0.02772,-0.154195 -0.132481,-0.500693 -0.236398,-0.780501 -0.03812,-0.102657 -0.06966,-0.197949 -0.06966,-0.211717 0,-0.0229 0.13603,-0.189524 0.366392,-0.449762 0.09788,-0.110567 0.405049,-0.467371 0.465119,-0.540263 0.02046,-0.02484 0.0373,-0.05601 0.0373,-0.06911 0,-0.01839 -0.272839,-0.417715 -0.492544,-0.720716 -0.01345,-0.01856 -0.0979,-0.137475 -0.187583,-0.264373 -0.0897,-0.126899 -0.173821,-0.242072 -0.187036,-0.255596 -0.02316,-0.02368 -0.02953,-0.02245 -0.172225,0.03894 -0.08144,0.03503 -0.213972,0.09365 -0.294539,0.129991 -0.08057,0.03634 -0.149315,0.06582 -0.152479,0.06582 -0.0031,0 -0.144138,0.06188 -0.313189,0.137123 -0.228025,0.101495 -0.315717,0.134596 -0.340612,0.128347 -0.01846,-0.0046 -0.06227,-0.03449 -0.09709,-0.06636 -0.158024,-0.144737 -0.464749,-0.377199 -0.714683,-0.54136 -0.113989,-0.07487 -0.113068,0.01211 -0.0072,-1.035 0.03336,-0.329638 0.03817,-0.408278 0.02523,-0.42124 -0.0051,-0.0051 -0.08757,-0.03548 -0.183196,-0.06746 -0.09562,-0.03199 -0.409811,-0.138001 -0.698227,-0.235852 -0.28842,-0.09785 -0.533773,-0.178258 -0.544652,-0.178258 -0.03503,0 -0.02878,-0.0097 -0.444278,0.705907 -0.02817,0.04852 -0.08142,0.140041 -0.118472,0.203489 -0.03705,0.06345 -0.08356,0.144585 -0.103666,0.179904 -0.02011,0.03532 -0.04892,0.07056 -0.06361,0.07844 -0.0189,0.01009 -0.07928,0.0097 -0.206233,-0.0017 -0.116616,-0.01039 -0.306883,-0.01354 -0.541359,-0.0082 -0.329784,0.0074 -0.363314,0.0062 -0.382299,-0.01481 -0.01144,-0.01273 -0.149668,-0.249263 -0.306604,-0.525455 -0.342041,-0.601953 -0.354447,-0.622659 -0.385589,-0.628568 z m 1.177609,2.402933 c 0.07085,-9.8e-4 0.142008,-1.74e-4 0.213363,0.0023 0.47388,0.01573 0.928027,0.111855 1.341058,0.283568 0.431972,0.179587 0.81256,0.412812 1.146892,0.703164 0.220667,0.191638 0.536745,0.56175 0.705906,0.826575 0.534867,0.837344 0.758266,1.755531 0.664771,2.73148 -0.07972,0.832091 -0.411922,1.621193 -0.955471,2.269651 -0.146652,0.174959 -0.421757,0.446914 -0.569881,0.563299 -0.274311,0.215543 -0.704447,0.461302 -1.039935,0.594564 -0.118019,0.04688 -0.221898,0.07744 -0.637894,0.185938 -0.211274,0.0551 -0.403818,0.0767 -0.732783,0.08172 -0.179151,0.0027 -0.381166,-5.46e-4 -0.449213,-0.0072 -0.265757,-0.02577 -0.606785,-0.09541 -0.840287,-0.171678 -0.26259,-0.08577 -0.635007,-0.253895 -0.807377,-0.364197 -0.393075,-0.251531 -0.52119,-0.351691 -0.773371,-0.604435 -0.255839,-0.256413 -0.420917,-0.460655 -0.591272,-0.732235 -0.401311,-0.639772 -0.607148,-1.304269 -0.641734,-2.071647 -0.02628,-0.583281 0.05582,-1.093588 0.268762,-1.674539 0.05831,-0.159071 0.26666,-0.578502 0.360906,-0.726201 0.264708,-0.414849 0.665616,-0.848542 1.050906,-1.136471 0.215736,-0.16122 0.60503,-0.375014 0.87868,-0.48322 0.431194,-0.170501 0.912007,-0.262773 1.407974,-0.270405 z m 0.0713,0.702616 c -0.02504,-0.0014 -0.05107,0.0047 -0.06308,0.0192 -0.01214,0.01465 -0.01264,0.103805 -0.0023,0.370231 0.0075,0.192814 0.01754,0.472695 0.02249,0.621989 0.0085,0.258691 0.02034,0.336724 0.04716,0.309895 0.0066,-0.0066 0.0185,-0.161768 0.02633,-0.344452 0.0078,-0.182683 0.0203,-0.465447 0.02743,-0.628569 0.0086,-0.199265 0.008,-0.305213 -9.8e-4,-0.322513 -0.0082,-0.01557 -0.032,-0.02443 -0.05704,-0.02578 z m 0.945595,0.190326 c -0.02527,0.0032 -0.04454,0.03427 -0.07789,0.105311 -0.0273,0.05818 -0.04991,0.110794 -0.04991,0.11628 0,0.0055 -0.05555,0.13033 -0.123411,0.277537 -0.125692,0.272661 -0.297281,0.674749 -0.297281,0.696582 0,0.0068 0.0092,0.01207 0.01974,0.01207 0.01066,0 0.04029,-0.03496 0.06582,-0.07789 0.05122,-0.08606 0.137491,-0.247369 0.227625,-0.424532 0.03227,-0.06345 0.09157,-0.172352 0.131637,-0.242432 0.105068,-0.183772 0.193069,-0.363365 0.193069,-0.393267 0,-0.01422 -0.01506,-0.03567 -0.03346,-0.04773 -0.02351,-0.0154 -0.04078,-0.02391 -0.05595,-0.02193 z m -1.868704,9.8e-4 c -0.0093,9.8e-4 -0.01974,0.0049 -0.03236,0.01207 -0.0724,0.0411 -0.07082,0.04951 0.04278,0.273147 0.0583,0.114746 0.116083,0.22432 0.128896,0.242982 0.01281,0.01865 0.05416,0.092 0.0916,0.162901 0.03744,0.07091 0.100474,0.189727 0.139865,0.264372 0.08995,0.17045 0.132088,0.237495 0.14919,0.237495 0.0074,0 0.01316,-0.0094 0.01316,-0.02085 0,-0.03243 -0.08159,-0.234138 -0.200199,-0.494737 -0.05945,-0.130631 -0.112146,-0.249975 -0.116827,-0.264921 -0.02492,-0.07949 -0.173432,-0.395346 -0.191425,-0.406978 -0.0074,-0.0048 -0.01546,-0.0066 -0.02469,-0.0055 z m -0.890748,0.677385 c -0.03017,0 -0.07552,0.07135 -0.06418,0.100912 0.0035,0.0096 0.05736,0.04813 0.119571,0.08557 0.114031,0.06862 0.15874,0.09359 0.418498,0.234206 0.07838,0.04244 0.215932,0.118665 0.305508,0.169483 0.232696,0.132013 0.305509,0.162989 0.305509,0.129991 0,-0.01926 -0.100137,-0.09581 -0.258339,-0.198005 -0.07838,-0.05064 -0.178996,-0.116474 -0.223783,-0.146447 -0.576852,-0.386028 -0.560323,-0.375714 -0.602792,-0.375714 z m 3.655685,0 c -0.03253,0 -0.08274,0.02918 -0.351032,0.20678 -0.138127,0.09143 -0.331387,0.218475 -0.429468,0.281924 -0.186462,0.120627 -0.328526,0.224087 -0.336225,0.245176 -0.0078,0.02144 0.03246,0.01376 0.108053,-0.02085 0.07472,-0.03421 0.248179,-0.129019 0.500771,-0.274244 0.07838,-0.04506 0.197192,-0.111367 0.264372,-0.146996 0.153098,-0.08119 0.289019,-0.169221 0.298379,-0.193616 0.01009,-0.02636 -0.03005,-0.09818 -0.05486,-0.09818 z m -4.095574,0.898975 c -0.124555,3.6e-4 -0.228852,0.0084 -0.284118,0.02413 -0.06145,0.01741 -0.09472,0.06363 -0.08885,0.122862 0.0042,0.04191 0.01353,0.04859 0.234755,0.161257 0.126897,0.06463 0.276399,0.144481 0.332384,0.177161 0.292597,0.170803 0.532308,0.410795 0.632956,0.634603 0.05687,0.126492 0.04991,0.130133 -0.147543,0.07897 -0.501336,-0.129875 -0.995573,-0.129835 -1.596106,0 -0.181597,0.03927 -0.208695,0.05141 -0.202942,0.08996 0.0069,0.04568 0.06572,0.07844 0.16729,0.09268 0.052,0.0074 0.140376,0.02002 0.196361,0.02798 0.237865,0.03378 0.353058,0.09193 0.530389,0.26931 0.296025,0.296121 0.541804,0.663765 0.69384,1.037194 0.108861,0.26739 0.16364,0.518281 0.194164,0.890748 0.04508,0.550106 0.142922,0.907305 0.320319,1.168832 0.101483,0.149598 0.265841,0.263206 0.409173,0.282471 0.03936,0.0053 0.44283,0.0071 0.896783,0.0043 0.798508,-0.0046 0.827601,-0.0054 0.902265,-0.03291 0.209067,-0.07718 0.351176,-0.248155 0.469507,-0.565493 0.09659,-0.259003 0.1328,-0.43786 0.165095,-0.816701 0.0355,-0.416285 0.07861,-0.630434 0.180454,-0.8902 0.157626,-0.402018 0.372489,-0.730185 0.67958,-1.03829 0.245545,-0.246358 0.321568,-0.281939 0.725102,-0.342259 0.102202,-0.01527 0.141023,-0.02736 0.166193,-0.051 0.06367,-0.05981 0.04779,-0.07042 -0.184292,-0.121765 -0.61338,-0.135742 -1.054764,-0.13584 -1.586783,0 -0.185429,0.04736 -0.198207,0.03928 -0.138767,-0.08775 0.0555,-0.1186 0.11256,-0.19947 0.218299,-0.309896 0.175106,-0.182877 0.336141,-0.291721 0.713037,-0.480477 0.1269,-0.06355 0.241437,-0.124615 0.254499,-0.136026 0.02933,-0.02562 0.03054,-0.08211 0.0027,-0.121766 -0.03466,-0.04949 -0.115299,-0.06328 -0.372425,-0.06253 -0.572586,0.0017 -1.009193,0.101625 -1.483117,0.338967 -0.313411,0.156957 -0.497437,0.314906 -0.588529,0.504062 -0.05244,0.108893 -0.07279,0.125057 -0.152481,0.125057 -0.0916,0 -0.120199,-0.01877 -0.163449,-0.108053 -0.114307,-0.235974 -0.273786,-0.371851 -0.63241,-0.539713 -0.38875,-0.181968 -0.655767,-0.258405 -1.058585,-0.303317 -0.135521,-0.0151 -0.28023,-0.02285 -0.404786,-0.02249 z m 0.459087,0.282472 c 0.09209,-0.0048 0.476252,0.103771 0.719617,0.208974 0.200372,0.08662 0.39763,0.20708 0.490352,0.299476 0.102774,0.102413 0.164148,0.237356 0.129991,0.285214 -0.0055,0.0076 -0.07146,0.05782 -0.146996,0.111344 -0.07553,0.05352 -0.180931,0.13705 -0.234204,0.185938 -0.09692,0.08895 -0.13467,0.105428 -0.163451,0.07075 -0.0084,-0.01019 -0.02152,-0.05443 -0.02961,-0.09818 -0.008,-0.04375 -0.03548,-0.142963 -0.06088,-0.220493 -0.101217,-0.308972 -0.290425,-0.533664 -0.653798,-0.776113 -0.03915,-0.02613 -0.07129,-0.05198 -0.07131,-0.05759 -1.4e-5,-0.0056 0.0072,-0.0085 0.0203,-0.0094 z m 3.569572,5.49e-4 c 0.01361,6.69e-4 0.0203,0.0039 0.0203,0.0099 0,0.0081 -0.03836,0.0409 -0.08502,0.0724 -0.413801,0.279438 -0.606727,0.551292 -0.689453,0.972473 -0.01761,0.08964 -0.04005,0.125096 -0.07844,0.123957 -0.01254,-3.71e-4 -0.07858,-0.04805 -0.146994,-0.105863 -0.06841,-0.05782 -0.178128,-0.141632 -0.244079,-0.186486 -0.141886,-0.0965 -0.152318,-0.123323 -0.09324,-0.244077 0.09904,-0.202434 0.518418,-0.442455 1.007576,-0.577013 0.165893,-0.04564 0.268517,-0.06728 0.309348,-0.06527 z m -1.752425,1.059133 c 0.112336,-7.56e-4 0.180684,0.02251 0.310993,0.09764 0.100026,0.05767 0.280828,0.2164 0.280828,0.246821 0,0.0097 -0.07989,0.09332 -0.177711,0.185388 -0.09783,0.09208 -0.230072,0.225272 -0.293991,0.296185 -0.06392,0.07091 -0.123949,0.133688 -0.133283,0.139316 -0.01009,0.0061 -0.03336,-0.0035 -0.05704,-0.02358 -0.02204,-0.01853 -0.0756,-0.07693 -0.119023,-0.129993 -0.04342,-0.05307 -0.16202,-0.173743 -0.263273,-0.267663 -0.10126,-0.09392 -0.185629,-0.182345 -0.188133,-0.196907 -0.0058,-0.0332 0.08538,-0.1184 0.234753,-0.218299 0.145444,-0.09727 0.206997,-0.119089 0.354324,-0.127249 0.01814,-9.8e-4 0.03551,-0.0016 0.05155,-0.0017 z m 2.089746,0.120119 c 0.06556,-0.0014 0.03171,0.03806 -0.102572,0.173873 -0.503268,0.508871 -0.767803,1.126381 -0.818348,1.909841 -0.02454,0.380417 -0.07618,0.621226 -0.178259,0.828221 -0.07962,0.16145 -0.137147,0.224183 -0.23969,0.262178 -0.07477,0.0277 -0.100362,0.02879 -0.535875,0.02798 -0.251651,-4.73e-4 -0.471361,-0.0064 -0.488156,-0.01316 -0.0169,-0.0069 -0.03071,-0.02387 -0.03071,-0.03839 0,-0.05015 0.0535,-0.335923 0.113537,-0.606631 0.151275,-0.682136 0.292156,-1.046447 0.562202,-1.456241 0.08139,-0.123509 0.149003,-0.203306 0.314285,-0.369132 0.285027,-0.285971 0.503534,-0.436259 0.815055,-0.560011 0.184595,-0.07332 0.34786,-0.122067 0.489802,-0.145897 0.04386,-0.0074 0.07688,-0.01217 0.09873,-0.01263 z m -4.262864,5.5e-4 c 0.07804,-0.0087 0.403026,0.07149 0.607178,0.155222 0.461678,0.189342 0.80373,0.476405 1.149636,0.964246 0.05293,0.07465 0.109817,0.163115 0.126152,0.196907 l 0.02962,0.06143 -0.08886,0.232011 c -0.170342,0.444764 -0.281662,0.898881 -0.340063,1.386034 -0.0242,0.201958 -0.03944,0.218686 -0.151384,0.167839 -0.176906,-0.08035 -0.320126,-0.431202 -0.365294,-0.894039 -0.05811,-0.595505 -0.07933,-0.719315 -0.170579,-1.002092 -0.136807,-0.424005 -0.350527,-0.773539 -0.674643,-1.103013 -0.07652,-0.07777 -0.138768,-0.147754 -0.138768,-0.155223 0,-0.0051 0.0058,-0.008 0.017,-0.0094 z" /><g
       id="g60936"
       transform="matrix(1.7092039,0,0,1.8458392,57.498557,-71.020418)"
       style="stroke-width:0.562997"><path
         id="path60877"
         style="font-weight:bold;font-size:2.66391px;font-family:Sahel;-inkscape-font-specification:'Sahel, Bold';text-align:center;direction:rtl;text-anchor:middle;fill:#cccccc;fill-rule:evenodd;stroke-width:0.562997"
         d="m -77.147512,66.460661 c -0.006,4.09e-4 -0.01308,0.0018 -0.02092,0.0041 l -1.37259,0.514504 -0.04418,0.245333 1.431887,-0.525549 0.03314,-0.18836 c 0.0037,-0.02337 0.0016,-0.03804 -0.0058,-0.04418 -0.0046,-0.0046 -0.01161,-0.0065 -0.02151,-0.0059 z m 7.722197,0.35056 c -0.01637,0.0011 -0.03967,0.01193 -0.06919,0.03314 l -0.440672,0.290097 c 0.05904,0.356681 0.09834,0.728782 0.118016,1.11621 0.02094,0.387429 0.03194,0.831825 0.03314,1.333639 0.09102,-0.0012 0.162802,-0.01125 0.215684,-0.02964 0.05411,-0.01968 0.09605,-0.0548 0.125574,-0.105232 0.06519,-0.113154 0.09767,-0.529762 0.09767,-1.250504 0,-0.33331 -0.01204,-0.767291 -0.03663,-1.301082 -0.0025,-0.05042 -0.01243,-0.07873 -0.02964,-0.08488 -0.004,-0.0018 -0.0085,-0.0021 -0.01395,-0.0018 z m -10.983041,0.0018 c -0.01428,0.0011 -0.03457,0.01103 -0.06163,0.02964 l -0.41916,0.278471 c 0.06766,0.281656 0.103298,0.702512 0.106965,1.262132 0.0012,0.08118 0.0028,0.149809 0.004,0.206382 0.0012,0.05535 0.0039,0.117743 0.0075,0.186616 0.0049,0.06887 0.01069,0.12702 0.01802,0.174989 0.0074,0.04797 0.01735,0.09988 0.02965,0.155224 0.0123,0.05411 0.02747,0.09972 0.04592,0.136619 0.01846,0.03691 0.03994,0.07517 0.06453,0.114528 0.02583,0.03813 0.05573,0.069 0.08894,0.0936 0.03445,0.0246 0.07272,0.04717 0.114527,0.06686 0.04305,0.01968 0.09123,0.03434 0.14534,0.04418 0.05411,0.0085 0.113869,0.01279 0.179059,0.01279 h 0.06279 0.4273 0.427299 0.42788 0.193012 c 0.253366,0 0.466656,-0.04876 0.640077,-0.145921 0.173425,-0.09717 0.278785,-0.230244 0.315678,-0.399975 0.28064,0.351988 0.570083,0.533644 0.867969,0.545315 3.92e-4,1.4e-5 7.71e-4,-1.5e-5 0.0011,0 0.0027,3.05e-4 0.0053,5.81e-4 0.0081,5.81e-4 h 0.47032 0.427881 0.427299 0.0564 c 0.252136,0 0.45237,-0.09487 0.599963,-0.284285 0.104546,0.18941 0.259105,0.284285 0.464506,0.284285 0.163581,0 0.307213,-0.09854 0.430206,-0.295331 0.110689,0.196789 0.263714,0.295331 0.459274,0.295331 0.16727,0 0.309293,-0.09539 0.426136,-0.286028 0.108236,0.190639 0.277529,0.286028 0.507527,0.286028 h 0.05523 0.427299 0.427298 0.427881 0.117434 c 0.169732,0 0.315933,-0.04194 0.438927,-0.125574 0.12299,-0.08363 0.214714,-0.195745 0.274983,-0.337188 0.0615,-0.142673 0.09244,-0.306758 0.09244,-0.491249 0,-0.265665 -0.06291,-0.50198 -0.188359,-0.70984 -0.01353,-0.02214 -0.02454,-0.03629 -0.03314,-0.04243 -0.0087,-0.0062 -0.01807,-0.0062 -0.0279,0 -0.0087,0.0062 -0.02063,0.01921 -0.03663,0.04012 l -0.280796,0.358118 c 0.04059,0.09101 0.0694,0.157072 0.08663,0.197662 0.01844,0.04059 0.03788,0.09038 0.05755,0.149409 0.01968,0.05903 0.02966,0.103545 0.02966,0.134294 0,0.05536 -0.03409,0.09362 -0.101734,0.114527 -0.06765,0.0209 -0.15937,0.0314 -0.274983,0.0314 h -0.15406 -0.427881 -0.427298 -0.4273 -0.05348 c -0.220157,0 -0.337544,-0.09487 -0.352304,-0.284285 l -0.02035,-0.291261 h -0.274983 l -0.0221,0.293586 c -0.01476,0.186951 -0.103849,0.280215 -0.267426,0.280215 -0.174648,0 -0.272162,-0.08805 -0.291842,-0.263937 l -0.02907,-0.263937 h -0.256379 l -0.02441,0.274983 c -0.01599,0.167271 -0.10926,0.251147 -0.280214,0.251147 -0.186949,0 -0.289671,-0.08805 -0.308121,-0.263937 l -0.02617,-0.262193 h -0.25638 l -0.02558,0.271495 c -0.01845,0.17219 -0.164139,0.258124 -0.437183,0.258124 h -0.07325 -0.4273 -0.427881 -0.445902 c -0.158661,0 -0.41807,-0.164533 -0.77844,-0.494156 -0.277964,-0.261975 -0.50592,-0.471084 -0.68426,-0.627287 l 0.94064,-0.32091 0.0686,-0.466831 c 0.0048,-0.0357 0.0038,-0.05718 -0.0035,-0.06453 -0.0062,-0.0087 -0.02344,-0.0081 -0.05174,0.0017 l -1.419097,0.499968 -0.113947,0.551711 c 0.293954,0.210315 0.482609,0.34867 0.566243,0.41509 0.190641,0.150049 0.286029,0.254827 0.286029,0.315097 0,0.07134 -0.05609,0.121119 -0.168013,0.149409 -0.110688,0.02706 -0.277349,0.04069 -0.499968,0.04069 h -0.193012 -0.42788 -0.427299 -0.463925 c -0.04551,0 -0.08378,-0.0042 -0.114527,-0.01279 -0.03075,-0.0098 -0.05642,-0.02978 -0.07732,-0.0593 -0.01968,-0.03075 -0.03544,-0.05956 -0.04651,-0.08662 -0.01102,-0.02829 -0.01943,-0.07705 -0.02558,-0.145922 -0.0049,-0.07011 -0.0081,-0.130895 -0.0093,-0.182547 -0.0012,-0.05166 -0.0029,-0.13341 -0.004,-0.245333 -0.0025,-0.530103 -0.01295,-0.943045 -0.0314,-1.239458 -0.0037,-0.06027 -0.01205,-0.09539 -0.02558,-0.105221 -0.0038,-0.003 -0.0092,-0.0046 -0.01569,-0.0041 z m 6.53099,0.125574 -0.269169,0.267425 0.269169,0.269751 0.267426,-0.269751 z m 3.196895,0.14941 -0.304632,0.306376 0.304632,0.304632 0.305795,-0.304632 z m -3.501527,0.298818 -0.267425,0.26975 0.267425,0.267426 0.269752,-0.267426 z m 0.60694,0 -0.26917,0.26975 0.26917,0.267426 0.268006,-0.267426 z m 5.282812,0.113946 c -0.02226,-5.16e-4 -0.0394,0.01396 -0.05115,0.04302 l -0.195337,0.492411 c 0.205399,0.135292 0.387235,0.271077 0.545897,0.406371 0.158661,0.135296 0.238357,0.236408 0.238357,0.30405 0,0.04182 -0.05139,0.07642 -0.15348,0.103477 -0.100856,0.02706 -0.241266,0.04069 -0.422065,0.04069 -0.120532,0 -0.212254,-0.01211 -0.274984,-0.03546 -0.06146,-0.02459 -0.09504,-0.06705 -0.09999,-0.127318 -0.0037,-0.0369 -0.0043,-0.06043 -0.0018,-0.07151 l -0.250565,-0.02441 c -0.03689,0.127912 -0.05581,0.24009 -0.05581,0.336026 0,0.403419 0.222232,0.605194 0.666238,0.605194 0.305024,0 0.535102,-0.0676 0.690074,-0.202893 0.1562,-0.135295 0.234288,-0.334433 0.234288,-0.597638 0,-0.227539 -0.0676,-0.441409 -0.202895,-0.640658 -0.134063,-0.199251 -0.335839,-0.399931 -0.605195,-0.60287 -0.02367,-0.01829 -0.0443,-0.02808 -0.06163,-0.02849 z m -13.691013,0.323817 c -0.03773,0.0017 -0.07156,0.02157 -0.10116,0.06046 -0.279195,0.35791 -0.418579,0.687559 -0.418579,0.988892 0,0.218929 0.05866,0.389252 0.176733,0.511015 0.118075,0.120534 0.286855,0.180802 0.505783,0.180802 0.20909,0 0.375232,-0.07229 0.498225,-0.217427 0.122994,-0.146363 0.184292,-0.332447 0.184292,-0.557524 0,-0.108236 -0.02199,-0.213013 -0.06627,-0.315098 -0.04304,-0.103308 -0.102285,-0.195034 -0.177316,-0.274982 -0.07379,-0.08117 -0.157086,-0.152955 -0.250565,-0.215685 -0.09348,-0.06273 -0.19253,-0.113612 -0.297074,-0.151734 -0.01883,-0.0069 -0.03691,-0.0095 -0.05407,-0.0088 z m 0.02791,0.599382 c 0.05289,0.01968 0.09533,0.03647 0.127317,0.05 0.03197,0.0123 0.07391,0.03063 0.125575,0.05523 0.05166,0.0246 0.09198,0.04763 0.121503,0.06976 0.02952,0.02091 0.05577,0.04606 0.07791,0.07558 0.02337,0.02952 0.03489,0.05994 0.03489,0.09069 0,0.05903 -0.03248,0.10413 -0.09767,0.134875 -0.06518,0.02952 -0.15427,0.04418 -0.267425,0.04418 -0.225078,0 -0.337769,-0.04663 -0.337769,-0.140108 0,-0.06518 0.07179,-0.192029 0.215683,-0.380209 z" /><path
         id="path60829"
         style="font-weight:bold;font-size:2.66391px;font-family:Sahel;-inkscape-font-specification:'Sahel, Bold';text-align:center;direction:rtl;text-anchor:middle;fill:#cccccc;fill-rule:evenodd;stroke-width:0.562997"
         d="m -80.970145,70.128751 c -0.01455,0.001 -0.03526,0.0106 -0.06149,0.02946 l -0.391707,0.257866 c 0.05248,0.317049 0.08741,0.647805 0.104903,0.992187 0.01861,0.344382 0.02839,0.739401 0.02946,1.185457 0.08091,-0.0011 0.144712,-0.01 0.191719,-0.02635 0.0481,-0.01749 0.08538,-0.04871 0.111621,-0.09353 0.05795,-0.100581 0.08682,-0.470901 0.08682,-1.11156 0,-0.296278 -0.01069,-0.682037 -0.03256,-1.156519 -0.0022,-0.04482 -0.01105,-0.06998 -0.02635,-0.07545 -0.0036,-0.0016 -0.0076,-0.0019 -0.0124,-0.0016 z m 3.91604,0.113171 -0.239262,0.237712 0.239262,0.239778 0.237712,-0.239778 z m 6.607349,0.325045 -0.270268,0.271818 0.270268,0.270784 0.272335,-0.270784 z m -3.016354,0.01447 -0.252697,0.251148 0.252697,0.252181 0.252698,-0.252181 z m 0.531234,0 -0.252181,0.251148 0.252181,0.252181 0.252698,-0.252181 z m -9.144145,0.04444 -0.270784,0.272335 0.270784,0.270267 0.271819,-0.270267 z m 4.751132,0.01447 -0.237712,0.239779 0.237712,0.237712 0.239778,-0.237712 z m 0.539502,0 -0.239262,0.239779 0.239262,0.237712 0.237711,-0.237712 z m 8.96276,0.441317 c -0.0786,0.0022 -0.162494,0.02149 -0.251664,0.05736 -0.09402,0.03827 -0.183899,0.08812 -0.270268,0.149345 -0.08527,0.06013 -0.171954,0.130458 -0.259416,0.211356 -0.08637,0.08091 -0.163664,0.161066 -0.232544,0.239779 -0.06778,0.07872 -0.131646,0.158363 -0.190686,0.239262 -0.109333,-0.01421 -0.173596,-0.09855 -0.193269,-0.252698 l -0.03462,-0.257349 h -0.234094 l -0.03152,0.262517 c -0.02065,0.165195 -0.134072,0.248104 -0.340547,0.24908 h -0.0036 -0.02739 c -0.09402,0 -0.162973,-0.02001 -0.206706,-0.06046 -0.04373,-0.04045 -0.07123,-0.105232 -0.08217,-0.193787 l -0.02946,-0.257349 h -0.244429 l -0.02791,0.262517 c -0.01749,0.166178 -0.133957,0.24908 -0.349332,0.24908 h -0.135393 -0.06563 c -0.125726,0 -0.243562,-0.03865 -0.353983,-0.116272 0.192416,-0.18039 0.288354,-0.321098 0.288354,-0.421679 0,-0.19351 -0.190505,-0.290422 -0.572058,-0.290422 -0.295184,0 -0.517423,0.04614 -0.666109,0.137976 v 0.280603 c 0.279878,0.02624 0.467642,0.12172 0.562756,0.286804 -0.109327,0.082 -0.307781,0.12299 -0.595312,0.12299 h -0.179834 c -0.09621,0 -0.167047,-0.02001 -0.211874,-0.06046 -0.04373,-0.04045 -0.07072,-0.105231 -0.08165,-0.193787 l -0.02946,-0.257349 h -0.234611 l -0.0279,0.262517 c -0.0087,0.08309 -0.04928,0.145005 -0.12144,0.186552 -0.06662,0.03895 -0.157152,0.06009 -0.271818,0.06253 h -0.02325 -0.147278 -0.72347 l -0.141077,0.479041 c -0.0164,0.05576 0.0078,0.08744 0.07235,0.09508 0.32033,0.0339 0.480591,0.0758 0.480591,0.126091 0,0.02295 -0.01909,0.04811 -0.05736,0.07545 -0.03827,0.02733 -0.08904,0.05295 -0.152445,0.077 -0.06341,0.02405 -0.144028,0.0436 -0.241329,0.05891 -0.09621,0.0164 -0.196379,0.02481 -0.30024,0.02481 -0.45043,0 -0.675411,-0.182158 -0.675411,-0.54622 0,-0.133379 0.02841,-0.29221 0.08527,-0.476973 l -0.231511,-0.0739 c -0.120259,0.262386 -0.18035,0.519559 -0.18035,0.771013 0,0.286438 0.08622,0.506273 0.257865,0.660425 0.172739,0.155245 0.412643,0.23306 0.719853,0.23306 0.13338,0 0.26288,-0.0163 0.388607,-0.04909 0.126819,-0.0328 0.241397,-0.0794 0.344165,-0.139527 0.102771,-0.05904 0.185216,-0.135879 0.24753,-0.230993 0.06341,-0.09512 0.0956,-0.199459 0.0956,-0.313159 0,-0.06887 -0.01635,-0.124335 -0.04806,-0.165882 h 0.05943 0.13901 0.08733 c 0.002,0 0.0035,-0.0017 0.0052,-0.0047 0.08413,-0.0087 0.161903,-0.02951 0.233578,-0.06253 0.09731,-0.04592 0.175578,-0.112982 0.234611,-0.201538 0.05685,0.09402 0.119282,0.161998 0.187068,0.204638 0.06778,0.04264 0.153945,0.06408 0.258899,0.06408 h 0.13746 c 0.319236,0 0.580582,-0.09971 0.783931,-0.29869 0.09184,0.106052 0.182686,0.182954 0.272335,0.229961 0.08965,0.04592 0.196794,0.06873 0.321427,0.06873 h 0.07028 0.127641 c 0.213189,0 0.378994,-0.08942 0.498161,-0.268717 0.05685,0.09402 0.119282,0.161998 0.187069,0.204638 0.06778,0.04264 0.154461,0.06408 0.259415,0.06408 h 0.05013 c 0.174925,0 0.334729,-0.08759 0.479041,-0.262516 0.155245,0.174924 0.344836,0.262516 0.568958,0.262516 h 0.365352 c 0.161804,0 0.314177,-0.02098 0.456303,-0.06253 0.142126,-0.04264 0.266479,-0.10273 0.37362,-0.180351 0.108238,-0.07762 0.193485,-0.175906 0.255799,-0.295072 0.06231,-0.119168 0.09353,-0.251927 0.09353,-0.398426 0.0011,-0.178204 -0.04876,-0.317024 -0.149345,-0.416512 -0.100582,-0.100582 -0.235686,-0.150895 -0.405143,-0.150895 -0.0052,0 -0.01026,-1.49e-4 -0.0155,0 z m -8.423258,0.03307 c -0.0098,0 -0.02425,0.01206 -0.04393,0.03721 l -0.249598,0.316776 c 0.01968,0.03717 0.04158,0.07771 0.06563,0.12144 0.02514,0.04373 0.04287,0.07495 0.05271,0.09353 0.01093,0.01859 0.02026,0.03951 0.02791,0.06356 0.0076,0.02405 0.01137,0.04784 0.01137,0.0708 0,0.05356 -0.0219,0.09411 -0.06563,0.12144 -0.04373,0.02624 -0.09964,0.03927 -0.167431,0.03927 -0.153058,0 -0.238305,-0.07827 -0.255798,-0.234611 l -0.02584,-0.234611 h -0.22841 l -0.02119,0.244429 c -0.01421,0.148686 -0.09712,0.223243 -0.24908,0.223243 -0.166177,0 -0.257485,-0.07827 -0.273885,-0.234611 l -0.02325,-0.233061 H -77.9202 l -0.02274,0.241329 c -0.0164,0.153058 -0.145899,0.229443 -0.388607,0.229443 h -0.09457 c -0.0962,0 -0.167047,-0.02001 -0.211873,-0.06046 -0.04373,-0.04045 -0.07072,-0.105231 -0.08165,-0.193787 l -0.02946,-0.257349 h -0.234611 l -0.0279,0.262517 c -0.0087,0.08309 -0.04928,0.145005 -0.12144,0.186552 -0.07106,0.04155 -0.169346,0.06253 -0.295072,0.06253 h -0.150379 -0.03307 c -0.111512,0 -0.202821,-0.04614 -0.273886,-0.137976 -0.03498,-0.04592 -0.08061,-0.108296 -0.137459,-0.188102 -0.05577,-0.08088 -0.08562,-0.123758 -0.08888,-0.128158 l -0.307992,0.4377 c 0.108233,0.135564 0.18416,0.238535 0.227893,0.308508 0.04483,0.06887 0.06718,0.123361 0.06718,0.163814 0,0.107142 -0.07873,0.228296 -0.236162,0.362769 -0.156338,0.134472 -0.345473,0.247162 -0.567407,0.338997 -0.0066,0.0022 -0.02006,0.0073 -0.04082,0.01499 -0.0208,0.0088 -0.03481,0.01482 -0.04134,0.01809 -0.0066,0.0033 -0.01634,0.0089 -0.02946,0.01654 -0.01315,0.0077 -0.02012,0.01417 -0.02119,0.01964 -0.0011,0.0055 -0.0016,0.0129 -0.0016,0.02274 0,0.0098 0.0056,0.01962 0.01654,0.02946 0.0098,0.0098 0.02425,0.0215 0.04393,0.03462 0.01858,0.01312 0.04237,0.02804 0.0708,0.04444 l 0.178801,0.09819 c 0.04046,0.02187 0.08517,0.03536 0.134359,0.04082 0.0492,0.0055 0.09254,-5.93e-4 0.129707,-0.01809 0.07106,-0.03608 0.139496,-0.08124 0.206189,-0.135909 0.06779,-0.05357 0.133938,-0.118809 0.198438,-0.195337 0.0645,-0.07653 0.119961,-0.166407 0.165881,-0.270268 0.04591,-0.103861 0.07668,-0.214265 0.09198,-0.331246 0.05357,0.03936 0.122007,0.05891 0.206189,0.05891 h 0.04134 0.142111 c 0.12026,0 0.228776,-0.02235 0.326078,-0.06718 0.0973,-0.04592 0.175578,-0.112982 0.234611,-0.201538 0.05685,0.09402 0.119282,0.161998 0.187069,0.204638 0.06778,0.04264 0.153943,0.06408 0.258899,0.06408 h 0.0832 c 0.224121,0 0.402107,-0.08433 0.5333,-0.252698 0.09293,0.168366 0.232206,0.252698 0.418063,0.252698 0.142126,0 0.267911,-0.08759 0.377238,-0.262516 0.0984,0.174924 0.232525,0.262516 0.403076,0.262516 0.08965,0 0.172611,-0.02562 0.248047,-0.077 0.07543,-0.05138 0.136438,-0.117988 0.183451,-0.199987 0.04701,-0.082 0.08286,-0.171476 0.108004,-0.267684 0.02624,-0.09621 0.03979,-0.19169 0.03979,-0.286805 0,-0.220841 -0.05592,-0.420666 -0.167432,-0.599963 -0.01749,-0.02624 -0.03196,-0.03927 -0.04289,-0.03927 z m -5.702495,0.347266 -0.328145,0.462504 c 0.218654,0.267851 0.328145,0.438346 0.328145,0.511596 0,0.107141 -0.07873,0.228296 -0.236161,0.362769 -0.156338,0.134472 -0.345472,0.247162 -0.567407,0.338997 -0.0066,0.0022 -0.02006,0.0073 -0.04082,0.01499 -0.0208,0.0088 -0.03481,0.01482 -0.04134,0.01809 -0.0066,0.0033 -0.01633,0.0089 -0.02945,0.01654 -0.01315,0.0077 -0.02012,0.01417 -0.02119,0.01964 -0.0011,0.0055 -0.0016,0.0129 -0.0016,0.02274 0,0.0098 0.0056,0.01962 0.01654,0.02946 0.0098,0.0098 0.02424,0.0215 0.04393,0.03462 0.01858,0.01312 0.04237,0.02804 0.0708,0.04444 l 0.178801,0.09819 c 0.04046,0.02187 0.08517,0.03536 0.134358,0.04082 0.0492,0.0055 0.09253,-5.93e-4 0.129708,-0.01809 0.07872,-0.03936 0.155101,-0.09105 0.229444,-0.155546 0.07543,-0.0645 0.147645,-0.142776 0.216524,-0.234611 0.06887,-0.09074 0.123818,-0.198802 0.165364,-0.324528 0.04264,-0.124634 0.06408,-0.256022 0.06408,-0.393775 0,-0.09402 -0.0079,-0.185329 -0.02429,-0.273885 -0.0164,-0.08856 -0.03647,-0.163056 -0.05943,-0.224276 -0.02296,-0.06231 -0.04994,-0.121947 -0.08165,-0.1788 -0.03061,-0.05685 -0.05766,-0.100188 -0.08062,-0.129708 -0.02187,-0.02952 -0.04377,-0.05702 -0.06563,-0.08217 z m 13.997079,0.118339 c 0.10823,0 0.195822,0.02047 0.262516,0.06201 0.06669,0.04045 0.100252,0.09963 0.100252,0.17725 0,0.02515 -0.0075,0.04704 -0.0217,0.06563 -0.01421,0.01749 -0.03703,0.03242 -0.06873,0.04444 -0.03171,0.01093 -0.06527,0.02026 -0.100253,0.02791 -0.03498,0.0066 -0.08106,0.0112 -0.139009,0.01447 -0.05685,0.0033 -0.109514,0.0057 -0.157613,0.0067 -0.04701,0.0011 -0.108017,0.0015 -0.183452,0.0015 h -0.47749 c 0.132286,-0.126818 0.266934,-0.2251 0.403593,-0.295072 0.13666,-0.06997 0.263815,-0.104903 0.381889,-0.104903 z m -11.525912,1.262455 -0.252697,0.251147 0.252697,0.252698 0.252181,-0.252698 z m 0.531234,0 -0.252698,0.251147 0.252698,0.252698 0.252181,-0.252698 z" /></g></g></svg>
