<?xml version="1.0" encoding="UTF-8" standalone="no"?>
<!-- Created with Inkscape (http://www.inkscape.org/) -->

<svg
   width="20mm"
   height="25mm"
   viewBox="0 0 20 24.999999"
   version="1.1"
   id="svg1567"
   xml:space="preserve"
   inkscape:version="1.2.1 (9c6d41e, 2022-07-14)"
   sodipodi:docname="sutech.svg"
   inkscape:export-filename="kanoon_logo.svg"
   inkscape:export-xdpi="300"
   inkscape:export-ydpi="300"
   xmlns:inkscape="http://www.inkscape.org/namespaces/inkscape"
   xmlns:sodipodi="http://sodipodi.sourceforge.net/DTD/sodipodi-0.dtd"
   xmlns="http://www.w3.org/2000/svg"
   xmlns:svg="http://www.w3.org/2000/svg"><sodipodi:namedview
     id="namedview1569"
     pagecolor="#ffffff"
     bordercolor="#000000"
     borderopacity="0.25"
     inkscape:showpageshadow="2"
     inkscape:pageopacity="0.0"
     inkscape:pagecheckerboard="0"
     inkscape:deskcolor="#d1d1d1"
     inkscape:document-units="mm"
     showgrid="false"
     inkscape:zoom="4.2835116"
     inkscape:cx="51.943363"
     inkscape:cy="71.203262"
     inkscape:window-width="1920"
     inkscape:window-height="1024"
     inkscape:window-x="0"
     inkscape:window-y="0"
     inkscape:window-maximized="1"
     inkscape:current-layer="layer1" /><defs
     id="defs1564" /><g
     inkscape:label="Layer 1"
     inkscape:groupmode="layer"
     id="layer1"
     transform="translate(84.916674,-50.137206)"><g
       id="g61358"
       transform="translate(0,0.49824074)"><path
         id="path91018"
         style="fill:#cccccc;fill-opacity:1;stroke-width:0.304554;stroke-linecap:round;stroke-linejoin:round"
         d="m -74.916396,50.200477 a 8.1610715,8.1610715 0 0 0 -8.161342,8.16134 8.1610715,8.1610715 0 0 0 8.161342,8.160783 8.1610715,8.1610715 0 0 0 8.160781,-8.160783 8.1610715,8.1610715 0 0 0 -8.160781,-8.16134 z m -0.04252,0.509174 c 0.21843,-0.0021 0.432941,0.0032 0.607652,0.01734 0.924843,0.07476 1.917689,0.354704 2.700303,0.761523 0.484212,0.251704 0.503357,0.262649 0.781667,0.449306 0.612286,0.410645 1.120531,0.864061 1.577881,1.407223 0.628467,0.746387 1.097036,1.566543 1.403868,2.457468 0.273623,0.794497 0.391163,1.406011 0.434197,2.258833 0.01791,0.354913 0.0037,0.82892 -0.03693,1.239365 -0.02495,0.251716 -0.118586,0.828004 -0.166741,1.026741 -0.01904,0.07854 -0.03469,0.155211 -0.03469,0.170659 0,0.01545 -0.01136,0.04328 -0.02574,0.06155 -0.01437,0.01827 -0.03052,0.05634 -0.0358,0.08449 -0.0053,0.02814 -0.02704,0.08579 -0.04811,0.128133 -0.02108,0.04235 -0.05589,0.126524 -0.07721,0.187442 -0.205291,0.586695 -0.550756,1.243575 -0.99317,1.886744 -0.378112,0.549693 -1.003006,1.205677 -1.536477,1.613134 -0.421553,0.321975 -0.851275,0.5934 -1.229292,0.77663 -0.465181,0.225479 -0.718962,0.327564 -1.162709,0.467211 -0.406956,0.128065 -0.951962,0.235968 -1.426249,0.282563 -0.260656,0.02561 -0.904568,0.03665 -1.169982,0.02014 -0.46245,-0.02876 -1.010748,-0.12301 -1.481083,-0.255148 -0.124926,-0.0351 -0.459686,-0.144362 -0.553937,-0.180729 -0.230931,-0.0891 -0.469822,-0.187335 -0.496305,-0.204229 -0.01636,-0.0104 -0.05766,-0.03022 -0.09177,-0.04364 -0.09413,-0.03702 -0.5367,-0.274489 -0.71844,-0.385519 -0.173876,-0.106229 -0.474767,-0.311321 -0.59758,-0.407339 -0.272785,-0.213272 -0.375062,-0.297393 -0.50302,-0.412936 -0.584142,-0.52746 -1.112061,-1.182584 -1.50682,-1.869397 -0.310355,-0.539964 -0.497766,-0.94083 -0.754252,-1.673562 -0.09393,-0.262024 -0.09408,-0.260786 -0.129811,-0.4314 -0.0081,-0.0529 -0.01974,-0.133361 -0.0263,-0.17905 -0.0067,-0.04569 -0.02502,-0.158174 -0.04084,-0.249553 -0.123114,-0.711014 -0.120621,-1.857884 0.0056,-2.591195 0.254805,-1.479479 0.874442,-2.781578 1.857089,-3.902179 0.471059,-0.537191 1.021981,-1.000607 1.73567,-1.45982 0.107269,-0.06902 0.757557,-0.391865 0.934419,-0.463852 0.06853,-0.0279 0.152616,-0.06361 0.186884,-0.07946 0.2614,-0.120862 0.996138,-0.330487 1.375331,-0.392232 0.115413,-0.01879 0.245063,-0.04022 0.28816,-0.04811 0.216095,-0.03967 0.59051,-0.06377 0.954563,-0.06714 z m -1.279093,0.997088 c -0.02454,-0.0047 -1.125299,0.347363 -1.404985,0.449303 l -0.05875,0.02127 v 0.0856 c 1.11e-4,0.07957 0.04739,0.69556 0.08449,1.101719 0.0089,0.09787 0.01266,0.193356 0.0078,0.212623 -0.0062,0.02513 -0.04516,0.05815 -0.137086,0.115823 -0.215395,0.135168 -0.449139,0.305214 -0.661926,0.482318 -0.0688,0.05726 -0.131775,0.104074 -0.139883,0.104074 -0.0081,0 -0.087,-0.03201 -0.175693,-0.07106 -0.283331,-0.124777 -0.864643,-0.385946 -0.952325,-0.428042 -0.138376,-0.06643 -0.132742,-0.06944 -0.303825,0.170657 -0.08274,0.116127 -0.166815,0.232411 -0.186885,0.259063 -0.112664,0.14961 -0.516604,0.717072 -0.542186,0.761524 -0.02681,0.04658 -0.02803,0.05549 -0.01008,0.07777 0.01112,0.01379 0.211788,0.251358 0.445947,0.528199 0.247303,0.292382 0.425804,0.514987 0.425804,0.530996 0,0.01516 -0.0084,0.04435 -0.01902,0.0649 -0.04763,0.09317 -0.211379,0.571515 -0.266339,0.778309 -0.04184,0.157429 -0.06906,0.235131 -0.08785,0.250672 -0.01498,0.0124 -0.110309,0.04201 -0.211504,0.06545 -0.243807,0.05649 -0.72446,0.164173 -0.931063,0.208706 -0.145049,0.03127 -0.167651,0.04022 -0.182967,0.0705 -0.02532,0.05005 -0.02642,1.55428 -0.001,1.575084 0.0096,0.0078 0.05213,0.02426 0.094,0.03637 0.07059,0.02042 0.173625,0.04469 0.893014,0.209265 0.281282,0.06435 0.330578,0.07947 0.345791,0.104076 0.0053,0.0086 0.02112,0.06004 0.03469,0.114704 0.06091,0.245423 0.147449,0.53012 0.222694,0.73075 0.04493,0.119806 0.08169,0.233827 0.08169,0.252909 0,0.01909 -0.0171,0.05524 -0.03805,0.08056 -0.06009,0.07271 -0.197476,0.231782 -0.481199,0.557296 -0.144683,0.165992 -0.287675,0.332463 -0.317814,0.37041 l -0.05484,0.06939 0.02742,0.047 c 0.01491,0.02592 0.114408,0.169495 0.221016,0.318935 0.233238,0.326942 0.376263,0.530232 0.530436,0.75257 0.06996,0.100896 0.124821,0.166366 0.138764,0.166181 0.01266,-1.66e-4 0.0508,-0.01315 0.08505,-0.0291 0.03427,-0.01594 0.112536,-0.04993 0.173455,-0.07499 0.06091,-0.02506 0.197776,-0.08402 0.304387,-0.130931 0.547213,-0.240808 0.676317,-0.292843 0.706129,-0.285361 0.01698,0.0043 0.08328,0.05302 0.147157,0.108549 0.188642,0.163976 0.368254,0.300824 0.569046,0.433078 0.103713,0.06831 0.194967,0.138249 0.203109,0.155551 0.01439,0.03057 -0.01792,0.436474 -0.07443,0.931062 -0.03307,0.289414 -0.04115,0.46533 -0.02181,0.47728 0.01648,0.01019 0.533198,0.187615 1.110673,0.381602 0.157547,0.05293 0.302189,0.09624 0.32117,0.09624 0.0219,0 0.0445,-0.01388 0.06156,-0.03805 0.01478,-0.02094 0.157646,-0.262455 0.317814,-0.536592 0.160166,-0.274136 0.309216,-0.522918 0.331242,-0.553377 0.03997,-0.05529 0.04067,-0.05583 0.129812,-0.05372 0.04911,0.0012 0.307,0.0059 0.573521,0.01008 0.266523,0.0043 0.489267,0.0082 0.494627,0.0084 0.0053,3.66e-4 0.04362,0.05825 0.08505,0.128693 0.07483,0.127269 0.122166,0.20885 0.425244,0.734107 0.08701,0.150789 0.169114,0.285988 0.182408,0.300468 0.02801,0.03052 0.01103,0.03448 0.356422,-0.08056 0.118032,-0.03931 0.41724,-0.13734 0.664725,-0.218217 0.248279,-0.08113 0.458353,-0.157602 0.468328,-0.170098 0.0106,-0.01326 0.01451,-0.03946 0.01008,-0.06379 -0.0081,-0.04477 -0.03749,-0.381311 -0.06994,-0.803489 -0.01113,-0.144684 -0.02402,-0.310587 -0.0291,-0.368733 -0.01295,-0.1481 -0.0044,-0.169989 0.08673,-0.228289 0.223853,-0.143196 0.567498,-0.399624 0.737465,-0.550581 0.105342,-0.09355 0.08562,-0.09746 0.527079,0.102965 0.559931,0.254203 0.900518,0.399919 0.917633,0.393351 0.01099,-0.0043 0.03898,-0.03348 0.06267,-0.06546 0.08472,-0.114315 0.385559,-0.535865 0.514771,-0.721237 0.07234,-0.103786 0.192673,-0.27127 0.266896,-0.37209 0.07423,-0.100812 0.134825,-0.193724 0.134848,-0.206467 0,-0.01275 -0.01434,-0.04115 -0.03191,-0.06267 -0.164223,-0.201231 -0.547312,-0.656399 -0.678712,-0.806845 -0.192855,-0.220811 -0.187495,-0.191926 -0.08225,-0.464413 0.03825,-0.09899 0.07989,-0.210918 0.09288,-0.248992 0.02883,-0.08451 0.13933,-0.467521 0.152751,-0.529877 0.0053,-0.02481 0.02062,-0.05096 0.03413,-0.05819 0.02348,-0.01257 0.185461,-0.05097 0.796774,-0.188003 0.393883,-0.08828 0.385459,-0.08475 0.39727,-0.151633 0.0053,-0.03046 0.01019,-0.384072 0.0106,-0.785584 l 5.71e-4,-0.72963 -0.03189,-0.02127 c -0.0176,-0.01153 -0.140808,-0.04597 -0.273612,-0.07665 -0.132802,-0.03069 -0.328706,-0.07704 -0.435317,-0.102954 -0.106607,-0.02591 -0.279178,-0.06658 -0.383838,-0.09064 -0.209825,-0.04826 -0.234671,-0.06446 -0.25235,-0.162824 -0.02828,-0.1573 -0.135149,-0.510774 -0.241158,-0.796215 -0.03889,-0.104724 -0.07106,-0.201934 -0.07106,-0.215979 0,-0.02336 0.138768,-0.19334 0.373768,-0.458817 0.09985,-0.112793 0.413204,-0.476781 0.474483,-0.55114 0.02087,-0.02534 0.03805,-0.05714 0.03805,-0.0705 0,-0.01876 -0.278332,-0.426124 -0.50246,-0.735226 -0.01372,-0.01893 -0.09987,-0.140242 -0.191359,-0.269695 -0.09151,-0.129454 -0.177321,-0.246946 -0.190802,-0.260742 -0.02363,-0.02416 -0.03012,-0.0229 -0.175692,0.03972 -0.08308,0.03574 -0.21828,0.09554 -0.300469,0.132608 -0.08219,0.03707 -0.152321,0.06714 -0.155549,0.06714 -0.0032,0 -0.14704,0.06313 -0.319494,0.139884 -0.232616,0.103537 -0.322074,0.137305 -0.34747,0.130931 -0.01883,-0.0047 -0.06352,-0.03518 -0.09905,-0.0677 -0.161205,-0.147651 -0.474105,-0.384794 -0.729071,-0.552259 -0.116284,-0.07638 -0.115344,0.01235 -0.0073,-1.055838 0.03403,-0.336274 0.03894,-0.416498 0.02574,-0.429721 -0.0052,-0.0052 -0.08933,-0.03619 -0.186884,-0.06882 -0.09755,-0.03263 -0.418062,-0.140779 -0.712285,-0.2406 -0.294226,-0.09982 -0.544519,-0.181847 -0.555617,-0.181847 -0.03573,0 -0.02936,-0.0099 -0.453222,0.720119 -0.02874,0.0495 -0.08306,0.14286 -0.120858,0.207586 -0.0378,0.06473 -0.08524,0.147496 -0.105753,0.183526 -0.02051,0.03603 -0.0499,0.07198 -0.06489,0.08002 -0.01928,0.01029 -0.08088,0.0099 -0.210385,-0.0017 -0.118964,-0.0106 -0.313062,-0.01381 -0.552258,-0.0084 -0.336424,0.0076 -0.370629,0.0063 -0.389996,-0.01511 -0.01167,-0.01299 -0.152681,-0.254281 -0.312777,-0.536033 -0.348927,-0.614072 -0.361583,-0.635195 -0.393352,-0.641223 z m 1.201317,2.45131 c 0.07228,-10e-4 0.144867,-1.77e-4 0.217659,0.0023 0.48342,0.01605 0.94671,0.114107 1.368057,0.289277 0.440668,0.183203 0.828919,0.421123 1.169982,0.717321 0.225109,0.195496 0.547551,0.573059 0.720118,0.843216 0.545635,0.854202 0.773531,1.790875 0.678154,2.786472 -0.08132,0.848843 -0.420215,1.653832 -0.974707,2.315345 -0.149605,0.178482 -0.430248,0.455912 -0.581354,0.57464 -0.279834,0.219883 -0.71863,0.470589 -1.060872,0.606534 -0.120395,0.04782 -0.226365,0.079 -0.650737,0.189682 -0.215527,0.05621 -0.411947,0.07824 -0.747535,0.08337 -0.182758,0.0028 -0.38884,-5.57e-4 -0.458257,-0.0073 -0.271108,-0.02629 -0.619001,-0.09733 -0.857204,-0.175134 -0.267877,-0.0875 -0.647792,-0.259007 -0.823632,-0.37153 -0.400989,-0.256595 -0.531683,-0.358771 -0.788941,-0.616604 -0.26099,-0.261575 -0.429391,-0.469929 -0.603176,-0.746976 -0.409391,-0.652653 -0.619372,-1.330528 -0.654654,-2.113355 -0.02681,-0.595024 0.05694,-1.115605 0.274173,-1.708252 0.05948,-0.162274 0.272029,-0.590149 0.368172,-0.740822 0.270037,-0.423201 0.679017,-0.865625 1.072064,-1.159351 0.220079,-0.164466 0.61721,-0.382564 0.89637,-0.492948 0.439875,-0.173934 0.930368,-0.268064 1.43632,-0.275849 z m 0.07274,0.716762 c -0.02554,-0.0014 -0.0521,0.0048 -0.06435,0.01959 -0.01239,0.01494 -0.0129,0.105895 -0.0023,0.377685 0.0077,0.196696 0.01789,0.482212 0.02294,0.634511 0.0087,0.263899 0.02075,0.343503 0.04811,0.316134 0.0067,-0.0067 0.01887,-0.165025 0.02686,-0.351387 0.008,-0.18636 0.02071,-0.474817 0.02798,-0.641223 0.0088,-0.203277 0.0082,-0.311358 -10e-4,-0.329006 -0.0084,-0.01588 -0.03264,-0.02492 -0.05819,-0.0263 z m 0.964632,0.194157 c -0.02578,0.0033 -0.04544,0.03496 -0.07946,0.107432 -0.02785,0.05935 -0.05092,0.113024 -0.05092,0.118621 0,0.0056 -0.05667,0.132953 -0.125896,0.283124 -0.128222,0.278151 -0.303266,0.688334 -0.303266,0.710606 0,0.0069 0.0094,0.01231 0.02014,0.01231 0.01087,0 0.0411,-0.03566 0.06714,-0.07946 0.05225,-0.08779 0.140259,-0.252349 0.232207,-0.433079 0.03292,-0.06473 0.09341,-0.175822 0.134288,-0.247313 0.107183,-0.187472 0.196956,-0.37068 0.196956,-0.401184 0,-0.01451 -0.01536,-0.03639 -0.03413,-0.04869 -0.02398,-0.01571 -0.0416,-0.02439 -0.05708,-0.02237 z m -1.906326,0.001 c -0.0095,10e-4 -0.02014,0.005 -0.03301,0.01231 -0.07386,0.04193 -0.07224,0.05051 0.04364,0.278646 0.05947,0.117056 0.11842,0.228836 0.131491,0.247874 0.01307,0.01903 0.05525,0.09385 0.09344,0.166181 0.03819,0.07234 0.102497,0.193546 0.142681,0.269694 0.09176,0.173882 0.134747,0.242277 0.152193,0.242277 0.0075,0 0.01342,-0.0096 0.01342,-0.02127 0,-0.03308 -0.08323,-0.238852 -0.204229,-0.504698 -0.06065,-0.13326 -0.114404,-0.255007 -0.11918,-0.270254 -0.02542,-0.08109 -0.176923,-0.403305 -0.195278,-0.415172 -0.0076,-0.0049 -0.01577,-0.0067 -0.02519,-0.0056 z m -0.908681,0.691023 c -0.03078,0 -0.07704,0.07279 -0.06547,0.102943 0.0036,0.0098 0.05852,0.0491 0.121978,0.08729 0.116327,0.07 0.161936,0.09547 0.426923,0.238921 0.07996,0.04329 0.22028,0.121054 0.311659,0.172895 0.237381,0.134671 0.31166,0.166271 0.31166,0.132608 0,-0.01965 -0.102153,-0.09774 -0.26354,-0.201991 -0.07996,-0.05166 -0.1826,-0.118819 -0.228289,-0.149395 -0.588465,-0.3938 -0.571603,-0.383279 -0.614927,-0.383279 z m 3.729284,0 c -0.03319,0 -0.08441,0.02977 -0.3581,0.210943 -0.140908,0.09327 -0.338058,0.222873 -0.438114,0.2876 -0.190216,0.123055 -0.33514,0.228598 -0.342994,0.250112 -0.008,0.02187 0.03311,0.01404 0.110228,-0.02127 0.07622,-0.0349 0.253176,-0.131617 0.510853,-0.279765 0.07996,-0.04597 0.201162,-0.11361 0.269695,-0.149956 0.15618,-0.08283 0.294837,-0.172628 0.304386,-0.197514 0.01029,-0.02689 -0.03066,-0.100158 -0.05596,-0.100158 z m -4.178029,0.917073 c -0.127063,3.68e-4 -0.23346,0.0086 -0.289838,0.02462 -0.06269,0.01776 -0.09663,0.06491 -0.09064,0.125336 0.0043,0.04275 0.0138,0.04957 0.239481,0.164503 0.129452,0.06593 0.281964,0.14739 0.339076,0.180728 0.298488,0.174242 0.543025,0.419065 0.645699,0.647379 0.05802,0.129039 0.05092,0.132753 -0.150514,0.08056 -0.511429,-0.13249 -1.015616,-0.132449 -1.628239,0 -0.185253,0.04006 -0.212897,0.05244 -0.207028,0.09177 0.007,0.0466 0.06704,0.08002 0.170658,0.09455 0.05305,0.0075 0.143202,0.02042 0.200314,0.02854 0.242654,0.03446 0.360166,0.09378 0.541067,0.274731 0.301985,0.302083 0.552712,0.677129 0.707809,1.058076 0.111053,0.272773 0.166935,0.528715 0.198073,0.908681 0.04599,0.561181 0.1458,0.925572 0.326768,1.192364 0.103526,0.15261 0.271193,0.268505 0.417411,0.288158 0.04015,0.0054 0.451745,0.0072 0.914837,0.0044 0.814585,-0.0047 0.844263,-0.0055 0.92043,-0.03357 0.213276,-0.07873 0.358247,-0.253151 0.47896,-0.576878 0.09853,-0.264217 0.135473,-0.446675 0.168419,-0.833143 0.03621,-0.424666 0.08019,-0.643126 0.184087,-0.908122 0.160799,-0.410112 0.379988,-0.744886 0.693261,-1.059194 0.250489,-0.251318 0.328042,-0.287615 0.739701,-0.349149 0.104259,-0.01558 0.143862,-0.02791 0.169539,-0.05203 0.06495,-0.06101 0.04875,-0.07184 -0.188003,-0.124217 -0.625729,-0.138475 -1.075999,-0.138575 -1.618729,0 -0.189162,0.04831 -0.202197,0.04007 -0.141561,-0.08952 0.05662,-0.120988 0.114827,-0.203486 0.222694,-0.316136 0.178632,-0.186558 0.342909,-0.297594 0.727393,-0.49015 0.129454,-0.06483 0.246297,-0.127124 0.259622,-0.138764 0.02992,-0.02614 0.03115,-0.08376 0.0028,-0.124218 -0.03536,-0.05049 -0.117621,-0.06455 -0.379923,-0.06379 -0.584114,0.0017 -1.029511,0.103671 -1.512976,0.345792 -0.319721,0.160117 -0.507452,0.321245 -0.600378,0.51421 -0.0535,0.111085 -0.07426,0.127574 -0.155551,0.127574 -0.09344,0 -0.122619,-0.01915 -0.16674,-0.110228 -0.116608,-0.240725 -0.279298,-0.379337 -0.645142,-0.550579 -0.396576,-0.185631 -0.668969,-0.263607 -1.079897,-0.309423 -0.138249,-0.01541 -0.285872,-0.02331 -0.412935,-0.02294 z m 0.468329,0.288159 c 0.09394,-0.0049 0.48584,0.105861 0.734105,0.213182 0.204406,0.08836 0.405635,0.211249 0.500224,0.305505 0.104843,0.104475 0.167453,0.242134 0.132608,0.290956 -0.0056,0.0078 -0.0729,0.05898 -0.149955,0.113586 -0.07705,0.0546 -0.184574,0.139809 -0.238919,0.189681 -0.09887,0.09074 -0.137382,0.107551 -0.166742,0.07218 -0.0086,-0.0104 -0.02195,-0.05553 -0.03021,-0.100158 -0.0082,-0.04463 -0.03619,-0.145841 -0.06211,-0.224932 -0.103255,-0.315193 -0.296272,-0.544408 -0.666961,-0.791739 -0.03994,-0.02665 -0.07273,-0.05303 -0.07274,-0.05875 -1.5e-5,-0.0057 0.0073,-0.0087 0.02071,-0.0096 z m 3.641437,5.6e-4 c 0.01388,6.83e-4 0.02071,0.004 0.02071,0.01008 0,0.0083 -0.03913,0.04172 -0.08673,0.07386 -0.422132,0.285064 -0.618942,0.562391 -0.703333,0.992051 -0.01797,0.09145 -0.04086,0.127615 -0.08002,0.126453 -0.01279,-3.78e-4 -0.08016,-0.04902 -0.149954,-0.107994 -0.06979,-0.05898 -0.181714,-0.144484 -0.248993,-0.190241 -0.144742,-0.09844 -0.155384,-0.125806 -0.09512,-0.248991 0.101031,-0.206509 0.528855,-0.451362 1.027861,-0.588629 0.169233,-0.04656 0.273923,-0.06864 0.315576,-0.06659 z m -1.787706,1.080457 c 0.114598,-7.72e-4 0.184322,0.02296 0.317254,0.0996 0.10204,0.05883 0.286482,0.220757 0.286482,0.25179 0,0.0099 -0.0815,0.0952 -0.181289,0.189121 -0.0998,0.09393 -0.234704,0.229807 -0.299909,0.302148 -0.06521,0.07234 -0.126445,0.136379 -0.135967,0.142121 -0.01029,0.0062 -0.03403,-0.0036 -0.05819,-0.02406 -0.02248,-0.0189 -0.07712,-0.07848 -0.121419,-0.132609 -0.0443,-0.05414 -0.165282,-0.177241 -0.268574,-0.273052 -0.103298,-0.09581 -0.189366,-0.186016 -0.19192,-0.200872 -0.0059,-0.03387 0.0871,-0.120783 0.239479,-0.222694 0.148372,-0.09923 0.211164,-0.121487 0.361457,-0.129811 0.01851,-10e-4 0.03623,-0.0016 0.05259,-0.0017 z m 2.131819,0.122537 c 0.06688,-0.0014 0.03235,0.03883 -0.104638,0.177373 -0.5134,0.519116 -0.78326,1.149059 -0.834823,1.948292 -0.02503,0.388075 -0.07771,0.633733 -0.181848,0.844894 -0.08122,0.1647 -0.139908,0.228697 -0.244516,0.267456 -0.07628,0.02826 -0.102382,0.02937 -0.546663,0.02854 -0.256718,-4.83e-4 -0.480851,-0.0065 -0.497984,-0.01342 -0.01724,-0.007 -0.03133,-0.02435 -0.03133,-0.03916 0,-0.05116 0.05458,-0.342686 0.115822,-0.618844 0.154321,-0.695869 0.298038,-1.067515 0.573521,-1.485559 0.08303,-0.125996 0.152003,-0.207399 0.320613,-0.376564 0.290765,-0.291728 0.513671,-0.445042 0.831464,-0.571285 0.188311,-0.0748 0.354863,-0.124525 0.499663,-0.148835 0.04474,-0.0075 0.07843,-0.01242 0.100719,-0.01288 z m -4.348687,5.61e-4 c 0.07961,-0.0089 0.41114,0.07293 0.619402,0.158347 0.470973,0.193154 0.819911,0.485996 1.172781,0.983659 0.054,0.07615 0.112028,0.166399 0.128692,0.200871 l 0.03022,0.06267 -0.09065,0.236682 c -0.173771,0.453718 -0.287332,0.916978 -0.346909,1.413939 -0.02469,0.206024 -0.04023,0.223088 -0.154432,0.171218 -0.180468,-0.08197 -0.326571,-0.439884 -0.372648,-0.912039 -0.05928,-0.607494 -0.08093,-0.733797 -0.174014,-1.022267 -0.139561,-0.432541 -0.357584,-0.789112 -0.688225,-1.125219 -0.07806,-0.07934 -0.141562,-0.150729 -0.141562,-0.158348 0,-0.0052 0.0059,-0.0082 0.01734,-0.0096 z" /><g
         id="g60936"
         transform="matrix(0.93166887,0,0,0.93166887,-5.1295807,5.6145986)"
         style="stroke-width:1.07334"><path
           id="path60877"
           style="font-weight:bold;font-size:2.66391px;font-family:Sahel;-inkscape-font-specification:'Sahel, Bold';text-align:center;direction:rtl;text-anchor:middle;fill:#cccccc;fill-rule:evenodd;stroke-width:1.07334"
           d="m -77.147512,66.460661 c -0.006,4.09e-4 -0.01308,0.0018 -0.02092,0.0041 l -1.37259,0.514504 -0.04418,0.245333 1.431887,-0.525549 0.03314,-0.18836 c 0.0037,-0.02337 0.0016,-0.03804 -0.0058,-0.04418 -0.0046,-0.0046 -0.01161,-0.0065 -0.02151,-0.0059 z m 7.722197,0.35056 c -0.01637,0.0011 -0.03967,0.01193 -0.06919,0.03314 l -0.440672,0.290097 c 0.05904,0.356681 0.09834,0.728782 0.118016,1.11621 0.02094,0.387429 0.03194,0.831825 0.03314,1.333639 0.09102,-0.0012 0.162802,-0.01125 0.215684,-0.02964 0.05411,-0.01968 0.09605,-0.0548 0.125574,-0.105232 0.06519,-0.113154 0.09767,-0.529762 0.09767,-1.250504 0,-0.33331 -0.01204,-0.767291 -0.03663,-1.301082 -0.0025,-0.05042 -0.01243,-0.07873 -0.02964,-0.08488 -0.004,-0.0018 -0.0085,-0.0021 -0.01395,-0.0018 z m -10.983041,0.0018 c -0.01428,0.0011 -0.03457,0.01103 -0.06163,0.02964 l -0.41916,0.278471 c 0.06766,0.281656 0.103298,0.702512 0.106965,1.262132 0.0012,0.08118 0.0028,0.149809 0.004,0.206382 0.0012,0.05535 0.0039,0.117743 0.0075,0.186616 0.0049,0.06887 0.01069,0.12702 0.01802,0.174989 0.0074,0.04797 0.01735,0.09988 0.02965,0.155224 0.0123,0.05411 0.02747,0.09972 0.04592,0.136619 0.01846,0.03691 0.03994,0.07517 0.06453,0.114528 0.02583,0.03813 0.05573,0.069 0.08894,0.0936 0.03445,0.0246 0.07272,0.04717 0.114527,0.06686 0.04305,0.01968 0.09123,0.03434 0.14534,0.04418 0.05411,0.0085 0.113869,0.01279 0.179059,0.01279 h 0.06279 0.4273 0.427299 0.42788 0.193012 c 0.253366,0 0.466656,-0.04876 0.640077,-0.145921 0.173425,-0.09717 0.278785,-0.230244 0.315678,-0.399975 0.28064,0.351988 0.570083,0.533644 0.867969,0.545315 3.92e-4,1.4e-5 7.71e-4,-1.5e-5 0.0011,0 0.0027,3.05e-4 0.0053,5.81e-4 0.0081,5.81e-4 h 0.47032 0.427881 0.427299 0.0564 c 0.252136,0 0.45237,-0.09487 0.599963,-0.284285 0.104546,0.18941 0.259105,0.284285 0.464506,0.284285 0.163581,0 0.307213,-0.09854 0.430206,-0.295331 0.110689,0.196789 0.263714,0.295331 0.459274,0.295331 0.16727,0 0.309293,-0.09539 0.426136,-0.286028 0.108236,0.190639 0.277529,0.286028 0.507527,0.286028 h 0.05523 0.427299 0.427298 0.427881 0.117434 c 0.169732,0 0.315933,-0.04194 0.438927,-0.125574 0.12299,-0.08363 0.214714,-0.195745 0.274983,-0.337188 0.0615,-0.142673 0.09244,-0.306758 0.09244,-0.491249 0,-0.265665 -0.06291,-0.50198 -0.188359,-0.70984 -0.01353,-0.02214 -0.02454,-0.03629 -0.03314,-0.04243 -0.0087,-0.0062 -0.01807,-0.0062 -0.0279,0 -0.0087,0.0062 -0.02063,0.01921 -0.03663,0.04012 l -0.280796,0.358118 c 0.04059,0.09101 0.0694,0.157072 0.08663,0.197662 0.01844,0.04059 0.03788,0.09038 0.05755,0.149409 0.01968,0.05903 0.02966,0.103545 0.02966,0.134294 0,0.05536 -0.03409,0.09362 -0.101734,0.114527 -0.06765,0.0209 -0.15937,0.0314 -0.274983,0.0314 h -0.15406 -0.427881 -0.427298 -0.4273 -0.05348 c -0.220157,0 -0.337544,-0.09487 -0.352304,-0.284285 l -0.02035,-0.291261 h -0.274983 l -0.0221,0.293586 c -0.01476,0.186951 -0.103849,0.280215 -0.267426,0.280215 -0.174648,0 -0.272162,-0.08805 -0.291842,-0.263937 l -0.02907,-0.263937 h -0.256379 l -0.02441,0.274983 c -0.01599,0.167271 -0.10926,0.251147 -0.280214,0.251147 -0.186949,0 -0.289671,-0.08805 -0.308121,-0.263937 l -0.02617,-0.262193 h -0.25638 l -0.02558,0.271495 c -0.01845,0.17219 -0.164139,0.258124 -0.437183,0.258124 h -0.07325 -0.4273 -0.427881 -0.445902 c -0.158661,0 -0.41807,-0.164533 -0.77844,-0.494156 -0.277964,-0.261975 -0.50592,-0.471084 -0.68426,-0.627287 l 0.94064,-0.32091 0.0686,-0.466831 c 0.0048,-0.0357 0.0038,-0.05718 -0.0035,-0.06453 -0.0062,-0.0087 -0.02344,-0.0081 -0.05174,0.0017 l -1.419097,0.499968 -0.113947,0.551711 c 0.293954,0.210315 0.482609,0.34867 0.566243,0.41509 0.190641,0.150049 0.286029,0.254827 0.286029,0.315097 0,0.07134 -0.05609,0.121119 -0.168013,0.149409 -0.110688,0.02706 -0.277349,0.04069 -0.499968,0.04069 h -0.193012 -0.42788 -0.427299 -0.463925 c -0.04551,0 -0.08378,-0.0042 -0.114527,-0.01279 -0.03075,-0.0098 -0.05642,-0.02978 -0.07732,-0.0593 -0.01968,-0.03075 -0.03544,-0.05956 -0.04651,-0.08662 -0.01102,-0.02829 -0.01943,-0.07705 -0.02558,-0.145922 -0.0049,-0.07011 -0.0081,-0.130895 -0.0093,-0.182547 -0.0012,-0.05166 -0.0029,-0.13341 -0.004,-0.245333 -0.0025,-0.530103 -0.01295,-0.943045 -0.0314,-1.239458 -0.0037,-0.06027 -0.01205,-0.09539 -0.02558,-0.105221 -0.0038,-0.003 -0.0092,-0.0046 -0.01569,-0.0041 z m 6.53099,0.125574 -0.269169,0.267425 0.269169,0.269751 0.267426,-0.269751 z m 3.196895,0.14941 -0.304632,0.306376 0.304632,0.304632 0.305795,-0.304632 z m -3.501527,0.298818 -0.267425,0.26975 0.267425,0.267426 0.269752,-0.267426 z m 0.60694,0 -0.26917,0.26975 0.26917,0.267426 0.268006,-0.267426 z m 5.282812,0.113946 c -0.02226,-5.16e-4 -0.0394,0.01396 -0.05115,0.04302 l -0.195337,0.492411 c 0.205399,0.135292 0.387235,0.271077 0.545897,0.406371 0.158661,0.135296 0.238357,0.236408 0.238357,0.30405 0,0.04182 -0.05139,0.07642 -0.15348,0.103477 -0.100856,0.02706 -0.241266,0.04069 -0.422065,0.04069 -0.120532,0 -0.212254,-0.01211 -0.274984,-0.03546 -0.06146,-0.02459 -0.09504,-0.06705 -0.09999,-0.127318 -0.0037,-0.0369 -0.0043,-0.06043 -0.0018,-0.07151 l -0.250565,-0.02441 c -0.03689,0.127912 -0.05581,0.24009 -0.05581,0.336026 0,0.403419 0.222232,0.605194 0.666238,0.605194 0.305024,0 0.535102,-0.0676 0.690074,-0.202893 0.1562,-0.135295 0.234288,-0.334433 0.234288,-0.597638 0,-0.227539 -0.0676,-0.441409 -0.202895,-0.640658 -0.134063,-0.199251 -0.335839,-0.399931 -0.605195,-0.60287 -0.02367,-0.01829 -0.0443,-0.02808 -0.06163,-0.02849 z m -13.691013,0.323817 c -0.03773,0.0017 -0.07156,0.02157 -0.10116,0.06046 -0.279195,0.35791 -0.418579,0.687559 -0.418579,0.988892 0,0.218929 0.05866,0.389252 0.176733,0.511015 0.118075,0.120534 0.286855,0.180802 0.505783,0.180802 0.20909,0 0.375232,-0.07229 0.498225,-0.217427 0.122994,-0.146363 0.184292,-0.332447 0.184292,-0.557524 0,-0.108236 -0.02199,-0.213013 -0.06627,-0.315098 -0.04304,-0.103308 -0.102285,-0.195034 -0.177316,-0.274982 -0.07379,-0.08117 -0.157086,-0.152955 -0.250565,-0.215685 -0.09348,-0.06273 -0.19253,-0.113612 -0.297074,-0.151734 -0.01883,-0.0069 -0.03691,-0.0095 -0.05407,-0.0088 z m 0.02791,0.599382 c 0.05289,0.01968 0.09533,0.03647 0.127317,0.05 0.03197,0.0123 0.07391,0.03063 0.125575,0.05523 0.05166,0.0246 0.09198,0.04763 0.121503,0.06976 0.02952,0.02091 0.05577,0.04606 0.07791,0.07558 0.02337,0.02952 0.03489,0.05994 0.03489,0.09069 0,0.05903 -0.03248,0.10413 -0.09767,0.134875 -0.06518,0.02952 -0.15427,0.04418 -0.267425,0.04418 -0.225078,0 -0.337769,-0.04663 -0.337769,-0.140108 0,-0.06518 0.07179,-0.192029 0.215683,-0.380209 z" /><path
           id="path60829"
           style="font-weight:bold;font-size:2.66391px;font-family:Sahel;-inkscape-font-specification:'Sahel, Bold';text-align:center;direction:rtl;text-anchor:middle;fill:#cccccc;fill-rule:evenodd;stroke-width:1.07334"
           d="m -80.970145,70.128751 c -0.01455,0.001 -0.03526,0.0106 -0.06149,0.02946 l -0.391707,0.257866 c 0.05248,0.317049 0.08741,0.647805 0.104903,0.992187 0.01861,0.344382 0.02839,0.739401 0.02946,1.185457 0.08091,-0.0011 0.144712,-0.01 0.191719,-0.02635 0.0481,-0.01749 0.08538,-0.04871 0.111621,-0.09353 0.05795,-0.100581 0.08682,-0.470901 0.08682,-1.11156 0,-0.296278 -0.01069,-0.682037 -0.03256,-1.156519 -0.0022,-0.04482 -0.01105,-0.06998 -0.02635,-0.07545 -0.0036,-0.0016 -0.0076,-0.0019 -0.0124,-0.0016 z m 3.91604,0.113171 -0.239262,0.237712 0.239262,0.239778 0.237712,-0.239778 z m 6.607349,0.325045 -0.270268,0.271818 0.270268,0.270784 0.272335,-0.270784 z m -3.016354,0.01447 -0.252697,0.251148 0.252697,0.252181 0.252698,-0.252181 z m 0.531234,0 -0.252181,0.251148 0.252181,0.252181 0.252698,-0.252181 z m -9.144145,0.04444 -0.270784,0.272335 0.270784,0.270267 0.271819,-0.270267 z m 4.751132,0.01447 -0.237712,0.239779 0.237712,0.237712 0.239778,-0.237712 z m 0.539502,0 -0.239262,0.239779 0.239262,0.237712 0.237711,-0.237712 z m 8.96276,0.441317 c -0.0786,0.0022 -0.162494,0.02149 -0.251664,0.05736 -0.09402,0.03827 -0.183899,0.08812 -0.270268,0.149345 -0.08527,0.06013 -0.171954,0.130458 -0.259416,0.211356 -0.08637,0.08091 -0.163664,0.161066 -0.232544,0.239779 -0.06778,0.07872 -0.131646,0.158363 -0.190686,0.239262 -0.109333,-0.01421 -0.173596,-0.09855 -0.193269,-0.252698 l -0.03462,-0.257349 h -0.234094 l -0.03152,0.262517 c -0.02065,0.165195 -0.134072,0.248104 -0.340547,0.24908 h -0.0036 -0.02739 c -0.09402,0 -0.162973,-0.02001 -0.206706,-0.06046 -0.04373,-0.04045 -0.07123,-0.105232 -0.08217,-0.193787 l -0.02946,-0.257349 h -0.244429 l -0.02791,0.262517 c -0.01749,0.166178 -0.133957,0.24908 -0.349332,0.24908 h -0.135393 -0.06563 c -0.125726,0 -0.243562,-0.03865 -0.353983,-0.116272 0.192416,-0.18039 0.288354,-0.321098 0.288354,-0.421679 0,-0.19351 -0.190505,-0.290422 -0.572058,-0.290422 -0.295184,0 -0.517423,0.04614 -0.666109,0.137976 v 0.280603 c 0.279878,0.02624 0.467642,0.12172 0.562756,0.286804 -0.109327,0.082 -0.307781,0.12299 -0.595312,0.12299 h -0.179834 c -0.09621,0 -0.167047,-0.02001 -0.211874,-0.06046 -0.04373,-0.04045 -0.07072,-0.105231 -0.08165,-0.193787 l -0.02946,-0.257349 h -0.234611 l -0.0279,0.262517 c -0.0087,0.08309 -0.04928,0.145005 -0.12144,0.186552 -0.06662,0.03895 -0.157152,0.06009 -0.271818,0.06253 h -0.02325 -0.147278 -0.72347 l -0.141077,0.479041 c -0.0164,0.05576 0.0078,0.08744 0.07235,0.09508 0.32033,0.0339 0.480591,0.0758 0.480591,0.126091 0,0.02295 -0.01909,0.04811 -0.05736,0.07545 -0.03827,0.02733 -0.08904,0.05295 -0.152445,0.077 -0.06341,0.02405 -0.144028,0.0436 -0.241329,0.05891 -0.09621,0.0164 -0.196379,0.02481 -0.30024,0.02481 -0.45043,0 -0.675411,-0.182158 -0.675411,-0.54622 0,-0.133379 0.02841,-0.29221 0.08527,-0.476973 l -0.231511,-0.0739 c -0.120259,0.262386 -0.18035,0.519559 -0.18035,0.771013 0,0.286438 0.08622,0.506273 0.257865,0.660425 0.172739,0.155245 0.412643,0.23306 0.719853,0.23306 0.13338,0 0.26288,-0.0163 0.388607,-0.04909 0.126819,-0.0328 0.241397,-0.0794 0.344165,-0.139527 0.102771,-0.05904 0.185216,-0.135879 0.24753,-0.230993 0.06341,-0.09512 0.0956,-0.199459 0.0956,-0.313159 0,-0.06887 -0.01635,-0.124335 -0.04806,-0.165882 h 0.05943 0.13901 0.08733 c 0.002,0 0.0035,-0.0017 0.0052,-0.0047 0.08413,-0.0087 0.161903,-0.02951 0.233578,-0.06253 0.09731,-0.04592 0.175578,-0.112982 0.234611,-0.201538 0.05685,0.09402 0.119282,0.161998 0.187068,0.204638 0.06778,0.04264 0.153945,0.06408 0.258899,0.06408 h 0.13746 c 0.319236,0 0.580582,-0.09971 0.783931,-0.29869 0.09184,0.106052 0.182686,0.182954 0.272335,0.229961 0.08965,0.04592 0.196794,0.06873 0.321427,0.06873 h 0.07028 0.127641 c 0.213189,0 0.378994,-0.08942 0.498161,-0.268717 0.05685,0.09402 0.119282,0.161998 0.187069,0.204638 0.06778,0.04264 0.154461,0.06408 0.259415,0.06408 h 0.05013 c 0.174925,0 0.334729,-0.08759 0.479041,-0.262516 0.155245,0.174924 0.344836,0.262516 0.568958,0.262516 h 0.365352 c 0.161804,0 0.314177,-0.02098 0.456303,-0.06253 0.142126,-0.04264 0.266479,-0.10273 0.37362,-0.180351 0.108238,-0.07762 0.193485,-0.175906 0.255799,-0.295072 0.06231,-0.119168 0.09353,-0.251927 0.09353,-0.398426 0.0011,-0.178204 -0.04876,-0.317024 -0.149345,-0.416512 -0.100582,-0.100582 -0.235686,-0.150895 -0.405143,-0.150895 -0.0052,0 -0.01026,-1.49e-4 -0.0155,0 z m -8.423258,0.03307 c -0.0098,0 -0.02425,0.01206 -0.04393,0.03721 l -0.249598,0.316776 c 0.01968,0.03717 0.04158,0.07771 0.06563,0.12144 0.02514,0.04373 0.04287,0.07495 0.05271,0.09353 0.01093,0.01859 0.02026,0.03951 0.02791,0.06356 0.0076,0.02405 0.01137,0.04784 0.01137,0.0708 0,0.05356 -0.0219,0.09411 -0.06563,0.12144 -0.04373,0.02624 -0.09964,0.03927 -0.167431,0.03927 -0.153058,0 -0.238305,-0.07827 -0.255798,-0.234611 l -0.02584,-0.234611 h -0.22841 l -0.02119,0.244429 c -0.01421,0.148686 -0.09712,0.223243 -0.24908,0.223243 -0.166177,0 -0.257485,-0.07827 -0.273885,-0.234611 l -0.02325,-0.233061 H -77.9202 l -0.02274,0.241329 c -0.0164,0.153058 -0.145899,0.229443 -0.388607,0.229443 h -0.09457 c -0.0962,0 -0.167047,-0.02001 -0.211873,-0.06046 -0.04373,-0.04045 -0.07072,-0.105231 -0.08165,-0.193787 l -0.02946,-0.257349 h -0.234611 l -0.0279,0.262517 c -0.0087,0.08309 -0.04928,0.145005 -0.12144,0.186552 -0.07106,0.04155 -0.169346,0.06253 -0.295072,0.06253 h -0.150379 -0.03307 c -0.111512,0 -0.202821,-0.04614 -0.273886,-0.137976 -0.03498,-0.04592 -0.08061,-0.108296 -0.137459,-0.188102 -0.05577,-0.08088 -0.08562,-0.123758 -0.08888,-0.128158 l -0.307992,0.4377 c 0.108233,0.135564 0.18416,0.238535 0.227893,0.308508 0.04483,0.06887 0.06718,0.123361 0.06718,0.163814 0,0.107142 -0.07873,0.228296 -0.236162,0.362769 -0.156338,0.134472 -0.345473,0.247162 -0.567407,0.338997 -0.0066,0.0022 -0.02006,0.0073 -0.04082,0.01499 -0.0208,0.0088 -0.03481,0.01482 -0.04134,0.01809 -0.0066,0.0033 -0.01634,0.0089 -0.02946,0.01654 -0.01315,0.0077 -0.02012,0.01417 -0.02119,0.01964 -0.0011,0.0055 -0.0016,0.0129 -0.0016,0.02274 0,0.0098 0.0056,0.01962 0.01654,0.02946 0.0098,0.0098 0.02425,0.0215 0.04393,0.03462 0.01858,0.01312 0.04237,0.02804 0.0708,0.04444 l 0.178801,0.09819 c 0.04046,0.02187 0.08517,0.03536 0.134359,0.04082 0.0492,0.0055 0.09254,-5.93e-4 0.129707,-0.01809 0.07106,-0.03608 0.139496,-0.08124 0.206189,-0.135909 0.06779,-0.05357 0.133938,-0.118809 0.198438,-0.195337 0.0645,-0.07653 0.119961,-0.166407 0.165881,-0.270268 0.04591,-0.103861 0.07668,-0.214265 0.09198,-0.331246 0.05357,0.03936 0.122007,0.05891 0.206189,0.05891 h 0.04134 0.142111 c 0.12026,0 0.228776,-0.02235 0.326078,-0.06718 0.0973,-0.04592 0.175578,-0.112982 0.234611,-0.201538 0.05685,0.09402 0.119282,0.161998 0.187069,0.204638 0.06778,0.04264 0.153943,0.06408 0.258899,0.06408 h 0.0832 c 0.224121,0 0.402107,-0.08433 0.5333,-0.252698 0.09293,0.168366 0.232206,0.252698 0.418063,0.252698 0.142126,0 0.267911,-0.08759 0.377238,-0.262516 0.0984,0.174924 0.232525,0.262516 0.403076,0.262516 0.08965,0 0.172611,-0.02562 0.248047,-0.077 0.07543,-0.05138 0.136438,-0.117988 0.183451,-0.199987 0.04701,-0.082 0.08286,-0.171476 0.108004,-0.267684 0.02624,-0.09621 0.03979,-0.19169 0.03979,-0.286805 0,-0.220841 -0.05592,-0.420666 -0.167432,-0.599963 -0.01749,-0.02624 -0.03196,-0.03927 -0.04289,-0.03927 z m -5.702495,0.347266 -0.328145,0.462504 c 0.218654,0.267851 0.328145,0.438346 0.328145,0.511596 0,0.107141 -0.07873,0.228296 -0.236161,0.362769 -0.156338,0.134472 -0.345472,0.247162 -0.567407,0.338997 -0.0066,0.0022 -0.02006,0.0073 -0.04082,0.01499 -0.0208,0.0088 -0.03481,0.01482 -0.04134,0.01809 -0.0066,0.0033 -0.01633,0.0089 -0.02945,0.01654 -0.01315,0.0077 -0.02012,0.01417 -0.02119,0.01964 -0.0011,0.0055 -0.0016,0.0129 -0.0016,0.02274 0,0.0098 0.0056,0.01962 0.01654,0.02946 0.0098,0.0098 0.02424,0.0215 0.04393,0.03462 0.01858,0.01312 0.04237,0.02804 0.0708,0.04444 l 0.178801,0.09819 c 0.04046,0.02187 0.08517,0.03536 0.134358,0.04082 0.0492,0.0055 0.09253,-5.93e-4 0.129708,-0.01809 0.07872,-0.03936 0.155101,-0.09105 0.229444,-0.155546 0.07543,-0.0645 0.147645,-0.142776 0.216524,-0.234611 0.06887,-0.09074 0.123818,-0.198802 0.165364,-0.324528 0.04264,-0.124634 0.06408,-0.256022 0.06408,-0.393775 0,-0.09402 -0.0079,-0.185329 -0.02429,-0.273885 -0.0164,-0.08856 -0.03647,-0.163056 -0.05943,-0.224276 -0.02296,-0.06231 -0.04994,-0.121947 -0.08165,-0.1788 -0.03061,-0.05685 -0.05766,-0.100188 -0.08062,-0.129708 -0.02187,-0.02952 -0.04377,-0.05702 -0.06563,-0.08217 z m 13.997079,0.118339 c 0.10823,0 0.195822,0.02047 0.262516,0.06201 0.06669,0.04045 0.100252,0.09963 0.100252,0.17725 0,0.02515 -0.0075,0.04704 -0.0217,0.06563 -0.01421,0.01749 -0.03703,0.03242 -0.06873,0.04444 -0.03171,0.01093 -0.06527,0.02026 -0.100253,0.02791 -0.03498,0.0066 -0.08106,0.0112 -0.139009,0.01447 -0.05685,0.0033 -0.109514,0.0057 -0.157613,0.0067 -0.04701,0.0011 -0.108017,0.0015 -0.183452,0.0015 h -0.47749 c 0.132286,-0.126818 0.266934,-0.2251 0.403593,-0.295072 0.13666,-0.06997 0.263815,-0.104903 0.381889,-0.104903 z m -11.525912,1.262455 -0.252697,0.251147 0.252697,0.252698 0.252181,-0.252698 z m 0.531234,0 -0.252698,0.251147 0.252698,0.252698 0.252181,-0.252698 z" /></g></g></g></svg>
