<?xml version="1.0" encoding="UTF-8" standalone="no"?>
<!-- Created with Inkscape (http://www.inkscape.org/) -->

<svg
   width="20mm"
   height="20mm"
   viewBox="0 0 20 19.999999"
   version="1.1"
   id="svg1567"
   xml:space="preserve"
   inkscape:version="1.2.1 (9c6d41e, 2022-07-14)"
   sodipodi:docname="sutech.svg"
   inkscape:export-filename="kanoon_logo.svg"
   inkscape:export-xdpi="300"
   inkscape:export-ydpi="300"
   xmlns:inkscape="http://www.inkscape.org/namespaces/inkscape"
   xmlns:sodipodi="http://sodipodi.sourceforge.net/DTD/sodipodi-0.dtd"
   xmlns="http://www.w3.org/2000/svg"
   xmlns:svg="http://www.w3.org/2000/svg"><sodipodi:namedview
     id="namedview1569"
     pagecolor="#ffffff"
     bordercolor="#000000"
     borderopacity="0.25"
     inkscape:showpageshadow="2"
     inkscape:pageopacity="0.0"
     inkscape:pagecheckerboard="0"
     inkscape:deskcolor="#d1d1d1"
     inkscape:document-units="mm"
     showgrid="false"
     inkscape:zoom="8.5670232"
     inkscape:cx="65.308566"
     inkscape:cy="41.204511"
     inkscape:window-width="1920"
     inkscape:window-height="1024"
     inkscape:window-x="0"
     inkscape:window-y="0"
     inkscape:window-maximized="1"
     inkscape:current-layer="layer1" /><defs
     id="defs1564" /><g
     inkscape:label="Layer 1"
     inkscape:groupmode="layer"
     id="layer1"
     transform="translate(84.916674,-50.137206)"><path
       id="path91018"
       style="fill:#000000;fill-opacity:1;stroke-width:0.304554;stroke-linecap:round;stroke-linejoin:round"
       d="m -74.916329,50.137205 a 10.000012,10.000012 0 0 0 -10.000343,10.000342 10.000012,10.000012 0 0 0 10.000343,9.999657 10.000012,10.000012 0 0 0 9.999657,-9.999657 10.000012,10.000012 0 0 0 -9.999657,-10.000342 z m -0.0521,0.623908 c 0.26765,-0.0025 0.530496,0.004 0.744575,0.02125 1.133239,0.09161 2.349803,0.43463 3.308765,0.933118 0.593319,0.30842 0.616778,0.321832 0.957801,0.550547 0.750253,0.503178 1.37302,1.058761 1.933426,1.724315 0.770079,0.914571 1.344231,1.919532 1.720202,3.01121 0.335278,0.973522 0.479303,1.72283 0.532035,2.767818 0.02195,0.434886 0.0046,1.015702 -0.04525,1.518632 -0.03057,0.308435 -0.145307,1.01458 -0.204312,1.258098 -0.02332,0.09624 -0.04251,0.190184 -0.04251,0.209113 0,0.01893 -0.01393,0.05303 -0.03154,0.07541 -0.01761,0.02238 -0.0374,0.06903 -0.04387,0.103525 -0.0065,0.03449 -0.03313,0.105118 -0.05896,0.157005 -0.02583,0.0519 -0.06849,0.155034 -0.09461,0.22968 -0.251549,0.718894 -0.674859,1.523789 -1.216962,2.311885 -0.463311,0.673555 -1.229013,1.477353 -1.882692,1.976621 -0.516542,0.394527 -1.043094,0.727113 -1.50629,0.95163 -0.57,0.276286 -0.880965,0.401374 -1.424703,0.572487 -0.498655,0.156923 -1.166467,0.289139 -1.747626,0.346234 -0.31939,0.03138 -1.108395,0.0449 -1.433615,0.02468 -0.566654,-0.03524 -1.2385,-0.150728 -1.814816,-0.31264 -0.153076,-0.04301 -0.563268,-0.176891 -0.678757,-0.221453 -0.282967,-0.109177 -0.575686,-0.229548 -0.608138,-0.250248 -0.02005,-0.01274 -0.07065,-0.03703 -0.112441,-0.05348 -0.115334,-0.04536 -0.657637,-0.33634 -0.880328,-0.472388 -0.213054,-0.130166 -0.581748,-0.381471 -0.732233,-0.499125 -0.334251,-0.261328 -0.459575,-0.364405 -0.616366,-0.505983 -0.715767,-0.646314 -1.362642,-1.449056 -1.846353,-2.29063 -0.380287,-0.661634 -0.609927,-1.152828 -0.924207,-2.050667 -0.115095,-0.321066 -0.115267,-0.319549 -0.159062,-0.528608 -0.01,-0.06482 -0.02419,-0.163411 -0.03223,-0.219395 -0.0081,-0.05599 -0.03066,-0.193815 -0.05004,-0.305784 -0.150856,-0.871228 -0.147801,-2.276524 0.0069,-3.175071 0.312222,-1.812852 1.07148,-3.408353 2.275548,-4.781461 0.577203,-0.658236 1.252265,-1.226075 2.12677,-1.788762 0.13144,-0.08457 0.928258,-0.480165 1.144972,-0.568373 0.08398,-0.03419 0.187006,-0.07795 0.228994,-0.09736 0.320303,-0.148096 1.220599,-0.404957 1.685236,-0.480614 0.141419,-0.02302 0.300284,-0.04928 0.353091,-0.05896 0.264788,-0.04861 0.72357,-0.07814 1.169655,-0.08227 z m -1.567311,1.221761 c -0.03008,-0.0057 -1.378864,0.425634 -1.721572,0.550546 l -0.07199,0.02606 v 0.104892 c 1.37e-4,0.0975 0.05806,0.852292 0.103526,1.349971 0.01101,0.119924 0.01552,0.236925 0.0096,0.260534 -0.0077,0.03079 -0.05534,0.07125 -0.167975,0.141921 -0.26393,0.165625 -0.550345,0.373988 -0.811079,0.590998 -0.0843,0.07017 -0.161468,0.127526 -0.171403,0.127526 -0.01,0 -0.106604,-0.03922 -0.215282,-0.08707 -0.347174,-0.152892 -1.059473,-0.472912 -1.166913,-0.524493 -0.169557,-0.0814 -0.162654,-0.08508 -0.372287,0.209111 -0.10139,0.142294 -0.204403,0.284781 -0.228996,0.317439 -0.13805,0.183322 -0.63301,0.878651 -0.664357,0.933118 -0.03285,0.05708 -0.03434,0.068 -0.01234,0.0953 0.01363,0.01689 0.259511,0.307995 0.546433,0.647217 0.303029,0.358265 0.521751,0.631029 0.521751,0.650646 0,0.01857 -0.01035,0.05434 -0.02331,0.07953 -0.05835,0.114166 -0.259008,0.700296 -0.326352,0.953687 -0.05127,0.192901 -0.08463,0.288113 -0.107639,0.307155 -0.01836,0.0152 -0.135164,0.05148 -0.259161,0.08021 -0.298744,0.06923 -0.887704,0.201166 -1.14086,0.255734 -0.177734,0.03832 -0.205429,0.04929 -0.224195,0.08638 -0.03103,0.06133 -0.03237,1.904506 -0.0013,1.929998 0.01168,0.0096 0.06387,0.02973 0.115188,0.04456 0.0865,0.02502 0.212747,0.05476 1.094238,0.256419 0.344663,0.07885 0.405067,0.09737 0.423708,0.127527 0.0065,0.01061 0.02588,0.07357 0.04251,0.140551 0.07464,0.300723 0.180673,0.649571 0.272874,0.895409 0.05506,0.146802 0.100102,0.286515 0.100102,0.309897 0,0.02339 -0.02095,0.06768 -0.04662,0.09872 -0.07363,0.08909 -0.241973,0.284009 -0.589628,0.682871 -0.177284,0.203395 -0.352496,0.407377 -0.389427,0.453876 l -0.06719,0.08502 0.03359,0.05759 c 0.01827,0.03176 0.140188,0.207687 0.270818,0.3908 0.285794,0.400613 0.461046,0.649709 0.649959,0.922148 0.08572,0.123626 0.152947,0.203853 0.170033,0.203627 0.01551,-2.05e-4 0.06224,-0.01612 0.104215,-0.03565 0.04199,-0.01953 0.137894,-0.06118 0.21254,-0.09188 0.07464,-0.0307 0.242341,-0.102955 0.372974,-0.160434 0.670517,-0.29507 0.828713,-0.35883 0.865242,-0.349662 0.0208,0.0052 0.102053,0.06497 0.180316,0.133009 0.23115,0.200925 0.451234,0.368609 0.697269,0.530664 0.127088,0.0837 0.238899,0.169401 0.248876,0.190601 0.01763,0.03745 -0.02196,0.534825 -0.09119,1.140859 -0.04052,0.354627 -0.05042,0.570183 -0.02673,0.584826 0.02019,0.01247 0.653343,0.229891 1.360941,0.467589 0.193047,0.06485 0.370281,0.11792 0.39354,0.11792 0.02683,0 0.05452,-0.01701 0.07543,-0.04662 0.01812,-0.02566 0.193169,-0.321594 0.389427,-0.657503 0.196256,-0.335907 0.378892,-0.640748 0.405882,-0.67807 0.04898,-0.06774 0.04983,-0.06841 0.159062,-0.06582 0.06018,0.0015 0.376176,0.0072 0.702753,0.01234 0.326578,0.0052 0.599514,0.01 0.606082,0.01035 0.0065,4.49e-4 0.05345,0.07138 0.104216,0.157691 0.0917,0.155946 0.149695,0.25591 0.521065,0.899524 0.106617,0.184766 0.207221,0.35043 0.22351,0.368173 0.03432,0.0374 0.01351,0.04226 0.436735,-0.09872 0.144628,-0.04817 0.511257,-0.168287 0.814508,-0.267389 0.304223,-0.09941 0.561633,-0.193115 0.573856,-0.208426 0.013,-0.01625 0.01778,-0.04835 0.01234,-0.07816 -0.01,-0.05485 -0.04593,-0.467232 -0.08569,-0.98454 -0.01364,-0.177285 -0.02943,-0.380572 -0.03565,-0.451819 -0.01587,-0.181472 -0.0053,-0.208293 0.106272,-0.27973 0.274294,-0.175463 0.695373,-0.489672 0.903638,-0.674643 0.129079,-0.114643 0.104919,-0.119433 0.645847,0.12616 0.6861,0.311483 1.103432,0.490033 1.124404,0.481985 0.01347,-0.0052 0.04776,-0.04102 0.07679,-0.08021 0.103805,-0.140074 0.472437,-0.656612 0.630764,-0.883754 0.08864,-0.127168 0.236088,-0.332396 0.327037,-0.455933 0.09095,-0.123533 0.165205,-0.237376 0.165233,-0.252991 0,-0.01562 -0.01757,-0.05042 -0.03909,-0.07679 -0.201228,-0.246574 -0.67064,-0.804306 -0.831648,-0.988652 -0.236312,-0.270567 -0.229744,-0.235173 -0.100779,-0.56906 0.04686,-0.121303 0.0979,-0.258443 0.113808,-0.305097 0.03532,-0.103552 0.170726,-0.572869 0.187171,-0.649275 0.0065,-0.0304 0.02526,-0.06245 0.04182,-0.0713 0.02878,-0.0154 0.227251,-0.06246 0.976311,-0.230366 0.482637,-0.108183 0.472316,-0.103844 0.486786,-0.185801 0.0065,-0.03732 0.01247,-0.470616 0.013,-0.9626 l 6.86e-4,-0.894039 -0.03907,-0.02606 c -0.02156,-0.01412 -0.172537,-0.05633 -0.335265,-0.09393 -0.162728,-0.03761 -0.402774,-0.0944 -0.533407,-0.126147 -0.13063,-0.03175 -0.342086,-0.08158 -0.470329,-0.111074 -0.257104,-0.05913 -0.28755,-0.07898 -0.309212,-0.199514 -0.03465,-0.192745 -0.165602,-0.625867 -0.295498,-0.975626 -0.04766,-0.128322 -0.08707,-0.247436 -0.08707,-0.264646 0,-0.02863 0.170035,-0.236906 0.457988,-0.562203 0.122339,-0.138209 0.506312,-0.584214 0.581399,-0.675328 0.02558,-0.03105 0.04662,-0.07001 0.04662,-0.08638 0,-0.02299 -0.341048,-0.522142 -0.61568,-0.900895 -0.01682,-0.0232 -0.122365,-0.171843 -0.234478,-0.330466 -0.112123,-0.158624 -0.217277,-0.302591 -0.233795,-0.319495 -0.02895,-0.02961 -0.0369,-0.02806 -0.215282,0.04868 -0.101801,0.0438 -0.267466,0.117072 -0.368173,0.16249 -0.100713,0.04543 -0.186646,0.08227 -0.190601,0.08227 -0.004,0 -0.18017,0.07735 -0.391484,0.171403 -0.285032,0.126863 -0.394649,0.168244 -0.425766,0.160434 -0.02307,-0.0057 -0.07784,-0.04311 -0.121357,-0.08296 -0.197529,-0.180921 -0.580936,-0.4715 -0.893353,-0.6767 -0.142487,-0.09359 -0.141337,0.01514 -0.0089,-1.293751 0.0417,-0.412047 0.04772,-0.510348 0.03154,-0.52655 -0.0064,-0.0064 -0.109456,-0.04434 -0.228994,-0.08433 -0.119526,-0.03999 -0.512264,-0.172501 -0.872785,-0.294814 -0.360522,-0.122312 -0.667216,-0.222823 -0.680813,-0.222823 -0.04378,0 -0.03597,-0.01207 -0.555346,0.882384 -0.03521,0.06065 -0.101774,0.17505 -0.148092,0.254361 -0.04632,0.07931 -0.104441,0.180731 -0.129583,0.224881 -0.02514,0.04415 -0.06114,0.0882 -0.07952,0.09805 -0.02362,0.01261 -0.09911,0.01207 -0.257792,-0.0021 -0.145769,-0.013 -0.383603,-0.01692 -0.676698,-0.01035 -0.41223,0.0093 -0.454143,0.0078 -0.477873,-0.01851 -0.0143,-0.01591 -0.187087,-0.311578 -0.383257,-0.656818 -0.42755,-0.752441 -0.443058,-0.778323 -0.481986,-0.78571 z m 1.47201,3.003667 c 0.08856,-0.0013 0.17751,-2.19e-4 0.266704,0.0028 0.59235,0.01967 1.160034,0.139819 1.676323,0.354461 0.539964,0.224483 1.015699,0.516013 1.433615,0.878955 0.275832,0.239547 0.670931,0.702186 0.882383,1.033218 0.668584,1.04668 0.947831,2.194414 0.830963,3.41435 -0.09964,1.040114 -0.514903,2.02649 -1.194338,2.837064 -0.183317,0.218699 -0.527198,0.558642 -0.712351,0.704124 -0.34289,0.269429 -0.880559,0.576626 -1.299921,0.743205 -0.147523,0.0586 -0.277371,0.0968 -0.797367,0.232422 -0.264093,0.06888 -0.504772,0.09587 -0.915978,0.102159 -0.223938,0.0035 -0.476457,-6.82e-4 -0.561517,-0.0089 -0.332195,-0.03221 -0.75848,-0.119261 -1.050358,-0.214598 -0.328237,-0.107214 -0.793759,-0.317369 -1.009222,-0.455246 -0.491343,-0.314415 -0.651488,-0.439613 -0.966713,-0.755544 -0.319799,-0.320516 -0.526146,-0.575819 -0.739091,-0.915294 -0.501639,-0.799715 -0.758935,-1.630336 -0.802166,-2.589558 -0.03285,-0.729101 0.06977,-1.366985 0.335951,-2.093174 0.07288,-0.198839 0.333326,-0.723127 0.451133,-0.907751 0.330885,-0.518562 0.83202,-1.060677 1.313633,-1.420589 0.26967,-0.201525 0.756287,-0.468767 1.09835,-0.604024 0.538993,-0.213128 1.140008,-0.328468 1.759967,-0.338007 z m 0.08913,0.87827 c -0.0313,-0.0017 -0.06383,0.0058 -0.07885,0.024 -0.01519,0.01831 -0.01581,0.129756 -0.0028,0.462789 0.0094,0.241018 0.02192,0.590869 0.02811,0.777485 0.01075,0.323365 0.02543,0.420906 0.05896,0.38737 0.0082,-0.0082 0.02312,-0.20221 0.03292,-0.430565 0.0098,-0.228353 0.02538,-0.581808 0.03428,-0.785712 0.01088,-0.249081 0.01008,-0.381515 -0.0013,-0.403139 -0.01035,-0.01946 -0.04,-0.03054 -0.0713,-0.03223 z m 1.181995,0.237907 c -0.03159,0.0041 -0.05568,0.04284 -0.09736,0.131639 -0.03412,0.07273 -0.0624,0.138492 -0.0624,0.14535 0,0.0069 -0.06944,0.162911 -0.154263,0.34692 -0.157115,0.340827 -0.371602,0.843437 -0.371602,0.870728 0,0.0084 0.01141,0.01508 0.02468,0.01508 0.01332,0 0.05035,-0.04369 0.08227,-0.09736 0.06403,-0.107572 0.171863,-0.309211 0.28453,-0.530664 0.04035,-0.07931 0.114458,-0.215441 0.164546,-0.303041 0.131335,-0.229715 0.241336,-0.454206 0.241336,-0.491584 0,-0.01778 -0.01881,-0.04458 -0.04182,-0.05965 -0.02939,-0.01925 -0.05097,-0.02988 -0.06993,-0.02742 z m -2.335882,0.0013 c -0.01154,0.0013 -0.02468,0.0061 -0.04045,0.01508 -0.0905,0.05137 -0.08852,0.06189 0.05348,0.341434 0.07286,0.143433 0.145103,0.2804 0.161119,0.303727 0.01601,0.02332 0.0677,0.114988 0.114498,0.203627 0.04679,0.08864 0.125589,0.237157 0.174831,0.330464 0.112428,0.213063 0.16511,0.29687 0.186487,0.29687 0.0092,0 0.01645,-0.01168 0.01645,-0.02606 0,-0.04053 -0.101987,-0.292673 -0.250249,-0.618422 -0.07432,-0.163288 -0.140182,-0.312468 -0.146034,-0.33115 -0.03114,-0.09937 -0.21679,-0.494183 -0.23928,-0.508724 -0.0093,-0.006 -0.01933,-0.0082 -0.03086,-0.0069 z m -1.113434,0.846731 c -0.03772,0 -0.0944,0.0892 -0.08021,0.126147 0.0045,0.01194 0.0717,0.06017 0.149463,0.106961 0.14254,0.08577 0.198426,0.116979 0.523123,0.292757 0.09797,0.05304 0.269916,0.148332 0.381885,0.211854 0.29087,0.165016 0.381887,0.203738 0.381887,0.162489 0,-0.02407 -0.125178,-0.119764 -0.322924,-0.247506 -0.09797,-0.0633 -0.223745,-0.145592 -0.27973,-0.183058 -0.721065,-0.482536 -0.700402,-0.469644 -0.753489,-0.469644 z m 4.569606,0 c -0.04068,0 -0.103432,0.03648 -0.438791,0.258476 -0.172658,0.114285 -0.414233,0.273093 -0.536834,0.352405 -0.233078,0.150783 -0.410658,0.280108 -0.420281,0.306469 -0.0098,0.0268 0.04057,0.01721 0.135066,-0.02606 0.0934,-0.04276 0.310224,-0.161275 0.625964,-0.342806 0.09797,-0.05633 0.246489,-0.139209 0.330465,-0.183745 0.191372,-0.101495 0.361272,-0.211526 0.372973,-0.24202 0.0126,-0.03296 -0.03757,-0.122723 -0.06857,-0.122723 z m -5.119467,1.123719 c -0.155695,4.51e-4 -0.286066,0.01061 -0.355148,0.03017 -0.07681,0.02176 -0.118411,0.07954 -0.111074,0.153577 0.0052,0.05238 0.0169,0.06074 0.293443,0.201571 0.158622,0.08079 0.345501,0.180602 0.415481,0.221453 0.365746,0.213503 0.665386,0.513492 0.791196,0.793253 0.0711,0.158115 0.0624,0.162666 -0.18443,0.09872 -0.626669,-0.162344 -1.244466,-0.162295 -1.995132,0 -0.226996,0.04908 -0.260869,0.06425 -0.253677,0.112441 0.0085,0.0571 0.08214,0.09805 0.209112,0.115864 0.06501,0.0092 0.17547,0.02502 0.24545,0.03497 0.297333,0.04223 0.441324,0.114909 0.662987,0.336635 0.370032,0.370152 0.677256,0.829707 0.8673,1.296493 0.136077,0.334238 0.204551,0.647852 0.242706,1.113436 0.05635,0.687632 0.178652,1.134132 0.400398,1.46104 0.12685,0.186997 0.332301,0.329008 0.511467,0.353089 0.0492,0.0066 0.553536,0.0088 1.120977,0.0054 0.998137,-0.0057 1.034502,-0.0068 1.127832,-0.04114 0.261333,-0.09647 0.438972,-0.310194 0.586884,-0.706867 0.12072,-0.323752 0.166,-0.547324 0.206369,-1.020876 0.04437,-0.520355 0.09825,-0.788042 0.225567,-1.112749 0.197033,-0.502524 0.465612,-0.912732 0.849474,-1.297864 0.306932,-0.307947 0.401961,-0.352422 0.906379,-0.427822 0.127752,-0.01909 0.176279,-0.0342 0.207741,-0.06376 0.07959,-0.07476 0.05973,-0.08802 -0.230366,-0.152207 -0.766724,-0.169678 -1.318454,-0.169801 -1.983477,0 -0.231786,0.05919 -0.24776,0.04909 -0.17346,-0.109695 0.06938,-0.14825 0.140702,-0.249337 0.272874,-0.387371 0.218884,-0.228594 0.420177,-0.364651 0.891296,-0.600596 0.158624,-0.07944 0.301796,-0.155768 0.318124,-0.170032 0.03666,-0.03202 0.03817,-0.102637 0.0035,-0.152207 -0.04333,-0.06187 -0.144124,-0.0791 -0.465531,-0.07816 -0.715733,0.0021 -1.261492,0.127036 -1.853896,0.423709 -0.391764,0.196196 -0.621797,0.393632 -0.735662,0.630078 -0.06555,0.136115 -0.09099,0.156319 -0.190601,0.156319 -0.114498,0 -0.15025,-0.02346 -0.204312,-0.135065 -0.142883,-0.294968 -0.342232,-0.464813 -0.790512,-0.674642 -0.485937,-0.227458 -0.819709,-0.323005 -1.323231,-0.379145 -0.169401,-0.01888 -0.350288,-0.02856 -0.505982,-0.02811 z m 0.573858,0.35309 c 0.115108,-0.006 0.595316,0.129715 0.899523,0.261218 0.250464,0.108262 0.497036,0.25885 0.612938,0.374345 0.128468,0.128017 0.205185,0.296694 0.162489,0.356518 -0.0069,0.0096 -0.08933,0.07227 -0.183744,0.139179 -0.09441,0.06691 -0.226165,0.171313 -0.292756,0.232423 -0.121145,0.11118 -0.168337,0.131785 -0.204313,0.08844 -0.01061,-0.01274 -0.02689,-0.06804 -0.03702,-0.122723 -0.01008,-0.05469 -0.04435,-0.178703 -0.0761,-0.275616 -0.126518,-0.386216 -0.363032,-0.667079 -0.81725,-0.970142 -0.04894,-0.03265 -0.08912,-0.06498 -0.08913,-0.07199 -2e-5,-0.007 0.0089,-0.01075 0.02537,-0.01168 z m 4.461965,6.86e-4 c 0.01701,8.37e-4 0.02537,0.0049 0.02537,0.01234 0,0.01022 -0.04795,0.05112 -0.106272,0.0905 -0.517251,0.349299 -0.758409,0.689115 -0.861815,1.215591 -0.02201,0.112057 -0.05006,0.15637 -0.09805,0.154947 -0.01567,-4.64e-4 -0.09823,-0.06006 -0.183744,-0.132329 -0.08552,-0.07227 -0.222659,-0.17704 -0.305098,-0.233108 -0.177357,-0.120627 -0.190398,-0.154154 -0.116554,-0.305097 0.123798,-0.25304 0.648023,-0.553067 1.25947,-0.721265 0.207367,-0.05705 0.335646,-0.0841 0.386685,-0.08159 z m -2.190532,1.323917 c 0.140421,-9.46e-4 0.225855,0.02814 0.388742,0.122034 0.125032,0.07209 0.351035,0.270501 0.351035,0.308526 0,0.01207 -0.09986,0.116647 -0.222139,0.231736 -0.122286,0.115095 -0.28759,0.281589 -0.367488,0.370231 -0.0799,0.08864 -0.154937,0.16711 -0.166604,0.174146 -0.0126,0.0076 -0.04169,-0.0045 -0.0713,-0.02948 -0.02754,-0.02316 -0.0945,-0.09616 -0.148778,-0.162489 -0.05428,-0.06634 -0.202526,-0.21718 -0.329093,-0.334579 -0.126571,-0.117404 -0.232036,-0.227932 -0.235166,-0.246135 -0.0072,-0.04151 0.106723,-0.147999 0.293443,-0.272874 0.181804,-0.121596 0.258745,-0.148862 0.442905,-0.159062 0.02267,-0.0013 0.04439,-0.0019 0.06445,-0.0021 z m 2.612184,0.150149 c 0.08195,-0.0017 0.03964,0.04758 -0.128217,0.21734 -0.629083,0.636089 -0.959752,1.407977 -1.022933,2.387302 -0.03067,0.475521 -0.09523,0.776532 -0.222825,1.035275 -0.09952,0.201811 -0.171433,0.280229 -0.299612,0.327722 -0.09346,0.03463 -0.125457,0.03599 -0.669843,0.03497 -0.314565,-5.92e-4 -0.589201,-0.008 -0.610196,-0.01645 -0.02112,-0.0085 -0.0384,-0.02984 -0.0384,-0.04799 0,-0.06269 0.06688,-0.419903 0.141922,-0.758288 0.189095,-0.85267 0.365196,-1.308059 0.702752,-1.820301 0.101734,-0.154387 0.186255,-0.254133 0.392856,-0.461416 0.356286,-0.357464 0.629419,-0.545324 1.01882,-0.700012 0.230743,-0.09166 0.434825,-0.152585 0.612253,-0.182372 0.05482,-0.0092 0.0961,-0.01522 0.123413,-0.01578 z m -5.32858,6.86e-4 c 0.09754,-0.01101 0.503782,0.08937 0.758973,0.194028 0.577097,0.236678 1.004663,0.595506 1.437044,1.205307 0.06616,0.09331 0.137271,0.203895 0.157691,0.246134 l 0.03703,0.07679 -0.111075,0.290014 c -0.212927,0.555956 -0.352077,1.123601 -0.425079,1.732543 -0.03026,0.252448 -0.0493,0.273356 -0.18923,0.209798 -0.221133,-0.100448 -0.400158,-0.539002 -0.456617,-1.117549 -0.07264,-0.744381 -0.09917,-0.899144 -0.213225,-1.252615 -0.171009,-0.530005 -0.438159,-0.966923 -0.843303,-1.378766 -0.09565,-0.09722 -0.173461,-0.184693 -0.173461,-0.194028 0,-0.0064 0.0073,-0.01008 0.02125,-0.01168 z" /></g></svg>
