<?xml version="1.0" encoding="UTF-8" standalone="no"?>
<!-- Created with Inkscape (http://www.inkscape.org/) -->

<svg
   width="200mm"
   height="200mm"
   viewBox="0 0 200 200"
   version="1.1"
   id="svg5"
   xml:space="preserve"
   sodipodi:docname="main.svg"
   inkscape:version="1.2.1 (9c6d41e, 2022-07-14)"
   inkscape:export-filename="icons/main.png"
   inkscape:export-xdpi="26.125715"
   inkscape:export-ydpi="26.125715"
   xmlns:inkscape="http://www.inkscape.org/namespaces/inkscape"
   xmlns:sodipodi="http://sodipodi.sourceforge.net/DTD/sodipodi-0.dtd"
   xmlns="http://www.w3.org/2000/svg"
   xmlns:svg="http://www.w3.org/2000/svg"><sodipodi:namedview
     id="namedview7"
     pagecolor="#ffffff"
     bordercolor="#000000"
     borderopacity="0.25"
     inkscape:showpageshadow="2"
     inkscape:pageopacity="0.0"
     inkscape:pagecheckerboard="0"
     inkscape:deskcolor="#d1d1d1"
     inkscape:document-units="mm"
     showgrid="false"
     inkscape:zoom="0.1950968"
     inkscape:cx="-53.819437"
     inkscape:cy="343.41927"
     inkscape:window-width="1920"
     inkscape:window-height="1024"
     inkscape:window-x="0"
     inkscape:window-y="0"
     inkscape:window-maximized="1"
     inkscape:current-layer="layer1"
     showguides="false"><sodipodi:guide
       position="-542.76742,114.89292"
       orientation="1,0"
       id="guide1650"
       inkscape:locked="false" /></sodipodi:namedview><defs
     id="defs2" /><g
     inkscape:label="Layer 1"
     inkscape:groupmode="layer"
     id="layer1"><rect
       style="fill:#ececec;fill-opacity:1;fill-rule:evenodd;stroke:none;stroke-width:3;stroke-opacity:1;stop-color:#000000"
       id="rect7269"
       width="199.07785"
       height="193.7205"
       x="0.46106845"
       y="3.1397481"
       ry="29.599869"
       rx="29.599869" /><g
       id="g7173"
       transform="matrix(1.0381313,0,0,1.0381313,213.62304,-150.5701)"
       style="stroke-width:0.963269"><path
         id="path2146"
         style="fill:#5c5d5c;fill-opacity:1;stroke-width:0.96326"
         d="m -129.88629,218.52232 c -9.78606,-0.0452 -17.3786,3.33458 -19.48577,8.79983 -1.56656,4.06316 -0.24737,9.97381 2.84458,12.74823 1.84385,1.65448 6.54661,4.27303 9.15955,5.10028 5.81493,1.84097 9.1879,4.27917 9.1879,6.64146 0,4.35916 -9.97516,5.22235 -17.56025,1.52021 -1.83999,-0.89804 -3.52896,-1.40895 -3.7944,-1.14941 -0.26319,0.25728 -0.4041,2.53407 -0.31416,5.05962 l 0.16379,4.59148 2.7916,0.93259 h 0.001 c 2.11779,0.70648 4.77886,0.93742 11.00997,0.956 7.02297,0.0215 8.6749,-0.14471 11.35736,-1.12601 5.8952,-2.15684 9.16695,-6.32712 9.16695,-11.68627 0,-6.46734 -3.95494,-10.30782 -14.94358,-14.51363 -2.95884,-1.13249 -5.12883,-2.34923 -6.00453,-3.36692 -1.68124,-1.95392 -1.68695,-2.18844 -0.11323,-3.94102 2.32125,-2.58523 8.98833,-2.8392 14.80064,-0.56423 3.69382,1.44579 4.12613,1.00931 3.93486,-3.96072 l -0.16258,-4.24038 -2.23476,-0.73178 c -1.22887,-0.40291 -4.74705,-0.85886 -7.81922,-1.01389 -0.67093,-0.0339 -1.33347,-0.0524 -1.98589,-0.0555 z m 11.48056,2.34687 h 0.001 l 0.16759,3.49504 z m -3.37678,6.71782 c 0.34969,0.14095 0.68883,0.29331 1.01266,0.45706 0.28327,0.14325 0.537,0.25822 0.76627,0.34125 -0.22887,-0.083 -0.48347,-0.19701 -0.76627,-0.34002 -0.32423,-0.16394 -0.6625,-0.31718 -1.01266,-0.45829 z m 3.39525,0.18727 c -0.056,0.17982 -0.12515,0.32511 -0.20954,0.4398 0.0842,-0.11467 0.15353,-0.25997 0.20954,-0.4398 z m -18.48298,0.58764 c -0.0849,0.0852 -0.16401,0.1735 -0.23648,0.26363 -0.1614,0.20054 -0.30439,0.39781 -0.42995,0.59257 0.12563,-0.19475 0.26743,-0.39203 0.42873,-0.59257 0.0727,-0.0903 0.15281,-0.17853 0.23768,-0.26363 z m 17.1919,0.12441 c 0.20407,0.0505 0.38412,0.0674 0.54083,0.048 -0.15664,0.0196 -0.33674,0.003 -0.54083,-0.048 z m -29.2145,32.47178 c 0.27566,0.4017 1.62999,1.03359 3.06386,1.43891 -1.61271,-0.34489 -2.65458,-0.81966 -3.06386,-1.43891 z"
         sodipodi:nodetypes="cssssssccccssssssscccsccccccscscccccscsccccccc" /><path
         id="path2156"
         style="color:#000000;fill:#1266b8;fill-opacity:1;stroke-width:2.8898"
         d="m -125.89464,177.78036 c -0.49792,0.009 -0.98933,0.0894 -1.45521,0.2372 -1.86351,0.59128 -3.40961,2.37616 -3.41168,4.66018 -0.002,1.80719 0.83034,3.48679 2.41174,4.40025 l -0.0703,-0.0388 v 8.86096 8.215 l -4.75165,-0.047 -4.79505,-0.0465 -0.0486,-5.84616 -0.0568,-6.64456 0.52916,-0.47645 c 1.12847,-1.01556 1.85456,-2.29833 1.96888,-3.67161 0.11433,-1.37328 -0.43694,-2.76908 -1.4826,-3.79305 -0.9827,-0.96229 -2.31418,-1.46296 -3.78478,-1.46296 -2.72986,0 -4.91882,2.31089 -4.91598,5.04879 0.002,1.64691 0.93921,3.13941 2.33939,4.18372 l 0.23668,0.1757 v 0.34571 c -0.67594,-0.47055 -1.45292,-0.81855 -2.19367,-0.81855 -1.69574,0 -3.26992,1.11206 -3.81217,2.7187 -0.23737,0.70335 -0.32414,1.53284 -0.0899,2.30115 0.23419,0.76831 0.70103,1.37726 1.26969,1.9668 l 0.37672,0.39068 -0.0548,3.21065 -0.0388,2.35748 h -5.3206 -5.31234 l -0.045,-3.61115 -0.0527,-4.24211 0.21498,-0.13281 c 0.76703,-0.47348 1.35468,-1.12769 1.8066,-1.85157 0.45191,-0.72388 0.7891,-1.50995 0.7891,-2.44378 0,-0.94524 -0.33063,-1.70643 -0.75034,-2.44119 -0.41971,-0.73477 -0.91436,-1.40751 -1.71669,-1.89239 -0.80711,-0.48778 -1.74093,-0.68368 -2.71663,-0.68368 -2.3908,0 -4.25857,1.5665 -4.8519,3.48402 -0.59332,1.91752 0.0676,4.26801 2.0469,5.60741 l 0.28526,0.19379 0.008,4.37699 0.006,3.91759 -0.19327,0.0351 c -3.20348,0.58255 -5.78508,2.4388 -7.13083,5.22862 -0.30502,0.63231 -0.56944,1.31453 -0.67386,2.25413 -0.10442,0.93961 -0.12399,2.18425 -0.16226,4.55838 -0.0273,1.694 -0.0672,2.92451 -0.12093,3.70313 -7.3e-4,0.0105 -0.001,0.0113 -0.002,0.0217 -0.1079,0.005 -0.16531,0.0111 -0.28681,0.0155 -0.83302,0.0304 -1.96586,0.0496 -3.1781,0.0506 l -3.83956,0.004 -0.3514,-0.35554 c -1.23177,-1.24273 -3.09215,-1.81696 -4.66225,-1.06453 -1.82813,0.87611 -2.64746,2.82782 -2.30683,4.49223 0.34064,1.66442 1.90529,3.13676 3.93154,3.13676 0.76292,0 1.38843,-0.22721 1.97456,-0.5333 0.41728,-0.21792 0.76511,-0.5913 1.10587,-0.99064 0.0361,-0.007 0.0593,-0.0142 0.14263,-0.0207 0.50619,-0.0395 1.7436,-0.0378 4.06797,-0.008 l 3.37137,0.0429 v 5.16403 5.15627 l -6.60166,0.0491 -7.39284,0.0548 -0.42374,-0.49609 c -1.84876,-2.16273 -5.02951,-2.61284 -7.17941,-0.84388 -1.35555,1.11535 -2.04042,2.73503 -1.92598,4.30465 0.11443,1.56961 1.04646,3.07746 2.57607,3.91811 1.0916,0.59993 2.32863,0.86736 3.50986,0.60358 1.18126,-0.26377 2.19619,-0.98742 3.09801,-1.97094 l 0.41392,-0.4532 h 0.40618 c -0.36033,0.47974 -0.76293,0.94599 -0.85576,1.55494 -0.13156,0.86304 0.0987,1.71592 0.49454,2.46445 0.63389,1.19865 1.83414,1.97097 3.0856,2.06861 1.25146,0.0976 2.51535,-0.42391 3.46129,-1.40457 l 0.32039,-0.33176 3.92173,0.0527 3.10162,0.0429 0.0506,7.10758 c 0.024,3.34972 0.0226,5.49995 -0.0119,6.7908 -0.007,0.27394 -0.0187,0.35132 -0.0289,0.5488 -0.35413,0.0141 -0.69038,0.0296 -1.1896,0.0413 -1.42633,0.0335 -3.36836,0.0533 -5.46684,0.0543 l -6.91586,0.004 -0.0842,-0.11111 c -1.56906,-2.0845 -4.54178,-2.64047 -6.62079,-1.08985 -1.63294,1.2179 -2.08353,3.29771 -1.48828,4.92786 0.59525,1.63015 2.23048,2.93936 4.27106,2.93936 1.34036,0 2.6324,-0.64408 3.69176,-1.75597 l 0.29094,-0.30644 h 3.43752 c 1.41626,0 2.4408,0.0219 3.0856,0.0625 0.009,5.5e-4 0.009,5.5e-4 0.0181,0.002 0.0172,0.23294 0.0388,0.4558 0.0388,0.72657 0,0.28026 -0.0225,0.5143 -0.0408,0.75241 -0.2212,0.0176 -0.41992,0.0387 -0.70901,0.0387 -0.78316,0 -1.09618,-0.0376 -1.15238,-0.0548 -0.0562,-0.0172 -0.13797,-0.0553 -0.59583,-0.42943 v -0.002 c -0.45876,-0.37457 -0.83419,-0.67595 -1.38079,-0.88677 -0.5466,-0.21081 -1.166,-0.19966 -1.61334,-0.12867 -1.452,0.23041 -2.77456,1.40355 -3.05046,2.84168 -0.30847,1.60785 0.56489,3.15414 1.834,3.79667 1.26909,0.64253 2.93969,0.50512 4.19922,-0.53123 0.26742,-0.22003 0.0971,-0.13449 0.27699,-0.16795 0.17989,-0.0335 0.75783,-0.0625 1.84795,-0.0625 0.8368,0 1.47573,0.0112 2.07222,-0.0429 0.59649,-0.054 1.27832,-0.1735 1.86139,-0.71882 0.58307,-0.54532 0.74769,-1.26512 0.80822,-1.8495 0.0605,-0.58438 0.0491,-1.18328 0.0491,-1.96474 0,-0.7438 0.0208,-1.01748 0.0388,-1.35185 0.40183,-0.0158 0.87643,-0.0248 1.36374,-0.0212 0.41889,0.003 0.78933,0.0187 1.13843,0.0351 0.0517,0.63745 0.0966,1.57128 0.12506,2.84375 0.0427,1.91055 0.0641,2.94158 0.18138,3.79099 0.11725,0.84942 0.38648,1.50259 0.70538,2.14457 0.89431,1.80038 2.50392,3.36756 4.36304,4.33772 0.53755,0.2805 1.2477,0.53817 2.23863,0.63459 0.99093,0.0964 2.4084,0.12771 5.06842,0.1819 l 4.17753,0.0842 0.0393,2.24792 0.0527,3.04271 -0.48059,0.47077 c -0.78893,0.77148 -1.39268,1.68581 -1.39268,2.69338 0,1.44899 0.73307,2.8925 1.95492,3.62097 2.07907,1.23953 4.87143,0.48536 5.92573,-1.68724 0.84773,-1.74692 0.17554,-3.89349 -1.39216,-5.06274 l -0.20929,-0.15606 v -2.72645 c 0,-1.09628 0.0252,-1.85775 0.0605,-2.4045 0.39098,-0.0254 0.8145,-0.0512 1.39475,-0.0703 1.46764,-0.0483 3.41721,-0.0723 5.3635,-0.0723 1.94629,0 3.89327,0.024 5.36091,0.0723 0.57943,0.0191 1.00192,0.045 1.39268,0.0703 0.0412,0.69164 0.0646,1.78352 0.0646,3.31452 v 3.76773 l -0.37518,0.37672 c -0.81356,0.81917 -1.39112,1.78965 -1.46657,2.8944 -0.0754,1.10476 0.43261,2.19065 1.22628,2.96674 1.06359,1.04005 2.52332,1.29975 3.80494,0.98289 -0.11284,0.97034 0.006,1.97349 0.51779,2.86287 0.47705,0.83 1.14462,1.5695 2.03089,1.98438 0.88627,0.41488 1.84815,0.49624 2.93367,0.45527 1.22343,-0.0462 1.91435,-0.6767 2.5802,-1.34204 0.66585,-0.66534 1.24729,-1.42599 1.45108,-2.48822 0.15447,-0.80517 0.15442,-1.68684 -0.17777,-2.49029 -0.33219,-0.80344 -0.89032,-1.42184 -1.59163,-2.06809 l -0.6718,-0.61701 v -5.64462 c 0,-2.68557 0.0167,-4.18323 0.0605,-5.01778 0.36407,-0.0124 0.74649,-0.0249 1.26349,-0.0331 1.32806,-0.0212 3.06481,-0.0263 4.79299,-0.0196 1.72817,0.007 3.45187,0.0254 4.75217,0.0568 0.44475,0.0107 0.74803,0.0236 1.07383,0.0367 0.004,0.24703 0.0191,0.38413 0.006,0.7736 l -0.0233,0.66197 -0.96325,0.047 -3.699,0.1819 -0.18552,3.65197 c -0.0482,0.94533 -0.10521,1.50044 -0.16019,1.75235 -0.055,0.25192 -0.0289,0.18014 -0.15452,0.3359 -0.48521,0.60178 -0.84933,1.34749 -0.83199,2.18746 0.0173,0.83997 0.44879,1.6077 0.99994,2.14664 0.68195,0.66685 1.59725,1.03322 2.45928,0.98599 0.66466,-0.0364 1.16967,-0.4193 1.65055,-0.79685 -0.13404,0.18423 -0.31034,0.32395 -0.41031,0.55293 -0.24051,0.55088 -0.27544,1.0998 -0.27544,1.61903 0,1.48929 0.80801,2.82075 1.99781,3.46077 1.18981,0.64002 2.71265,0.60169 4.00389,-0.14418 1.1884,-0.68647 1.91349,-1.94949 1.92392,-3.21892 0.0104,-1.26945 -0.61913,-2.50147 -1.68517,-3.37913 l -0.0863,-0.0703 -0.0682,-4.98832 c -0.0211,-1.5475 -0.0174,-3.04607 0.006,-4.19716 0.0117,-0.57554 0.0291,-1.0649 0.0486,-1.42007 0.006,-0.10061 -0.002,-0.0415 0.008,-0.12867 h 3.91966 3.66024 l 0.0429,2.90059 0.0548,3.73414 -0.48266,0.47077 c -0.41848,0.40921 -0.76224,0.77118 -1.02888,1.26969 -0.26664,0.49852 -0.36535,1.08978 -0.36535,1.56425 0,1.86971 1.12627,3.43387 2.63291,4.02559 1.506661,0.59174 3.403569,0.20071 4.651917,-1.18959 0.672556,-0.74904 1.105875,-1.79875 1.105875,-2.7559 0,-0.49493 -0.06311,-1.1209 -0.369486,-1.67587 -0.306377,-0.55497 -0.688464,-0.89788 -1.175639,-1.34152 l -0.564307,-0.51366 v -3.44527 c 0,-1.41237 0.02212,-2.4216 0.06253,-3.06855 0.599067,-0.0441 1.415376,-0.0782 2.243791,-0.0935 0.829853,-0.0154 1.675515,-0.0138 2.334224,0.008 0.111386,0.004 0.174039,0.0108 0.273368,0.0155 0.03121,0.53686 0.05271,1.30426 0.05271,2.82257 v 3.44734 l -0.384472,0.38654 c -0.388472,0.39113 -0.743748,0.77613 -0.982886,1.32601 -0.239138,0.54989 -0.273368,1.09873 -0.273368,1.61747 0,1.01075 0.45062,2.1293 1.136881,2.80035 0.686712,0.67152 1.795366,1.09812 2.824117,1.09812 0.70362,0 1.393973,-0.25146 2.011764,-0.59221 -0.003,0.024 -5.12e-4,0.1735 -0.0036,0.19534 -0.01884,0.13218 -0.02774,0.16002 -0.03721,0.20102 -0.04694,0.0274 -0.09594,0.0582 -0.224792,0.12557 -0.958951,0.50185 -1.216159,1.12771 -1.562179,1.81023 -0.346019,0.68253 -0.630969,1.371 -0.630969,2.25774 0,2.29637 1.653482,4.25009 3.913973,4.91237 1.388513,0.40677 2.781886,0.0587 3.900537,-0.63304 1.11865,-0.69168 2.050018,-1.78138 2.322339,-3.20084 0.171049,-0.89157 0.163596,-1.81852 -0.15658,-2.6758 -0.320174,-0.8573 -0.892687,-1.56491 -1.611271,-2.23863 l -0.681612,-0.63872 V 284.272 c 0,-2.964 0.01496,-4.80667 0.06046,-5.88233 0.0082,-0.19355 0.0194,-0.22735 0.02946,-0.37155 0.188106,-0.0103 0.295708,-0.0214 0.552421,-0.0289 1.066841,-0.0311 2.71438,-0.037 5.017782,-0.0155 l 5.074109,0.0486 0.03721,2.06034 0.05271,2.90628 -0.523483,0.55656 c -0.424761,0.45061 -0.767115,0.83573 -1.023193,1.36374 -0.256077,0.52802 -0.328145,1.11716 -0.328145,1.61127 0,2.20793 1.728305,4.00182 3.949113,4.00182 1.14502,0 2.081314,-0.4819 2.845821,-1.14256 v 6.09006 l -0.10387,0.062 c -1.675721,1.01271 -2.622382,2.89598 -2.398303,4.84001 0.192992,1.67423 1.289947,3.1221 2.867525,3.91036 h 0.0015 l 1.332219,0.66765 0.07803,-0.15399 c 0.214476,0.0719 0.386629,0.15813 0.777214,0.15813 1.015882,1e-5 1.597755,-0.35764 2.306836,-0.74414 0.70908,-0.3865 1.348912,-0.75828 1.896525,-1.49397 1.69645,-2.27906 0.9573,-5.55476 -1.433505,-7.10189 l -0.214973,-0.13849 v -4.30103 c 0,-1.49467 -0.01026,-2.58906 0.0155,-3.3321 0.01811,-0.52238 0.05299,-0.6093 0.07648,-0.74414 0.222931,-0.008 0.472078,-0.0124 1.02526,-0.0114 0.603041,10e-4 0.96207,0.007 1.255737,0.0196 0.01103,0.28648 0.0155,0.62688 0.0155,1.21078 0,1.12242 -0.03411,1.61035 -0.04289,1.71462 -0.01624,0.0122 0.0021,-0.003 -0.01757,0.0119 -0.766856,0.55441 -1.198243,1.15278 -1.4981,2.04122 -0.642282,1.90307 0.404644,3.90352 2.185913,4.75578 1.903641,0.91082 4.006058,0.11179 4.986259,-1.32447 0.980201,-1.43625 0.9678,-3.67728 -0.558622,-5.13457 l -0.312643,-0.29869 -0.06046,-2.64273 v -0.002 c -0.02161,-0.93218 -0.0068,-1.61459 -0.05839,-2.24999 -0.05163,-0.63595 -0.196305,-1.43649 -0.861446,-2.02365 -0.665144,-0.58716 -1.379182,-0.64599 -2.054655,-0.68936 -0.675474,-0.0434 -1.453566,-0.0323 -2.52181,-0.0527 l -1.484147,-0.0295 -0.03721,-2.08979 c -0.02071,-1.12787 -0.01175,-1.77731 0.0078,-2.29082 0.27016,-0.0119 0.495134,-0.0229 0.853695,-0.0331 1.18978,-0.0337 2.807044,-0.0559 4.548559,-0.0568 2.953147,-0.002 4.57379,-0.009 5.695777,-0.0801 1.121985,-0.0708 1.843378,-0.25166 2.511474,-0.4961 2.294745,-0.83955 4.287326,-2.80492 5.230689,-5.09168 0.278197,-0.67441 0.513366,-1.41995 0.593762,-2.78329 0.0804,-1.36334 0.08963,-3.52814 0.109037,-7.79694 0.0164,-3.60291 0.04109,-5.78528 0.09405,-7.05073 0.02023,-0.4834 0.04774,-0.71409 0.07183,-0.93535 0.04423,-0.0125 0.03895,-0.0556 0.71882,-0.13074 0.906976,-0.10029 2.429153,-0.14634 4.773352,-0.14883 l 4.002339,-0.004 0.486276,0.48007 c 0.8729,0.86214 1.851883,1.48872 2.952791,1.72289 1.100908,0.23418 2.260993,0.0242 3.275769,-0.50798 3.015907,-1.58161 3.626896,-5.69825 1.193209,-8.07806 -2.017384,-1.97269 -5.289903,-1.80037 -7.28121,0.24805 l -0.49816,0.5116 -5.027084,0.1018 c -2.740641,0.0556 -4.153429,0.0845 -5.156274,0.18759 -1.002844,0.10307 -1.70477,0.37514 -2.29495,0.67179 -0.997921,0.5016 -1.822151,1.23282 -2.341976,2.15026 -0.276478,0.48794 -0.594464,1.28366 -0.673861,2.61741 -0.0794,1.33374 -0.08577,3.53839 -0.10542,7.95507 l -0.03876,8.46253 -0.4377,0.72864 c -0.284545,0.47335 -0.727445,0.90908 -1.219047,1.19166 l -0.759643,0.43511 h -56.066348 -56.08391 l -0.70694,-0.38654 c -0.25623,-0.14059 -1.06809,-0.85996 -1.25987,-1.12706 l -0.43356,-0.60151 -0.0625,-28.65407 c -0.036,-16.26942 -0.079,-23.87706 0.0997,-27.46499 0.0893,-1.79397 0.2777,-2.55472 0.34572,-2.70319 0.034,-0.0742 0.001,-0.0307 0.0723,-0.0956 0.071,-0.0649 0.27519,-0.21486 0.56018,-0.46663 0.28295,-0.24998 1.05699,-0.65956 1.17098,-0.71004 0.0162,-0.002 0.0204,-0.004 0.0383,-0.005 0.13526,-0.009 0.3485,-0.0179 0.6289,-0.0269 0.5608,-0.0181 1.39223,-0.0364 2.49959,-0.0512 2.2147,-0.0295 5.54024,-0.0512 10.11152,-0.0661 9.14259,-0.0297 23.27101,-0.0303 43.52345,-0.006 l 55.808478,0.0667 0.633036,0.43511 c 0.279614,0.19197 1.010843,0.9894 1.14825,1.22887 0.26659,0.46462 0.256796,0.35234 0.326079,0.98237 0.06928,0.63003 0.100671,1.89015 0.136942,4.30258 l 0.06615,4.41782 -0.21084,0.24649 c -0.846766,0.98404 -1.248285,2.23963 -1.056783,3.43752 0.191502,1.19789 0.992478,2.27781 2.13682,2.88044 1.73465,0.91347 3.742059,0.36465 4.830197,-0.88263 1.088138,-1.24728 1.395243,-3.2598 0.357601,-4.92373 -0.078,-0.12508 -0.09408,-0.0818 -0.160197,-0.81649 -0.06611,-0.73468 -0.10793,-2.06577 -0.150379,-4.37492 -0.04679,-2.54362 -0.06966,-3.86529 -0.1757,-4.84364 -0.106041,-0.97835 -0.370428,-1.6706 -0.677995,-2.32234 -0.998228,-2.11527 -2.655563,-3.78192 -4.734077,-4.72064 -0.731481,-0.33033 -1.413568,-0.60514 -2.41639,-0.71313 -1.002822,-0.108 -2.346611,-0.11993 -5.031218,-0.15813 -1.874082,-0.0267 -3.2216,-0.066 -4.076237,-0.11886 -0.04928,-0.003 -0.05521,-0.007 -0.101286,-0.0103 -0.0092,-0.21687 -0.0194,-0.37375 -0.02739,-0.64648 -0.03153,-1.07607 -0.05379,-2.54272 -0.05478,-4.12119 l -0.0021,-5.1971 0.420129,-0.45682 c 0.609983,-0.66022 1.094007,-1.36105 1.281059,-2.22105 0.187052,-0.86 -0.01541,-1.76644 -0.400492,-2.50011 -0.609945,-1.16207 -1.700223,-1.96511 -2.9099,-2.14819 -1.209679,-0.18307 -2.485289,0.25763 -3.424081,1.17564 -0.823463,0.80523 -1.369173,1.93474 -1.247986,3.08819 0.05385,0.51251 0.250575,0.97489 0.492477,1.41593 -1.137094,-0.55875 -2.565137,-0.45321 -3.562573,0.4315 -0.567508,0.50337 -1.120824,1.13654 -1.23455,2.03915 -0.113729,0.90262 0.273038,1.65945 0.703316,2.27945 0.216353,0.31173 0.213335,0.30834 0.251664,0.49402 0.03833,0.18569 0.06873,0.64323 0.06873,1.50586 0,0.66933 0.02558,1.24228 0.08578,1.73064 0.0301,0.24418 0.06671,0.46616 0.132808,0.7028 0.0661,0.23663 0.07936,0.49514 0.513664,0.91984 0.443292,0.43347 0.697499,0.43385 0.93741,0.49609 0.23991,0.0622 0.468138,0.0966 0.722954,0.12506 0.509629,0.0571 1.119429,0.0822 1.845365,0.0822 0.438115,0 0.654015,0.0105 0.898653,0.0196 -0.0038,0.21822 -0.0044,0.39934 -0.02377,0.77308 l -5.998084,0.0491 -6.114872,0.0486 c -0.01375,-0.32017 -0.02775,-0.68498 -0.03721,-1.14825 -0.0224,-1.09669 -0.03105,-2.50845 -0.02739,-3.90415 0.0037,-1.39571 0.02116,-2.77988 0.04909,-3.81683 0.01262,-0.46869 0.02829,-0.83496 0.04444,-1.12086 0.06814,-0.0476 0.128346,-0.0952 0.195337,-0.13694 3.089823,-1.92368 3.085899,-6.72676 -0.161747,-8.369 -0.788405,-0.39867 -1.50941,-0.51573 -2.339909,-0.51573 -1.335204,0 -2.606952,0.45567 -3.484542,1.36736 -0.877589,0.91168 -1.293736,2.1854 -1.295011,3.53725 -7.8e-5,0.10931 0.04782,0.21701 0.04909,0.32401 -0.859134,-0.23563 -1.581937,-0.0881 -2.265495,0.1602 -0.700644,0.2545 -1.364753,0.62313 -1.900659,1.28933 -0.583323,0.72514 -0.804602,1.61741 -0.804602,2.51715 0,0.49492 0.04292,1.04718 0.293006,1.5844 0.250089,0.53721 0.609807,0.90487 0.999939,1.27538 l 0.349849,0.33176 -0.05478,3.66799 -0.04289,2.85719 -6.674012,0.0512 -6.632676,0.047 v -1.84795 -2.69338 l 0.44339,-0.40049 c 0.4437,-0.40055 0.831054,-0.74841 1.116728,-1.32188 0.285671,-0.57347 0.314709,-1.15518 0.314709,-1.67225 0,-2.55338 -2.381427,-4.54466 -4.892727,-4.08399 -1.6875,0.30957 -2.91777,1.62221 -3.22254,3.09955 -0.30477,1.47736 0.24978,3.13657 1.58801,4.21525 l 0.24598,0.19689 -0.0506,2.56832 -0.0351,1.83244 h -9.07438 -9.04286 v -1.93786 -1.98593 l 1.94717,-0.0667 4.81831,-0.16227 0.0935,-4.62297 0.0548,-2.60552 0.29869,-0.30231 c 0.6929,-0.69906 1.1541,-1.67377 1.26762,-2.65824 0.0599,-0.51931 0.13071,-1.08712 -0.12092,-1.73064 -0.25163,-0.64352 -0.63863,-0.98788 -1.05472,-1.39475 -0.41764,-0.40841 -0.77755,-0.79147 -1.42575,-1.02888 -0.6482,-0.23741 -1.19954,-0.16572 -1.74201,-0.10593 -0.98314,0.10837 -1.98103,0.52803 -2.59571,1.2268 -0.73158,0.83167 -1.19869,1.89354 -1.10742,2.98999 0.0913,1.09646 0.70506,2.0542 1.54099,2.80293 l 0.29455,0.26355 -0.0465,1.68776 -0.0274,0.92397 h -1.11725 -1.09554 l -0.045,-3.70727 -0.0548,-4.44314 0.33382,-0.25993 c 2.2924,-1.7754 2.87684,-5.06928 1.02371,-7.22281 -0.75029,-0.87195 -1.69274,-1.43249 -2.67993,-1.70119 l -0.001,5.1e-4 c -0.4936,-0.13434 -0.99811,-0.19588 -1.49603,-0.18655 z m 0.18345,4.80539 h 5.2e-4 c 0.17592,9e-5 0.2622,0.0346 0.30024,0.0584 -0.008,0.0451 -0.0426,0.13402 -0.17932,0.26768 -0.18603,0.1819 -0.23674,0.16308 -0.23306,0.154 -0.004,-0.003 -0.0196,-0.0241 -0.0258,-0.03 -0.0103,-0.0455 -0.0226,-0.11754 -0.0145,-0.23927 0.008,-0.12366 0.0204,-0.1806 0.0258,-0.20567 0.016,-0.003 0.0413,-0.005 0.12609,-0.005 z m -14.99598,4.35374 c 0.17671,0 0.26334,0.034 0.30179,0.0579 -0.009,0.0451 -0.0436,0.13446 -0.18035,0.2682 -0.11822,0.11561 -0.0591,0.0583 -0.0941,0.0724 l -0.15606,-0.38292 c 0.0179,-0.009 -0.0431,-0.0155 0.12868,-0.0155 z m 78.386426,2.95228 c 0.206939,-1.6e-4 0.616104,0.20515 0.707451,0.50643 0.09236,0.30461 -0.215417,0.82356 -0.415996,0.93482 -0.04113,0.0136 -0.07844,0.0316 -0.125573,0.0382 -0.0029,4.1e-4 -0.0054,1.5e-4 -0.0083,5.2e-4 -0.130514,0.009 -0.358611,-0.007 -0.575158,-0.17053 -0.224176,-0.16954 -0.309523,-0.42001 -0.335897,-0.56689 -2.08e-4,-0.01 -0.0038,-0.0195 -0.0036,-0.0295 -0.0015,-0.0115 -0.0014,-0.018 -0.0021,-0.0274 0.0036,-0.0596 0.02422,-0.11689 0.04341,-0.17414 0.02436,-0.0547 0.05347,-0.11685 0.118339,-0.19431 0.135476,-0.16176 0.35211,-0.26004 0.486792,-0.29714 0.03764,-0.009 0.07462,-0.0162 0.110587,-0.0202 z m -98.423446,1.47536 c 0.0135,4.8e-4 0.022,0.002 0.0248,0.001 0.26233,0.13401 0.30913,0.33105 0.0574,0.57723 -0.0395,0.0386 -0.18717,0.0745 -0.23047,0.0506 -0.0433,-0.024 -0.17765,-0.36917 -0.13695,-0.48059 -0.007,0.0187 0.0587,-0.0896 0.1602,-0.12867 0.0507,-0.0196 0.0974,-0.0206 0.12506,-0.0196 z m 58.09206,4.03903 c 0.22426,-0.0224 0.45651,0.0967 0.55035,0.20722 0.0594,0.0699 0.20278,0.40785 0.0724,0.74001 -0.13046,0.33215 -0.46999,0.48327 -0.56431,0.49403 0.0427,-0.005 -0.18179,0.0297 -0.41806,-0.24805 -0.23627,-0.27774 -0.19172,-0.7901 -0.14418,-0.87695 0.0713,-0.13019 0.27958,-0.29387 0.50385,-0.31626 z m 21.517547,0.60978 c 0.0192,0.84623 0.04185,1.51934 0.04083,3.25562 -9.82e-4,1.57483 -0.0236,3.04124 -0.0584,4.11913 -0.0093,0.28717 -0.02082,0.45648 -0.03152,0.68161 -0.205901,0.002 -0.295751,0.015 -0.59738,0.004 l -0.429948,-0.016 -0.04289,-2.96674 -0.05271,-3.59358 0.03721,-0.0253 c 0.549292,-0.38248 0.848617,-0.92163 1.134814,-1.45883 z m 16.68167,0.22221 v 0.416 c 0,0.86232 -0.01664,1.69001 -0.04134,2.3089 -0.0017,0.0418 -0.0039,0.0594 -0.0057,0.0992 -0.173357,0.008 -0.185283,0.0196 -0.445451,0.0196 -0.242744,0 -0.317791,-0.009 -0.480591,-0.0134 -0.0038,-0.14985 -0.01137,-0.20561 -0.01137,-0.4222 0,-0.87699 -0.12275,-0.52611 0.366902,-1.12861 0.305879,-0.37638 0.432586,-0.84375 0.617534,-1.27951 z m -125.703437,41.32513 c 0.0318,-0.007 0.0757,-0.0127 0.11524,0.003 0.0791,0.0317 0.18758,0.2245 0.18758,0.26561 0,0.2071 -0.26921,0.31434 -0.41186,0.1602 0.033,0.0356 -0.0305,-0.0363 -0.0274,-0.16381 0.003,-0.12741 0.0896,-0.25279 0.0935,-0.25632 -0.008,0.008 0.0111,-10e-4 0.0429,-0.009 z m 161.40255,12.86071 c 0.05232,0.008 0.15032,0.14004 0.226342,0.24805 -0.07196,0.11065 -0.175348,0.2259 -0.189652,0.24236 -0.01928,-0.003 -0.09039,0.004 -0.134359,-0.0393 -0.06417,-0.0626 -0.04964,-0.40246 -0.05891,-0.38861 0.01159,-0.0173 0.08337,-0.0733 0.15658,-0.0625 z m -160.4114,10.70581 c 0.0427,0.001 0.0848,0.008 0.12403,0.0227 0.15709,0.0575 0.35966,0.33561 0.35966,0.52349 0,0.15051 -0.13581,0.34843 -0.27336,0.39429 -0.12599,0.042 -0.48897,-0.0825 -0.63201,-0.25167 -0.006,-0.0499 -0.009,-0.11639 0.001,-0.21704 0.0213,-0.21353 0.10253,-0.34425 0.12609,-0.3824 0.0706,-0.0527 0.18197,-0.0923 0.29455,-0.0894 z m 121.528502,16.77985 v 5.2e-4 c 0.07677,0.55146 0.07588,3.26931 0.08785,5.55263 -0.115279,-0.10649 -0.130745,-0.26693 -0.259933,-0.36328 l -0.206706,-0.154 v -2.74815 c 0,-1.64055 0.08114,-2.15537 0.04651,-2.27325 0.103202,-0.002 0.07932,-0.004 0.211357,-0.004 0.122123,0 0.02495,-0.0134 0.120923,-0.0103 z m -64.060692,0.0553 c 0.25901,-0.011 0.42223,0.003 0.62115,0.01 0.006,0.0891 0.0121,0.0909 0.0176,0.19948 0.0455,0.90122 0.0625,2.47897 0.0625,5.03121 v 3.33417 c -0.17993,-0.24651 -0.31863,-0.5351 -0.53898,-0.7736 l -0.44752,-0.48266 0.0568,-4.06435 0.0429,-3.2458 z m 16.64291,5.79706 h 0.31833 0.28474 l 0.0372,2.09548 0.002,0.0822 c -0.14674,-0.2932 -0.29086,-0.59013 -0.5333,-0.84594 -0.0919,-0.097 -0.10713,-0.10707 -0.1173,-0.11214 -0.002,-0.0219 -0.0285,-0.34663 5.1e-4,-1.03818 z m 45.136267,2.08101 c 0.259471,-0.0101 0.136921,0.09 0.09767,0.0692 0.03159,0.042 0.166398,0.15059 0.166398,0.58963 0,0.43902 -0.134803,0.54613 -0.166398,0.58808 0.05234,-0.0278 0.252187,0.15874 -0.501779,0.0134 -0.442389,-0.0853 -0.701848,-0.48768 -0.363285,-1.01338 0.10181,-0.15809 -0.203661,-0.0824 0.363285,-0.19172 0.188498,-0.0363 0.31762,-0.0519 0.40411,-0.0553 z m -82.553617,0.29042 c 0.0655,-0.007 0.14437,-0.004 0.25528,0.0227 0.21132,0.0519 0.25856,0.12375 0.34933,0.19533 0.0115,0.009 0.0355,0.0157 0.045,0.0238 2.4e-4,0.008 -0.0193,0.0647 -0.0176,0.0817 0.0137,0.1367 0.0938,0.40248 -0.14469,0.65629 -0.26386,0.28076 -0.40941,0.20069 -0.37879,0.21291 0.005,0.002 -0.0738,0.0247 -0.0568,0.031 -0.52828,-0.19825 -0.61869,-0.66508 -0.61134,-0.79479 0.006,-0.10449 0.11282,-0.24922 0.29146,-0.3886 0.0176,-0.005 0.0665,8.6e-4 0.0915,-0.004 0.0586,-0.0122 0.1112,-0.029 0.17673,-0.0362 z m 52.626245,1.62832 c -0.0198,0.004 0.121933,0.029 0.19327,0.18759 0.07407,0.16464 -0.04276,0.47036 -0.06925,0.50281 -0.01823,0.007 -0.06937,0.0287 -0.151412,0.0227 -0.0742,-0.005 -0.143433,-0.0398 -0.197913,-0.0739 -0.008,-0.0401 -0.0172,-0.057 -0.0171,-0.15296 4.8e-4,-0.22328 0.103013,-0.39464 0.124023,-0.43873 z m -14.521595,0.71882 0.006,0.31058 -0.19378,0.19533 c 0.0842,-0.16066 0.13009,-0.33046 0.18758,-0.50591 z m 2.18643,2.94659 c 0.36078,0 0.6429,0.15235 0.79117,0.36432 0.0458,0.13582 0.073,0.32635 -0.0109,0.54829 -0.12368,0.32741 -0.51045,0.5182 -0.7152,0.55139 -0.17286,-0.0215 -0.34291,-0.1203 -0.50178,-0.30748 -0.0327,-0.0385 -0.0543,-0.0784 -0.0796,-0.11782 -0.0816,-0.29694 -0.0172,-0.7282 0.11472,-0.88367 -0.0129,0.0152 0.078,-0.0779 0.25529,-0.13642 0.0473,-0.008 0.0933,-0.0186 0.14624,-0.0186 z m 26.444898,3.86023 c 0.02955,4.7e-4 0.08433,0.007 0.127641,0.0103 0.01842,0.0111 0.06024,0.0377 0.06305,0.0946 0.0029,0.0593 -0.02346,0.18588 -0.120923,0.28938 -0.04819,0.0512 -0.105543,0.078 -0.139526,0.0925 -0.03726,-0.0226 -0.128646,-0.0709 -0.161231,-0.16278 -0.03107,-0.0876 0.01994,-0.17007 0.05684,-0.25786 0.03558,-0.0282 0.01047,-0.0688 0.17415,-0.0661 z m 20.790462,4.37648 c 0.101443,0 0.144012,0.004 0.203605,0.006 0.0032,0.0627 0.0072,0.11006 0.0072,0.21859 0,-0.0927 -0.0069,0.0541 -0.118856,0.16227 -0.03587,0.0346 -0.05957,0.0418 -0.08682,0.0558 -0.05183,-0.0331 -0.139871,-0.0927 -0.185002,-0.20619 -0.06298,-0.15836 -0.026,-0.19228 -0.03669,-0.20154 0.01274,-0.0171 -0.05729,-0.0351 0.216524,-0.0351 z" /><path
         id="path2150"
         style="fill:#5c5d5c;fill-opacity:1;stroke-width:0.963266"
         d="m -82.747422,219.43531 c -2.62112,-0.0363 -5.23023,0.12072 -6.95983,0.48143 -8.57962,1.78943 -14.695088,8.13386 -16.101968,16.7081 -2.42289,14.76608 4.62093,26.63912 16.926838,28.53338 1.50899,0.23293 4.93348,0.34294 7.60993,0.24531 7.21212,-0.26295 10.84378,-1.7054 14.75578,-5.86204 2.2323,-2.37184 4.31519,-6.3897 4.41364,-8.51453 l 0.0645,-1.38399 -5.79356,-1.73358 c -3.18622,-0.95295 -5.96041,-1.73965 -6.16458,-1.74992 -0.20417,-0.01 -0.67802,0.74777 -1.05182,1.68248 -2.07904,5.19875 -3.80374,6.60921 -8.08317,6.60921 -5.43258,0 -7.75612,-2.89464 -8.20276,-10.21538 -0.43015,-7.05024 0.97119,-11.05527 4.55573,-13.02528 3.94147,-2.16618 9.38344,-0.37195 11.08931,3.65522 0.30436,0.71848 0.89426,1.30642 1.30939,1.30733 1.7561,0.003 11.76852,-2.50489 11.96122,-2.99593 0.3427,-0.87333 -2.53281,-5.98349 -4.60173,-8.17824 -2.47972,-2.63063 -4.96798,-4.02965 -8.69647,-4.88895 -1.77615,-0.40935 -4.40922,-0.63827 -7.03035,-0.67462 z m -1.05794,10.38609 c 0.69888,-0.003 1.45172,0.0506 2.18128,0.15024 -0.72962,-0.0996 -1.48238,-0.15343 -2.18128,-0.15024 z m 0,0 c -0.52417,0.002 -1.01825,0.0369 -1.45042,0.10732 0.43223,-0.0706 0.92627,-0.10495 1.45042,-0.10732 z m -8.05047,13.73568 c 0.0815,2.66642 0.32359,4.6663 0.80342,6.2157 -0.54667,-1.39244 -0.69871,-2.78981 -0.80342,-6.2157 z m 28.99846,6.91792 c 0.0527,0.0959 0.0835,0.19838 0.10127,0.31175 -0.0178,-0.11334 -0.0488,-0.21562 -0.10127,-0.31175 z m -13.15408,0.72879 c -0.25479,0.40031 -0.5163,0.78337 -0.77274,1.08758 -0.36773,0.43622 -0.77088,0.82121 -1.199,1.15912 0.72132,-0.62313 1.40549,-1.40285 1.97174,-2.2467 z m -11.48183,2.88657 c 0.0716,0.0415 0.14696,0.0751 0.21976,0.11453 1.71515,0.83469 3.74264,1.13599 5.58811,0.8862 -1.90906,0.34163 -3.89666,0.0281 -5.58811,-0.8862 -0.0138,-0.006 -0.0283,-0.0118 -0.0419,-0.0178 -0.0619,-0.0305 -0.11729,-0.0649 -0.17782,-0.0961 z m -12.880138,4.13767 c 1.592778,1.81611 3.498028,3.31548 5.640238,4.41366 -0.29313,-0.1434 -0.58228,-0.28228 -0.88928,-0.44567 -1.70069,-0.90516 -3.32851,-2.29197 -4.750958,-3.96799 z m 32.047528,2.14448 c -1.36004,1.23129 -2.37111,1.9849 -3.52641,2.55434 1.2055,-0.63072 2.32249,-1.46439 3.52641,-2.55434 z m -7.83683,3.92505 c -1.68695,0.31817 -3.55988,0.40735 -6.89647,0.38434 -2.52298,-0.0178 -4.42511,-0.108 -6.0399,-0.32403 1.65165,0.17662 3.89883,0.30923 6.0399,0.32403 2.85342,0.0198 5.05636,-0.0839 6.89647,-0.38434 z"
         sodipodi:nodetypes="ssscssccccssssscsssscccccccccccccsccccccscccscccccccsc" /></g></g></svg>
