<?xml version="1.0" encoding="UTF-8" standalone="no"?>
<!-- Created with Inkscape (http://www.inkscape.org/) -->

<svg
   width="200mm"
   height="200mm"
   viewBox="0 0 200 200"
   version="1.1"
   id="svg5"
   xml:space="preserve"
   sodipodi:docname="logo2.svg"
   inkscape:version="1.2.1 (9c6d41e, 2022-07-14)"
   inkscape:export-filename="icons/main.png"
   inkscape:export-xdpi="26.125715"
   inkscape:export-ydpi="26.125715"
   xmlns:inkscape="http://www.inkscape.org/namespaces/inkscape"
   xmlns:sodipodi="http://sodipodi.sourceforge.net/DTD/sodipodi-0.dtd"
   xmlns="http://www.w3.org/2000/svg"
   xmlns:svg="http://www.w3.org/2000/svg"><sodipodi:namedview
     id="namedview7"
     pagecolor="#ffffff"
     bordercolor="#000000"
     borderopacity="0.25"
     inkscape:showpageshadow="2"
     inkscape:pageopacity="0.0"
     inkscape:pagecheckerboard="0"
     inkscape:deskcolor="#d1d1d1"
     inkscape:document-units="mm"
     showgrid="false"
     inkscape:zoom="0.3901936"
     inkscape:cx="275.50426"
     inkscape:cy="433.11833"
     inkscape:window-width="1920"
     inkscape:window-height="1024"
     inkscape:window-x="0"
     inkscape:window-y="0"
     inkscape:window-maximized="1"
     inkscape:current-layer="layer1" /><defs
     id="defs2" /><g
     inkscape:label="Layer 1"
     inkscape:groupmode="layer"
     id="layer1"><g
       id="g19672"
       transform="translate(0,-149.23817)"><circle
         style="opacity:1;fill:#ff0000;fill-opacity:1;fill-rule:evenodd;stroke:none;stroke-width:0.999996;stop-color:#000000"
         id="path19613"
         cx="100"
         cy="249.23817"
         r="100" /><g
         id="g962"
         transform="matrix(0.88556359,0,0,0.86595318,0.54371701,223.23386)"
         style="fill:#ffffff;fill-opacity:1;stroke-width:1.14193"
         inkscape:export-filename="favicons/main.png"
         inkscape:export-xdpi="26.125715"
         inkscape:export-ydpi="26.125715"><path
           id="path306"
           style="fill:#ffffff;fill-opacity:1;stroke-width:1.14193"
           d="m 61.513297,-0.05898733 c -4.635394,-0.0219 -8.23182,1.61541993 -9.229927,4.26278993 -0.742038,1.9682 -0.117372,4.83141 1.347204,6.1753404 0.87338,0.80143 3.101086,2.06993 4.338754,2.47065 2.754384,0.89177 4.352189,2.07257 4.352189,3.21686 0,2.11159 -4.724985,2.53021 -8.317839,0.7369 -0.871558,-0.43502 -1.671576,-0.6828 -1.797306,-0.55707 -0.12467,0.12462 -0.191428,1.22762 -0.148828,2.45101 l 0.07751,2.22416 1.3224,0.45165 h 5.17e-4 c 1.003136,0.34222 2.263675,0.45402 5.215186,0.46302 3.326602,0.01 4.10891,-0.0698 5.379516,-0.54519 2.792404,-1.04478 4.342371,-3.06517 4.342371,-5.66115 0,-3.13278 -1.873101,-4.99328 -7.078121,-7.0305804 -1.401528,-0.54858 -2.429471,-1.13794 -2.844271,-1.63091 -0.796368,-0.94648 -0.799136,-1.05997 -0.05374,-1.90892 1.099508,-1.25229 4.25728,-1.37537 7.010424,-0.27337 1.749668,0.70034 1.954569,0.48926 1.863969,-1.91823 l -0.077,-2.05413991 -1.058333,-0.3545 c -0.582078,-0.19517 -2.248969,-0.41634002 -3.704167,-0.49144002 -0.3178,-0.0164 -0.631484,-0.02538 -0.940511,-0.02688 z m 80.670013,0.11008 c -1.35502,0.01 -2.70115,0.20539002 -3.94911,0.60099002 -4.40193,1.39538991 -7.29749,5.08460991 -7.583,9.66091031 -0.23332,3.73993 0.58612,6.09686 2.99981,8.62738 1.53499,1.60928 2.90394,2.4109 5.14698,3.01377 4.04464,1.08711 9.04582,0.1013 12.0742,-2.38022 1.29756,-1.06326 1.43377,-1.70817 0.49092,-2.32595 -0.92048,-0.60312 -1.11575,-0.55666 -2.65513,0.63097 -4.96258,3.82859 -12.04749,2.35641 -14.69781,-3.05408 -0.52577,-1.07334 -0.64344,-1.71983 -0.64544,-3.56051 -0.003,-1.9272505 0.10249,-2.4630804 0.73277,-3.7465404 2.57014,-5.23361 10.31682,-6.66671991 14.75104,-2.72851 0.73267,0.65072 1.44048,1.18339 1.57303,1.18339 0.13255,0 0.5608,-0.27488 0.95136,-0.61082 0.95706,-0.82323 0.72246,-1.43993 -1.07435,-2.82618 -2.1108,-1.62846991 -5.13423,-2.50631993 -8.11527,-2.48459993 z M 76.063314,0.37716269 c -0.289196,-0.00286 -0.580094,-0.00165 -0.866614,0.0031 -1.719118,0.0286 -3.282496,0.18702 -3.408061,0.38448 -0.10943,0.17209 -0.201088,3.07330991 -0.203088,6.44714991 -0.0055,8.2755204 0.411084,10.2824204 2.57607,12.4111304 1.510986,1.48568 2.987305,2.04672 5.886979,2.23707 1.382448,0.0908 2.581005,0.18477 2.663403,0.20877 0.08242,0.024 0.852676,-0.0867 1.711524,-0.24546 1.948316,-0.36017 3.400505,-1.07506 4.709273,-2.31872 2.032546,-1.93145 2.557467,-3.86925 2.557467,-9.44387 V 6.2372726 h 1.980241 1.980241 l 0.07028,7.7390604 0.07028,7.73907 h 3.439581 3.43959 l 0.0698,-7.73907 0.0703,-7.7390604 h 3.01997 c 3.78181,0 3.85331,-0.0531 3.84731,-2.86339 -0.002,-1.11739 -0.0915,-2.16404 -0.19844,-2.3259599 -0.13609,-0.20611001 -3.68584,-0.32517001 -11.83597,-0.39687001 l -11.641664,-0.10232 -0.132292,7.14374991 c -0.114308,6.1729504 -0.196138,7.2601704 -0.600996,8.0010604 -0.72353,1.32407 -1.641319,1.78852 -3.535185,1.78852 -1.870946,0 -2.776359,-0.49677 -3.669027,-2.01228 -0.486978,-0.82677 -0.536449,-1.46228 -0.614949,-7.9757404 -0.07724,-6.40493 -0.127527,-7.07938991 -0.529167,-7.09568991 -0.280105,-0.0114 -0.5676,-0.01832 -0.856795,-0.02119 z m -13.202295,0.0708 c 0.452264,0.00207 0.839239,0.01418 1.194759,0.03101 -0.356274,-0.0169 -0.741139,-0.029 -1.194759,-0.03101 z m 2.472717,0.15141 c 0.03982,0.00672 0.07924,0.01349 0.116789,0.02067 -0.03777,-0.00724 -0.07672,-0.0139 -0.116789,-0.02067 z m 63.683454,0.07493 -9.07232,0.06925 -9.07231,0.06976 -0.0698,10.18594031 c -0.0382,5.60215 -0.0121,10.33489 0.0579,10.51719 0.0985,0.25666 2.18245,0.33176 9.23562,0.33176 8.06131,0 9.12653,-0.0482 9.26868,-0.41857 0.23163,-0.60367 0.18993,-3.88775 -0.0543,-4.2721 -0.15017,-0.23637 -1.72056,-0.34477 -5.75055,-0.39687 l -5.54385,-0.07183 -0.0786,-1.78594 -0.078,-1.78594 4.57595,-0.0041 c 2.51688,-0.002 4.84858,-0.0767 5.18159,-0.16588 0.57637,-0.15439 0.60177,-0.26552 0.52917,-2.31149 l -0.076,-2.1492204 -5.02709,-0.13229 -5.02708,-0.13229 v -1.32292 -1.32292 l 5.42396,-0.13229 5.42396,-0.13229 0.0765,-2.31872 z m 30.11341,0.00672 -3.41117,5.2e-4 V 11.088653 c 0,5.72381 0.0792,10.48634 0.17622,10.58334 0.097,0.097 1.64243,0.17621 3.43442,0.17621 3.86141,0 3.50631,0.4699 3.60081,-4.7625 l 0.0646,-3.57187 h 3.30729 3.30729 l 0.13229,4.10104 0.13229,4.10104 h 3.43959 3.43958 V 11.264353 0.81331269 h -3.43958 -3.43959 l -0.13229,3.43958991 -0.13229,3.43958 -3.37344,0.0739 -3.37344,0.07441 v -3.16156 c 0,-1.7387 -0.0724,-3.34945 -0.16071,-3.57963 -0.13495,-0.35171991 -0.70533,-0.41857991 -3.57187,-0.41857991 z m -87.0195,5.2e-4 0.0031,6.94478991 c 0.0013,2.7695704 0.02633,4.6998804 0.117822,6.1283104 -0.09151,-1.42838 -0.117214,-3.35851 -0.118339,-6.1277904 z M 66.951208,1.0779027 h 5.17e-4 l 0.07958,1.6929199 z m 89.164582,5.1e-4 h 5.2e-4 l -0.0698,9.9203303 c -0.0334,4.77444 -0.0178,8.90348 0.0336,9.98337 -0.0513,-1.08047 -0.0675,-5.20896 -0.0341,-9.98286 z m -12.34291,1.3539299 c 0.51258,0.02225 0.96791,0.06195 1.38441,0.12247 -0.41638,-0.06048 -0.87201,-0.10022 -1.38441,-0.12247 z m 1.49655,0.14004 c 0.26239,0.04134 0.51077,0.09061 0.74517,0.15141 -0.23454,-0.06084 -0.48261,-0.11006 -0.74517,-0.15141 z m -16.59279,0.42375 -0.077,2.05052 h -5.1e-4 l -5.48959,0.07183 -5.49011,0.07131 v 1.71411 1.71462 h -5.1e-4 v -1.71462 -1.71463 l 5.4901,-0.07131 5.49011,-0.07131 z m -61.625696,0.45113 c 0.0032,0.70078 -0.06699,1.09863 -0.255282,1.26091 0.18828,-0.1622 0.258502,-0.56016 0.255282,-1.26091 z m -4.457609,0.2682 c 0.725535,0.05386 1.453317,0.18587 2.124418,0.39326 -0.670978,-0.20734 -1.399052,-0.33936 -2.124418,-0.39326 z m 99.740685,0.51367 c -1e-5,0.78501 -0.003,1.41994 0.016,1.93476 -0.0191,-0.51476 -0.016,-1.14977 -0.016,-1.93476 z m -96.982197,0.10335 c 0.165637,0.06827 0.326172,0.14185 0.479557,0.22117 0.13418,0.06939 0.254692,0.12515 0.363285,0.16537 0.217186,0.08043 0.385735,0.09939 0.513147,0.04444 -0.127529,0.05504 -0.295687,0.03614 -0.513147,-0.04444 -0.108451,-0.04019 -0.229335,-0.09558 -0.363285,-0.16485 -0.153584,-0.07942 -0.313693,-0.15334 -0.479557,-0.22169 z m -7.01766,0.25528 c -0.09147,0.07757 -0.172117,0.1602 -0.240812,0.24753 -0.07641,0.09714 -0.144647,0.19298 -0.204122,0.28732 -0.237898,0.37735 -0.339174,0.7333 -0.296106,1.07849 -0.04307,-0.34516 0.05821,-0.70115 0.296106,-1.07849 0.05947,-0.09433 0.127197,-0.19018 0.203605,-0.28732 0.06884,-0.08752 0.149614,-0.16981 0.241329,-0.24753 z m 91.602157,0.6041 c 0.1041,0.06257 0.20506,0.11848 0.29663,0.15141 -0.0915,-0.03296 -0.19256,-0.08882 -0.29663,-0.15141 z m 0.95292,0.11317 c -0.0784,0.04252 -0.15653,0.07133 -0.23668,0.08578 0.0802,-0.01445 0.15822,-0.04325 0.23668,-0.08578 z m -41.73647,0.38654 v 5.1e-4 l -3.24115,0.0739 z m -16.141654,0.05943 c 0.255463,-0.0044 0.536034,-0.00128 0.837159,0.01085 l 1.943033,0.07855 -1.943033,-0.07752 c -0.58704,-0.02364 -1.093048,-0.01451 -1.488282,0.02274 0.192601,-0.01821 0.408381,-0.03045 0.651123,-0.03462 z m -0.720886,0.04134 c -0.183309,0.01949 -0.341912,0.04481 -0.467155,0.07699 0.125117,-0.03218 0.284084,-0.05747 0.467155,-0.07699 z m -0.683162,0.15813 c -0.02641,0.0139 -0.05553,0.02765 -0.0739,0.04289 9.2e-5,-8e-5 -9.1e-5,-4.4e-4 0,-5.2e-4 0.01828,-0.01517 0.04764,-0.02852 0.0739,-0.04237 z m -33.954517,0.50798 c 0.08691,0.25508 0.256689,0.50568 0.511597,0.75551 -0.255203,-0.25003 -0.424701,-0.50021 -0.511597,-0.75551 z m 112.340429,0.46457 c -0.0212,0.21724 -0.0532,0.39964 -0.0982,0.55604 0.0449,-0.15643 0.077,-0.33878 0.0982,-0.55604 z m -36.36419,0.85731 c -0.12221,0.31254 -0.23025,0.63389 -0.31677,0.96738 0.0866,-0.33363 0.19449,-0.65472 0.31677,-0.96738 z m 18.52704,1.9270099 c -0.80401,4.2e-4 -1.86476,0.01299 -3.26905,0.03049 l -5.73505,0.07132 -0.0863,0.7498205 c -0.0473,0.41248 -0.0211,0.91849 0.0579,1.12448 0.11778,0.30693 1.17149,0.37465 5.83582,0.37465 h 5.69165 l 0.16123,-0.64233 c 0.0887,-0.35329 0.0821,-0.89144 -0.0145,-1.1958 -0.12901,-0.4065005 -0.22967,-0.5138805 -2.6417,-0.5126305 z M 91.1611,10.757933 c 0,1.45751 -0.01025,2.47523 -0.04858,3.24683 0.03826,-0.77147 0.04857,-1.78936 0.04858,-3.24683 z m 36.72437,0.0016 -0.0796,1.6955 h -5.1e-4 z m 5.117,0.70124 c 0.009,0.57962 0.0648,1.13839 0.16589,1.67484 -0.10101,-0.5363 -0.15703,-1.0954 -0.16589,-1.67484 z m -15.25126,1.25884 h 5.2e-4 v 2.11667 2.11667 h -5.2e-4 v -2.11667 z m -50.391758,0.20774 c 0.120832,0.18989 0.227477,0.38355 0.319877,0.58033 -0.09241,-0.19677 -0.199032,-0.39046 -0.319877,-0.58033 z m 97.274168,0.22945 c 0.46534,-0.0023 1.02342,0.0037 1.6893,0.01757 l 3.55172,0.07441 v 5.2e-4 l -3.55172,-0.07442 c -0.66587,-0.0139 -1.22397,-0.02043 -1.6893,-0.01808 z m -2.02417,0.23616 c -0.018,0.01532 -0.0419,0.02952 -0.0527,0.04651 5e-5,-8e-5 -4e-5,-4.5e-4 0,-5.2e-4 0.0107,-0.0169 0.0348,-0.03074 0.0527,-0.04599 z m -90.377427,0.36225 c 0.106751,1.66617 0.303572,2.6492 0.656291,3.48454 -0.352702,-0.83534 -0.549522,-1.81833 -0.656291,-3.48454 z m -4.424536,0.05012 c 0.07842,0.19967 0.143078,0.40187 0.193786,0.60565 -0.0507,-0.20378 -0.115372,-0.40598 -0.193786,-0.60565 z m 65.798053,0.86972 c 0.095,0.24451 0.20071,0.48283 0.31729,0.71468 -0.11659,-0.23185 -0.2223,-0.47017 -0.31729,-0.71468 z m -65.493162,0.3514 c 0.04701,0.4121 0.04015,0.82661 -0.0186,1.23662 0.05877,-0.41 0.06561,-0.82453 0.0186,-1.23662 z m 9.429915,0.12351 c 0.05572,0.18044 0.122759,0.33376 0.201538,0.47749 -0.0788,-0.14373 -0.145826,-0.29708 -0.201538,-0.47749 z m -9.502262,1.41955 c -0.105705,0.50894 -0.291718,1.00781 -0.553972,1.48156 -0.262254,0.47375 -0.600941,0.92269 -1.011824,1.33222 0.410893,-0.40952 0.749558,-0.85848 1.011824,-1.33222 0.262267,-0.47374 0.448254,-0.97263 0.553972,-1.48156 z m 82.346399,0.524 c 0.19477,0.0095 0.42408,0.15503 0.62115,0.3483 -0.37159,-0.28056 -0.54776,-0.38332 -0.88109,-0.20723 0.12632,-0.08295 0.22805,-0.14275 0.25994,-0.14107 z m -21.39043,0.0021 h 5.2e-4 v 2.24379 2.24379 h -5.2e-4 v -2.24379 z m 6.53552,0.47956 c 0.0945,0.09168 0.19149,0.1818 0.29094,0.26975 -0.0995,-0.08803 -0.19637,-0.17798 -0.29094,-0.26975 z m 15.8998,0.54415 c 0.0151,0.06883 0.021,0.13466 0.01,0.19276 -0.0521,0.2705 -0.39676,0.65279 -0.894,1.05833 0.59,-0.50531 0.87697,-0.90717 0.88418,-1.25109 z m -77.998337,0.15607 c 0.189932,0.30726 0.416457,0.59984 0.675411,0.87591 0.129527,0.13809 0.267456,0.27226 0.412895,0.40153 0.727193,0.64635 1.647645,1.17816 2.704744,1.55339 0.131078,0.04653 0.275975,0.08967 0.433049,0.12919 0.471222,0.11855 1.051476,0.20572 1.690853,0.26304 0.852503,0.07641 1.810256,0.09955 2.756937,0.07286 0.473341,-0.01334 0.943807,-0.03912 1.396814,-0.077 0.453008,-0.03788 0.888489,-0.08775 1.291911,-0.14934 -0.403409,0.0616 -0.838919,0.11145 -1.291911,0.14934 -0.452991,0.0379 -0.923489,0.06364 -1.396814,0.077 -0.946648,0.02671 -1.904459,0.0035 -2.756937,-0.07286 -0.639359,-0.0573 -1.219636,-0.14449 -1.690853,-0.26304 -0.157072,-0.03951 -0.301971,-0.08214 -0.433049,-0.12867 -1.057097,-0.37523 -1.977465,-0.90758 -2.704744,-1.55391 -0.145558,-0.12936 -0.283275,-0.26334 -0.412895,-0.40153 -0.258968,-0.27608 -0.4855,-0.56863 -0.675411,-0.87591 z m 15.409912,1.05988 c -0.263174,0.25543 -0.540015,0.50011 -0.841292,0.72192 -0.399565,0.29418 -0.83072,0.55692 -1.287777,0.78186 -0.07668,0.03774 -0.17006,0.07197 -0.261482,0.10697 0.09157,-0.03504 0.184696,-0.06969 0.261482,-0.10748 0.457057,-0.22495 0.888203,-0.48714 1.287777,-0.78135 0.301183,-0.22177 0.578184,-0.46655 0.841292,-0.72192 z m 61.695465,0.04289 c -0.0416,0.03377 -0.0824,0.06671 -0.1261,0.10077 0.0399,-0.0328 0.0887,-0.0688 0.1261,-0.10077 z m -15.59595,0.32866 c 0.32359,0.2653 0.70831,0.523 1.13275,0.76378 -0.42444,-0.24077 -0.80916,-0.49848 -1.13275,-0.76378 z m -82.432181,0.79014 c 0.130571,0.19458 0.772404,0.50077 1.451591,0.69711 -0.763903,-0.16707 -1.25772,-0.39714 -1.451591,-0.69711 z m 96.050991,0.15296 c -0.5092,0.2643 -1.03109,0.49499 -1.51929,0.65526 -0.50918,0.16713 -1.15546,0.30791 -1.85002,0.42219 1.21489,-0.23942 2.37633,-0.60608 3.36931,-1.07745 z m 7.51892,0.33279 c 0.007,0.15374 0.0155,0.24596 0.0243,0.26872 0.0115,0.02991 0.0356,0.05778 0.0729,0.0832 -0.0375,-0.02549 -0.0619,-0.05269 -0.0734,-0.08268 -0.009,-0.0228 -0.0164,-0.11497 -0.0238,-0.26924 z m 14.05909,0.46819 3.0949,0.07442 3.09542,0.07441 v 5.2e-4 l -3.09542,-0.07442 -3.0949,-0.07441 z M 59.146,21.503613 c -0.503589,0.0088 -0.977565,0.01108 -1.424719,0.0067 0.44661,0.0021 0.902608,0.0025 1.424719,-0.0067 z m 40.018749,0.02171 c 1.282401,0.03075 2.403761,0.03863 2.897491,0.02325 -0.49365,0.01538 -1.61509,0.0075 -2.897491,-0.02325 z m 15.078661,0.0217 c 1.35065,0.0267 3.25404,0.03613 5.90249,0.03617 -2.6484,-4e-5 -4.55186,-0.0095 -5.90249,-0.03617 z m 43.6268,0.01809 c 0.39398,0.0124 0.86249,0.01808 1.41283,0.01808 h 3.05046 v 5.2e-4 h -3.05149 c -0.55013,0 -1.01793,-0.0062 -1.4118,-0.0186 z m -84.220186,11.41377 c -1.496402,-0.0212 -2.985983,0.07 -3.973401,0.2806 -4.89807,1.04471 -8.389005,4.7491 -9.192203,9.75496 -1.383218,8.62082 2.638096,15.5525 9.663492,16.65842 0.86147,0.13598 2.816472,0.20014 4.344438,0.14314 4.117392,-0.15351 6.190421,-0.99578 8.423775,-3.42253 1.274398,-1.38474 2.463543,-3.73022 2.519743,-4.97075 l 0.03669,-0.80822 -3.307291,-1.01183 c -1.819006,-0.55636 -3.403112,-1.01564 -3.519682,-1.02164 -0.11656,-0.006 -0.386565,0.43614 -0.599963,0.98185 -1.186928,3.03518 -2.1716,3.85868 -4.614706,3.85868 -3.101444,0 -4.427928,-1.68943 -4.682918,-5.96346 -0.24558,-4.11612 0.553952,-6.45456 2.600358,-7.6047 2.250166,-1.26467 5.357518,-0.21744 6.331396,2.13372 0.17375,0.41947 0.510242,0.76273 0.747242,0.76326 1.002548,0.002 6.718515,-1.46205 6.828523,-1.74873 0.19565,-0.50987 -1.446103,-3.49355 -2.627229,-4.7749 -1.415678,-1.53583 -2.835969,-2.35241 -4.964555,-2.85409 -1.014003,-0.23899 -2.517305,-0.37256 -4.013709,-0.39378 z m -0.329179,0.29766 c 0.340746,-0.0011 0.682654,0.0089 1.023711,0.02429 -0.340872,-0.01538 -0.683144,-0.02534 -1.023711,-0.02429 z m 1.346688,0.04289 c 0.244405,0.01472 0.486274,0.0335 0.727088,0.05633 -0.240544,-0.02281 -0.482958,-0.04162 -0.727088,-0.05633 z m 1.040764,0.08682 c 0.309244,0.03407 0.61395,0.07385 0.911055,0.12092 -0.29701,-0.04707 -0.601908,-0.08684 -0.911055,-0.12092 z m 41.923543,0.08319 c -4.54118,0 -5.26948,0.0564 -5.40846,0.41858 -0.0883,0.23019 -0.1602,5.78629 -0.1602,12.34705 0,6.56079 -0.0748,11.85421 -0.16588,11.76311 -0.0911,-0.0911 -2.20729,-5.6174 -4.70255,-12.2809 l -4.53668,-12.11554 -4.545461,-0.07235 c -4.127202,-0.0657 -4.567327,-0.0292 -4.787817,0.39687 -0.511648,0.98869 -9.307442,24.59437 -9.307442,24.97884 0,0.22283 0.07922,0.48488 0.176217,0.58188 0.273148,0.2731 7.207468,0.20779 7.731828,-0.07287 0.259998,-0.13915 0.68112,-0.98515 0.95498,-1.91823 0.26947,-0.91809 0.605438,-1.8211 0.746208,-2.00659 0.19252,-0.25368 1.279344,-0.31928 4.385266,-0.26458 l 4.129461,0.07286 0.67541,1.93683 c 0.37173,1.06523 0.84798,2.04323 1.05833,2.17351 0.55317,0.34261 14.57945,0.28558 14.99702,-0.06098 0.25581,-0.21231 0.33873,-2.18795 0.35243,-8.3814 0.0117,-5.30321 0.10441,-7.92051 0.26821,-7.57421 0.13763,0.29104 1.12752,3.9665 2.19986,8.16746 1.08847,4.26414 2.10951,7.73927 2.31149,7.86722 0.19898,0.12606 1.52026,0.23106 2.93574,0.23306 2.38496,0.004 2.60071,-0.0395 2.944,-0.59118 0.20374,-0.32743 1.16746,-3.75046 2.14199,-7.60677 0.97454,-3.85628 1.91193,-7.42817 2.08308,-7.9375 0.25633,-0.76283 0.33493,0.53278 0.4439,7.35201 0.1114,6.97072 0.19497,8.31764 0.52916,8.52868 0.43602,0.27531 5.26159,0.3552 5.93143,0.09818 0.37369,-0.14342 0.41857,-1.54479 0.41857,-13.09687 v -12.93617 h -5.42395 c -2.98317,0 -5.42396,0.04214 -5.42396,0.09354 0,0.27389 -3.22997,12.71623 -3.45405,13.30565 -0.14576,0.38339 -0.31619,0.64602 -0.37879,0.58342 -0.0626,-0.0626 -0.89929,-3.13737 -1.85932,-6.83265 -0.96004,-3.6953 -1.80566,-6.81589 -1.87896,-6.93446 -0.0733,-0.11859 -2.49482,-0.2155 -5.38106,-0.2155 z m 30.47256,0.02378 c -3.47084,-0.002 -4.01361,0.08969 -4.12275,0.37413 -0.0895,0.23326 -0.13448,6.01782 -0.0997,12.85503 0.0544,10.71527 0.11835,12.46622 0.46044,12.68243 0.53852,0.34041 7.04972,0.32768 7.68997,-0.01498 0.47487,-0.25416 0.51211,-0.59511 0.51211,-4.73408 0,-3.82312 0.0593,-4.48377 0.41807,-4.62143 0.23018,-0.0883 1.63421,-0.16019 3.1197,-0.16019 4.57626,0 7.13747,-1.02155 8.8129,-3.51503 1.02921,-1.53174 1.52259,-3.74624 1.3193,-5.92316 -0.27641,-2.96005 -1.47303,-4.93683 -3.69848,-6.11022 l -1.37253,-0.72347 -8.49974,-0.0801 c -1.89995,-0.0178 -3.38232,-0.02833 -4.53925,-0.02893 z m -71.359474,0.0341 c 0.296798,0.04917 0.583245,0.10571 0.861963,0.16743 -0.278362,-0.06163 -0.565568,-0.11831 -0.861963,-0.16743 z m 18.101737,0.26097 c -0.08986,0.004 -0.17971,0.0084 -0.256315,0.01395 0.07567,-0.0055 0.167763,-0.01 0.256315,-0.01395 z m -0.412894,0.02584 c -0.117398,0.01151 -0.219821,0.02515 -0.305408,0.04185 0.08554,-0.01661 0.188194,-0.0304 0.305408,-0.04185 z m -0.356051,0.05219 c -0.0833,0.0185 -0.150549,0.04027 -0.207739,0.06511 0.05716,-0.02468 0.124616,-0.04672 0.207739,-0.06511 z m 28.662332,0.06976 c 0.0344,0.05558 0.23403,0.76058 0.52814,1.85157 -0.2941,-1.09099 -0.49379,-1.79599 -0.52814,-1.85157 z m -28.927432,0.02532 c -0.03808,0.02108 -0.07189,0.04394 -0.09974,0.06925 0.02783,-0.02521 0.0617,-0.04825 0.09974,-0.06925 z m -15.030607,0.05065 c 0.05334,0.01752 0.105676,0.03515 0.157613,0.05322 -0.05187,-0.01804 -0.104351,-0.03573 -0.157613,-0.05322 z m 14.893148,0.05426 c -0.03183,0.0358 -0.05943,0.07395 -0.08268,0.11782 0.02318,-0.04367 0.051,-0.08216 0.08268,-0.11782 z m 70.676311,2.15904 c 0.15457,0.1814 0.29991,0.36844 0.42891,0.56741 -0.12894,-0.19886 -0.27442,-0.3861 -0.42891,-0.56741 z m 0.91725,1.51619 c 0.10383,0.25486 0.19619,0.5199 0.2713,0.80253 -0.0751,-0.28249 -0.16752,-0.54779 -0.2713,-0.80253 z m -10.92853,0.79271 c 0.0583,0.0038 0.11654,0.0095 0.1757,0.01447 -0.0589,-0.0049 -0.11769,-0.01071 -0.1757,-0.01447 z m 0.51728,0.04909 c 0.0611,0.0073 0.12079,0.01384 0.1819,0.02223 -0.0607,-0.0083 -0.12125,-0.015 -0.1819,-0.02223 z m 1.17202,0.21084 c 0.053,0.01326 0.10228,0.02731 0.15348,0.04135 -0.0509,-0.01395 -0.10081,-0.02817 -0.15348,-0.04135 z m 0.45114,0.13126 c 0.0482,0.01599 0.0962,0.03136 0.14159,0.04806 -0.0451,-0.01659 -0.0937,-0.03217 -0.14159,-0.04806 z m -3.9362,0.04444 2.14251,0.09767 c 1.86975,0.0849 2.20683,0.17699 2.64893,0.72296 1.07608,1.32889 0.9445,2.85343 -0.32814,3.8008 -0.7264,0.54077 -3.88534,0.96906 -4.26486,0.57826 -0.10914,-0.11238 -0.19844,-1.32857 -0.19844,-2.70216 z m -79.497986,0.0522 c 0.398985,-0.0019 0.82837,0.02968 1.244885,0.08785 0.416788,0.0582 0.820348,0.1434 1.167887,0.24959 0.260256,0.07953 0.489332,0.17082 0.668176,0.27131 -0.179005,-0.10058 -0.407619,-0.19175 -0.668176,-0.27131 -0.347409,-0.10607 -0.75134,-0.19145 -1.167887,-0.24959 -0.833094,-0.11628 -1.717759,-0.12472 -2.307353,0.02325 -0.280642,0.07043 -0.789306,0.37219 -1.270723,0.73949 0.481421,-0.36729 0.990148,-0.66908 1.270723,-0.73949 0.294797,-0.07399 0.663482,-0.10925 1.062468,-0.1111 z m 79.320226,0.07389 c -0.0858,0.3646 -0.0868,1.04709 -0.0868,2.40399 0,-1.3569 9e-4,-2.0394 0.0868,-2.40399 z m 4.60954,0.02791 c 0.3295,0.17039 0.60743,0.41266 0.82578,0.71313 -0.21839,-0.30032 -0.49641,-0.5428 -0.82578,-0.71313 z m 8.8346,1.07384 c 0.0307,0.37783 0.0462,0.77624 0.046,1.19786 2.3e-4,-0.42163 -0.0153,-0.82003 -0.046,-1.19786 z m -95.560578,0.05787 c -0.185604,0.16769 -0.354884,0.33987 -0.508496,0.51987 0.15367,-0.18011 0.322793,-0.3521 0.508496,-0.51987 z m 14.517977,0.48886 c -0.07679,0.11538 -0.279599,0.23024 -0.656291,0.36122 -0.224198,0.07796 -0.521144,0.16293 -0.878499,0.2558 0.357542,-0.09293 0.654217,-0.17778 0.878499,-0.2558 0.376227,-0.13087 0.579198,-0.24596 0.656291,-0.36122 z m 13.1625,0.26304 c 0.0301,0.0059 0.0613,0.02554 0.0925,0.04702 -0.0313,-0.02161 -0.0622,-0.04108 -0.0925,-0.04702 z m -0.0656,0.0026 c -0.009,0.0022 -0.0179,0.0075 -0.0269,0.01137 0.009,-0.0038 0.0181,-0.0092 0.0269,-0.01137 z m -0.0661,0.03307 c -0.0109,0.0078 -0.0219,0.01738 -0.0331,0.02791 0.0112,-0.01047 0.0221,-0.02018 0.0331,-0.02791 z m 36.933151,0.07183 c 0.0662,0.28957 0.12038,0.98111 0.16433,2.1053 -0.0439,-1.12377 -0.0982,-1.81582 -0.16433,-2.1053 z m -37.008081,10e-4 c -0.009,0.01144 -0.0187,0.0227 -0.0284,0.03617 0.01,-0.01359 0.0189,-0.02464 0.0284,-0.03617 z m -0.0538,0.07596 c -0.039,0.05966 -0.0798,0.1328 -0.12454,0.22738 0.0445,-0.09403 0.0857,-0.16793 0.12454,-0.22738 z m -28.344002,0.15193 c -0.123659,0.20001 -0.233013,0.41175 -0.328662,0.63924 0.09563,-0.2275 0.205016,-0.43923 0.328662,-0.63924 z m 49.879643,0.06304 c -0.0288,0 -0.0563,0.0048 -0.0822,0.01551 -0.0258,0.01066 -0.0499,0.02756 -0.0729,0.05167 0.0229,-0.02406 0.0472,-0.04096 0.0729,-0.05167 0.026,-0.01084 0.0531,-0.01551 0.0822,-0.01551 z m 0.0434,0.01447 c 0.0455,0.03028 0.0976,0.11344 0.1695,0.29456 -0.0715,-0.18006 -0.12413,-0.26405 -0.1695,-0.29456 z m -21.712891,0.01602 c -0.0167,0.0359 -0.0371,0.09117 -0.0548,0.1323 0.0176,-0.04086 0.0382,-0.09662 0.0548,-0.1323 z m 0.86662,0.20929 c 0.20282,0.48566 0.47923,1.28227 0.76739,2.18178 -0.28811,-0.89934 -0.5646,-1.6962 -0.76739,-2.18178 z m -0.50488,0.2248 c 0.24965,-0.0661 1.814883,4.52928 2.148701,6.30865 l 0.16899,0.89969 h -2.278421 c -1.650014,0 -2.276694,-0.0912 -2.271694,-0.33073 0.01502,-0.71962 1.993284,-6.81431 2.232424,-6.87761 z m -0.56689,0.07441 c -0.0283,0.07626 -0.0601,0.16769 -0.091,0.25528 0.0305,-0.08652 0.0629,-0.17984 0.091,-0.25528 z m 61.005061,0.20722 c -7.9e-4,0.0054 -0.002,0.01066 -0.003,0.01602 7.6e-4,-0.0054 0.002,-0.01059 0.003,-0.01602 z m -79.107835,0.03876 c -0.439178,0.06083 -0.751988,0.08322 -0.895552,0.06149 0.143755,0.02164 0.456701,-7.3e-4 0.895552,-0.06149 z m 17.840774,0.50901 c -0.0267,0.08043 -0.05473,0.1652 -0.0832,0.2527 0.02764,-0.08494 0.05725,-0.17444 0.0832,-0.2527 z m 22.767601,0.3576 c 0.3857,1.37727 1.02424,3.85761 2.14767,8.2703 -1.12342,-4.41266 -1.762,-6.89315 -2.14767,-8.2703 z m 32.49931,0.47698 c 0.0219,0.33927 0.0485,0.60357 0.0785,0.7462 -0.0301,-0.14242 -0.0566,-0.40696 -0.0785,-0.7462 z m 5.08393,0.19998 c -0.0452,0.03679 -0.0924,0.07184 -0.14056,0.10646 0.0497,-0.03369 0.0942,-0.07058 0.14056,-0.10646 z m -29.08557,0.03049 c -0.37977,1.38151 -0.70571,2.5241 -0.95188,3.34399 0.24619,-0.81989 0.57214,-1.96274 0.95188,-3.34399 z m 28.93364,0.08372 c -0.19441,0.13842 -0.40817,0.26264 -0.64906,0.36328 -0.14009,0.05854 -0.34028,0.10842 -0.56172,0.15452 0.4717,-0.12251 0.87872,-0.29474 1.21078,-0.5178 z m -4.80591,0.55914 c 0.10177,0.08743 0.75884,0.15689 1.51619,0.16846 -0.73753,0.01506 -1.36928,-0.03283 -1.51619,-0.16846 z m 12.83539,0.54157 c -0.19231,0.48929 -0.43768,0.9369 -0.74104,1.35547 0.3034,-0.41852 0.54869,-0.86624 0.74104,-1.35547 z m -0.97978,1.6645 c -0.24964,0.30377 -0.53252,0.59341 -0.85111,0.87384 -0.52092,0.45853 -1.03475,0.81688 -1.62368,1.09916 -0.35336,0.16937 -0.73373,0.31122 -1.1591,0.43047 -0.56716,0.15899 -1.21425,0.27782 -1.98334,0.36845 0.76907,-0.09064 1.4162,-0.20944 1.98334,-0.36845 0.42535,-0.11926 0.80576,-0.26109 1.1591,-0.43047 0.58891,-0.28229 1.10276,-0.64115 1.62368,-1.09967 0.31849,-0.28035 0.60152,-0.56967 0.85111,-0.87333 z m -95.867538,0.42684 c 0.04654,1.55673 0.184437,2.72414 0.45837,3.62872 -0.312095,-0.81294 -0.398603,-1.6286 -0.45837,-3.62872 z m 58.743188,0.69247 c -0.0371,0.11549 -0.0766,0.23926 -0.10387,0.31574 0.0273,-0.07644 0.0669,-0.20054 0.10387,-0.31574 z m 30.25655,1.76888 c -0.45074,0.03265 -0.93746,0.06023 -1.46503,0.0832 l -3.57291,0.15555 v -5.2e-4 l 3.57291,-0.15555 c 0.52775,-0.02298 1.01416,-0.05001 1.46503,-0.08268 z m -96.347093,1.33635 c 0.05574,0.20936 0.1195,0.41406 0.185001,0.61805 -0.06722,-0.2051 -0.129925,-0.41119 -0.185001,-0.61805 z m 23.902417,0.24082 c 0.05988,0.11229 0.07028,0.2393 0.07028,0.40204 0,-0.16244 -0.0107,-0.28994 -0.07028,-0.40204 z m -7.50962,0.42581 c -0.145448,0.23371 -0.29492,0.45698 -0.441316,0.63459 -0.20993,0.25468 -0.439782,0.47969 -0.684196,0.67696 0.411799,-0.3638 0.802244,-0.81889 1.125512,-1.31155 z m -6.555155,1.68517 c 0.03451,0.01828 0.06641,0.03796 0.101803,0.05581 0.984096,0.49625 2.152288,0.67513 3.214274,0.52813 -1.136718,0.20802 -2.324725,0.005 -3.316077,-0.58394 z m 26.9689,1.68672 c 1.09868,5.8e-4 2.197031,0.03047 3.039601,0.0894 -0.8426,-0.05896 -1.940771,-0.08884 -3.039601,-0.0894 z m -3.041678,0.0863 c -0.421786,0.02902 -0.779735,0.06531 -1.041797,0.10903 -0.262062,0.04372 -0.428237,0.09504 -0.466638,0.15348 4.7e-5,-7e-5 -4.8e-5,-4.4e-4 0,-5.1e-4 0.0384,-0.05846 0.204566,-0.10925 0.466638,-0.15297 0.262071,-0.04371 0.619996,-0.08002 1.041797,-0.10903 z m 6.661609,0.05271 c 0.43625,0.04589 0.74782,0.10353 0.8723,0.17208 -0.12425,-0.06866 -0.43566,-0.12614 -0.8723,-0.17208 z m 0.87282,0.17208 c 0.0249,0.01372 0.0418,0.02774 0.0512,0.04237 4e-5,8e-5 -5e-5,4.5e-4 0,5.2e-4 -0.009,-0.01455 -0.0266,-0.02923 -0.0512,-0.04289 z m -38.814691,0.41806 c 0.909304,1.06029 1.996964,1.93544 3.219959,2.57659 -0.167358,-0.08377 -0.332721,-0.16506 -0.507979,-0.26045 -0.970927,-0.52845 -1.899916,-1.33763 -2.71198,-2.31614 z m 18.295524,1.2516 c -0.776441,0.71886 -1.353247,1.15894 -2.012797,1.49139 0.68821,-0.36823 1.325484,-0.85505 2.012797,-1.49139 z m -14.932938,1.39785 c 0.07103,0.03588 0.144111,0.06801 0.216007,0.10232 -0.07109,-0.03293 -0.144079,-0.06733 -0.216007,-0.10232 z m 17.331758,0.71934 c 0,0.01186 0.02697,0.02286 0.07906,0.03307 0.364695,0.0715 1.940717,0.10089 3.814755,0.06563 l 3.894336,-0.07338 v 10e-4 l -3.894336,0.07287 c -1.876135,0.0353 -3.452426,0.0054 -3.814755,-0.06615 -0.0513,-0.01013 -0.07906,-0.02081 -0.07906,-0.03256 z m 19.467547,0.02584 4.02456,0.07286 c 2.21253,0.04018 4.02258,0.03508 4.02404,-0.01137 0,10e-6 5.2e-4,10e-4 5.2e-4,10e-4 0,0.0465 -1.81113,0.05157 -4.02456,0.01137 l -4.02456,-0.07286 z m 48.39808,0 v 5.1e-4 l -3.9026,0.07338 -3.90261,0.07287 v -5.2e-4 l 3.90261,-0.07286 z m -39.55521,0.13229 h 3.04271 3.04271 v 5.1e-4 h -3.04271 -3.04271 z m 11.39724,0 h 2.86081 2.8608 v 5.1e-4 h -2.8608 -2.86081 z m 11.09906,0 h 3.03909 3.03961 v 5.1e-4 h -3.03961 -3.03909 z m -57.679165,0.01653 c -0.963074,0.18576 -2.032392,0.23771 -3.937228,0.22428 -1.440362,-0.01017 -2.526507,-0.06301 -3.448368,-0.18914 0.942905,0.10316 2.226023,0.1805 3.448368,0.18914 1.628995,0.01152 2.886713,-0.04884 3.937228,-0.22428 z" /><g
           id="g957"
           transform="translate(203.33221,-112.53546)"
           style="fill:#ffffff;fill-opacity:1;stroke-width:1.14193"><path
             style="fill:#ffffff;fill-opacity:1;stroke-width:1.14193"
             d="m -42.518922,213.67203 c -1.47161,-0.75196 -2.14448,-1.67264 -2.312615,-3.16431 -0.169939,-1.5077 0.609606,-3.1094 1.902109,-3.90821 l 0.934267,-0.57741 v -11.3272 c 0,-12.66734 0.173583,-11.64839 -1.984375,-11.64839 -2.056918,0 -1.984375,-0.15948 -1.984375,4.36253 v 4.04133 l 0.914998,0.6979 c 2.477797,1.88991 1.266441,5.45032 -1.854359,5.45032 -1.429184,0 -2.764806,-1.39604 -2.764806,-2.88987 0,-0.90594 0.180473,-1.28649 1.06538,-2.2465 l 1.065381,-1.1558 -0.07319,-4.06381 -0.07319,-4.06381 -7.376107,-0.0704 c -5.220922,-0.0498 -7.48216,0.0176 -7.739062,0.23083 -0.293728,0.24377 -0.362956,1.91753 -0.362956,8.7751 v 8.47386 l 1.304886,1.25112 c 1.410496,1.35237 1.803222,2.42774 1.492157,4.08586 -0.39103,2.08437 -2.915285,3.6805 -4.886592,3.08988 -1.974647,-0.59162 -3.202118,-2.12884 -3.202118,-4.01018 0,-1.00781 0.887688,-2.79843 1.567733,-3.16238 1.376289,-0.73656 1.342684,-0.49546 1.342684,-9.63385 0,-6.27944 -0.08369,-8.61083 -0.3175,-8.84464 -0.174625,-0.17463 -0.700669,-0.3175 -1.168985,-0.3175 -1.739183,0 -1.688515,-0.15224 -1.688515,5.07316 v 4.75196 l 0.926042,0.87337 c 0.803576,0.75787 0.926041,1.03813 0.926041,2.11925 0,1.02425 -0.13758,1.38346 -0.773398,2.01928 -0.633227,0.63323 -0.996561,0.7734 -2.004727,0.7734 -1.008165,0 -1.371499,-0.14017 -2.004726,-0.7734 -0.631918,-0.63192 -0.773399,-0.99733 -0.773399,-1.99749 0,-1.04095 0.138549,-1.36675 0.926042,-2.17761 l 0.926042,-0.95351 v -4.69361 c 0,-4.03588 -0.05865,-4.71611 -0.418516,-4.8542 -0.81472,-0.31264 -7.92535,-0.17757 -8.259818,0.1569 -0.223332,0.22333 -0.3175,1.72445 -0.3175,5.06129 v 4.74379 l 1.190625,1.10876 c 1.041316,0.96972 1.190625,1.24631 1.190625,2.20555 0,0.84741 -0.185065,1.30756 -0.813961,2.02383 -1.967331,2.24067 -5.271455,0.91358 -5.271455,-2.11725 0,-0.7801 0.20856,-1.17887 1.063918,-2.03423 l 1.063916,-1.06392 -0.07173,-5.05651 -0.07173,-5.05652 h -5.804014 -5.804014 l -0.236651,0.91326 c -0.130157,0.50229 -0.197255,3.86748 -0.149109,7.47819 l 0.08754,6.56492 0.702681,0.59161 c 1.731169,1.45752 1.712761,3.74675 -0.03844,4.78121 -2.012389,1.18875 -4.236112,-0.0345 -4.236112,-2.33028 0,-1.04258 0.138285,-1.36648 0.932522,-2.18428 l 0.932518,-0.96019 -0.07262,-4.11993 -0.07263,-4.11993 h -1.984375 -1.984375 l -0.07673,1.86818 c -0.06939,1.6895 -0.01246,1.93753 0.595313,2.59332 1.881748,2.03044 -0.695315,4.91083 -2.647273,2.95886 -0.80852,-0.80851 -0.82653,-1.70041 -0.0541,-2.68013 0.50026,-0.63454 0.61643,-1.17884 0.7276,-3.40912 l 0.13229,-2.65402 2.645834,-0.13229 2.645833,-0.1323 0.07709,-2.35887 c 0.05584,-1.70866 -0.01709,-2.41862 -0.264583,-2.57564 -0.391123,-0.24813 -15.559024,-0.30832 -16.195034,-0.0643 -0.36759,0.14106 -0.41851,1.04591 -0.41851,7.43656 v 7.27598 l 1.30369,1.22853 c 1.42558,1.34339 1.76129,2.17375 1.48161,3.6646 -0.23997,1.27915 -1.90109,2.97659 -2.95261,3.01718 -2.18678,0.0844 -3.20275,-0.40195 -4.07258,-1.94959 -1.04133,-1.8528 -0.43797,-3.90514 1.52667,-5.19299 l 0.86113,-0.56449 v -7.24121 c 0,-5.9084 -0.0687,-7.2982 -0.37306,-7.55082 -0.22808,-0.18929 -1.07635,-0.279 -2.18281,-0.23084 l -1.80975,0.0788 -0.0717,5.38573 -0.0717,5.38573 0.96213,1.06495 c 0.88172,0.97597 0.95069,1.16637 0.82535,2.27846 -0.28281,2.50908 -3.07128,3.53195 -4.83108,1.77216 -1.27342,-1.27342 -1.1709,-2.8086 0.28785,-4.31063 l 0.9148,-0.94195 v -5.06587 c 0,-3.58735 -0.0927,-5.15854 -0.3175,-5.38337 -0.45457,-0.45458 -17.69583,-0.45458 -18.15041,0 -0.21906,0.21906 -0.3175,1.56288 -0.3175,4.33422 v 4.01672 l 0.9175,0.69982 c 1.28033,0.97655 1.68517,2.38828 1.06167,3.70221 -0.8028,1.69178 -2.65947,2.21668 -4.30087,1.21592 -0.94228,-0.57451 -1.38247,-1.432 -1.38247,-2.69308 0,-0.59029 0.28654,-1.09419 1.06471,-1.87236 l 1.06471,-1.06471 -0.0725,-4.26197 -0.0725,-4.26198 -6.35,-0.13229 c -6.00162,-0.12504 -6.41314,-0.16599 -7.50079,-0.7464 -1.75763,-0.93796 -3.39005,-2.58979 -4.19302,-4.24289 -0.6897,-1.41991 -0.73016,-1.71968 -0.8265,-6.12321 -0.0677,-3.09391 -0.20209,-4.69471 -0.40508,-4.8246 -0.36615,-0.23429 -4.982,-0.26898 -5.57381,-0.0419 -0.34764,0.1334 -0.41851,0.66952 -0.41851,3.1657 0,3.63892 0.09,3.55287 -3.71473,3.55287 -2.48457,0 -2.75153,0.0508 -3.47727,0.66146 -1.87124,1.57454 -4.50674,0.21 -4.07184,-2.1082 0.20233,-1.07852 0.88186,-1.70833 2.04724,-1.89745 0.76234,-0.12371 1.08083,0.002 2.04222,0.80506 1.07605,0.89902 1.24443,0.95163 3.04545,0.95163 1.13,0 2.03574,-0.12931 2.22393,-0.3175 0.42419,-0.4242 0.42419,-4.23247 0,-4.65667 -0.22264,-0.22263 -1.69423,-0.3175 -4.92526,-0.3175 h -4.60775 l -0.82943,0.89029 c -1.06272,1.14067 -1.75388,1.49096 -2.94185,1.49096 -3.23409,0 -4.6715,-4.02564 -2.12966,-5.96439 1.59556,-1.217 3.83753,-0.81707 5.10989,0.91152 l 0.60323,0.81954 8.65719,-0.004 c 4.76145,-0.002 8.80748,-0.0995 8.99118,-0.21607 0.26127,-0.16586 0.31888,-2.36859 0.26458,-10.11626 l -0.0694,-9.90424 -5.16223,-0.0715 -5.16222,-0.0715 -0.86943,0.92176 c -1.52404,1.61577 -3.73954,1.43899 -4.67665,-0.37317 -0.66929,-1.29427 -0.51503,-2.32915 0.49823,-3.34241 0.73748,-0.73747 1.09984,-0.89958 2.01084,-0.89958 0.91847,0 1.27285,0.1616 2.04278,0.93153 l 0.93152,0.93152 5.19358,-0.0716 5.19358,-0.0716 0.0823,-1.29732 c 0.0545,-0.85871 -0.035,-1.37169 -0.26458,-1.5173 -0.19078,-0.12099 -4.31442,-0.22181 -9.16364,-0.22404 l -8.81675,-0.004 -0.97283,1.08499 c -1.74164,1.94246 -3.44148,2.33063 -5.39588,1.23219 -2.51642,-1.4143 -2.75233,-4.72322 -0.47345,-6.64076 1.76503,-1.48518 4.1258,-1.17115 5.74337,0.76397 l 0.9906,1.18508 9.13543,-0.0695 9.13544,-0.0695 v -7.67292 -7.67291 l -5.47795,-0.0715 c -5.25408,-0.0686 -5.48957,-0.0498 -5.76253,0.46028 -0.3528,0.65923 -1.61068,1.33099 -2.49227,1.33099 -3.11208,0 -3.93788,-4.12638 -1.10377,-5.51533 1.05171,-0.51542 2.28961,-0.18534 3.32981,0.88787 l 0.89489,0.92329 5.04132,-0.004 c 2.77273,-0.002 5.17955,-0.092 5.34848,-0.19948 0.2128,-0.1354 0.33471,-1.9425 0.39687,-5.88293 0.0864,-5.478 0.11501,-5.7411 0.77615,-7.1427 1.29305,-2.74129 3.64565,-4.49315 6.82889,-5.08514 l 1.61281,-0.29993 -0.01,-5.972576 -0.01,-5.972569 -1.06601,-0.737706 c -3.31961,-2.297245 -1.79621,-7.332086 2.21847,-7.332086 0.86505,0 1.61881,0.185476 2.19106,0.539144 0.96026,0.593477 1.96823,2.398017 1.96823,3.523682 0,1.155215 -0.97973,2.760083 -2.12714,3.484414 l -1.05795,0.667851 0.0712,5.880475 0.0712,5.880481 h 7.67292 7.67292 l 0.0725,-4.424415 0.0725,-4.42441 -0.91218,-0.967076 c -1.09662,-1.16263 -1.33934,-1.976954 -0.94521,-3.17119 0.40607,-1.230392 1.41296,-1.961872 2.70055,-1.961872 0.84032,0 1.22813,0.179025 1.94869,0.899583 0.734,0.734002 0.89958,1.101669 0.89958,1.99749 0,0.898094 -0.16963,1.27257 -0.93208,2.057647 l -0.93209,0.959741 0.0722,4.517247 0.0722,4.517255 1.29732,0.0823 c 0.85872,0.0545 1.37169,-0.035 1.5173,-0.26458 0.121,-0.19079 0.22181,-4.053453 0.22404,-8.583707 l 0.004,-8.236826 -0.94857,-0.723509 c -1.28297,-0.978569 -1.95967,-2.167268 -1.96086,-3.444467 -0.002,-2.227004 1.75851,-4.096915 3.85737,-4.096915 1.44321,0 2.17683,0.284179 3.08723,1.195872 1.74656,1.749052 1.54581,4.215133 -0.49612,6.09436 l -1.16537,1.072523 0.0699,8.452477 0.0699,8.452482 7.07761,0.0705 7.0776,0.0705 V 90.064745 78.83059 l -0.76881,-0.454147 c -1.06472,-0.628944 -1.87723,-2.179691 -1.87603,-3.580544 0.003,-3.822241 4.70729,-5.348584 7.233,-2.34694 1.45702,1.731566 1.06047,4.282503 -0.90809,5.841635 l -1.04404,0.826891 0.071,5.993157 0.071,5.993156 h 2.91041 2.91042 l 0.0758,-2.75047 0.0758,-2.750471 -0.91925,-0.842 c -1.4556,-1.333277 -1.57687,-2.823189 -0.34626,-4.253862 0.43961,-0.511077 0.93712,-0.737801 1.84305,-0.839915 1.15695,-0.130405 1.30629,-0.07446 2.207686,0.826927 0.894273,0.894273 0.956593,1.057264 0.830844,2.172922 -0.09855,0.874284 -0.36041,1.437717 -0.95178,2.047854 l -0.81583,0.841721 -0.074,3.69969 -0.074,3.699688 -3.83646,0.132291 -3.83645,0.132292 v 3.96875 3.968755 h 11.906248 11.90625 l 0.07368,-3.813802 0.07368,-3.813796 -0.924357,-0.761932 c -2.100498,-1.731409 -1.457809,-4.917376 1.088314,-5.395031 1.915485,-0.359347 3.525149,1.016442 3.525149,3.012964 0,1.055621 -0.123899,1.309968 -1.058333,2.172634 l -1.058333,0.977048 v 3.88053 3.880525 l 9.194271,-0.0696 9.19427,-0.0696 0.07211,-4.994571 0.07211,-4.994566 -0.932005,-0.90515 c -0.782574,-0.760026 -0.932003,-1.088282 -0.932003,-2.047357 0,-0.744529 0.185679,-1.378259 0.533305,-1.820193 0.631176,-0.802412 2.125191,-1.357378 2.96827,-1.102593 0.846564,0.255842 1.98184,1.383001 2.177288,2.161723 0.244195,0.972952 -0.317193,2.372029 -1.205632,3.004656 l -0.780336,0.555646 0.07178,5.0712 0.07178,5.071205 2.093693,0.078 c 1.496288,0.0558 2.155714,-0.0197 2.311054,-0.26459 0.119546,-0.18845 0.219183,-3.344266 0.221411,-7.012928 0.0035,-5.857296 -0.0486,-6.711882 -0.4279,-7.011459 -0.237572,-0.18764 -0.892416,-0.773639 -1.455209,-1.302221 -0.9419,-0.884647 -1.023178,-1.073978 -1.022268,-2.38125 0.0017,-2.449507 1.39894,-3.933732 3.703178,-3.933732 0.596537,0 1.441151,0.184375 1.876922,0.40972 2.399109,1.240629 2.430703,5.134184 0.05394,6.647397 -0.40713,0.259207 -0.827709,0.593098 -0.934622,0.741979 -0.232886,0.324313 -0.264623,12.711835 -0.03476,13.569684 l 0.160497,0.59898 8.368702,-0.0698 8.368702,-0.0698 0.08099,-1.57648 c 0.144082,-2.8044 0.158729,-2.78915 -2.678951,-2.78915 -1.557121,0 -2.571753,-0.116168 -2.773085,-0.3175 -0.198593,-0.198593 -0.3175,-1.185074 -0.3175,-2.634083 0,-2.038575 -0.07988,-2.434294 -0.665623,-3.297433 -0.766826,-1.129983 -0.686758,-1.779847 0.333296,-2.705111 0.816507,-0.74063 2.047804,-0.628568 2.779723,0.252987 0.66915,0.80595 0.572154,1.611884 -0.330729,2.748015 -0.655643,0.825019 -0.79375,1.241907 -0.79375,2.395993 0,2.191033 0.04347,2.234215 2.248958,2.234215 1.51379,0 1.962248,-0.08987 2.088359,-0.418515 0.08833,-0.230182 0.1606,-2.082363 0.1606,-4.115956 v -3.697441 l -0.760577,-0.71269 c -1.666266,-1.561354 -1.822061,-3.07776 -0.456507,-4.443314 1.454544,-1.454545 3.532138,-1.132999 4.468609,0.691597 0.623753,1.2153 0.415631,2.193829 -0.738243,3.471029 l -0.925782,1.024731 0.004,6.679967 c 0.0021,3.673983 0.09232,6.818719 0.200213,6.988309 0.137242,0.21572 2.023475,0.33493 6.279803,0.39687 6.062599,0.0882 6.089359,0.0912 7.736621,0.85198 1.974717,0.91203 3.543191,2.51627 4.511302,4.61418 0.670634,1.45327 0.696417,1.69656 0.802005,7.56698 0.09615,5.3459 0.167957,6.16196 0.605311,6.87916 1.586907,2.60234 -1.022686,5.66133 -3.631219,4.25655 -1.754034,-0.94461 -2.07909,-3.02393 -0.724405,-4.63388 l 0.657603,-0.78152 -0.0847,-5.76058 c -0.08199,-5.57612 -0.105887,-5.79833 -0.746165,-6.93946 -0.363802,-0.64838 -1.177721,-1.54135 -1.80871,-1.98437 l -1.14725,-0.8055 -63.543374,-0.0778 c -45.741239,-0.056 -63.825949,0.004 -64.552009,0.21399 -0.55475,0.16049 -1.47053,0.7091 -2.03506,1.21912 -1.99886,1.80586 -1.87276,-0.78363 -1.79154,36.78812 l 0.0727,33.64549 0.8055,1.14722 c 0.44302,0.63097 1.33599,1.44488 1.98437,1.80868 l 1.17888,0.66146 h 63.764579 63.764585 l 1.249738,-0.73464 c 0.810411,-0.47638 1.50799,-1.17396 1.984375,-1.98437 l 0.734637,-1.24974 0.04461,-10.2495 c 0.04439,-10.20042 0.04756,-10.25483 0.661458,-11.36282 0.435732,-0.78644 1.002829,-1.31173 1.931419,-1.78905 1.276059,-0.65592 1.501251,-0.67959 7.687487,-0.80801 l 6.372921,-0.13229 1.0461599,-1.10053 c 1.6923624,-1.78032 4.1894046,-1.88976 5.8239158,-0.25525 2.0143471,2.01435 1.5504743,5.21319 -0.9504812,6.55446 -1.74020431,0.93329 -3.4005203,0.57212 -5.055796,-1.09978 l -1.0456836,-1.05619 -5.2152948,0.006 c -5.3326641,0.006 -6.9831851,0.19298 -7.6553191,0.86511 -0.31681,0.31681 -0.388721,2.07402 -0.425792,10.40436 -0.04387,9.85799 -0.05486,10.0486 -0.666853,11.56572 -0.839348,2.08072 -2.930123,4.16728 -4.922742,4.91281 -1.375402,0.51461 -2.023602,0.55641 -8.686287,0.56016 -3.959984,0.002 -7.352012,0.10054 -7.537842,0.21847 -0.255619,0.16221 -0.320026,1.20786 -0.264583,4.29542 l 0.07329,4.08101 3.307292,0.0648 c 4.919392,0.0963 4.443761,-0.33305 4.544544,4.10257 l 0.08566,3.77017 0.859896,0.83954 c 2.317684,2.26283 -0.214336,6.05692 -3.099903,4.64503 -1.320517,-0.64612 -2.011609,-2.10996 -1.593806,-3.37592 0.170117,-0.51546 0.655836,-1.19341 1.079371,-1.50654 0.766879,-0.56698 0.770067,-0.58105 0.770067,-3.39914 0,-3.28989 0.142314,-3.14639 -3.126248,-3.15249 -3.148526,-0.006 -2.959169,-0.41879 -2.959169,6.45283 v 5.90866 l 1.016982,0.67301 c 1.885751,1.24793 2.447668,3.96901 1.179436,5.71139 -0.570654,0.784 -2.551216,1.888 -3.387043,1.888 -0.302133,0 -1.073608,-0.26789 -1.714386,-0.59531 z m 2.640428,-2.57969 c 1.013769,-1.01377 0.481973,-2.38125 -0.926042,-2.38125 -0.92016,0 -1.455208,0.52866 -1.455208,1.43782 0,0.52703 0.934402,1.4726 1.455208,1.4726 0.218281,0 0.635,-0.23813 0.926042,-0.52917 z m -23.60679,-4.90979 c 1.155777,-0.80954 0.569574,-2.49854 -0.867169,-2.49854 -1.959515,0 -1.831372,2.65681 0.139565,2.89364 0.07676,0.009 0.404186,-0.16857 0.727604,-0.3951 z m -29.820637,-4.50509 c 0.470016,-0.56634 -0.0028,-1.30074 -0.837369,-1.30074 -0.719956,0 -0.991603,0.73533 -0.493406,1.33562 0.414943,0.49998 0.897374,0.48733 1.330775,-0.0349 z m 14.117902,-4.23006 c 0.523142,-0.52314 0.524036,-0.89942 0.0039,-1.64202 -0.487722,-0.69632 -1.340916,-0.75991 -2.014685,-0.15016 -0.919224,0.8319 -0.313849,2.20796 0.971362,2.20796 0.343014,0 0.81076,-0.1871 1.039434,-0.41578 z m -59.891831,-1.7102 c 0.617,-0.33021 0.67948,-1.45722 0.0933,-1.68218 -1.18123,-0.45327 -1.96477,0.39935 -1.2737,1.386 0.4591,0.65544 0.49317,0.66399 1.18044,0.29618 z m 93.218518,-0.586 c 0.339773,-0.53953 -0.0382,-1.33911 -0.694137,-1.46843 -0.411284,-0.0811 -1.260525,0.59628 -1.260525,1.00541 0,0.40912 0.849241,1.08648 1.260525,1.0054 0.221403,-0.0436 0.533763,-0.28772 0.694137,-0.54238 z M -180.25885,166.75573 c 0.48755,-0.48755 0.51399,-0.75841 0.14188,-1.4537 -0.54175,-1.01227 -2.10736,-0.47839 -2.10736,0.71862 0,1.00839 1.23157,1.46899 1.96548,0.73508 z M 1.2956474,154.0638 c 0.8441241,-1.2883 -0.60133968,-2.73054 -1.9911642,-1.98673 -0.5283332,0.28276 -0.6841966,0.72825 -0.5600171,1.60069 0.1746091,1.22673 1.83565274,1.47807 2.5511813,0.38604 z M -181.12068,139.48154 c 0.60172,-0.54455 0.62043,-1.35391 0.046,-1.98868 -0.84434,-0.93298 -2.47254,-0.27877 -2.47254,0.99346 0,1.26766 1.46266,1.86754 2.42657,0.99522 z m 98.65332,-48.791529 c 0.39202,-0.732496 -0.129699,-1.359691 -1.042474,-1.253236 -0.765297,0.08926 -1.043271,0.812999 -0.543529,1.415151 0.458963,0.553016 1.246408,0.472625 1.586003,-0.161915 z m -65.24673,-5.097259 c 0.47735,-1.33636 -1.33291,-2.360779 -2.35883,-1.334857 -0.60219,0.602189 -0.40697,1.738199 0.36445,2.120741 0.83656,0.414851 1.68488,0.08057 1.99438,-0.785884 z m 110.694181,-1.532757 c 0.08475,-0.730832 -0.430112,-1.129033 -1.118336,-0.864937 -0.989634,0.37976 -0.571878,1.788737 0.485556,1.637655 0.373081,-0.05331 0.578432,-0.30407 0.63278,-0.772718 z M -125.33891,80.91734 c 0.64382,-0.643824 0.6732,-1.25439 0.0913,-1.897396 -0.49726,-0.549473 -1.68057,-0.640816 -2.15503,-0.166354 -0.76568,0.765675 -0.0283,2.592917 1.04642,2.592917 0.26849,0 0.72629,-0.238125 1.01733,-0.529167 z m 16.93333,-5.027084 c 0.63683,-0.636832 0.66164,-1.016048 0.11729,-1.793212 -0.45376,-0.647831 -1.65477,-0.796806 -2.18104,-0.270538 -0.76567,0.765676 -0.0282,2.592917 1.04643,2.592917 0.26848,0 0.72628,-0.238125 1.01732,-0.529167 z"
             id="path953"
             sodipodi:nodetypes="csscssscssssccccsscssssssssscssssssscsssscssssscccccsscsssscccccssssscccsscscssssscssccccsssscscsscssssscccscsssssscsscssssccssscccccccsssssccccscccccccccccccsssccsccscccssssscccccccssssssccccsccscssscccccccscsscccccccsssssscccccccccccsssscccccccssssssccccscsssssssscccsssssssssssscssssccsssssssscssscscsccsscccsscsssscssssccsssscssccscssssscscsssccssssssscssssssssssssccsccssscsssssssssccsccsssssssssssscsssccsssss" /></g></g></g></g></svg>
