<?xml version="1.0" encoding="UTF-8" standalone="no"?>
<!-- Uploaded to: SVG Repo, www.svgrepo.com, Generator: SVG Repo Mixer Tools -->

<svg
   width="800px"
   height="800px"
   viewBox="0 0 32 32"
   fill="none"
   version="1.1"
   id="svg6"
   sodipodi:docname="debian.svg"
   inkscape:version="1.2.1 (9c6d41e, 2022-07-14)"
   xml:space="preserve"
   xmlns:inkscape="http://www.inkscape.org/namespaces/inkscape"
   xmlns:sodipodi="http://sodipodi.sourceforge.net/DTD/sodipodi-0.dtd"
   xmlns="http://www.w3.org/2000/svg"
   xmlns:svg="http://www.w3.org/2000/svg"><defs
     id="defs10" /><sodipodi:namedview
     id="namedview8"
     pagecolor="#ffffff"
     bordercolor="#000000"
     borderopacity="0.25"
     inkscape:showpageshadow="2"
     inkscape:pageopacity="0.0"
     inkscape:pagecheckerboard="0"
     inkscape:deskcolor="#d1d1d1"
     showgrid="false"
     inkscape:zoom="0.77428193"
     inkscape:cx="-1.9372788"
     inkscape:cy="481.73667"
     inkscape:window-width="1920"
     inkscape:window-height="1024"
     inkscape:window-x="0"
     inkscape:window-y="0"
     inkscape:window-maximized="1"
     inkscape:current-layer="svg6" /><path
     style="fill:#d60650;stroke-width:0.999999"
     d="M 14.55354,31.958485 C 12.515214,31.74559 10.767363,31.253775 9.0267538,30.403343 7.3698064,29.593788 6.2017189,28.772157 4.8844486,27.489652 3.4575126,26.100377 2.5547473,24.869597 1.6911644,23.136108 -0.09181506,19.557094 -0.47407915,15.608581 0.58770557,11.73819 1.7682654,7.4348421 4.7937508,3.7420522 8.7854109,1.7323888 11.863674,0.18258948 15.299443,-0.34331737 18.671662,0.21911567 c 2.626864,0.438122 5.298178,1.64005523 7.382575,3.32172263 0.806049,0.6503117 2.128218,2.0093615 2.709419,2.7849962 1.670806,2.2297558 2.726602,4.7789765 3.116593,7.5250285 0.159667,1.124269 0.159667,3.19225 0,4.316518 -0.413299,2.910163 -1.623219,5.698578 -3.44737,7.944898 -0.61574,0.758242 -1.990547,2.088135 -2.735987,2.646603 -2.188475,1.639563 -4.6662,2.681364 -7.338051,3.085406 -0.94171,0.142414 -2.956355,0.202867 -3.805301,0.1142 z m 2.272478,-5.255054 c -0.120436,-0.02903 -0.438146,-0.09488 -0.706024,-0.14634 -0.711339,-0.136642 -1.120955,-0.347551 -1.561427,-0.803951 -0.255725,-0.264969 -0.363176,-0.344824 -0.332366,-0.247001 l 0.04553,0.144557 -0.302603,-0.164386 c -0.506496,-0.27515 -0.801727,-0.436666 -0.830226,-0.454203 -0.01486,-0.0092 0.0063,-0.05 0.04692,-0.09071 0.101604,-0.101595 0.0928,-0.17412 -0.02115,-0.17412 -0.05235,0 -0.255044,-0.154832 -0.450442,-0.34407 -0.223327,-0.216291 -0.409221,-0.344071 -0.500549,-0.344071 -0.1093,0 -0.206914,-0.09535 -0.394173,-0.385049 -0.136891,-0.211775 -0.248893,-0.422909 -0.248893,-0.469187 0,-0.04628 -0.03957,-0.08414 -0.08792,-0.08414 -0.145274,0 -1.004462,-1.216526 -0.936658,-1.326223 0.01789,-0.02893 -0.04071,-0.139646 -0.130227,-0.246012 -0.119685,-0.142227 -0.145227,-0.2145 -0.09652,-0.273175 0.04853,-0.05848 0.01614,-0.161008 -0.121296,-0.38399 -0.103137,-0.167316 -0.2324731,-0.413262 -0.2874201,-0.54655 l -0.099899,-0.24234 0.1746323,0.137347 c 0.2192578,0.172453 0.2530998,0.08489 0.090421,-0.233949 C 9.8695075,19.621667 9.6525021,19.405192 9.40746,19.359225 9.2055732,19.321346 9.1641276,19.276648 8.9941047,18.913354 8.8901699,18.691274 8.8218639,18.465984 8.8423083,18.412708 8.8627512,18.35944 8.8343314,18.228591 8.7792123,18.12195 8.7118463,17.991688 8.690465,17.844144 8.714083,17.672366 8.7397656,17.485539 8.713645,17.342635 8.6171554,17.141767 8.4206569,16.732752 8.4038976,15.916476 8.5611448,14.413879 L 8.692076,13.162714 9.0279394,12.505853 c 0.4153558,-0.81233 0.4524017,-0.921555 0.3218474,-0.948926 -0.2287378,-0.04795 1.3047592,-1.7042837 2.0108972,-2.1719644 0.163811,-0.1084917 0.411793,-0.2294387 0.551074,-0.2687675 0.139283,-0.039333 0.295465,-0.1121513 0.347081,-0.1618272 0.08249,-0.079386 0.07492,-0.084829 -0.06256,-0.044901 l -0.156411,0.045417 0.176605,-0.1876403 c 0.254469,-0.270369 0.70926,-0.495441 1.105961,-0.54733 0.189257,-0.024757 0.414488,-0.082499 0.500514,-0.1283226 0.149231,-0.07948 0.144914,-0.081967 -0.09385,-0.053863 -0.228174,0.026853 -0.236455,0.023053 -0.09385,-0.043087 0.08603,-0.039897 0.441187,-0.21239 0.789249,-0.3833179 0.589925,-0.289701 0.674775,-0.3135169 1.251284,-0.3512114 1.974707,-0.1291045 3.165455,0.089067 4.224426,0.7740536 0.841909,0.5445773 1.755245,1.623754 2.213429,2.6153407 0.18958,0.410282 0.257234,0.640629 0.473372,1.611719 0.03514,0.157916 0.05954,0.819469 0.05421,1.470119 -0.01236,1.50837 -0.13542,1.982548 -0.583035,2.246488 -0.06396,0.03771 -0.125676,0.188418 -0.155378,0.379399 -0.05335,0.342984 -0.192052,0.50171 -1.016439,1.163259 -0.382986,0.30734 -0.662928,0.418654 -0.486202,0.193333 0.04722,-0.06021 -0.0369,-0.0012 -0.186941,0.1312 -0.28226,0.249012 -0.574896,0.399048 -0.870257,0.446183 -0.09393,0.01501 -0.32563,0.07261 -0.514886,0.128041 -0.444155,0.13009 -1.203798,0.08808 -1.734453,-0.09593 -0.75236,-0.260882 -1.455112,-0.805491 -1.920882,-1.488616 -0.413916,-0.60707 -0.630641,-1.298148 -0.704389,-2.246101 -0.09715,-1.248657 0.927677,-2.58352 2.29082,-2.983874 0.757591,-0.222504 1.791639,-0.08147 2.475571,0.337635 l 0.312821,0.191694 -0.302196,-0.282349 c -0.166208,-0.155285 -0.51663,-0.388338 -0.778716,-0.517881 -0.468503,-0.231568 -0.48868,-0.235513 -1.199345,-0.23443 -0.605241,9.19e-4 -0.780753,0.02434 -1.078932,0.143884 -0.472141,0.189315 -0.99034,0.580401 -1.245264,0.939803 -0.11371,0.160318 -0.288145,0.390016 -0.387629,0.510441 -0.246807,0.298761 -0.606667,1.194564 -0.678532,1.689072 -0.106077,0.729946 0.03529,1.561521 0.382304,2.248826 0.246828,0.488873 0.665351,0.975222 1.267297,1.472673 0.284579,0.235178 0.562098,0.476794 0.616707,0.536925 0.250407,0.275726 1.675315,0.539276 2.537463,0.469328 1.248685,-0.101313 2.310766,-0.599326 3.317639,-1.555664 0.337269,-0.320344 0.458692,-0.404394 0.459396,-0.318001 8.01e-4,0.0979 0.01079,0.101907 0.05997,0.02412 0.03246,-0.05133 0.04344,-0.155348 0.0244,-0.231175 -0.02088,-0.08319 0.02302,-0.240367 0.110707,-0.396372 0.143444,-0.255211 0.146635,-0.256867 0.249675,-0.129636 0.103888,0.128276 0.10456,0.128088 0.146119,-0.04206 0.02296,-0.09401 0.153657,-0.415135 0.290434,-0.713603 0.136781,-0.298468 0.265607,-0.685547 0.28629,-0.860176 0.02069,-0.174628 0.06184,-0.317505 0.09145,-0.317505 0.02963,0 0.05512,-0.07742 0.05667,-0.172035 l 0.0028,-0.172035 0.08595,0.187675 0.08595,0.187675 0.005,-0.265202 c 0.0028,-0.145855 0.06138,-0.413297 0.13018,-0.594303 0.149153,-0.392375 0.151718,-0.42294 0.03552,-0.42294 -0.118684,0 -0.169767,-0.17825 -0.156051,-0.544585 0.0069,-0.184326 -0.03995,-0.426555 -0.121546,-0.628382 -0.128116,-0.316923 -0.08542,-0.464543 0.05728,-0.197956 0.118763,0.221877 0.128914,0.09434 0.02834,-0.355873 -0.128116,-0.57352 -0.194026,-0.718593 -0.30679,-0.675325 -0.06544,0.0251 -0.113789,-0.03854 -0.168819,-0.222194 -0.08695,-0.290181 -0.05499,-0.344658 0.233748,-0.398458 0.192655,-0.03589 0.199771,-0.02828 0.415658,0.445274 0.120811,0.264988 0.255305,0.601622 0.298886,0.748074 0.04358,0.146449 0.09169,0.253818 0.106922,0.23859 0.01517,-0.01517 -0.029,-0.205431 -0.0983,-0.422672 -0.146212,-0.45841 -0.22192,-1.051847 -0.134184,-1.051847 0.03278,0 0.05962,0.03284 0.05962,0.07299 0,0.04015 0.01622,0.05677 0.03605,0.03694 0.06657,-0.06656 -0.32573,-0.8997776 -0.678169,-1.4404185 C 23.143719,8.0829471 22.202767,7.165263 21.36184,6.6511937 21.17419,6.5364775 21.174173,6.5364775 21.28363,6.6640182 21.469191,6.8802539 21.405849,6.8903539 21.115752,6.6907931 20.963205,6.5858516 20.821423,6.4465344 20.800689,6.3812158 20.751659,6.2267282 20.515115,6.170995 20.117388,6.2201971 c -0.272242,0.033672 -0.381929,0.011573 -0.739466,-0.149264 -0.230895,-0.103831 -0.681357,-0.27284 -1.001027,-0.3755559 -0.31967,-0.1027207 -0.635376,-0.2078154 -0.701567,-0.2335518 -0.08972,-0.034892 -0.111724,-0.024132 -0.08643,0.042258 0.02801,0.073553 -0.09813,0.091523 -0.724267,0.1032368 -0.455824,0.00845 -0.723164,-0.00782 -0.670369,-0.040913 0.05873,-0.036831 -0.04841,-0.069674 -0.323502,-0.099124 -0.226225,-0.024226 -0.441703,-0.025258 -0.478842,-0.00235 -0.03713,0.022959 -0.06752,0.026884 -0.06752,0.00876 0,-0.018142 0.07742,-0.077572 0.172052,-0.1320761 0.171369,-0.098717 0.170936,-0.098936 -0.109488,-0.055505 -0.154846,0.023975 -0.422308,0.049812 -0.59436,0.057381 -0.51014,0.02249 -2.390166,0.8785868 -3.0748,1.4001647 C 11.540716,6.8785679 11.352063,6.9845557 11.298574,6.9791835 11.155943,6.9647951 9.7225692,8.3364425 9.5225968,8.6786002 9.4285158,8.8395719 9.3122294,9.0175173 9.264177,9.0740324 9.216128,9.1305538 9.0798269,9.4019815 8.9612912,9.6772159 8.7447722,10.179965 8.5410851,10.471141 8.4467117,10.412821 8.3737307,10.367732 7.9907012,11.235167 7.6706165,12.170397 l -0.2753763,0.804608 0.012982,2.15826 c 0.013764,2.301314 0.038008,2.545513 0.3748924,3.782013 0.8687919,3.188739 3.3811724,6.135739 6.2346604,7.3132 0.988662,0.407961 1.531213,0.525444 2.432825,0.526796 0.452727,6.82e-4 0.54218,-0.01173 0.375386,-0.05189 z m 1.876926,-7.123114 c 0.101902,-0.02914 -0.07253,-0.05927 -0.500513,-0.08649 -0.842189,-0.05356 -1.322983,-0.181562 -1.700457,-0.452726 -0.166038,-0.119267 -0.337656,-0.216863 -0.381375,-0.216863 -0.112537,0 -0.718549,-0.405074 -1.013507,-0.677457 -0.240068,-0.221696 -0.188989,-0.132092 0.153017,0.268439 0.298099,0.349106 -0.06951,0.03839 -0.581788,-0.491728 -0.410213,-0.424511 -0.459571,-0.460867 -0.303949,-0.22387 0.506646,0.771569 1.687104,1.522427 2.858312,1.818103 0.444857,0.112307 1.185972,0.143852 1.47026,0.06259 z"
     id="path301" /></svg>
