<?xml version="1.0" encoding="UTF-8" standalone="no"?>
<!-- Uploaded to: SVG Repo, www.svgrepo.com, Generator: SVG Repo Mixer Tools -->

<svg
   width="800px"
   height="800px"
   viewBox="0 0 32 32"
   fill="none"
   version="1.1"
   id="svg986"
   sodipodi:docname="git.svg"
   inkscape:version="1.2.1 (9c6d41e, 2022-07-14)"
   xmlns:inkscape="http://www.inkscape.org/namespaces/inkscape"
   xmlns:sodipodi="http://sodipodi.sourceforge.net/DTD/sodipodi-0.dtd"
   xmlns="http://www.w3.org/2000/svg"
   xmlns:svg="http://www.w3.org/2000/svg">
  <defs
     id="defs990" />
  <sodipodi:namedview
     id="namedview988"
     pagecolor="#ffffff"
     bordercolor="#000000"
     borderopacity="0.25"
     inkscape:showpageshadow="2"
     inkscape:pageopacity="0.0"
     inkscape:pagecheckerboard="0"
     inkscape:deskcolor="#d1d1d1"
     showgrid="false"
     inkscape:zoom="0.38714096"
     inkscape:cx="410.70312"
     inkscape:cy="309.96462"
     inkscape:window-width="1920"
     inkscape:window-height="1024"
     inkscape:window-x="0"
     inkscape:window-y="0"
     inkscape:window-maximized="1"
     inkscape:current-layer="svg986" />
  <circle
     style="fill:#ee513b;fill-opacity:1;fill-rule:evenodd;stroke-width:0.151181;stop-color:#000000"
     id="path1424"
     cx="16"
     cy="16"
     r="16" />
  <path
     id="path1219"
     d="m 16.000001,4.9455437 c -0.403861,0 -0.807728,0.154092 -1.115871,0.4622267 l -1.944276,1.9442763 2.56245,2.5539984 c 0.15721,-0.048711 0.324229,-0.074951 0.497389,-0.074951 0.926679,-10e-8 1.677908,0.7512759 1.677908,1.6779699 0,0.17316 -0.02623,0.340196 -0.07494,0.497327 l 2.544499,2.544499 c 0.162657,-0.05251 0.336095,-0.08081 0.516203,-0.08081 0.926678,0 1.677908,0.75123 1.677908,1.677908 0,0.926679 -0.75123,1.677908 -1.677908,1.677908 -0.926679,0 -1.677908,-0.751229 -1.677908,-1.677908 -1e-6,-0.246356 0.05303,-0.480343 0.14842,-0.691088 l -2.369181,-2.369182 v 6.131336 c 0.542062,0.278098 0.912917,0.842664 0.912917,1.49377 0,0.926679 -0.75123,1.677908 -1.677909,1.677908 -0.926677,0 -1.677908,-0.751229 -1.677908,-1.677908 0,-0.718223 0.451259,-1.331058 1.085705,-1.570386 v -6.06305 c -0.634446,-0.239329 -1.085705,-0.852101 -1.085705,-1.570325 0,-0.252981 0.05598,-0.492887 0.156256,-0.707991 L 11.980239,8.3116621 5.4077736,14.884127 c -0.6162693,0.616286 -0.6162693,1.615457 0,2.231741 l 9.4763564,9.476358 c 0.616286,0.616285 1.615457,0.616285 2.231742,0 l 9.476357,-9.476358 c 0.616286,-0.616284 0.616286,-1.615455 0,-2.231741 L 17.115872,5.4077704 C 16.80773,5.0996357 16.403863,4.9455437 16.000001,4.9455437 Z"
     style="fill:#ffffff;fill-opacity:1;stroke-width:0.999999" />
</svg>
