<?xml version="1.0" encoding="UTF-8" standalone="no"?>
<!-- Created with Inkscape (http://www.inkscape.org/) -->

<svg
   width="40mm"
   height="9mm"
   viewBox="0 0 40 9"
   version="1.1"
   id="svg9207"
   inkscape:version="1.2.1 (9c6d41e, 2022-07-14)"
   sodipodi:docname="logo01.svg"
   xmlns:inkscape="http://www.inkscape.org/namespaces/inkscape"
   xmlns:sodipodi="http://sodipodi.sourceforge.net/DTD/sodipodi-0.dtd"
   xmlns="http://www.w3.org/2000/svg"
   xmlns:svg="http://www.w3.org/2000/svg">
  <sodipodi:namedview
     id="namedview9209"
     pagecolor="#ffffff"
     bordercolor="#000000"
     borderopacity="0.25"
     inkscape:showpageshadow="2"
     inkscape:pageopacity="0.0"
     inkscape:pagecheckerboard="0"
     inkscape:deskcolor="#d1d1d1"
     inkscape:document-units="mm"
     showgrid="false"
     inkscape:zoom="3.1215488"
     inkscape:cx="158.89548"
     inkscape:cy="68.235358"
     inkscape:window-width="1920"
     inkscape:window-height="1024"
     inkscape:window-x="0"
     inkscape:window-y="0"
     inkscape:window-maximized="1"
     inkscape:current-layer="layer1" />
  <defs
     id="defs9204" />
  <g
     inkscape:label="Layer 1"
     inkscape:groupmode="layer"
     id="layer1">
    <path
       id="path9388"
       style="font-weight:500;font-size:8.3072px;font-family:Ubuntu;-inkscape-font-specification:'Ubuntu, Medium';text-align:center;direction:rtl;text-anchor:middle;fill-rule:evenodd;stroke-width:0.5;stroke-linecap:round;stroke-linejoin:round"
       d="M 18.716287,0 17.74626,0.15924438 V 1.9342509 H 8.5591808 V 1.4927299 L 7.5891531,1.6524772 V 1.9342509 H 0.63687638 L 0.12617871,2.7751302 H 7.5891531 v 3.0906343 c 0,0.2764662 0.023711,0.5236762 0.071814,0.7416555 0.0481,0.2126652 0.1312792,0.3964754 0.2488647,0.5506603 0.117587,0.1488643 0.2750358,0.2630186 0.472795,0.3427935 0.203104,0.079775 0.454268,0.1195574 0.7535792,0.1195574 0.2458624,0 0.45964,-0.026666 0.6413648,-0.07987 C 9.959296,7.4927662 10.106206,7.4451363 10.218446,7.397195 L 10.058354,6.6317248 c -0.08017,0.031948 -0.1896964,0.066524 -0.328662,0.1036788 -0.1336192,0.037231 -0.2889328,0.055559 -0.4653136,0.055559 -0.256552,0 -0.4382128,-0.071711 -0.5451104,-0.2153 C 8.6123696,6.4321188 8.5591768,6.1927622 8.5591768,5.857822 V 4.159211 H 10.050374 V 3.3540538 H 8.5591768 V 2.7751239 h 9.1870792 v 4.7495583 h 0.970027 V 4.2073243 c 0.06414,-0.021321 0.163123,-0.045313 0.296744,-0.071903 0.133619,-0.026603 0.264223,-0.039649 0.392499,-0.039649 0.16569,0 0.304695,0.023548 0.416937,0.071425 0.112239,0.042512 0.200685,0.1142878 0.264825,0.2152936 0.06948,0.095711 0.117409,0.223478 0.144133,0.3829833 0.03206,0.1541849 0.04788,0.3427427 0.04788,0.5660361 v 2.1932224 h 0.970532 V 5.1802092 c 0,-0.2870879 -0.02956,-0.5474145 -0.08831,-0.7813488 C 21.108037,4.1649388 21.014357,3.9653965 20.88074,3.8005835 20.747111,3.6304563 20.56809,3.5000989 20.343605,3.409664 20.124466,3.3139531 19.846454,3.2662919 19.50973,3.2662919 c -0.138964,0 -0.280605,0.013047 -0.424916,0.039649 -0.138965,0.026602 -0.261663,0.058487 -0.36856,0.095711 V 2.775092 H 39.489297 L 40,1.9342192 H 18.716287 Z m 8.700321,3.2498849 c -0.267246,0 -0.518401,0.021384 -0.753579,0.064029 -0.235173,0.042513 -0.414203,0.084955 -0.537134,0.1274937 l 0.120193,0.7818388 c 0.11759,-0.042513 0.269767,-0.079775 0.456839,-0.1116213 0.187065,-0.031884 0.392941,-0.048113 0.617423,-0.048113 0.165689,0 0.302056,0.021384 0.408961,0.06403 0.112228,0.042513 0.200182,0.103806 0.264322,0.1835618 0.06949,0.074403 0.117935,0.1619111 0.144641,0.2629232 0.02674,0.1010121 0.03986,0.2073384 0.03986,0.3189851 v 0.1597473 c -0.133629,-0.031948 -0.25946,-0.053395 -0.377049,-0.064036 -0.117589,-0.01591 -0.22974,-0.023802 -0.336632,-0.023802 -0.22983,0 -0.451515,0.024121 -0.665312,0.071909 C 26.5907,5.0793435 26.406405,5.1537341 26.24605,5.260073 26.08571,5.3610853 25.957244,5.4941092 25.861037,5.6589285 25.770217,5.8237416 25.72488,6.0254096 25.72488,6.264658 c 0,0.2498766 0.04006,0.4599008 0.120194,0.6300342 0.0855,0.1701272 0.200316,0.3083888 0.344623,0.4147279 0.149663,0.1063072 0.328686,0.1833074 0.537127,0.2311723 0.208454,0.047923 0.43854,0.071903 0.689746,0.071903 0.37948,0 0.718595,-0.024121 1.0179,-0.071903 0.304662,-0.042512 0.532106,-0.079775 0.681768,-0.111615 V 4.9009047 c 0,-0.2445625 -0.02943,-0.4677032 -0.08831,-0.6697213 C 28.974438,4.0238323 28.880771,3.8483784 28.747154,3.704828 28.618874,3.5612841 28.445116,3.4497201 28.225978,3.3699769 28.006845,3.290202 27.737226,3.2504196 27.416544,3.2504196 Z M 1.6672494,3.2503814 c -0.4863807,0 -0.87078125,0.1115639 -1.15405715,0.3348575 -0.28327719,0.2179857 -0.42491673,0.5181074 -0.42491673,0.9008998 0,0.1967039 0.02898304,0.3642981 0.08777582,0.5025407 0.0641402,0.1329094 0.14994804,0.2471018 0.25684565,0.3427935 0.10689634,0.095711 0.23222987,0.1810545 0.37653997,0.2554898 0.1496556,0.069121 0.31287324,0.1356206 0.48925274,0.1994215 0.2886214,0.106339 0.4944946,0.2043027 0.6174257,0.2946803 0.128276,0.090333 0.1925096,0.2050601 0.1925096,0.34329 0,0.148858 -0.05897,0.2551843 -0.1765504,0.3189852 -0.1175861,0.058487 -0.3045167,0.087845 -0.5610699,0.087845 -0.2565513,0 -0.4866379,-0.026666 -0.68974136,-0.079877 C 0.48350476,6.6981032 0.3123831,6.6421302 0.16807173,6.5836307 L 0,7.3892843 c 0.09086416,0.037166 0.24831132,0.08486 0.4727951,0.1433658 0.2244825,0.063839 0.5214361,0.095711 0.8902299,0.095711 0.5505197,0 0.9723065,-0.1010885 1.2662723,-0.3031128 0.2993113,-0.2073449 0.449354,-0.5101014 0.449354,-0.9088296 0,-0.1860886 -0.024217,-0.3458166 -0.072315,-0.4787324 C 2.9582359,5.8047702 2.8808255,5.6879622 2.7739278,5.5869564 2.6723765,5.4806238 2.5412758,5.3874014 2.3809302,5.3076519 2.2205848,5.222601 2.0257502,5.1377284 1.7959221,5.0526584 1.6569556,5.0048634 1.539029,4.9592515 1.4428213,4.9167387 1.3466206,4.8689438 1.2692082,4.823809 1.2104142,4.7813028 1.1516227,4.7335078 1.1089677,4.6831799 1.0822412,4.6299945 1.0608654,4.57679 1.0503278,4.5155539 1.0503278,4.446439 c 0,-0.1382235 0.061102,-0.2392994 0.184031,-0.303113 0.1229305,-0.069114 0.2835133,-0.1036787 0.4812725,-0.1036787 0.2191395,0 0.4113395,0.021384 0.5770298,0.064036 0.1656898,0.037167 0.3020606,0.079578 0.4089575,0.1274935 L 2.8781684,3.4498283 C 2.7659271,3.4073156 2.5974402,3.3643892 2.3729564,3.3218448 2.1484733,3.2739225 1.9131179,3.2504196 1.6672552,3.2504196 Z m 10.4538506,0 c -0.245862,0 -0.486487,0.047732 -0.721661,0.1433658 -0.235172,0.090429 -0.443681,0.2286521 -0.625405,0.4147342 -0.181725,0.1807616 -0.328634,0.4096237 -0.440876,0.6860898 -0.106896,0.2764598 -0.160092,0.5980478 -0.160092,0.964898 0,0.3136647 0.04266,0.6033175 0.128173,0.8691491 0.08552,0.2604983 0.216619,0.4888767 0.392999,0.6855935 0.17638,0.1913961 0.400696,0.3432644 0.673283,0.4549111 0.272587,0.1063326 0.593254,0.1592443 0.962048,0.1592443 0.144311,0 0.285951,-0.0077 0.424917,-0.023802 0.138964,-0.016038 0.267432,-0.037422 0.385017,-0.064029 0.122932,-0.021321 0.229822,-0.044804 0.320683,-0.071425 0.09621,-0.031948 0.170982,-0.061223 0.224428,-0.087839 L 13.556441,6.5914968 c -0.112241,0.047795 -0.267555,0.093407 -0.465314,0.1359325 -0.192415,0.042513 -0.406191,0.063451 -0.641365,0.063451 -0.400864,0 -0.707856,-0.090142 -0.92165,-0.2708594 -0.208446,-0.1860758 -0.326373,-0.4468988 -0.353101,-0.781839 h 2.765949 c 0.0053,-0.053204 0.008,-0.1113095 0.008,-0.175123 0.0053,-0.069114 0.008,-0.1303637 0.008,-0.1835491 0,-0.707098 -0.162719,-1.2387167 -0.488754,-1.5949323 -0.32067,-0.3562029 -0.769803,-0.5342852 -1.347045,-0.5342852 z m 4.195306,0 c -0.320692,0 -0.609241,0.055558 -0.865794,0.1671741 C 15.19406,3.5292022 14.975013,3.6836926 14.793288,3.8804156 14.616909,4.0771259 14.480538,4.310742 14.38433,4.5818814 14.28812,4.847713 14.240198,5.1347308 14.240198,5.4430879 v 5.027e-4 c 0,0.3136774 0.04266,0.6059458 0.128173,0.8770851 0.08552,0.2658316 0.213984,0.4968193 0.385018,0.6935361 0.176381,0.1913961 0.395427,0.3432644 0.657325,0.4549111 0.267242,0.1063326 0.580004,0.1592443 0.938108,0.1592443 0.229828,0 0.451511,-0.021002 0.665304,-0.06345 0.219139,-0.042513 0.381858,-0.090715 0.488754,-0.1438625 L 17.366727,6.6238395 c -0.117587,0.047923 -0.256592,0.087648 -0.416936,0.1195574 -0.160345,0.031884 -0.323065,0.047605 -0.488755,0.047605 -0.443622,0 -0.759018,-0.1194237 -0.946087,-0.3586722 -0.187071,-0.2445625 -0.280786,-0.5740167 -0.280786,-0.9887064 0,-0.4306445 0.09898,-0.7632109 0.296744,-0.9971452 0.197759,-0.2392421 0.486309,-0.3586722 0.865794,-0.3586722 0.160345,0 0.309889,0.015719 0.448855,0.047604 0.14431,0.031884 0.272777,0.071712 0.385019,0.1195574 L 17.439042,3.4656884 C 17.086282,3.3221439 16.711923,3.2503941 16.316406,3.2503941 Z m 8.275408,0 c -0.320695,0 -0.609246,0.055558 -0.8658,0.1671741 -0.256555,0.1116467 -0.475604,0.2661371 -0.657321,0.4628601 -0.176381,0.1967103 -0.312748,0.4303264 -0.408962,0.7014658 -0.09622,0.2658316 -0.144128,0.5528494 -0.144128,0.8612065 v 5.027e-4 c 0,0.3136774 0.04267,0.6059458 0.128165,0.8770851 0.08551,0.2658316 0.213995,0.4968193 0.385027,0.6935361 0.176381,0.1913961 0.395423,0.3432644 0.657321,0.4549111 0.267246,0.1063326 0.580006,0.1592443 0.938104,0.1592443 0.22983,0 0.451515,-0.021002 0.665312,-0.06345 0.219133,-0.042512 0.38186,-0.090715 0.488752,-0.1438622 L 25.642127,6.6238395 c -0.117583,0.047923 -0.256586,0.087648 -0.416927,0.1195574 -0.160341,0.031884 -0.323069,0.047605 -0.488758,0.047605 -0.443614,0 -0.759018,-0.1194237 -0.946096,-0.3586722 -0.187065,-0.2445625 -0.280777,-0.5740167 -0.280777,-0.9887064 0,-0.4306445 0.09898,-0.7632109 0.29674,-0.9971452 0.197757,-0.2392421 0.486314,-0.3586722 0.865788,-0.3586722 0.160347,0 0.309894,0.015719 0.44886,0.047604 0.144313,0.031884 0.272773,0.071712 0.385014,0.1195574 L 25.714444,3.4656884 C 25.361689,3.3221439 24.987327,3.2503941 24.591814,3.2503941 Z m 6.891924,0.015847 c -0.336721,0 -0.657384,0.023548 -0.962052,0.071425 -0.299306,0.047795 -0.54256,0.098619 -0.729631,0.1518047 v 4.0351925 h 0.970018 V 4.1591728 c 0.06418,-0.010629 0.160501,-0.023739 0.288769,-0.039649 0.12828,-0.01591 0.245703,-0.023802 0.352601,-0.023802 0.299313,0 0.502546,0.09846 0.609451,0.2951769 0.11224,0.1913898 0.168069,0.5046282 0.168069,0.9405805 v 2.193216 h 0.970019 V 5.219858 c 0,-0.1701271 -0.0078,-0.3293587 -0.02393,-0.4782295 -0.01599,-0.1488644 -0.04542,-0.2897545 -0.08831,-0.422664 0.06949,-0.047796 0.173738,-0.095997 0.312703,-0.1438749 0.138978,-0.053204 0.285883,-0.079393 0.440876,-0.079393 0.304661,0 0.510537,0.09797 0.617435,0.2946804 0.106892,0.1913962 0.16059,0.505131 0.16059,0.9410833 V 7.524676 h 0.970018 V 5.1801519 c 0,-0.2817738 -0.02425,-0.539472 -0.07229,-0.7734063 C 35.425344,4.1674972 35.342645,3.9653455 35.219714,3.8005325 35.102124,3.630399 34.936281,3.4999844 34.722484,3.4096131 34.51403,3.3139022 34.247059,3.2662346 33.921029,3.2662346 c -0.128275,0 -0.256747,0.013174 -0.385021,0.039649 -0.122931,0.026603 -0.240367,0.06116 -0.352608,0.1036914 -0.112241,0.037167 -0.213854,0.079584 -0.304718,0.1274935 -0.09081,0.047795 -0.16562,0.093407 -0.224424,0.1359261 -0.122932,-0.1222751 -0.278251,-0.2207415 -0.46531,-0.295177 -0.18173,-0.074397 -0.416588,-0.1116212 -0.70521,-0.1116212 z m 6.375751,0 c -0.320702,0 -0.625055,0.024121 -0.913677,0.071902 -0.288622,0.047795 -0.531874,0.098129 -0.729638,0.1513147 V 9 h 0.970024 V 7.3812655 c 0.106905,0.058487 0.243273,0.111373 0.408963,0.1592444 0.165683,0.047922 0.347349,0.071903 0.545105,0.071903 0.29397,0 0.555676,-0.052886 0.785505,-0.1592443 0.235173,-0.1063327 0.430498,-0.2555789 0.585503,-0.4469751 0.155005,-0.1914026 0.272428,-0.4197619 0.352602,-0.6855934 0.0855,-0.2658317 0.128677,-0.5580937 0.128677,-0.8770917 v -4.963e-4 c 0,-0.3349402 -0.05106,-0.6350619 -0.152612,-0.9008935 C 39.743721,4.2709659 39.602088,4.0421038 39.415016,3.8560154 39.233299,3.6646255 39.011614,3.5184977 38.749717,3.4174728 38.487814,3.3164734 38.190868,3.2661709 37.859489,3.2661709 Z M 3.4257667,3.3540666 v 2.3365813 c 0,0.2817802 0.029482,0.5421004 0.088277,0.7813424 0.058791,0.2339281 0.1546436,0.4360924 0.2882645,0.6062259 0.1389664,0.1701271 0.3206269,0.3031511 0.5451107,0.3988555 0.2298274,0.095711 0.5131085,0.1433658 0.8498335,0.1433658 0.3581046,0 0.6871731,-0.026666 0.986485,-0.07987 0.2993107,-0.047795 0.5425708,-0.09552 0.7296396,-0.1433658 V 3.3540666 H 5.9428521 v 3.3734136 c -0.06414,0.01591 -0.1626238,0.029084 -0.2962447,0.039649 -0.128276,0.010629 -0.2514732,0.015847 -0.3690594,0.015847 -0.3260346,0 -0.555622,-0.095806 -0.689243,-0.2872344 C 4.460029,6.304339 4.3957961,5.9853729 4.3957961,5.5387859 V 3.3540093 Z M 12.12908,4.0555322 c 0.14431,0 0.267506,0.026666 0.369059,0.07987 0.106897,0.047922 0.194843,0.1169863 0.264326,0.2073704 0.07482,0.085057 0.131157,0.1887614 0.168571,0.311049 0.03742,0.1169608 0.05586,0.242125 0.05586,0.3750472 h -1.803904 c 0.01603,-0.1222813 0.04551,-0.2422079 0.08828,-0.3591686 0.04276,-0.1169672 0.101722,-0.220665 0.176549,-0.311049 0.08017,-0.090333 0.176025,-0.1621211 0.288266,-0.2153065 0.112241,-0.058487 0.243342,-0.087838 0.392998,-0.087838 z m 25.63465,0.040221 c 0.432928,0 0.745191,0.1194302 0.937605,0.3586722 0.197769,0.2392484 0.296747,0.5744304 0.296747,1.0050814 0,0.4040487 -0.08271,0.7256369 -0.248365,0.9648853 -0.160354,0.2392484 -0.416781,0.3586722 -0.769543,0.3586722 -0.16034,0 -0.313016,-0.024121 -0.45733,-0.071903 C 37.383878,6.6579578 37.271727,6.602481 37.186198,6.5439815 V 4.1592806 c 0.09622,-0.026794 0.192556,-0.042513 0.288769,-0.047605 0.101556,-0.010692 0.197898,-0.015847 0.288763,-0.015847 z m -10.195009,1.563182 c 0.01344,-2.482e-4 0.02655,0 0.03986,0 0.122937,0 0.235594,0.0077 0.33715,0.023802 0.101531,0.01591 0.17894,0.031693 0.232408,0.047605 V 6.798918 c -0.155005,0.031884 -0.382461,0.048113 -0.681767,0.048113 -0.245857,0 -0.440696,-0.042449 -0.585004,-0.1274999 -0.144314,-0.090333 -0.216451,-0.2501121 -0.216451,-0.478726 0,-0.1169671 0.02681,-0.2127988 0.08029,-0.2872406 0.05349,-0.079679 0.122944,-0.1404956 0.208466,-0.1830528 0.09082,-0.042513 0.189356,-0.071903 0.296242,-0.087839 0.09822,-0.013938 0.194647,-0.022083 0.288769,-0.023802 z" />
  </g>
</svg>
