<?xml version="1.0" encoding="UTF-8" standalone="no"?>
<!-- Uploaded to: SVG Repo, www.svgrepo.com, Generator: SVG Repo Mixer Tools -->

<svg
   height="800px"
   width="800px"
   version="1.1"
   id="Layer_1"
   viewBox="0 0 508 508"
   xml:space="preserve"
   sodipodi:docname="machine-learning.svg"
   inkscape:version="1.2.1 (9c6d41e, 2022-07-14)"
   xmlns:inkscape="http://www.inkscape.org/namespaces/inkscape"
   xmlns:sodipodi="http://sodipodi.sourceforge.net/DTD/sodipodi-0.dtd"
   xmlns="http://www.w3.org/2000/svg"
   xmlns:svg="http://www.w3.org/2000/svg"><defs
   id="defs123" /><sodipodi:namedview
   id="namedview121"
   pagecolor="#ffffff"
   bordercolor="#000000"
   borderopacity="0.25"
   inkscape:showpageshadow="2"
   inkscape:pageopacity="0.0"
   inkscape:pagecheckerboard="0"
   inkscape:deskcolor="#d1d1d1"
   showgrid="false"
   inkscape:zoom="0.77428193"
   inkscape:cx="133.67224"
   inkscape:cy="404.24552"
   inkscape:window-width="1920"
   inkscape:window-height="1024"
   inkscape:window-x="0"
   inkscape:window-y="0"
   inkscape:window-maximized="1"
   inkscape:current-layer="Layer_1" />






















<circle
   style="fill:#0a5276;fill-rule:evenodd;stroke-width:1.2;stroke-linecap:round;stroke-linejoin:round;stop-color:#000000;fill-opacity:1"
   id="path587"
   cx="254"
   cy="254"
   r="254" /><path
   id="path422"
   style="fill:#ffffff;fill-opacity:1;stroke-width:0.999997"
   d="m 207.75627,93.024024 c -8.76774,0.05919 -19.36101,3.560676 -25.43096,8.815856 -4.30687,3.72879 -9.70747,9.29466 -9.70747,10.00399 0,0.38291 -0.43863,1.14779 -0.97529,1.70055 -0.53664,0.55277 -1.80949,2.20361 -2.82773,3.66769 -2.94832,4.23927 -3.4799,4.57526 -8.91608,5.64616 -2.83462,0.5584 -6.86483,1.60063 -8.95636,2.31528 -10.72457,3.66448 -22.54191,13.00339 -26.6852,21.08864 -0.70828,1.38214 -1.51513,2.68367 -1.79252,2.89283 -0.73428,0.55362 -3.41775,7.22429 -5.20191,12.92985 -2.11195,6.75389 -3.20792,14.55121 -3.20792,22.82433 v 6.94172 l -4.75352,6.01397 c -8.49049,10.74177 -10.033581,13.11437 -15.657376,24.06824 -2.464552,4.8004 -6.296995,15.13329 -6.998551,18.86943 -0.314188,1.67322 -0.98882,5.09516 -1.499099,7.60501 -1.088184,5.3524 -0.646758,28.70074 0.571331,30.21651 0.427397,0.53186 0.952044,2.16435 1.166425,3.62841 0.214381,1.46409 0.962214,4.18611 1.661304,6.04909 1.840368,4.90435 8.812406,18.62518 9.615517,18.92315 0.375835,0.13945 0.682912,0.74253 0.682912,1.34104 0,1.21098 5.227447,7.86771 10.577377,13.46915 1.92019,2.01046 3.69908,4.23509 3.95283,4.94364 0.25374,0.70851 0.69729,4.49333 0.98563,8.41085 0.28834,3.91757 1.01728,8.53785 1.61997,10.26744 0.60271,1.72959 1.10051,3.70984 1.1065,4.40121 0.0177,2.00657 4.76617,13.53479 7.62774,18.51816 3.01946,5.25835 12.81108,15.42248 16.72151,17.35795 1.46409,0.72464 3.17455,1.64537 3.802,2.04563 2.54621,1.62424 9.67366,4.46313 12.16946,4.84753 1.46408,0.22551 5.81398,0.87029 9.66614,1.43298 6.7807,0.99049 7.56099,1.3351 11.60226,5.11822 6.45517,6.04281 12.41765,9.83889 20.83139,13.2646 3.89825,1.5872 5.94577,1.90693 12.33167,1.92476 9.12591,0.0255 13.56803,-1.13409 19.77963,-5.16369 4.61669,-2.9949 11.32242,-9.12124 15.09328,-13.78942 2.04856,-2.53608 2.10081,-2.82439 1.60138,-8.74148 -0.28406,-3.36541 -0.62016,-6.22192 -0.74697,-6.3487 -0.1268,-0.12681 -0.47091,1.04985 -0.76453,2.6149 -0.9587,5.11035 -3.99881,9.83656 -9.63618,14.98169 -7.7768,7.09775 -14.17583,10.30047 -21.74572,10.88422 -3.30708,0.25505 -7.63489,0.0983 -9.7364,-0.35333 -4.31333,-0.92708 -13.73936,-5.16009 -15.57161,-6.99235 -0.20916,-0.20915 -1.9791,-1.66383 -3.93217,-3.23273 -1.95306,-1.56889 -4.97527,-4.22113 -6.7165,-5.89411 -2.91663,-2.80229 -3.49793,-3.04159 -7.38288,-3.04159 -6.47651,0 -17.37748,-2.84847 -24.17983,-6.31875 -16.23991,-8.28488 -26.32175,-26.45473 -28.14608,-50.72347 -0.50948,-6.77765 -1.10012,-8.19883 -5.33415,-12.83275 -4.53008,-4.95792 -9.75814,-11.78831 -12.58581,-16.44464 -2.992753,-4.92812 -6.792959,-12.85517 -6.792959,-14.16963 0,-0.44595 -0.479116,-1.71949 -1.065176,-2.8298 -0.586061,-1.1103 -1.698894,-4.24339 -2.472326,-6.96238 -1.991111,-6.99959 -2.018414,-28.577 -0.04546,-35.74593 4.233904,-15.38435 14.276341,-33.96622 24.133331,-44.65373 l 3.78752,-4.10573 v -6.07286 c 0,-8.53508 1.3631,-19.76894 3.0323,-24.99394 3.51008,-10.9875 9.68573,-20.23247 17.5594,-26.28641 5.26325,-4.04684 13.16015,-7.58959 21.23947,-9.52873 3.97391,-0.9538 7.68904,-2.09193 8.2559,-2.52915 0.85378,-0.65851 4.73873,-5.90696 8.09576,-10.93692 0.94313,-1.41312 7.10292,-7.79304 7.52442,-7.79304 0.16952,0 2.05124,-1.17227 4.18115,-2.6056 5.71416,-3.84534 11.17672,-5.214905 20.99876,-5.263894 9.36531,-0.04672 14.20302,1.154801 19.1866,4.764884 3.22677,2.33746 4.77108,5.99149 4.77108,11.29335 0,3.20639 -2.65609,9.81864 -4.9715,12.37712 -2.3468,2.59317 -2.59953,1.61939 -0.53725,-2.07042 2.6005,-4.65279 2.81936,-12.06661 0.45046,-15.27098 -2.8907,-3.91021 -6.58694,-5.12804 -15.47761,-5.10169 l -7.98521,0.0238 -6.31563,3.39906 c -3.47328,1.86939 -6.98074,3.73622 -7.79512,4.14913 -0.81438,0.41293 -1.48049,1.01159 -1.48049,1.33069 0,0.31913 -0.38881,0.58064 -0.86372,0.58064 -0.47492,0 -1.60404,0.76969 -2.50952,1.71089 -0.90549,0.94119 -3.2887,3.17648 -5.29489,4.96635 -4.24916,3.79104 -4.17829,5.24378 0.28929,5.95817 5.25955,0.84103 4.19396,1.81525 -1.98571,1.81525 -7.43739,0 -14.31443,1.62968 -21.52464,5.10168 -11.54564,5.55975 -18.41151,12.72147 -25.3917,26.48684 -3.3625,6.63111 -4.95719,12.7673 -5.5728,21.43991 -0.62267,8.77245 0.061,10.30451 4.09541,9.18366 3.05056,-0.84752 16.50822,-0.34914 23.77172,0.88025 2.30068,0.38941 9.48874,1.79959 15.97248,3.13353 9.94381,2.04583 13.57321,2.43922 23.19627,2.51469 10.96542,0.0859 11.61567,0.005 16.73287,-2.12002 5.33626,-2.21485 9.50705,-5.27126 9.50705,-6.96653 0,-0.49796 0.51312,-1.33067 1.14059,-1.85139 1.77911,-1.47655 1.40959,-6.99757 -0.77796,-11.61777 -2.11422,-4.46529 -5.31725,-7.76878 -9.68474,-9.99054 -3.05904,-1.55616 -3.26944,-2.43487 -0.41016,-1.70884 3.56277,0.90465 10.75867,7.36536 12.72219,11.42146 2.49863,5.16147 2.16764,11.07987 -0.89883,16.0665 -2.07527,3.37472 -3.32533,4.4442 -7.79512,6.66795 -2.92814,1.45677 -6.95382,3.08223 -8.94604,3.61189 -5.58477,1.48476 -24.45924,0.52388 -37.44855,-1.90616 -22.62379,-4.23243 -33.9772,-4.24335 -42.56367,-0.0423 -4.98285,2.43787 -7.31602,4.72879 -9.97712,9.79425 -1.83519,3.49331 -2.11065,4.98272 -2.41447,13.06933 -0.30476,8.11167 -0.15333,9.62726 1.36169,13.63241 2.99367,7.91409 6.25251,9.7849 25.07246,14.38763 4.39222,1.07418 10.72401,2.50869 14.07046,3.18829 20.57766,4.179 37.0231,10.25356 43.68154,16.13572 1.06541,0.94119 2.16742,1.71193 2.4496,1.71193 0.28217,0 1.99661,1.35992 3.81025,3.02197 1.81364,1.66203 3.55438,3.03084 3.86811,3.04158 0.31372,0.0111 0.5703,0.45157 0.5703,0.9784 0,0.52685 0.60791,1.33714 1.35032,1.80078 0.74242,0.46365 2.19265,2.48172 3.22239,4.48386 3.41491,6.63965 2.19552,19.80871 -1.98261,21.41201 -1.74988,0.6715 -1.96368,-0.0817 -0.70667,-2.49195 0.67635,-1.29692 1.15069,-4.22006 1.15403,-7.09877 0.006,-6.75133 -1.92729,-10.43765 -8.24659,-15.71729 -7.16607,-5.9871 -6.72546,-5.69411 -13.81735,-9.17333 -8.8323,-4.33306 -19.15973,-7.3859 -35.35332,-10.4503 -35.79946,-6.77454 -44.68556,-12.0274 -46.86261,-27.70183 -0.44592,-3.21059 -1.05166,-7.03564 -1.34723,-8.49971 l -0.53827,-2.6614 -2.07559,4.37022 c -1.14194,2.40359 -2.96018,7.70807 -4.040648,11.78823 -1.668829,6.30202 -1.969529,9.07849 -1.997076,18.44688 -0.02813,9.57603 0.232496,12.02438 1.979512,18.59358 2.260052,8.49831 5.859402,16.47026 11.003042,24.36785 4.5968,7.05802 10.13698,13.87673 11.55577,14.2244 1.37547,0.33707 3.21376,-1.82509 4.82067,-5.67096 0.65249,-1.56163 1.54607,-2.83909 1.98572,-2.83909 0.43964,0 0.79861,-0.5053 0.79861,-1.12303 0,-0.98415 4.02959,-4.5497 9.02147,-7.98211 2.16086,-1.48581 2.05637,-2.80239 -0.65503,-8.26727 -1.25491,-2.52929 -2.26654,-5.38818 -2.24812,-6.35283 0.0274,-1.43673 0.3166,-1.20372 1.59827,1.28834 2.74528,5.33784 4.75854,7.9588 7.68458,10.00295 4.06729,2.84144 3.71814,4.21873 -1.52081,5.9995 -5.14122,1.74755 -10.22154,6.4539 -12.66227,11.72831 -1.33082,2.87592 -1.59799,4.91331 -1.59725,12.19839 8.4e-4,8.06283 0.16683,9.07447 2.12313,12.93709 3.71388,7.33287 9.20521,9.85006 21.52669,9.86864 7.93358,0.0119 10.89801,-0.78792 13.47329,-3.63359 1.99634,-2.20591 3.67085,-7.70819 4.21422,-13.84833 l 0.50521,-5.70401 1.36272,2.01567 c 2.10518,3.11427 2.59381,11.90177 0.91331,16.41261 -2.88132,7.734 -7.16119,11.07118 -15.76276,12.28931 -6.3302,0.89647 -15.28925,-0.0382 -19.89741,-2.07664 -2.04006,-0.9024 -4.00819,-1.64064 -4.37333,-1.64064 -1.23104,0 -0.67558,3.58246 0.85752,5.53148 0.83661,1.06359 1.52079,2.15665 1.52079,2.42894 0,0.77529 4.66516,6.54982 7.60605,9.41508 4.97259,4.84475 14.39862,7.69655 25.47848,7.70729 7.14531,0.007 10.62137,-0.66166 16.35268,-3.14697 5.62061,-2.4373 6.31763,-2.70451 9.88724,-3.78649 4.67072,-1.41572 18.01444,-1.30198 20.53487,0.1746 3.53136,2.06884 5.32383,3.33565 5.32383,3.76273 0,0.23379 -3.50852,0.43432 -7.79615,0.44632 -6.53682,0.0179 -8.71712,0.35408 -13.50016,2.0849 -3.13729,1.13529 -7.75761,2.76824 -10.26744,3.62842 -4.61614,1.58204 -6.46441,2.64164 -6.46441,3.70693 0,0.32163 1.65901,2.24792 3.68628,4.28034 4.5442,4.55584 16.06762,11.22433 21.35622,12.35853 4.76833,1.02262 11.51874,1.09535 13.89999,0.14981 0.96085,-0.38154 3.80063,-1.47914 6.31047,-2.43927 5.53829,-2.11861 9.92521,-5.96737 12.03103,-10.55672 2.03454,-4.43406 2.18232,-15.80701 0.28824,-22.14967 -3.24701,-10.87326 -12.2114,-18.83693 -21.34796,-18.9645 -4.51203,-0.063 -9.37537,-1.04058 -8.35715,-1.67989 0.47688,-0.29941 3.38569,-0.59666 6.46443,-0.66122 14.04052,-0.29464 23.82334,7.73331 29.1224,23.89777 0.65617,2.00157 1.23312,4.39724 1.2811,5.32382 0.0481,0.92656 0.36786,0.31566 0.71081,-1.35756 0.79882,-3.89795 0.85382,-85.82817 0.0598,-89.36532 l -0.59715,-2.66242 -0.60646,2.66242 c -0.33357,1.46408 -0.82053,2.83244 -1.08171,3.04159 -0.26118,0.20917 -1.31044,1.92066 -2.33182,3.80302 -1.02136,1.88239 -2.98941,4.52858 -4.37332,5.88069 -2.61437,2.55433 -3.32213,5.71564 -1.52802,6.82085 0.54302,0.33452 2.47145,3.48708 4.2855,7.00578 2.961,5.74347 3.33671,7.07534 3.67595,13.02491 0.34282,6.01273 0.19279,7.01916 -1.62102,10.85323 -1.14042,2.41063 -2.65401,4.43327 -3.52304,4.7091 -0.83787,0.26593 -1.52389,0.80316 -1.52389,1.19328 0,0.39012 -0.51313,0.70874 -1.1406,0.70874 -1.57254,0 -1.4535,-0.45144 0.95051,-3.60466 1.89171,-2.48126 2.08818,-3.33047 2.05802,-8.88611 -0.0296,-5.43428 -0.33588,-6.7568 -2.66139,-11.46692 -2.77137,-5.61316 -8.64719,-12.29534 -12.57136,-14.29775 -5.44372,-2.77777 -5.12487,-4.65052 1.17779,-6.91693 4.8471,-1.74297 8.89106,-5.69948 11.69112,-11.43903 1.94321,-3.98332 2.13788,-5.0731 1.901,-10.628 -0.22086,-5.17868 -0.68787,-7.0567 -2.85769,-11.49585 -5.45038,-11.15074 -16.5286,-18.42978 -32.77253,-21.53289 -2.30067,-0.43952 -10.09639,-1.20019 -17.32488,-1.69024 -7.22846,-0.49003 -14.58757,-1.31883 -16.35268,-1.8421 -2.8874,-0.85598 -1.98896,-0.95169 8.95947,-0.95669 11.59405,-0.005 12.48753,-0.11611 18.90043,-2.33389 3.702,-1.28026 7.9802,-3.14746 9.50704,-4.15015 1.52685,-1.00271 4.14443,-2.69895 5.81766,-3.76893 1.67323,-1.07001 4.11995,-2.92518 5.43643,-4.12227 1.31648,-1.19709 3.89567,-3.54521 5.73191,-5.21844 7.67476,-6.9934 12.25386,-14.28284 14.21923,-22.63732 1.08698,-4.62055 1.09567,-13.93195 0.0176,-18.61218 -3.74692,-16.26606 -6.26215,-21.13084 -15.4962,-29.97786 -2.128,-2.0388 -2.78207,-3.13272 -2.21404,-3.70074 1.91372,-1.91372 17.00241,8.61353 17.01906,11.87399 0.003,0.45805 0.68935,1.45278 1.52597,2.2099 0.8366,0.75713 1.52079,1.66902 1.52079,2.02704 0,0.59753 1.22953,3.56084 4.36505,10.52159 1.1931,2.64867 1.20169,2.6523 1.76359,0.7604 0.97855,-3.29469 0.83207,-51.59963 -0.16221,-53.47889 -1.23107,-2.32688 -3.89524,-5.05501 -4.95187,-5.0707 -0.48802,-0.007 -1.00219,-0.27001 -1.14164,-0.58373 -0.36723,-0.82631 -5.81118,-4.27375 -10.17858,-6.445816 -4.42633,-2.201387 -11.87105,-4.671669 -18.06668,-5.994331 -1.75094,-0.373798 -3.67656,-0.54263 -5.69988,-0.528972 z m 93.63017,0.40706 c -2.03072,-0.04905 -4.10442,0.04425 -6.22059,0.281017 -11.9248,1.334136 -25.66732,7.596279 -34.39766,15.673899 l -2.96824,2.74611 v 140.02372 140.02476 l 2.0415,3.02815 c 4.359,6.46665 14.76488,14.80578 21.77672,17.45195 1.75011,0.66048 5.23567,1.49752 7.74551,1.85967 2.50984,0.36206 5.41864,0.5473 6.46441,0.41223 1.04576,-0.13508 3.53312,-0.46041 5.52735,-0.72321 8.09475,-1.06666 21.48902,-8.49468 28.66576,-15.89705 3.13701,-3.23564 3.67819,-3.49877 7.22585,-3.51684 4.01929,-0.0205 13.73865,-2.03038 19.2269,-3.97659 5.63836,-1.99947 13.69364,-7.30082 18.62147,-12.25419 10.41013,-10.46408 16.9059,-26.33547 18.513,-45.23229 0.36991,-4.34945 0.93911,-6.73838 1.81008,-7.60501 6.2342,-6.20323 15.00489,-18.56964 19.44179,-27.41049 6.65362,-13.2578 9.232,-25.75685 8.49042,-41.16271 -1.06117,-22.04567 -10.61368,-43.66928 -27.97045,-63.31655 -0.91993,-1.04135 -1.32578,-3.67579 -1.64373,-10.67346 -0.71763,-15.79399 -3.69466,-26.42181 -10.27054,-36.65612 -8.02055,-12.48272 -20.27693,-20.59155 -35.8389,-23.71283 l -6.0181,-1.20672 -4.31649,-6.3549 C 327.69618,101.10629 315.60148,93.774424 301.38644,93.431084 Z m -2.77918,7.124596 5.20708,0.0754 -4.56342,1.48877 c -2.50984,0.81867 -6.27492,1.96187 -8.36644,2.54051 -11.82042,3.27024 -17.87348,5.23463 -17.87348,5.8001 0,0.35116 2.0074,2.78317 4.4601,5.40544 2.45271,2.62227 5.276,5.70054 6.27432,6.84048 1.58369,1.80833 2.20356,2.01583 4.85787,1.62101 2.56113,-0.38096 3.46303,-1.04717 5.704,-4.21112 2.6312,-3.71487 4.23763,-5.92671 10.56396,-14.54673 l 3.24099,-4.41672 3.09531,4.41672 c 1.70263,2.42932 6.15893,8.95147 9.9017,14.49405 6.08054,9.00447 7.03658,10.07732 8.98529,10.07732 2.40888,0 5.2825,2.53672 5.2825,4.66261 0,0.73305 0.31838,1.52918 0.70771,1.76978 0.38932,0.24062 8.47547,3.15677 17.96956,6.47991 9.49409,3.32318 17.40025,6.17923 17.56869,6.34767 0.16845,0.16845 -2.18559,2.30342 -5.23082,4.74422 -3.04522,2.4408 -5.70769,4.62879 -5.91686,4.862 -0.20915,0.23321 -1.66304,1.38056 -3.23168,2.54981 -4.47193,3.33331 -4.02577,5.47016 2.28119,10.91625 2.82357,2.43816 8.20294,7.17371 11.95353,10.52263 3.75061,3.34892 7.51039,6.70281 8.35509,7.45313 0.84466,0.75031 1.65082,1.016 1.79251,0.59097 0.24221,-0.72667 -4.50171,-23.62087 -5.92098,-28.57485 -0.35954,-1.25491 -1.20569,-4.87934 -1.88137,-8.05442 l -1.22841,-5.77324 -5.75051,-3.3536 c -3.16234,-1.84459 -7.20816,-4.20986 -8.99149,-5.25563 -1.78334,-1.04576 -6.71418,-3.90549 -10.95759,-6.3549 -4.24339,-2.44938 -7.71555,-4.62053 -7.71555,-4.8248 0,-0.67826 7.91235,0.63765 12.92676,2.14999 9.23654,2.7857 16.40857,7.66381 22.7365,15.46313 7.7776,9.58607 11.23361,20.49 11.99073,37.82463 0.46411,10.6263 0.58517,11.28126 2.46613,13.38236 4.94765,5.52672 6.26008,7.19552 10.31393,13.1148 2.37609,3.46948 5.66825,8.98887 7.31573,12.26555 17.26189,34.3322 12.0388,66.27465 -15.895,97.21105 -3.73698,4.13867 -3.76088,4.19866 -4.25761,10.64764 -2.02778,26.32709 -12.3617,44.25838 -30.10492,52.23911 -5.91612,2.66101 -15.47802,4.81174 -21.41821,4.81757 -4.59695,0.005 -5.23051,0.20044 -6.84462,2.11176 -5.67057,6.7147 -16.80843,14.13425 -24.91025,16.5934 -1.91834,0.58227 -6.22568,1.04417 -9.57213,1.02593 -6.68196,-0.0365 -11.15735,-1.43836 -16.64403,-5.21328 -3.92714,-2.70195 -9.59589,-8.30438 -9.59589,-9.48328 -1e-5,-0.79925 6.56405,-4.71687 21.93582,-13.09206 5.73746,-3.12598 6.82087,-4.36659 6.90351,-7.90875 0.0477,-2.04426 -0.14365,-2.25455 -24.52387,-27.10466 l -13.55801,-13.81941 2.75747,-5.20707 c 1.51664,-2.86358 3.07344,-5.71916 3.45899,-6.34664 0.38555,-0.62744 2.46029,-4.37724 4.61094,-8.33234 3.19144,-5.86905 3.75489,-7.44042 3.06432,-8.54621 -1.2242,-1.96026 -1.03824,-5.63797 0.35541,-7.03161 1.086,-1.0861 1.08925,-1.51046 0.0372,-4.42704 -0.64003,-1.77439 -2.40812,-6.81951 -3.92907,-11.21174 -1.52095,-4.3922 -4.44625,-12.6392 -6.50161,-18.326 -2.05538,-5.68677 -3.73793,-10.66581 -3.73793,-11.06502 0,-0.39921 1.28386,-1.17935 2.85252,-1.73362 1.56865,-0.55429 10.77806,-3.91644 20.46565,-7.47173 l 17.61416,-6.46441 0.33475,-3.51892 0.33473,-3.5189 -20.76939,-20.91506 -20.76837,-20.91508 13.28423,-26.19549 c 8.93007,-17.6085 13.03317,-26.44552 12.51763,-26.96106 -0.42181,-0.4218 -0.77368,-2.32436 -0.78209,-4.22764 -0.0138,-3.28669 -0.34614,-3.81926 -6.61525,-10.58668 -7.60469,-8.20917 -7.76285,-7.26829 2.06733,-12.23248 7.63781,-3.85707 13.24474,-5.37491 19.51102,-5.28353 z m 14.18205,2.20577 c 1.42006,0 7.44824,3.94458 11.1797,7.31573 2.83209,2.55862 7.12536,8.084 11.00923,14.16964 0.73415,1.15033 1.2073,2.0911 1.05175,2.0911 -0.15556,0 -5.67257,-5.3045 -12.25934,-11.78824 -6.58677,-6.48375 -11.52822,-11.78823 -10.98134,-11.78823 z m -4.80311,2.48059 c -0.96767,0.12901 -2.56915,2.26835 -7.59469,9.36446 -5.62967,7.9492 -7.17101,10.6638 -6.97789,12.29242 0.13632,1.14962 0.32781,2.17002 0.42566,2.26775 0.0978,0.0978 5.97587,1.04988 13.0621,2.11589 7.08626,1.06602 13.2265,2.07408 13.64481,2.23988 1.9902,0.78877 4.20127,0.28825 4.95601,-1.12201 0.67624,-1.26356 0.42989,-2.12578 -1.35446,-4.75351 -11.66606,-17.18022 -14.23742,-20.87312 -15.30197,-21.97302 -0.28499,-0.29446 -0.53702,-0.47486 -0.85957,-0.43186 z m -12.05066,26.41866 c -2.49055,-0.10144 -2.76054,0.44875 -3.9115,1.52389 l -2.03737,1.90409 1.53733,18.82191 c 1.51291,18.52252 1.56437,18.82191 3.23892,18.82191 2.74105,0 4.1078,0.81563 4.1078,2.45166 0,1.09859 0.3851,1.42735 1.37099,1.16954 0.75444,-0.19729 11.24151,-2.54751 23.30371,-5.22258 18.67365,-4.14129 22.09235,-5.11004 23.01856,-6.52227 1.01801,-1.5522 0.61703,-2.36887 -6.24746,-12.73873 -6.58634,-9.94967 -7.55583,-11.08155 -9.49773,-11.08155 -3.17629,0 -4.49779,-0.69909 -5.69473,-3.0137 -1.01661,-1.9659 -1.61385,-2.15202 -11.95043,-3.72863 -10.03595,-1.53078 -14.74753,-2.2841 -17.23809,-2.38554 z m -9.03695,3.14181 c -0.12947,0.0324 -0.26239,0.17123 -0.40087,0.40602 -0.34014,0.57675 -18.25402,35.61229 -22.86772,44.72399 -1.05198,2.07761 -1.78486,3.98453 -1.62823,4.23798 0.24645,0.39876 21.11882,-3.93202 23.67151,-4.9116 0.51207,-0.19649 1.03829,-1.6593 1.16951,-3.25132 0.20787,-2.52177 0.50861,-2.92594 2.33079,-3.13559 1.15035,-0.13237 2.08823,-0.64551 2.08489,-1.14061 -0.004,-0.49511 -0.6877,-8.75607 -1.52182,-18.35699 -1.19992,-13.81102 -1.93179,-18.79897 -2.83806,-18.57188 z m 48.7047,3.94249 c -0.63377,-0.0599 -0.98665,0.13275 -0.98665,0.561 0,1.46491 13.96621,21.91571 15.21105,22.27366 3.26356,0.93841 4.77186,0.23114 11.36981,-5.33208 3.8073,-3.21024 6.65767,-6.07288 6.33321,-6.3611 -0.53311,-0.47355 -27.0847,-9.83088 -31.20317,-10.99684 -0.27109,-0.0767 -0.51298,-0.12471 -0.72425,-0.14464 z m 10.61148,29.42408 c -3.22852,-8.3e-4 -47.34405,10.23739 -47.34405,10.98754 0,0.45589 6.58836,3.11348 14.64076,5.90548 8.05239,2.79201 15.10067,5.09526 15.66356,5.11926 0.56288,0.0239 1.94289,-0.61024 3.06639,-1.41026 1.12351,-0.8 3.05821,-1.57074 4.29996,-1.71193 2.02979,-0.23077 2.6962,-1.10116 6.6008,-8.62265 4.72838,-9.10839 5.07538,-10.26691 3.07258,-10.26744 z m 4.51693,1.6706 c -0.61252,0.0616 -1.09763,0.33119 -1.4681,0.8007 -1.33265,1.68887 -8.56274,15.9215 -8.56274,16.85582 0,0.49769 0.4276,1.82581 0.95049,2.9517 l 0.95153,2.04668 13.30903,-0.0764 c 7.32036,-0.0422 15.33849,-0.29579 17.81769,-0.56411 l 4.50762,-0.48764 -5.19467,-4.56342 c -2.8571,-2.50984 -5.56971,-4.92393 -6.02842,-5.36411 -8.57245,-8.22622 -13.62817,-11.86642 -16.28243,-11.59916 z m -64.60074,11.75724 c -0.66541,-0.41055 -22.89889,4.46442 -23.61159,5.17711 -0.26432,0.26432 8.40543,9.35935 19.26616,20.21149 10.86075,10.85217 20.00314,19.73601 20.31688,19.73935 1.13756,0.0151 0.4211,-3.75104 -4.26691,-22.42967 l -4.77212,-19.01407 -3.18105,-0.23349 c -2.52576,-0.18568 -3.18107,-0.5291 -3.18107,-1.66647 0,-0.78788 -0.25657,-1.59069 -0.5703,-1.78425 z m 13.6603,0.94533 c -0.92488,-0.0935 -1.11122,0.24073 -1.32864,0.9257 -0.25017,0.78827 -0.92556,1.43298 -1.50012,1.43298 -0.57459,0 -1.22242,0.28776 -1.43919,0.63849 -0.21676,0.35071 0.63661,4.8855 1.89584,10.07734 7.49622,30.90725 7.31766,30.35494 9.79218,30.35494 0.72055,0 1.93009,0.68419 2.68722,1.52081 0.75713,0.83661 2.09394,1.4914 2.9703,1.45467 0.87636,-0.0367 11.17472,-2.51796 22.88632,-5.51392 17.50207,-4.47729 21.33991,-5.69451 21.55253,-6.83531 0.17691,-0.94928 -2.34555,-3.88418 -7.98315,-9.28492 l -8.2435,-7.89636 -3.43624,0.42256 c -4.174,0.51312 -6.69084,-1.14613 -7.46245,-4.91882 -0.49108,-2.40116 -0.83403,-2.60654 -9.25598,-5.53974 -4.81026,-1.67532 -11.73004,-4.01326 -15.37739,-5.19571 -3.16948,-1.02754 -4.83286,-1.54916 -5.75773,-1.64271 z m -52.3352,2.73888 -0.57547,2.89902 c -0.70293,3.54328 -6.43624,15.73486 -7.39941,15.73486 -0.38238,0 -0.69531,0.4866 -0.69531,1.0817 0,1.43813 -13.56908,14.01477 -17.25669,15.99418 -1.59643,0.85693 -3.92882,2.28039 -5.18227,3.1635 -1.25345,0.88313 -3.56197,2.02239 -5.13062,2.53121 -1.56864,0.50881 -2.85252,1.17979 -2.85252,1.49188 0,0.31208 -1.25677,0.88532 -2.79364,1.27284 -3.47784,0.87689 -4.11717,2.40198 -1.2532,2.99097 10.38919,2.13657 20.97847,5.57087 22.30052,7.23307 0.20915,0.26296 0.89334,0.70817 1.52078,0.98872 5.52797,2.47171 12.30522,10.2933 17.13582,19.77654 2.00398,3.93415 2.30998,4.22944 2.75127,2.66139 0.66082,-2.34818 0.6138,-72.61672 -0.0506,-75.53766 z m 135.10489,8.52245 c -0.30451,-0.33232 -4.35176,4.32556 -8.99459,10.35008 -6.46548,8.3896 -8.34225,11.33481 -8.0162,12.58169 0.23416,0.89539 -0.11552,2.45521 -0.77797,3.46622 -1.13221,1.72797 -0.9779,2.72697 2.57358,16.66985 2.07792,8.15779 3.7772,15.0323 3.7772,15.27615 0,0.24385 0.81497,0.44322 1.8111,0.44322 1.02338,0 2.81612,1.02791 4.12124,2.36281 l 2.31012,2.36178 16.17808,-1.58382 c 8.89807,-0.87129 16.28257,-1.47931 16.41053,-1.35136 0.18505,0.18505 -43.37527,38.61503 -45.38726,40.04176 -0.29495,0.20915 -0.75066,1.75405 -1.01249,3.43315 -0.52163,3.34528 -1.63752,1.58678 12.30481,19.38705 2.65893,3.39467 4.69662,6.3095 4.52829,6.47784 -0.16836,0.16833 -7.55822,-0.0783 -16.42191,-0.54861 l -16.11609,-0.85544 -1.98572,2.14378 -1.98571,2.14275 1.93509,5.01491 c 8.15699,21.13359 14.1953,37.57993 13.90412,37.87111 -0.3392,0.33919 -4.81056,-1.83057 -31.40773,-15.24412 -7.17963,-3.62084 -13.25486,-6.58425 -13.50015,-6.58425 -1.16703,0 -0.11473,2.54681 8.7642,21.20125 2.4638,5.17639 4.47973,9.64134 4.47973,9.92236 0,0.28102 -4.8556,-0.2391 -10.7902,-1.15506 l -10.79021,-1.66543 -3.28025,2.74197 -3.28025,2.74198 v 8.58546 c 0,4.72194 0.1998,8.58548 0.44322,8.58548 0.2434,0 6.59846,-4.13271 14.12315,-9.18367 8.1329,-5.45923 15.12543,-9.59402 17.24118,-10.19614 1.95755,-0.5571 8.86369,-2.43076 15.34744,-4.16359 6.48375,-1.73283 12.33624,-3.31247 13.00631,-3.50961 0.67007,-0.19714 2.50933,-3.17484 4.0861,-6.61732 6.91964,-15.10731 11.11664,-24.21795 14.09526,-30.5967 1.758,-3.76476 5.75991,-13.00537 8.89334,-20.53487 3.13343,-7.52952 7.34105,-17.62638 9.35,-22.4369 2.00897,-4.81052 5.74652,-13.88008 8.30548,-20.15467 2.55896,-6.27459 5.16043,-12.37688 5.78151,-13.56112 0.62108,-1.18425 1.12922,-2.68885 1.12922,-3.34327 0,-0.65445 -2.86248,-6.70157 -6.36108,-13.43817 -15.55717,-29.9554 -24.28007,-46.51929 -24.79249,-47.07853 z m -20.76629,0.23556 c -8.60767,-0.0322 -17.47543,0.10741 -18.36939,0.45045 -2.83518,1.08797 -1.22842,3.74672 6.94689,11.49275 11.38609,10.78821 11.19192,10.80145 20.75081,-1.48257 3.97391,-5.10683 7.33953,-9.55149 7.47896,-9.87794 0.14773,-0.34584 -8.19961,-0.55043 -16.80727,-0.58269 z m -4.19252,26.37009 c -1.84408,-0.17716 -6.2122,0.86259 -20.09372,4.37435 -11.0023,2.78337 -21.2877,5.40042 -22.85635,5.81559 -2.25856,0.59778 -2.85252,1.12144 -2.85252,2.51779 0,1.78602 2.79238,3.00929 30.80333,13.49706 2.09153,0.7831 8.08021,3.10244 13.30903,5.15438 5.22883,2.05196 9.70428,3.76121 9.94509,3.79786 0.24081,0.0367 1.15844,-0.70359 2.03944,-1.64478 l 1.60241,-1.71089 -3.87638,-15.02096 c -2.13193,-8.26154 -4.22093,-15.02095 -4.64194,-15.02095 -0.42099,0 -1.37371,-0.55064 -2.11691,-1.22325 -0.31257,-0.28287 -0.64679,-0.47715 -1.26148,-0.5362 z m -56.42027,16.48182 c -1.22442,-0.20806 -2.63875,0.19067 -5.92201,1.43919 -14.09339,5.35924 -30.39693,11.21792 -31.21556,11.21792 -1.80089,0 -0.87353,1.44538 2.31219,3.60363 1.77779,1.20441 7.1678,4.89971 11.97833,8.21147 4.81052,3.31174 11.4026,7.81455 14.64902,10.00604 3.25517,2.19742 6.39512,3.79528 6.99958,3.56333 1.22221,-0.469 1.5939,-2.6519 2.70582,-15.87743 1.94267,-23.10663 1.97339,-20.73365 -0.28412,-21.76225 -0.42814,-0.19507 -0.81511,-0.33253 -1.22325,-0.4019 z m 9.32624,0.0485 c -0.79639,0.0449 -1.49512,0.29576 -2.32769,0.7263 -1.88533,0.97495 -2.19889,1.61172 -2.3566,4.79174 -0.10007,2.01745 -0.67801,8.63112 -1.28421,14.69655 -1.34179,13.42533 -1.37926,16.91574 -0.1932,18.1018 0.50197,0.50196 1.18073,0.91228 1.50839,0.91228 0.829,0 11.68535,-2.99179 50.43731,-13.89895 6.20295,-1.7459 9.19953,-2.94599 9.35413,-3.74621 0.12511,-0.64756 -0.38802,-1.41705 -1.1406,-1.70985 -0.75256,-0.29282 -11.2937,-4.28342 -23.42459,-8.86856 -12.13088,-4.58514 -23.254,-8.8184 -24.71808,-9.40683 -2.93082,-1.17792 -4.52755,-1.67315 -5.85486,-1.59827 z m -48.68198,15.93528 c -0.90721,0.90722 13.50183,40.78563 14.73684,40.78563 2.49065,0 4.86297,1.91559 5.5697,4.4973 0.6781,2.47706 1.18504,2.87925 5.50978,4.36608 2.61975,0.90065 9.04104,3.18967 14.26986,5.08723 10.57549,3.8379 10.40431,3.79283 10.95035,2.90934 0.3366,-0.54465 -4.2672,-13.51726 -6.38797,-18.00054 -0.39573,-0.83662 -1.36755,-3.23229 -2.16031,-5.32382 -0.79273,-2.09154 -2.1348,-4.15875 -2.98166,-4.59339 -2.8564,-1.46598 -4.09092,-2.89751 -3.72038,-4.31442 0.24692,-0.94428 -0.30086,-1.83398 -1.65923,-2.69755 -1.11477,-0.70869 -2.19705,-1.46869 -2.40621,-1.68817 -0.20915,-0.21945 -2.60585,-1.90696 -5.32485,-3.75034 -2.71898,-1.84338 -9.68205,-6.57251 -15.4745,-10.50918 -5.79244,-3.93668 -10.70716,-6.98241 -10.92142,-6.76817 z m 143.06944,3.96937 c -2.16948,0.0567 -7.02916,0.40102 -12.54966,0.90503 l -13.38341,1.22222 -1.44744,2.69755 c -1.02622,1.91199 -2.10329,2.8103 -3.69868,3.08602 -2.52522,0.43641 -2.92997,1.29022 -5.76291,12.17359 -0.92552,3.55561 -2.32405,8.64004 -3.10874,11.29851 -0.78467,2.65848 -1.42678,4.96863 -1.42678,5.13373 0,1.21475 3.29982,-1.38109 17.22982,-13.55492 8.71981,-7.62048 16.881,-14.77951 18.13591,-15.90843 1.25492,-1.12892 3.4728,-3.08675 4.92812,-4.35058 1.45531,-1.26383 2.48157,-2.45987 2.28119,-2.6583 -0.0501,-0.0496 -0.47426,-0.0633 -1.19742,-0.0444 z m -38.96625,5.04487 c -1.58502,-0.0599 -8.20983,1.74022 -37.21919,9.91099 -20.8324,5.86765 -22.32825,6.40596 -23.3626,8.40156 -1.1585,2.23518 -0.6488,4.03484 4.94569,17.45196 4.42975,10.62378 4.72982,11.1327 6.75162,11.44523 1.08907,0.16834 2.1532,0.35681 2.36488,0.41945 0.77657,0.22993 47.446,-46.99826 46.94113,-47.50315 -0.0713,-0.0713 -0.1951,-0.11751 -0.42153,-0.12604 z m 2.98477,2.64073 c -0.58222,-0.58334 -47.2273,44.91787 -47.2273,46.06914 0,0.76873 -0.20134,0.81952 6.91795,-1.77392 3.51541,-1.28063 8.27465,-2.99296 10.57532,-3.80509 15.19854,-5.36501 17.87459,-6.56997 18.11007,-8.15464 0.13236,-0.89072 1.20284,-2.02509 2.4186,-2.56325 1.66206,-0.7357 2.39503,-1.78592 3.08188,-4.41568 0.4957,-1.89785 1.37829,-5.16221 1.96092,-7.25373 3.80121,-13.64514 4.70191,-17.56249 4.16256,-18.10283 z m -233.91631,10.26846 c 0.0403,0.0512 0.0847,0.1912 0.13019,0.42772 0.18194,0.94606 0.17486,2.31546 -0.0155,3.04263 -0.19036,0.72714 -0.33903,-0.047 -0.33062,-1.72019 0.006,-1.25493 0.095,-1.90352 0.21593,-1.75016 z m 222.46179,25.86179 c -0.34343,-0.12455 -8.44365,2.61321 -18.00056,6.08421 -14.15932,5.14256 -17.42152,6.59279 -17.62036,7.8323 -0.13418,0.83662 -1.26836,2.4173 -2.52088,3.51271 -2.09175,1.82942 -2.36643,2.66581 -3.37013,10.26743 -0.601,4.55172 -1.09595,9.21731 -1.09928,10.36765 -0.004,1.15035 0.27403,2.09109 0.61679,2.09109 0.7193,0 5.38804,-3.46982 14.83706,-11.02783 5.08409,-4.06661 6.56856,-5.66721 6.28569,-6.77538 -0.52341,-2.05057 1.39922,-6.24924 3.33603,-7.28578 0.89827,-0.48075 2.70201,-0.76564 4.00861,-0.63228 2.17976,0.22246 2.86082,-0.35352 8.26314,-6.98305 3.23827,-3.97391 5.60731,-7.32653 5.26389,-7.45107 z m 4.21111,1.36685 c -2.0373,0 -3.05472,0.87777 -7.66596,6.61008 -6.76125,8.40499 -6.53092,7.97398 -5.44263,10.1631 0.87533,1.76071 1.37224,1.88361 9.27148,2.28119 12.37417,0.6228 20.89544,0.76817 20.89544,0.35643 0,-0.20039 -2.24694,-3.17036 -4.99322,-6.59976 -2.74625,-3.42935 -6.05538,-7.71535 -7.35395,-9.52356 -1.90839,-2.65739 -2.81222,-3.28748 -4.71116,-3.28748 z m -78.77659,1.03005 c -1.10381,-0.0407 -1.8164,0.25007 -2.62522,0.78003 -1.03409,0.67756 -2.71513,1.23255 -3.73586,1.23255 -2.08212,0 -2.65246,0.84954 -10.36249,15.43937 -2.60867,4.93644 -4.5633,9.15587 -4.34336,9.37582 0.21998,0.21996 4.79418,1.53425 10.16515,2.92072 10.23625,2.64237 25.62073,6.76219 31.44183,8.42016 4.25552,1.21206 6.84461,1.34455 6.84461,0.35024 0,-0.41831 0.47036,-0.7604 1.04554,-0.7604 1.24924,0 1.65441,-1.82994 2.8546,-12.89576 0.89055,-8.21085 0.87232,-8.45889 -0.73354,-10.16825 -0.9053,-0.96365 -1.6458,-2.41659 -1.6458,-3.2286 0,-1.14921 -1.30588,-1.95341 -5.89412,-3.62944 -3.24187,-1.18424 -8.63188,-3.17809 -11.97833,-4.43118 -6.26673,-2.3466 -9.19331,-3.3373 -11.03301,-3.40526 z m 55.78902,22.99169 c -0.89879,0.109 -2.51662,1.18952 -5.55111,3.62327 -2.94805,2.36443 -7.77321,6.23385 -10.72201,8.5989 -3.78525,3.03589 -5.29448,4.72932 -5.13373,5.7598 0.24394,1.56363 4.55412,3.99911 27.98388,15.81441 7.31829,3.6905 13.4158,6.60044 13.54976,6.46648 0.13395,-0.13397 -3.10943,-9.00532 -7.20726,-19.71455 -7.06685,-18.4685 -7.55044,-19.47176 -9.40372,-19.47176 -1.07466,0 -2.34878,-0.39406 -2.83082,-0.87611 -0.16541,-0.16539 -0.38539,-0.23677 -0.68499,-0.20044 z m -75.31552,6.66382 c -0.21503,0.21501 4.91517,5.80609 11.39976,12.42361 6.48458,6.61755 14.26577,14.69074 17.29181,17.94063 5.32527,5.71922 5.58961,5.89253 8.24763,5.41267 1.51041,-0.27267 2.78531,-0.53569 2.83187,-0.58476 0.0466,-0.0491 1.71746,-4.41569 3.71314,-9.70333 3.36539,-8.91671 3.55468,-9.78051 2.60972,-11.9153 -0.65592,-1.48185 -1.70773,-2.42103 -2.95273,-2.63661 -1.06361,-0.18414 -11.11751,-2.80814 -22.34185,-5.83109 -11.22435,-3.02294 -20.58436,-5.32082 -20.79935,-5.10582 z m 50.21104,15.92082 c -1.1214,-0.37379 -8.78986,19.00358 -8.16499,20.63199 0.25575,0.66646 0.73286,1.21188 1.06105,1.21188 0.32821,0 0.81202,0.85525 1.07448,1.90099 0.26247,1.04578 0.89843,1.91432 1.41335,1.92889 0.5149,0.0146 4.53007,0.66282 8.92227,1.44125 4.39222,0.77842 8.24177,1.45149 8.55551,1.49497 0.31373,0.0435 0.55446,-0.17805 0.53413,-0.49178 -0.0997,-1.53753 -12.64358,-27.86743 -13.3958,-28.11819 z m -16.35992,29.92207 c -1.62526,0.0877 -4.61553,1.66214 -13.85246,6.80122 -7.36016,4.09491 -13.18923,7.64197 -12.95362,7.88189 0.2356,0.23995 6.30664,1.68443 13.49188,3.20999 7.18527,1.52556 13.6211,2.80851 14.30086,2.8515 1.6451,0.10427 2.18614,-2.88129 2.18614,-12.05685 0,-7.0095 -0.0917,-7.43143 -1.82144,-8.35715 -0.41912,-0.2243 -0.8096,-0.35982 -1.35136,-0.3306 z" /></svg>
