<?xml version="1.0" encoding="UTF-8" standalone="no"?>
<!-- Uploaded to: SVG Repo, www.svgrepo.com, Generator: SVG Repo Mixer Tools -->

<svg
   width="800px"
   height="800px"
   viewBox="0 0 32 32"
   fill="none"
   version="1.1"
   id="svg6"
   sodipodi:docname="ubuntu.svg"
   inkscape:version="1.2.1 (9c6d41e, 2022-07-14)"
   xmlns:inkscape="http://www.inkscape.org/namespaces/inkscape"
   xmlns:sodipodi="http://sodipodi.sourceforge.net/DTD/sodipodi-0.dtd"
   xmlns="http://www.w3.org/2000/svg"
   xmlns:svg="http://www.w3.org/2000/svg">
  <defs
     id="defs10" />
  <sodipodi:namedview
     id="namedview8"
     pagecolor="#ffffff"
     bordercolor="#000000"
     borderopacity="0.25"
     inkscape:showpageshadow="2"
     inkscape:pageopacity="0.0"
     inkscape:pagecheckerboard="0"
     inkscape:deskcolor="#d1d1d1"
     showgrid="false"
     inkscape:zoom="0.77428193"
     inkscape:cx="144.00439"
     inkscape:cy="481.73667"
     inkscape:window-width="1920"
     inkscape:window-height="1024"
     inkscape:window-x="0"
     inkscape:window-y="0"
     inkscape:window-maximized="1"
     inkscape:current-layer="svg6" />
  <g
     id="g295"
     transform="matrix(1.1428571,0,0,1.1428571,-2.2857143,-2.2857143)"
     style="stroke-width:0.875">
    <path
       d="M 30,16 C 30,23.728 23.735,30 16,30 8.265,30 2,23.728 2,16 2,8.265 8.265,2 16,2 23.735,2 30,8.265 30,16 Z"
       fill="#e95420"
       id="path2"
       style="stroke-width:0.818488" />
    <path
       d="M 6.82154,14.1563 C 5.81185,14.1563 5,14.9865 5,16.0035 c 0,1.017 0.81867,1.8472 1.82154,1.8472 1.00288,0 1.82155,-0.8302 1.82155,-1.8472 0,-1.024 -0.81867,-1.8472 -1.82155,-1.8472 z m 13.01006,8.3919 c -0.8733,0.512 -1.1666,1.6397 -0.6686,2.5252 0.5049,0.8856 1.6169,1.19 2.4901,0.678 0.8733,-0.5119 1.1666,-1.6396 0.6686,-2.5252 -0.5116,-0.8786 -1.6237,-1.183 -2.4901,-0.678 z m -9.0531,-6.5447 c 0,-1.8265 0.8937,-3.4385 2.2649,-4.4139 L 11.7131,9.32725 C 10.1167,10.4065 8.93645,12.06 8.43842,13.9902 c 0.57307,0.4774 0.94147,1.2038 0.94147,2.0133 0,0.8094 -0.3684,1.5358 -0.94147,2.0132 0.4912,1.9302 1.67828,3.5837 3.27468,4.663 l 1.3303,-2.2623 c -1.3712,-0.9755 -2.2649,-2.5875 -2.2649,-4.4139 z m 5.3213,-5.3964 c 2.7835,0 5.0621,2.1586 5.3009,4.919 L 24,15.4846 C 23.8704,13.4506 22.9971,11.6241 21.6463,10.282 20.9504,10.5449 20.1522,10.5034 19.4632,10.1021 18.7673,9.69393 18.3375,9.01593 18.2147,8.26875 17.5393,8.08195 16.8298,7.97817 16.0998,7.97817 c -1.2621,0 -2.4492,0.29749 -3.5066,0.83021 l 1.2689,2.29692 c 0.6754,-0.3183 1.4395,-0.4982 2.2377,-0.4982 z m 0,10.7927 c -0.7982,0 -1.5623,-0.1799 -2.2445,-0.4981 l -1.2689,2.2968 c 1.0574,0.5328 2.2513,0.8302 3.5066,0.8302 0.73,0 1.4395,-0.1037 2.1149,-0.2905 0.116,-0.7403 0.5526,-1.4252 1.2485,-1.8334 0.689,-0.4082 1.494,-0.4428 2.1831,-0.1799 1.344,-1.3421 2.2241,-3.1686 2.3537,-5.2026 l -2.5993,-0.0415 c -0.232,2.7535 -2.5106,4.919 -5.2941,4.919 z m 3.725,-11.94802 c 0.8732,0.51196 1.9853,0.20755 2.4901,-0.678 0.5048,-0.88554 0.2047,-2.01324 -0.6686,-2.52519 -0.8732,-0.51196 -1.9853,-0.20755 -2.4901,0.678 -0.498,0.88554 -0.1979,2.01324 0.6686,2.52519 z"
       fill="#ffffff"
       id="path4"
       style="stroke-width:0.818488" />
  </g>
</svg>
