<?xml version="1.0" encoding="UTF-8" standalone="no"?>
<!-- Created with Inkscape (http://www.inkscape.org/) -->

<svg
   width="135.46667mm"
   height="120.12079mm"
   viewBox="0 0 135.46667 120.12079"
   version="1.1"
   id="svg5"
   xml:space="preserve"
   xmlns:inkscape="http://www.inkscape.org/namespaces/inkscape"
   xmlns:sodipodi="http://sodipodi.sourceforge.net/DTD/sodipodi-0.dtd"
   xmlns="http://www.w3.org/2000/svg"
   xmlns:svg="http://www.w3.org/2000/svg"><sodipodi:namedview
     id="namedview7"
     pagecolor="#ffffff"
     bordercolor="#000000"
     borderopacity="0.25"
     inkscape:showpageshadow="2"
     inkscape:pageopacity="0.0"
     inkscape:pagecheckerboard="0"
     inkscape:deskcolor="#d1d1d1"
     inkscape:document-units="mm"
     showgrid="false" /><defs
     id="defs2" /><g
     inkscape:label="Layer 1"
     inkscape:groupmode="layer"
     id="layer1"
     transform="translate(761.67543,-332.74932)"><path
       style="fill:#0f0f0f;stroke-width:1"
       d="m -727.15928,452.22073 c -0.62589,-0.62589 -0.64943,-0.77996 -0.64943,-4.2499 0,-6.98436 0.96443,-16.27241 2.12871,-20.50067 1.54326,-5.60461 5.00542,-10.04699 9.77753,-12.54576 2.41921,-1.26675 4.48097,-1.8098 7.54063,-1.98613 l 2.64583,-0.15248 0.0803,-1.39917 c 0.079,-1.37528 0.0541,-1.42789 -1.4552,-3.08124 -1.91136,-2.09375 -3.09344,-4.03828 -3.97787,-6.54356 -0.60475,-1.71306 -0.70957,-2.5456 -0.89394,-7.09999 -0.11488,-2.83765 -0.34729,-5.69515 -0.51648,-6.35 -0.16919,-0.65484 -0.32403,-2.6215 -0.3441,-4.37034 -0.0356,-3.10089 -0.0147,-3.22403 0.84297,-4.96697 0.96483,-1.96078 3.19666,-4.54353 4.9959,-5.78144 1.58135,-1.088 4.36441,-2.42456 6.42778,-3.08694 2.91488,-0.93573 4.8261,-1.18219 8.12813,-1.04816 4.74946,0.19278 6.62111,1.07074 8.04918,3.77573 0.4626,0.87623 1.57393,2.29877 2.4804,3.175 0.99396,0.9608 1.99296,2.26643 2.53057,3.30729 0.78704,1.52378 0.8892,1.96104 0.89635,3.83646 0.008,1.97806 -0.0733,2.28993 -1.23502,4.7625 l -1.2431,2.64583 -0.11241,4.36563 c -0.098,3.80611 -0.20117,4.6369 -0.80491,6.48229 -0.94973,2.90289 -1.97752,4.57873 -4.29728,7.00679 l -1.97741,2.06973 0.21356,1.27383 0.21356,1.27383 2.24429,-0.0708 c 6.53927,-0.20615 13.33942,4.08582 16.37106,10.33273 2.20766,4.54902 3.73261,14.70635 3.73261,24.86197 0,3.0886 -0.24578,3.9701 -1.23225,4.41956 -0.46025,0.20971 -9.1238,0.29376 -30.27764,0.29376 h -29.63291 z m 11.5214,-11.21397 0.13229,-7.49777 0.77077,-0.6626 c 0.90947,-0.78184 2.11714,-0.69333 2.86725,0.21013 0.41559,0.50056 0.46302,1.28428 0.46302,7.65048 0,3.90104 0.0723,7.28113 0.1606,7.51132 0.14371,0.3745 1.66834,0.41851 14.49917,0.41851 10.79944,0 14.41693,-0.0784 14.65606,-0.3175 0.23147,-0.23146 0.3175,-2.27809 0.3175,-7.55265 v -7.23515 l 0.64944,-0.64943 c 0.82237,-0.82238 1.76114,-0.8263 2.70925,-0.0113 l 0.74235,0.63813 0.1323,7.49781 0.13229,7.49781 3.77581,0.0734 c 3.14706,0.0612 3.801,0.008 3.92702,-0.32059 0.21461,-0.55926 -0.35975,-9.92067 -0.83434,-13.59879 -0.88221,-6.83722 -2.24847,-10.3558 -5.14572,-13.25199 -1.99488,-1.99414 -4.20165,-3.27252 -6.64219,-3.8478 -2.89528,-0.68246 -2.83381,-0.70481 -8.04517,2.92541 -5.54902,3.86545 -6.0743,4.16888 -6.87076,3.96899 -0.53832,-0.13512 -5.48304,-3.57483 -9.09279,-6.32526 l -1.41146,-1.07546 -1.98722,0.28629 c -4.10551,0.59146 -8.34732,3.63114 -10.35223,7.41842 -1.03664,1.9582 -1.98596,5.52588 -2.55391,9.5979 -0.49465,3.54653 -1.09108,13.23355 -0.85299,13.85402 0.14954,0.38969 0.61894,0.43357 3.94555,0.36886 l 3.77582,-0.0734 z m 21.35188,-22.98823 c 1.22598,-0.83278 2.35661,-1.66784 2.51252,-1.85569 0.30388,-0.36616 -0.19663,-3.40403 -0.60213,-3.65465 -0.11553,-0.0714 -1.06318,0.0111 -2.10589,0.18327 -1.81242,0.29932 -4.76113,0.0836 -6.15197,-0.45017 -0.53409,-0.20495 -0.83057,0.45089 -1.10243,2.43868 l -0.18669,1.36501 2.33662,1.73416 c 1.28515,0.9538 2.50184,1.73852 2.70377,1.74385 0.20193,0.005 1.37022,-0.67169 2.5962,-1.50446 z m -0.57518,-9.62203 c 4.52071,-0.8357 8.20887,-4.67615 9.25163,-9.63363 0.44755,-2.12778 0.52964,-7.33083 0.12751,-8.08222 -0.14918,-0.27874 -0.58828,-0.67292 -0.97579,-0.87596 -0.62744,-0.32875 -0.89971,-0.30278 -2.48749,0.23726 -4.40439,1.49803 -9.23927,1.55131 -13.42794,0.14797 l -2.45931,-0.82394 -1.43391,0.85766 -1.4339,0.85766 0.003,3.44391 c 0.003,3.75849 0.31013,5.36359 1.48563,7.77489 1.43352,2.94057 4.8847,5.59382 7.94375,6.10711 1.81952,0.30531 1.69504,0.3057 3.40668,-0.0107 z m 5.36563,-22.71281 c 3.00932,-1.03508 3.2489,-1.07799 3.9616,-0.70944 0.41721,0.21575 0.9133,0.57872 1.10242,0.8066 0.18912,0.22787 0.45416,0.41432 0.58898,0.41432 0.3439,0 1.2653,-2.11289 1.26919,-2.91042 0.006,-1.27465 -1.19179,-3.29381 -2.73806,-4.61483 -0.94961,-0.81128 -1.80745,-1.86756 -2.35094,-2.89476 -1.08236,-2.0457 -1.68238,-2.33865 -5.10191,-2.49085 -3.33477,-0.14844 -6.0942,0.48323 -9.51215,2.17747 -3.34017,1.65567 -5.69162,4.07553 -6.23576,6.41718 -0.29386,1.2646 -0.0173,4.31621 0.39118,4.31621 0.16502,0 0.71413,-0.3364 1.22023,-0.74754 1.46577,-1.19077 1.74448,-1.20707 3.80539,-0.22254 3.2846,1.56911 4.15566,1.75443 7.72454,1.64342 2.32027,-0.0722 3.09417,-0.22824 5.87529,-1.18482 z m -50.13444,16.33654 c -1.07915,-0.52173 -1.17159,-1.30128 -1.08919,-9.18574 l 0.0782,-7.4805 0.62463,-0.50545 c 0.79765,-0.64547 1.92173,-0.64553 2.7195,-1.4e-4 0.61749,0.49955 0.62613,0.57733 0.75692,6.81302 l 0.13229,6.3077 6.3077,0.1323 c 6.23569,0.13078 6.31347,0.13942 6.81302,0.75691 0.70369,0.86983 0.6441,2.03878 -0.14411,2.82699 l -0.64944,0.64943 -7.4865,-0.0179 c -4.66502,-0.0112 -7.70377,-0.12295 -8.06299,-0.29661 z m 74.08333,0 c -0.88025,-0.42557 -1.28277,-1.62045 -0.87637,-2.60157 0.18212,-0.43969 0.46445,-0.88617 0.62741,-0.99219 0.16295,-0.10602 3.09425,-0.25229 6.51398,-0.32505 l 6.21771,-0.1323 0.13229,-6.08541 c 0.0888,-4.08549 0.23857,-6.27083 0.45568,-6.6496 0.62537,-1.09107 2.16022,-1.2096 3.12822,-0.24159 l 0.64944,0.64943 v 7.69697 7.69697 l -0.64944,0.64943 -0.64943,0.64943 -7.4865,-0.0179 c -4.66502,-0.0112 -7.70377,-0.12295 -8.06299,-0.29661 z m -78.88468,-23.84576 c -0.49736,-0.52941 -0.57529,-0.91651 -0.57529,-2.8575 0,-2.11964 -0.22961,-2.88014 -0.86957,-2.88014 -0.12901,0 -0.9684,0.69973 -1.86531,1.55496 -0.89691,0.85523 -1.89269,1.63527 -2.21283,1.73343 -0.93549,0.28681 -1.85506,-0.38665 -5.30489,-3.88516 -2.94434,-2.98587 -3.24115,-3.37469 -3.24115,-4.24579 0,-0.80896 0.25277,-1.22912 1.6164,-2.68684 0.95178,-1.01747 1.5578,-1.88064 1.47388,-2.09933 -0.10411,-0.2713 -0.79551,-0.39649 -2.56553,-0.46456 -2.27308,-0.0874 -2.4625,-0.1391 -3.06138,-0.83552 -0.6263,-0.72832 -0.63837,-0.83736 -0.63837,-5.76672 0,-4.98172 0.006,-5.02986 0.64943,-5.67378 0.58079,-0.58079 0.87215,-0.64943 2.75649,-0.64943 3.54013,0 3.70922,-0.34887 1.35658,-2.7989 -2.44555,-2.54679 -2.41782,-2.64286 2.04433,-7.08186 4.45415,-4.43105 4.53403,-4.45395 7.06302,-2.02549 2.45003,2.35263 2.7989,2.18354 2.7989,-1.35659 0,-1.88434 0.0686,-2.17569 0.64943,-2.75648 0.64392,-0.64392 0.69207,-0.64943 5.67379,-0.64943 4.89699,0 5.04274,0.0158 5.74957,0.6238 0.67251,0.57847 0.7337,0.80116 0.84188,3.06382 0.0835,1.74623 0.22045,2.47984 0.4817,2.58009 0.21052,0.0808 1.09645,-0.54412 2.09297,-1.47632 1.45773,-1.36363 1.87789,-1.61639 2.68685,-1.61639 0.87061,0 1.2624,0.29845 4.25471,3.24114 4.54674,4.47134 4.71984,5.02113 2.31163,7.34219 -2.44799,2.35941 -2.23997,2.91042 1.09877,2.91042 2.01337,0 2.2913,0.0627 2.87801,0.64943 0.6453,0.6453 0.64938,0.68192 0.64102,5.75469 -0.006,3.76884 -0.0984,5.22373 -0.35229,5.55787 -0.54122,0.71237 -1.63132,1.00259 -3.76586,1.00259 -2.64339,0 -2.76912,0.3519 -0.83488,2.33662 1.72002,1.76491 2.11979,2.45669 1.90779,3.30133 -0.0858,0.34196 -1.75127,2.21368 -3.70099,4.15939 -3.21985,3.21322 -3.63128,3.53766 -4.48621,3.53766 -0.80164,0 -1.19223,-0.24875 -2.63344,-1.67715 -2.14939,-2.13029 -2.52987,-2.06407 -2.52987,0.44028 0,2.11958 -0.32865,3.43469 -0.98223,3.93044 -0.35979,0.27291 -1.71245,0.36078 -5.65238,0.36718 -5.07708,0.008 -5.19076,-0.004 -5.75468,-0.60395 z m 7.94684,-5.7536 c 0.0952,-1.64377 0.23941,-2.24426 0.62931,-2.61959 0.661,-0.63631 3.67675,-1.89424 4.92532,-2.05445 0.88866,-0.11402 1.11271,-10e-5 2.40681,1.2238 0.78481,0.74225 1.5304,1.34954 1.65686,1.34954 0.31324,0 2.76165,-2.43154 2.76165,-2.74261 0,-0.13694 -0.60729,-0.89109 -1.34953,-1.6759 -1.22391,-1.2941 -1.33783,-1.51815 -1.2238,-2.40682 0.1602,-1.24856 1.41814,-4.26432 2.05444,-4.92531 0.37575,-0.39033 0.97642,-0.53419 2.6301,-0.62992 l 2.14314,-0.12407 -0.0766,-2.01591 -0.0767,-2.01592 -2.04413,-0.13229 c -2.46173,-0.15932 -2.72312,-0.37274 -3.88241,-3.16999 -1.12193,-2.70708 -1.0821,-3.07436 0.50258,-4.63522 0.72761,-0.71666 1.32292,-1.482 1.32292,-1.70076 0,-0.4545 -2.3471,-2.92945 -2.77812,-2.92945 -0.15646,0 -0.86226,0.5866 -1.56843,1.30355 -0.70617,0.71696 -1.56785,1.37481 -1.91484,1.4619 -0.40705,0.10216 -1.27797,-0.12566 -2.45462,-0.64209 -1.00305,-0.44024 -1.93184,-0.80044 -2.06399,-0.80044 -0.13214,0 -0.52321,-0.30119 -0.86903,-0.6693 -0.51278,-0.54583 -0.65552,-1.04614 -0.77373,-2.71198 l -0.14495,-2.04268 h -1.98437 -1.98438 l -0.14021,2.15169 c -0.1451,2.2267 -0.42915,2.8654 -1.40503,3.15926 -0.31428,0.0946 -1.38698,0.52549 -2.38377,0.95745 -2.15838,0.93533 -2.63348,0.82868 -4.42071,-0.99237 -0.63424,-0.64624 -1.25253,-1.17499 -1.37399,-1.17499 -0.34947,0 -2.84399,2.42019 -2.84399,2.75925 0,0.16806 0.53121,0.82692 1.18047,1.46412 1.47226,1.44492 1.78245,2.25384 1.32953,3.4672 -0.98482,2.63832 -1.52761,3.8583 -1.87565,4.21568 -0.25584,0.26271 -1.12156,0.4416 -2.56095,0.52917 l -2.17445,0.13229 v 1.98438 1.98437 l 2.10276,0.19054 c 1.69806,0.15387 2.21132,0.30664 2.66682,0.79375 0.70428,0.75317 2.09724,4.34669 2.02619,5.22711 -0.031,0.38399 -0.59959,1.20875 -1.3738,1.9927 -0.72651,0.73564 -1.32092,1.44877 -1.32092,1.58472 0,0.42095 2.46953,2.77889 2.91041,2.77889 0.22922,0 1.00761,-0.60328 1.72974,-1.34062 1.17568,-1.20044 1.4098,-1.32841 2.23901,-1.2238 1.3965,0.17616 4.28769,1.45944 4.96094,2.20195 0.49422,0.54507 0.59531,0.96107 0.59531,2.44979 0,0.98628 0.0794,1.87261 0.17639,1.96962 0.097,0.097 1.03422,0.17639 2.08267,0.17639 h 1.90629 z m -3.93326,-7.91826 c -2.78799,-0.58767 -5.45636,-2.86573 -6.4537,-5.50971 -0.78804,-2.0891 -0.63901,-5.16454 0.34218,-7.06127 0.82707,-1.59881 2.55349,-3.30316 4.16848,-4.1152 1.6279,-0.81853 4.49074,-0.99771 6.3893,-0.39989 5.02894,1.58352 7.55216,7.17844 5.40005,11.97396 -1.66829,3.71745 -5.9403,5.93544 -9.84631,5.11211 z m 3.8778,-4.64613 c 1.55723,-0.7862 2.38125,-2.21947 2.38125,-4.14187 0,-4.54021 -6.05855,-6.10276 -8.36994,-2.15868 -0.57527,0.98164 -0.66996,1.4127 -0.57138,2.60134 0.27656,3.33496 3.58559,5.20092 6.56007,3.69921 z m 84.15669,16.64571 c -0.3016,-0.38342 -0.54837,-0.9721 -0.54837,-1.30816 0,-0.33606 -0.2872,-0.94508 -0.63822,-1.35338 l -0.63823,-0.74236 -10.09911,-0.13229 c -9.57736,-0.12546 -10.11831,-0.15858 -10.4709,-0.64128 -0.20449,-0.27994 -0.43792,-0.87526 -0.51873,-1.32291 -0.0808,-0.44767 -0.11208,-8.59311 -0.0695,-18.101 l 0.0774,-17.28706 0.74236,-0.63846 0.74236,-0.63845 h 10.11976 10.11975 l 1.39815,0.69672 1.39815,0.69673 1.23349,-0.63058 c 1.22934,-0.62847 1.26833,-0.63083 11.6216,-0.70553 l 10.38812,-0.075 0.65823,0.65823 0.65824,0.65824 v 17.96801 c 0,17.67586 -0.009,17.97915 -0.53893,18.65315 l -0.53892,0.68513 -9.85812,0.0781 c -11.13188,0.0883 -11.10066,0.0828 -11.44165,1.99438 -0.25389,1.42331 -1.04005,2.18481 -2.25554,2.18481 -0.75763,0 -1.123,-0.16525 -1.54139,-0.69714 z m -0.54837,-22.02771 c 0,-13.90188 -0.0216,-14.54948 -0.50551,-15.14739 l -0.5055,-0.62463 -8.49033,-0.0767 -8.49032,-0.0767 v 15.08808 15.08808 l 8.40052,0.0737 c 4.62029,0.0405 8.66841,0.10174 8.99583,0.13601 l 0.59531,0.0623 z m -13.63806,9.37542 c -0.78817,-0.78816 -0.84781,-1.95708 -0.14425,-2.82698 0.48426,-0.59875 0.67068,-0.62816 4.49919,-0.70985 l 3.994,-0.0852 0.82343,0.82343 c 0.69197,0.69196 0.79724,0.95903 0.65939,1.67273 -0.30987,1.60431 -0.81377,1.77533 -5.23087,1.77533 -3.8426,0 -3.96935,-0.0179 -4.60089,-0.64943 z m 0,-8.73125 c -0.78817,-0.78816 -0.84781,-1.95708 -0.14425,-2.82698 0.48426,-0.59874 0.67068,-0.62816 4.49919,-0.70985 l 3.994,-0.0852 0.82343,0.82343 c 0.69197,0.69196 0.79724,0.95903 0.65939,1.67273 -0.30987,1.60431 -0.81377,1.77534 -5.23087,1.77534 -3.8426,0 -3.96935,-0.0179 -4.60089,-0.64944 z m 0,-8.73125 c -0.78817,-0.78816 -0.84781,-1.95708 -0.14425,-2.82698 0.48426,-0.59874 0.67068,-0.62816 4.49919,-0.70985 l 3.994,-0.0852 0.82343,0.82343 c 0.69197,0.69196 0.79724,0.95903 0.65939,1.67273 -0.30987,1.60432 -0.81377,1.77534 -5.23087,1.77534 -3.8426,0 -3.96935,-0.0179 -4.60089,-0.64944 z m 35.79912,22.21115 c 0.26332,-0.0914 0.31864,-3.2295 0.26459,-15.00582 l -0.0683,-14.89027 -8.24913,-0.0699 -8.24912,-0.0699 -0.74671,0.64216 -0.74671,0.64216 -0.0729,14.23431 c -0.0401,7.82886 -0.0256,14.3579 0.0323,14.50897 0.10229,0.26706 17.06778,0.27492 17.83611,0.008 z m -13.38369,-4.71158 c -0.78883,-0.83967 -0.75636,-2.14103 0.0742,-2.97154 0.62943,-0.62943 0.76685,-0.64943 4.46224,-0.64943 3.40204,0 3.8847,0.0566 4.4802,0.52498 1.16942,0.91987 1.14942,2.45297 -0.0439,3.36921 -0.28602,0.2196 -1.69098,0.325 -4.40858,0.33073 -3.83269,0.008 -4.01129,-0.0156 -4.56407,-0.60395 z m 0.12186,-8.66725 c -0.98484,-0.77468 -0.98484,-2.36192 0,-3.1366 0.63109,-0.49642 1.05382,-0.54837 4.46223,-0.54837 3.35446,0 3.83789,0.0573 4.4325,0.52498 1.16942,0.91987 1.14942,2.45297 -0.0439,3.36921 -0.28463,0.21853 -1.66495,0.32502 -4.28673,0.33073 -3.51867,0.008 -3.92971,-0.041 -4.56406,-0.53995 z m 0,-8.73125 c -0.98484,-0.77468 -0.98484,-2.36192 0,-3.1366 0.63109,-0.49642 1.05382,-0.54837 4.46223,-0.54837 3.35446,0 3.83789,0.0573 4.4325,0.52498 1.16942,0.91987 1.14942,2.45297 -0.0439,3.36921 -0.28463,0.21853 -1.66495,0.32503 -4.28673,0.33073 -3.51867,0.008 -3.92971,-0.041 -4.56406,-0.53995 z m -60.37271,9.15935 c -0.40937,-0.40937 -0.64943,-0.95173 -0.64943,-1.46723 0,-0.51551 0.24006,-1.05787 0.64943,-1.46724 l 0.64943,-0.64943 h 8.83989 c 8.54244,0 8.86334,0.0184 9.53703,0.54837 0.53772,0.42298 0.69714,0.78159 0.69714,1.5683 0,0.7867 -0.15942,1.14531 -0.69714,1.56829 -0.67369,0.52992 -0.99459,0.54837 -9.53703,0.54837 h -8.83989 z"
       id="path4059" /></g></svg>
