<?xml version="1.0" encoding="UTF-8" standalone="no"?>
<!-- Created with Inkscape (http://www.inkscape.org/) -->

<svg
   width="135.46655mm"
   height="132.28613mm"
   viewBox="0 0 135.46655 132.28613"
   version="1.1"
   id="svg5"
   xml:space="preserve"
   xmlns:inkscape="http://www.inkscape.org/namespaces/inkscape"
   xmlns:sodipodi="http://sodipodi.sourceforge.net/DTD/sodipodi-0.dtd"
   xmlns="http://www.w3.org/2000/svg"
   xmlns:svg="http://www.w3.org/2000/svg"><sodipodi:namedview
     id="namedview7"
     pagecolor="#ffffff"
     bordercolor="#000000"
     borderopacity="0.25"
     inkscape:showpageshadow="2"
     inkscape:pageopacity="0.0"
     inkscape:pagecheckerboard="0"
     inkscape:deskcolor="#d1d1d1"
     inkscape:document-units="mm"
     showgrid="false" /><defs
     id="defs2" /><g
     inkscape:label="Layer 1"
     inkscape:groupmode="layer"
     id="layer1"
     transform="translate(590.58967,-360.93602)"><path
       style="fill:#101010;stroke-width:1"
       d="m -581.88664,492.59399 c -4.27974,-1.51079 -7.61102,-5.32743 -8.43299,-9.66164 -0.14853,-0.78322 -0.27006,-2.81578 -0.27006,-4.5168 0,-2.89073 0.04,-3.13035 0.61237,-3.66805 0.49895,-0.46875 0.93059,-0.57529 2.33068,-0.57529 0.96041,0 1.91502,-0.14587 2.16428,-0.33073 0.41394,-0.30697 0.45084,-2.96358 0.51359,-36.97552 l 0.0676,-36.64479 0.58053,-1.25697 c 0.87598,-1.89671 2.98419,-3.97277 4.91355,-4.83862 1.4309,-0.64214 2.06478,-0.75358 4.91006,-0.86319 l 3.26706,-0.12586 -0.22101,-0.95559 c -0.41323,-1.78663 -0.21074,-4.29509 0.46158,-5.7181 0.95745,-2.02649 2.37204,-3.15325 7.12261,-5.67331 29.04911,-15.40986 35.6838,-18.87238 37.03343,-19.32704 1.13939,-0.38383 2.26278,-0.53039 4.03478,-0.52636 3.01208,0.007 4.56643,0.51204 9.07032,2.94806 2.43063,1.31464 3.2335,1.88307 3.42452,2.42451 0.34847,0.98778 -0.0959,2.08172 -1.0269,2.52793 -0.73312,0.35138 -0.93355,0.28096 -4.80083,-1.68681 -3.62884,-1.84644 -4.22339,-2.06692 -5.89669,-2.18664 -1.0434,-0.0747 -2.40937,0.005 -3.1093,0.18119 -0.6866,0.17289 -7.44916,3.60042 -15.02791,7.61674 -7.57875,4.01632 -16.45846,8.71948 -19.73267,10.45148 -3.27422,1.732 -6.28245,3.46383 -6.68495,3.84852 -1.46354,1.39877 -1.51799,3.91184 -0.11856,5.47093 0.84349,0.93973 39.81571,21.50175 41.66751,21.98409 1.87633,0.48872 2.48439,0.48731 4.39436,-0.0102 1.86256,-0.48514 11.26213,-5.4113 11.27084,-5.90687 0.003,-0.19434 -3.4466,-4.28651 -7.66671,-9.09372 -6.8169,-7.76527 -7.67291,-8.84015 -7.67291,-9.63469 0,-1.88255 1.96633,-2.59035 3.40324,-1.22504 0.42117,0.40018 4.17811,4.6269 8.34876,9.39271 4.17065,4.76581 7.63041,8.6651 7.68836,8.6651 0.48025,0 25.8077,-13.66893 26.25734,-14.17078 1.37123,-1.53044 1.31534,-4.10019 -0.11901,-5.47209 -0.4025,-0.38498 -6.62541,-3.81853 -13.82869,-7.63012 -7.20329,-3.81159 -13.30524,-7.11103 -13.5599,-7.33209 -0.627,-0.54427 -0.61451,-2.21747 0.0208,-2.79245 1.06117,-0.96034 1.75515,-0.66428 15.56369,6.63972 14.24873,7.53685 15.04357,8.05255 16.20962,10.51719 0.67324,1.423 0.87599,3.93007 0.46244,5.7181 l -0.22101,0.95559 3.26705,0.12586 c 2.84529,0.10961 3.47917,0.22105 4.91007,0.86319 1.92936,0.86585 4.03757,2.94191 4.91355,4.83862 l 0.58054,1.25697 0.0676,36.64479 c 0.0628,34.01194 0.0996,36.66855 0.51359,36.97552 0.25153,0.18654 1.21129,0.33073 2.20136,0.33073 1.4928,0 1.84146,0.0916 2.33068,0.61237 0.52211,0.55575 0.57529,0.89485 0.57529,3.66805 0,1.68063 -0.12153,3.6965 -0.27006,4.47972 -0.83431,4.39927 -4.28111,8.27989 -8.65128,9.74011 l -1.6453,0.54975 -57.22449,-0.006 -57.22449,-0.006 z m 116.66561,-3.7489 c 2.03971,-0.60573 3.95665,-2.29307 5.062,-4.45574 0.82113,-1.60657 0.91806,-2.02054 0.92604,-3.95524 l 0.009,-2.16086 -23.55457,-0.0675 -23.55457,-0.0676 -0.75413,1.73106 c -1.38099,3.16996 -4.02606,5.17353 -7.49153,5.67462 -0.98736,0.14277 -4.71223,0.25957 -8.27749,0.25957 -3.56526,0 -7.29013,-0.1168 -8.27749,-0.25957 -3.46547,-0.50109 -6.11054,-2.50466 -7.49153,-5.67462 l -0.75413,-1.73106 -23.55457,0.0676 -23.55457,0.0675 0.0114,2.11667 c 0.009,1.69479 0.14573,2.4067 0.68531,3.57187 1.16874,2.52376 2.95912,4.15958 5.38869,4.9235 0.83553,0.26272 12.92642,0.3365 57.4327,0.35047 50.07957,0.0157 56.52792,-0.0279 57.7495,-0.39067 z m -48.13307,-7.78211 c 1.10069,-0.56153 2.40399,-1.94152 2.40399,-2.54545 0,-0.32013 -1.78457,-0.37657 -11.90625,-0.37657 -13.08697,0 -12.59788,-0.0688 -11.21276,1.57731 1.52551,1.81297 1.67401,1.8376 11.15716,1.85058 7.97053,0.0109 8.61137,-0.023 9.55786,-0.50587 z m 48.37813,-7.1106 c 0.2662,-0.16899 0.3196,-7.55927 0.26458,-36.61798 l -0.0689,-36.40627 -0.8055,-1.14723 c -0.44302,-0.63097 -1.33599,-1.44488 -1.98437,-1.80869 -1.14534,-0.64263 -1.32568,-0.66145 -6.33826,-0.66145 h -5.15937 l -3.83646,2.07846 c -6.07688,3.29226 -6.47828,2.92823 3.39716,3.08091 l 8.55653,0.13229 0.50544,0.62463 c 0.49129,0.60711 0.50545,1.51673 0.50545,32.44829 0,30.93916 -0.014,31.84103 -0.50579,32.44829 l -0.50578,0.62462 h -42.61395 -42.61394 l -0.58061,-0.58061 c -0.71295,-0.71295 -0.75932,-1.99322 -0.0986,-2.72326 0.47904,-0.52934 0.73077,-0.53259 41.29746,-0.53259 22.44851,0 41.00381,-0.0723 41.23399,-0.16059 0.3781,-0.14509 0.41851,-2.953 0.41851,-29.07586 0,-26.12286 -0.0404,-28.93077 -0.41851,-29.07586 -0.23018,-0.0883 -4.0759,-0.1606 -8.54604,-0.1606 -5.96863,0 -8.21186,0.0843 -8.44503,0.3175 -0.22164,0.22165 -0.3175,1.65421 -0.3175,4.7452 0,4.64935 -0.31625,6.93546 -1.30722,9.44957 -1.49125,3.78334 -4.94902,7.57316 -8.6808,9.51443 l -2.18281,1.13551 v 1.74881 c 0,1.71793 0.0409,1.81932 2.3151,5.74129 l 2.31511,3.99248 v 2.00512 c 0,1.76851 -0.0942,2.15741 -0.79784,3.2956 -1.19432,1.93177 -2.9498,2.7709 -5.78081,2.76326 -2.48023,-0.007 -3.79016,-0.48008 -5.12473,-1.852 -1.20601,-1.23977 -1.74745,-2.81303 -1.6121,-4.68429 0.0976,-1.34962 0.38674,-2.01086 2.41372,-5.52044 1.75136,-3.0324 2.3028,-4.21969 2.3028,-4.95815 0,-1.15558 0.016,-1.15336 -3.05189,-0.42474 -7.00854,1.66452 -15.4938,1.76021 -22.74805,0.25653 -6.38633,-1.32378 -11.58725,-3.59426 -14.47638,-6.31973 -4.59578,-4.33542 -6.02576,-8.1664 -6.02576,-16.14325 0,-3.09099 -0.0959,-4.52355 -0.3175,-4.7452 -0.23317,-0.23316 -2.4764,-0.3175 -8.44503,-0.3175 -4.47014,0 -8.31586,0.0723 -8.54604,0.1606 -0.3781,0.14509 -0.41851,2.953 -0.41851,29.07586 0,26.12286 0.0404,28.93077 0.41851,29.07586 0.23018,0.0883 2.31378,0.16059 4.63021,0.16059 3.85892,0 4.25601,0.0443 4.74086,0.52917 0.66862,0.66862 0.67912,1.87287 0.0234,2.68267 -0.50524,0.62393 -0.51264,0.62462 -6.63797,0.62462 -6.12533,0 -6.13274,-7.9e-4 -6.63796,-0.62462 -0.49174,-0.60726 -0.50579,-1.50913 -0.50579,-32.44829 0,-30.93156 0.0142,-31.84118 0.50545,-32.44829 l 0.50545,-0.62463 8.55652,-0.13229 c 9.87544,-0.15268 9.47404,0.21135 3.39716,-3.08091 l -3.83646,-2.07846 h -5.15937 c -5.01258,0 -5.19292,0.0188 -6.33826,0.66145 -0.64838,0.36381 -1.54135,1.17772 -1.98437,1.80869 l -0.8055,1.14723 -0.0689,36.40627 c -0.055,29.05871 -0.002,36.44899 0.26458,36.61798 0.43605,0.27682 115.32473,0.27682 115.76078,0 z m -99.71247,-14.62452 c -0.65939,-0.24439 -1.295,-1.19337 -1.295,-1.93346 0,-0.19181 0.24677,-0.66246 0.54837,-1.04588 l 0.54837,-0.69714 h 20.75059 c 20.39781,0 20.75958,0.009 21.27975,0.52917 0.6686,0.66859 0.67912,1.87283 0.0234,2.68266 l -0.50572,0.62463 -20.33021,0.0478 c -12.54493,0.0295 -20.59421,-0.0501 -21.01959,-0.20774 z m -0.64557,-8.82383 c -0.35719,-0.35719 -0.64943,-0.95791 -0.64943,-1.33494 0,-0.37703 0.29224,-0.97776 0.64943,-1.33494 l 0.64943,-0.64944 h 13.86697 c 13.62821,0 13.87897,0.009 14.56411,0.54837 0.90061,0.70842 0.9576,2.09878 0.11808,2.88091 -0.5676,0.5288 -0.85571,0.53947 -14.56411,0.53947 h -13.98505 z m 61.67197,-3.96875 c 0.38068,-0.38069 0.649,-0.9555 0.6484,-1.38906 -10e-4,-0.79095 -2.33307,-4.934 -2.7771,-4.93389 -0.43703,10e-5 -2.75838,4.13693 -2.76862,4.93389 -0.006,0.44208 0.25176,1.00089 0.63993,1.38906 0.53464,0.53464 0.9109,0.64943 2.12869,0.64943 1.2178,0 1.59406,-0.11479 2.1287,-0.64943 z m -10.35395,-16.26319 c 3.15672,-0.64673 5.46076,-1.29606 5.91015,-1.66562 0.25067,-0.20613 0.33073,-2.12151 0.33073,-7.91249 0,-6.81191 -0.0457,-7.64052 -0.42128,-7.64052 -0.23171,0 -2.4046,1.05489 -4.82865,2.34419 -2.42405,1.28931 -5.06221,2.56638 -5.86257,2.83795 -1.99837,0.67807 -5.94391,0.67714 -7.9375,-0.002 -0.80036,-0.2726 -6.25249,-3.04188 -12.11584,-6.15397 -5.86335,-3.11208 -10.77468,-5.58784 -10.91406,-5.5017 -0.42719,0.26402 -0.30313,8.74492 0.15645,10.69474 0.96842,4.10868 3.81641,7.80788 7.39533,9.60567 3.33202,1.67376 8.72605,3.21595 13.62604,3.89577 2.9529,0.40968 11.66738,0.11121 14.6612,-0.50215 z m 12.15123,-4.28069 c 2.73116,-1.80905 5.02917,-5.23356 5.8506,-8.7186 0.45925,-1.94841 0.58365,-10.43071 0.15685,-10.69449 -0.22283,-0.13771 -6.7581,3.20182 -7.61832,3.89297 -0.49879,0.40076 -0.47852,16.34052 0.0208,16.34052 0.19334,0 0.90887,-0.36918 1.59009,-0.8204 z"
       id="path4057" /></g></svg>
