<?xml version="1.0" encoding="UTF-8" standalone="no"?>
<!-- Created with Inkscape (http://www.inkscape.org/) -->

<svg
   width="120.80533mm"
   height="144.38177mm"
   viewBox="0 0 120.80533 144.38177"
   version="1.1"
   id="svg5"
   xml:space="preserve"
   xmlns:inkscape="http://www.inkscape.org/namespaces/inkscape"
   xmlns:sodipodi="http://sodipodi.sourceforge.net/DTD/sodipodi-0.dtd"
   xmlns="http://www.w3.org/2000/svg"
   xmlns:svg="http://www.w3.org/2000/svg"><sodipodi:namedview
     id="namedview7"
     pagecolor="#ffffff"
     bordercolor="#000000"
     borderopacity="0.25"
     inkscape:showpageshadow="2"
     inkscape:pageopacity="0.0"
     inkscape:pagecheckerboard="0"
     inkscape:deskcolor="#d1d1d1"
     inkscape:document-units="mm"
     showgrid="false" /><defs
     id="defs2" /><g
     inkscape:label="Layer 1"
     inkscape:groupmode="layer"
     id="layer1"
     transform="translate(542.9676,-575.25957)"><path
       style="fill:#111111;stroke-width:1"
       d="m -502.0311,712.14025 c -16.15788,-5.75727 -21.17256,-7.65356 -21.66055,-8.19086 l -0.635,-0.69918 v -16.02174 -16.02173 l 0.65319,-0.61364 c 0.86766,-0.81513 2.18001,-0.79763 2.9665,0.0396 l 0.61364,0.65319 0.004,14.65737 c 0.002,8.06155 0.0976,14.79974 0.21167,14.97377 0.30132,0.45983 39.24737,14.29731 39.80951,14.14426 0.26036,-0.0709 5.14346,-1.79778 10.85133,-3.83755 5.70788,-2.03977 10.75613,-3.70867 11.21834,-3.70867 1.71835,0 2.68677,2.36763 1.43266,3.50259 -0.57177,0.51744 -23.13168,8.63938 -23.95348,8.62364 -0.26761,-0.005 -9.94807,-3.38058 -21.51213,-7.501 z m 20.16606,-2.49574 -0.69273,-0.69273 v -18.93454 -18.93455 l 0.69273,-0.69272 c 0.381,-0.381 1.02177,-0.69273 1.42394,-0.69273 0.40217,0 1.04294,0.31173 1.42394,0.69273 l 0.69273,0.69272 v 18.93455 18.93454 l -0.69273,0.69273 c -0.381,0.381 -1.02177,0.69273 -1.42394,0.69273 -0.40217,0 -1.04294,-0.31173 -1.42394,-0.69273 z m 30.63394,-1.56505 c -0.73969,-0.73969 -0.74608,-2.28814 -0.0122,-2.95231 0.30375,-0.27489 2.7485,-1.28725 5.43278,-2.24969 l 4.88052,-1.7499 0.14111,-14.98016 c 0.13401,-14.22595 0.16818,-15.01007 0.67874,-15.57406 0.73525,-0.81217 2.14902,-0.78366 2.94096,0.0593 l 0.61363,0.65319 v 15.98218 15.98219 l -0.635,0.69322 c -0.70417,0.76874 -11.32934,4.70047 -12.70262,4.70047 -0.42542,0 -1.02749,-0.254 -1.33793,-0.56444 z m -49.10666,-33.73968 c -5.26337,-1.9396 -6.3797,-3.08628 -4.6695,-4.79648 0.96862,-0.96862 1.7872,-0.88652 5.77183,0.57886 1.91879,0.70565 3.61074,1.17668 3.8016,1.05833 0.78345,-0.48577 10.61829,-10.87629 10.61829,-11.21824 0,-0.20457 -0.53975,-0.55824 -1.19945,-0.78593 -0.65969,-0.22769 -8.75594,-3.11523 -17.99166,-6.41675 -9.23572,-3.30151 -16.99114,-6.05687 -17.23427,-6.12301 -0.58272,-0.15853 -11.47025,11.12016 -11.09588,11.49453 0.14493,0.14493 5.21056,2.03488 11.25696,4.1999 11.50768,4.1205 11.99319,4.36202 11.99319,5.96592 0,0.9076 -1.12795,1.96802 -2.08417,1.95939 -0.95578,-0.009 -26.37174,-9.17654 -26.98933,-9.73545 -0.34667,-0.31374 -0.55983,-0.86767 -0.55983,-1.4548 0,-0.79847 0.36756,-1.34076 2.32833,-3.43512 6.19526,-6.61734 12.80911,-13.30091 13.45852,-13.6004 2.21916,-1.02342 12.72223,-4.60213 13.53006,-4.6101 1.79751,-0.0177 2.6842,2.19369 1.37335,3.42517 -0.35001,0.32883 -2.02684,1.09518 -3.72627,1.70301 -1.69943,0.60782 -3.13332,1.23549 -3.18642,1.3948 -0.0531,0.15932 0.25846,0.4164 0.69238,0.57129 25.47746,9.09441 33.4883,11.9181 33.81178,11.9181 0.29493,0 21.58317,-7.50304 33.80609,-11.91495 0.43391,-0.15662 0.74386,-0.41998 0.68878,-0.58523 -0.0551,-0.16525 -1.48903,-0.79435 -3.18655,-1.39799 -1.69752,-0.60364 -3.30922,-1.29918 -3.58156,-1.54564 -0.66876,-0.60522 -0.65633,-2.38508 0.0209,-2.99801 0.28386,-0.25689 0.93296,-0.46707 1.44243,-0.46707 0.89059,0 11.87135,3.76864 13.48453,4.62794 0.70568,0.3759 7.6838,7.46162 13.41415,13.62098 1.82479,1.96141 2.18722,2.5076 2.18722,3.29618 0,0.58043 -0.21352,1.13843 -0.55331,1.44594 -0.79701,0.72128 -41.97297,15.37316 -43.23084,15.38308 -0.97437,0.008 -1.36663,-0.34214 -7.58613,-6.76524 -3.60725,-3.72533 -6.71283,-6.77333 -6.90128,-6.77333 -0.18846,0 -3.29535,3.048 -6.90422,6.77333 -7.75507,8.00535 -6.62947,7.5545 -12.99977,5.20699 z m 53.33446,-9.44053 c 9.99958,-3.57023 18.30261,-6.61287 18.45117,-6.76143 0.172,-0.17199 -1.59122,-2.20956 -4.85419,-5.60947 -2.81836,-2.93665 -5.30967,-5.49322 -5.53624,-5.68125 -0.33354,-0.27682 -3.90527,0.90583 -18.76801,6.21435 -10.09585,3.60592 -18.35608,6.6854 -18.35608,6.84327 0,0.15787 0.72078,1.06052 1.60174,2.00589 1.45955,1.56626 9.18234,9.47996 9.25127,9.47996 0.0161,0 8.21075,-2.92109 18.21034,-6.49132 z m -51.29105,-19.37871 c -0.19552,-0.0788 -1.24683,-1.89991 -2.33625,-4.04694 -3.3986,-6.69796 -8.45295,-13.78875 -14.34606,-20.12619 -2.20854,-2.37506 -2.57666,-2.9093 -2.57666,-3.73944 0,-1.24489 0.83053,-2.09688 2.04611,-2.09899 0.78485,-10e-4 1.25986,0.35473 3.2913,2.4673 6.32201,6.57448 13.01425,16.01677 16.03116,22.61889 1.19556,2.61631 1.29974,3.84659 0.38823,4.58469 -0.62011,0.50213 -1.72368,0.65265 -2.49783,0.34068 z m 33.64487,-0.50492 c -0.381,-0.381 -0.69273,-0.98035 -0.69273,-1.3319 0,-1.08879 3.50606,-7.80372 6.16334,-11.80426 3.42099,-5.15027 5.67541,-7.97498 6.63396,-8.31208 1.00889,-0.35481 2.18449,0.25666 2.56307,1.33315 0.35099,0.99802 -0.0253,1.69848 -3.20048,5.95715 -2.81,3.76892 -5.53098,8.20765 -7.0028,11.42361 -0.54295,1.18638 -1.24906,2.44281 -1.56911,2.79206 -0.77788,0.84883 -2.01333,0.8242 -2.89525,-0.0577 z m -23.75269,-5.09833 c -0.46445,-0.19528 -0.92696,-0.57007 -1.0278,-0.83286 -0.10084,-0.26279 -0.18335,-5.17218 -0.18335,-10.90977 V 617.7427 l 0.69273,-0.69273 c 0.381,-0.381 1.02177,-0.69273 1.42394,-0.69273 0.40216,0 1.04293,0.31173 1.42393,0.69273 l 0.69273,0.69273 v 10.41699 c 0,9.94725 -0.0251,10.44895 -0.55763,11.12591 -0.70927,0.90168 -1.40086,1.07894 -2.46455,0.63169 z m 14.65958,-0.007 c -0.59129,-0.24862 -0.96056,-0.64366 -1.09229,-1.16851 -0.11983,-0.47742 0.49521,-6.12696 1.54582,-14.19942 1.94002,-14.90633 1.91695,-14.81763 3.85463,-14.81763 0.83616,0 1.19361,0.16828 1.64679,0.77526 l 0.57882,0.77527 -1.75873,13.61807 c -1.83222,14.18713 -1.93836,14.67364 -3.31194,15.18177 -0.32595,0.12057 -0.95212,0.05 -1.4631,-0.16481 z m 22.96426,-18.76641 c -0.44947,-0.1345 -1.16625,-0.57895 -1.59285,-0.98766 -0.77509,-0.74257 -0.88679,-1.05476 -1.94007,-5.42198 -0.98657,-4.09061 -2.78465,-5.88413 -6.89162,-6.87416 -4.34132,-1.04652 -4.65686,-1.15993 -5.40782,-1.94376 -1.42864,-1.49119 -1.41001,-3.94489 0.041,-5.39493 0.57181,-0.57144 1.37503,-0.93534 2.77973,-1.25936 4.83303,-1.11483 5.69756,-1.47062 7.18323,-2.9563 1.48487,-1.48487 1.84146,-2.35064 2.9536,-7.17117 0.5199,-2.25352 1.41349,-3.39848 2.98196,-3.82083 2.43168,-0.65478 4.46352,0.94033 5.06394,3.97547 0.91703,4.63567 1.89526,6.61139 3.94449,7.96671 0.66165,0.43759 2.24019,1.04565 3.50789,1.35124 4.33682,1.04544 4.65662,1.15969 5.39076,1.92597 1.58628,1.65571 1.48911,4.08703 -0.22343,5.59066 -0.7286,0.63972 -1.50434,0.9361 -3.45329,1.31938 -5.9283,1.16587 -7.67558,2.85942 -8.90448,8.63067 -0.70621,3.31655 -1.52831,4.58082 -3.29844,5.07247 -1.16865,0.32459 -1.04131,0.32474 -2.13457,-0.003 z m 1.65751,-8.09992 c 0.76484,-4.08555 4.69795,-8.098 9.01819,-9.2001 0.70721,-0.18041 1.28583,-0.45502 1.28583,-0.61024 0,-0.15523 -0.57862,-0.42983 -1.28583,-0.61024 -4.34337,-1.10801 -7.86876,-4.66483 -8.99346,-9.07363 -0.1856,-0.72754 -0.45615,-1.27539 -0.60123,-1.21745 -0.14508,0.0579 -0.46293,0.83285 -0.70633,1.72204 -0.60122,2.19636 -1.61165,3.83252 -3.42724,5.54963 -1.76482,1.66909 -2.84726,2.29116 -5.05598,2.90564 -0.87339,0.24298 -1.6112,0.56666 -1.63957,0.71928 -0.0284,0.15262 0.53539,0.42723 1.25278,0.61024 2.18205,0.55664 4.29947,1.80567 5.89263,3.47592 1.65745,1.73766 2.48109,3.14463 2.98108,5.09237 0.17908,0.69763 0.38194,1.43522 0.45079,1.63908 0.20857,0.61756 0.61776,0.12231 0.82834,-1.00254 z m -82.73406,7.43436 c -0.75572,-0.65004 -0.79047,-0.79616 -0.89155,-3.74931 -0.15402,-4.50009 0.62311,-5.91176 2.93504,-5.3315 1.19766,0.30059 1.59652,1.72629 1.48678,5.31434 -0.091,2.97474 -0.12177,3.10543 -0.88611,3.76233 -0.99837,0.85804 -1.65026,0.85906 -2.64416,0.004 z m 33.06934,-0.69535 c -1.73214,-1.06993 -1.75289,-1.11977 -3.36355,-8.07686 -0.58368,-2.52118 -1.90621,-4.72479 -3.69201,-6.1517 -1.89532,-1.51441 -3.04189,-1.967 -7.1921,-2.83892 -3.69281,-0.77583 -4.53067,-1.18505 -5.57845,-2.72456 -1.19916,-1.76193 -0.60171,-4.5756 1.23139,-5.79921 0.50207,-0.33514 2.41476,-0.91211 4.46303,-1.34631 4.25126,-0.90118 6.22893,-1.8001 7.90683,-3.59392 1.7773,-1.90007 2.55477,-3.64614 3.39456,-7.62358 0.40704,-1.92786 0.95928,-3.88775 1.2272,-4.3553 0.26792,-0.46756 1.05572,-1.14402 1.75067,-1.50325 2.13537,-1.10383 4.74739,-0.35416 5.78985,1.66173 0.23407,0.45263 0.75695,2.37937 1.16196,4.28164 0.8419,3.95426 1.60226,5.66087 3.35881,7.53876 1.66808,1.78331 3.63576,2.68366 7.77514,3.55763 1.90977,0.40323 3.81728,0.91153 4.2389,1.12956 2.00959,1.0392 2.85796,4.20856 1.61235,6.02343 -1.06429,1.55069 -1.88678,1.96814 -5.31781,2.69907 -4.42108,0.94185 -5.53998,1.36754 -7.34133,2.79307 -2.22111,1.7577 -3.24641,3.6471 -4.0899,7.53673 -0.89589,4.13128 -1.19981,5.05128 -1.93653,5.86223 -1.3671,1.50485 -3.79196,1.92243 -5.39901,0.92976 z m 2.68123,-5.89546 c 1.14227,-5.75027 2.40064,-8.39509 5.27344,-11.08358 2.19289,-2.0522 4.5627,-3.22293 7.99088,-3.94761 4.0589,-0.85801 4.05254,-0.85613 3.78027,-1.11668 -0.13887,-0.1329 -1.45899,-0.50087 -2.9336,-0.81772 -3.15298,-0.67747 -4.77941,-1.22227 -6.17792,-2.06939 -4.35016,-2.635 -6.4368,-5.95731 -7.80869,-12.4328 -0.25486,-1.20297 -0.56863,-2.18722 -0.69727,-2.18722 -0.12863,0 -0.38012,0.73025 -0.55885,1.62278 -1.28069,6.39515 -2.91693,9.41357 -6.55464,12.0915 -1.95313,1.43782 -3.81507,2.17368 -7.50156,2.96472 -1.50331,0.32258 -2.84691,0.69523 -2.98578,0.82813 -0.27227,0.26055 -0.27863,0.25867 3.78027,1.11668 3.5122,0.74245 5.82651,1.9099 8.17168,4.12222 2.78537,2.62757 3.95164,5.125 5.09439,10.90897 0.17633,0.89253 0.4296,1.62278 0.56281,1.62278 0.13322,0 0.38727,-0.73025 0.56457,-1.62278 z m -46.10539,-3.75993 c -0.93177,-0.73293 -1.01953,-2.2436 -0.17917,-3.08396 0.50655,-0.50655 0.94074,-0.56445 4.23333,-0.56445 3.29259,0 3.72678,0.0579 4.23333,0.56445 0.91723,0.91722 0.84948,2.11675 -0.17135,3.03389 -0.64865,0.58277 -0.98092,0.635 -4.03966,0.635 -2.94443,0 -3.41953,-0.0682 -4.07648,-0.58493 z m 15.24,0 c -0.93177,-0.73293 -1.01954,-2.2436 -0.17917,-3.08396 0.50655,-0.50655 0.94074,-0.56445 4.23333,-0.56445 3.29259,0 3.72678,0.0579 4.23333,0.56445 0.84036,0.84036 0.7526,2.35103 -0.17917,3.08396 -0.65631,0.51625 -1.13231,0.58493 -4.05416,0.58493 -2.92185,0 -3.39785,-0.0687 -4.05416,-0.58493 z m -4.88518,-4.88925 c -0.75572,-0.65005 -0.79047,-0.79617 -0.89155,-3.74932 -0.15349,-4.48452 0.62477,-5.91134 2.91131,-5.33745 1.25852,0.31586 1.61563,1.53665 1.51031,5.16301 -0.0914,3.14781 -0.11639,3.25834 -0.88591,3.91966 -0.99838,0.85799 -1.65027,0.859 -2.64416,0.004 z"
       id="path4071" /></g></svg>
