<?xml version="1.0" encoding="UTF-8" standalone="no"?>
<!-- Created with Inkscape (http://www.inkscape.org/) -->

<svg
   width="89.873169mm"
   height="135.44431mm"
   viewBox="0 0 89.873169 135.44431"
   version="1.1"
   id="svg5"
   xml:space="preserve"
   xmlns:inkscape="http://www.inkscape.org/namespaces/inkscape"
   xmlns:sodipodi="http://sodipodi.sourceforge.net/DTD/sodipodi-0.dtd"
   xmlns="http://www.w3.org/2000/svg"
   xmlns:svg="http://www.w3.org/2000/svg"><sodipodi:namedview
     id="namedview7"
     pagecolor="#ffffff"
     bordercolor="#000000"
     borderopacity="0.25"
     inkscape:showpageshadow="2"
     inkscape:pageopacity="0.0"
     inkscape:pagecheckerboard="0"
     inkscape:deskcolor="#d1d1d1"
     inkscape:document-units="mm"
     showgrid="false" /><defs
     id="defs2" /><g
     inkscape:label="Layer 1"
     inkscape:groupmode="layer"
     id="layer1"
     transform="translate(1231.4433,-440.70748)"><path
       style="fill:#080808;stroke-width:1"
       d="m -1193.9131,575.85211 c -10.843,-1.22716 -21.0348,-6.30225 -28.7073,-14.29508 -3.9481,-4.11292 -7.1356,-8.78298 -8.0882,-11.85002 -2.5723,-8.28221 1.8077,-16.93808 10.0726,-19.90553 1.4756,-0.52982 2.2081,-0.61612 5.1594,-0.6079 3.083,0.009 3.6232,0.0821 5.2113,0.70931 3.5778,1.41299 6.0802,3.49228 8.476,7.04271 2.3208,3.43925 4.8382,5.43909 8.4054,6.67721 1.3356,0.46358 2.3403,0.60177 4.4978,0.61858 3.1515,0.0246 4.5551,-0.29269 7.2761,-1.64464 3.5445,-1.76113 6.6862,-5.65804 7.829,-9.71078 0.5971,-2.11741 0.4616,-6.5126 -0.2651,-8.59896 -1.6286,-4.67589 -5.4255,-8.44632 -9.9342,-9.86487 -1.6215,-0.51018 -2.429,-0.58401 -6.2287,-0.56953 -5.1693,0.0197 -7.4454,0.4787 -11.5728,2.33369 -3.667,1.64808 -5.3675,2.0954 -8.0063,2.1061 -2.7366,0.0111 -4.5735,-0.3981 -7.0115,-1.56195 -3.2456,-1.54943 -5.8572,-4.15791 -7.4014,-7.3924 -1.2513,-2.62103 -1.5576,-4.31519 -1.3938,-7.70843 0.1568,-3.24981 7.5282,-48.01162 8.2727,-50.23532 1.2121,-3.6205 4.4098,-7.28426 7.8246,-8.96522 3.6438,-1.79366 3.3705,-1.77673 27.3177,-1.6931 l 21.4719,0.075 1.9843,0.76289 c 4.756,1.82843 8.2232,5.28396 9.7945,9.7615 0.7219,2.05695 0.9889,6.2874 0.535,8.47413 -0.8928,4.30054 -4.5508,8.96434 -8.5264,10.87081 -3.5065,1.68152 -4.1185,1.73866 -18.6768,1.74379 l -13.0373,0.005 -0.2175,0.59531 c -0.3643,0.9968 -1.4363,8.07658 -1.2833,8.47526 0.1088,0.28356 0.9908,0.41186 3.6728,0.53429 9.0829,0.41463 17.5356,3.32054 25.1532,8.64724 3.1641,2.21252 8.8168,7.86803 11.1112,11.11665 5.9785,8.46516 9.0338,18.82267 8.585,29.10416 -1.1909,27.28545 -25.2996,48.00628 -52.2999,44.95052 z m 12.3031,-8.29988 c 4.8769,-0.8743 10.3721,-3.14343 14.9489,-6.1729 3.0058,-1.98955 8.4334,-7.41479 10.4012,-10.39663 6.3941,-9.6892 8.3112,-20.85088 5.4722,-31.86147 -3.3143,-12.85413 -13.1688,-23.23871 -25.9275,-27.32227 -4.7459,-1.51898 -6.4161,-1.74084 -13.4426,-1.78571 -7.3263,-0.0468 -7.3421,-0.051 -8.4669,-2.292 l -0.6105,-1.21639 1.5768,-9.54906 c 1.6459,-9.96661 1.8494,-10.69276 3.3013,-11.77551 0.7346,-0.54781 1.0021,-0.55896 16.5365,-0.68911 14.369,-0.12039 15.8831,-0.17446 16.8277,-0.60093 1.6291,-0.73555 3.141,-2.12316 3.9968,-3.66833 0.6988,-1.26162 0.7861,-1.66911 0.7861,-3.66824 0,-1.84037 -0.1123,-2.46527 -0.6179,-3.43958 -0.867,-1.67056 -2.2702,-3.03815 -3.8516,-3.75397 l -1.3513,-0.61166 h -21.1667 -21.1666 l -1.2243,0.6032 c -1.6672,0.8214 -3.0943,2.26939 -3.8211,3.8771 -0.8785,1.94313 -8.4134,47.37478 -8.272,49.87597 0.2336,4.13415 3.1149,6.90462 7.3983,7.11387 1.913,0.0934 2.1618,0.0362 4.7625,-1.09482 5.5709,-2.42286 8.4025,-3.07338 14.3031,-3.28596 6.0267,-0.21713 9.6118,0.49801 13.6646,2.72568 12.6013,6.92658 16.054,23.05115 7.3962,34.54104 -6.6191,8.78418 -18.7061,11.68266 -28.6368,6.86719 -3.8865,-1.8846 -7.0241,-4.70885 -9.8691,-8.88369 -2.047,-3.00382 -4.4626,-4.28371 -7.6129,-4.03362 -4.1941,0.33296 -7.1243,3.56706 -7.1304,7.87008 0,1.66052 0.119,2.22187 0.744,3.43958 1.9107,3.72305 6.7548,9.25327 10.429,11.90625 5.7456,4.14859 12.4184,6.86424 18.8081,7.65434 2.7589,0.34114 8.9172,0.14701 11.8149,-0.37245 z"
       id="path4069" /></g></svg>
