<?xml version="1.0" encoding="UTF-8" standalone="no"?>
<!-- Created with Inkscape (http://www.inkscape.org/) -->

<svg
   width="135.16357mm"
   height="144.45886mm"
   viewBox="0 0 135.16357 144.45886"
   version="1.1"
   id="svg5"
   xml:space="preserve"
   xmlns:inkscape="http://www.inkscape.org/namespaces/inkscape"
   xmlns:sodipodi="http://sodipodi.sourceforge.net/DTD/sodipodi-0.dtd"
   xmlns="http://www.w3.org/2000/svg"
   xmlns:svg="http://www.w3.org/2000/svg"><sodipodi:namedview
     id="namedview7"
     pagecolor="#ffffff"
     bordercolor="#000000"
     borderopacity="0.25"
     inkscape:showpageshadow="2"
     inkscape:pageopacity="0.0"
     inkscape:pagecheckerboard="0"
     inkscape:deskcolor="#d1d1d1"
     inkscape:document-units="mm"
     showgrid="false" /><defs
     id="defs2" /><g
     inkscape:label="Layer 1"
     inkscape:groupmode="layer"
     id="layer1"
     transform="translate(1339.8297,-154.72747)"><path
       style="fill:#0f0f0f;stroke-width:1"
       d="m -1337.0062,298.55134 c -1.577,-0.80581 -2.1857,-1.65945 -2.543,-3.5663 -0.3756,-2.00368 -0.3725,-27.46687 0,-31.43428 0.3398,-3.58316 1.2632,-6.6988 2.738,-9.23775 1.3034,-2.24383 5.3034,-6.28045 7.5338,-7.60261 0.9003,-0.53372 6.9887,-3.04773 13.5299,-5.5867 6.5411,-2.53898 13.3852,-5.1969 15.2091,-5.90651 l 3.3161,-1.29019 v -3.49558 -3.49558 l -2.1226,-2.01624 c -3.4818,-3.30739 -5.279,-6.38554 -6.4839,-11.10548 l -0.6484,-2.54 -1.4206,-0.31804 c -3.2508,-0.72779 -5.8257,-2.67878 -7.2765,-5.51337 -0.5961,-1.16459 -0.7997,-2.02663 -0.8975,-3.79939 -0.1443,-2.61636 0.1532,-3.81994 1.4546,-5.88385 l 0.8849,-1.40354 0.1729,-7.34535 c 0.1598,-6.78701 0.2294,-7.54499 0.916,-9.97182 2.4436,-8.6363 8.1503,-15.44635 16.1726,-19.29935 17.8273,-8.56219 38.7208,1.92363 42.6955,21.42758 0.477,2.34104 0.5797,3.90359 0.5797,8.8256 v 5.9809 l 0.9739,1.59476 c 1.25,2.04678 1.6747,3.81716 1.5004,6.25417 -0.3112,4.34957 -3.2471,7.74988 -7.7583,8.98566 l -1.9115,0.52363 -0.6338,2.47796 c -1.1424,4.46585 -3.3316,8.19841 -6.6783,11.38653 l -1.5791,1.50429 v 3.47059 c 0,2.44252 0.1045,3.55158 0.3528,3.74398 0.3982,0.30862 12.1914,4.87573 12.5901,4.87573 0.1416,0 0.9386,-0.65003 1.7711,-1.44451 4.2678,-4.07261 10.4702,-7.29897 14.9417,-7.77244 1.4753,-0.1562 1.6133,-0.11756 2.1873,0.61206 1.2096,1.53782 0.5234,2.95773 -1.7009,3.51967 -6.8144,1.72154 -12.1118,5.33771 -15.7188,10.73036 -3.0798,4.60424 -4.454,9.57303 -4.1759,15.09819 0.63,12.51604 10.2656,22.67686 22.5675,23.79776 4.7436,0.43222 8.9979,-0.28836 13.1476,-2.22687 8.4849,-3.96366 13.8847,-11.99818 14.3528,-21.35609 0.3862,-7.72017 -2.1912,-14.25589 -7.7199,-19.57595 -3.1815,-3.06133 -6.1428,-4.7226 -10.7874,-6.05159 -3.4519,-0.98771 -4.4417,-2.22388 -3.1231,-3.90031 0.831,-1.05638 2.254,-0.97599 6.113,0.34531 9.1798,3.14317 16.1343,10.48953 18.8732,19.93663 1.0516,3.62726 1.2581,9.83448 0.4554,13.68778 -2.1297,10.22282 -9.3979,18.53001 -19.2532,22.00513 l -2.1166,0.74637 -0.1411,4.49925 c -0.1638,5.21996 -0.4966,6.12284 -2.6398,7.16033 l -1.2073,0.58447 h -52.6267 -52.6266 z m 16.9276,-16.58055 c 0.078,-7.06262 0.2434,-13.04616 0.3683,-13.29678 0.125,-0.25061 0.5586,-0.60664 0.9636,-0.79116 0.9142,-0.41656 2.1094,0.006 2.5842,0.91266 0.225,0.42989 0.3431,4.45892 0.3905,13.31639 l 0.068,12.7 10.0011,0.0742 c 5.5006,0.0408 10.0933,-0.0227 10.2061,-0.14111 0.1127,-0.11844 1.436,-7.49272 2.9407,-16.38729 l 2.7357,-16.17196 -1.0208,-1.53749 c -0.5615,-0.84561 -1.1148,-1.53695 -1.2296,-1.5363 -0.1149,5.6e-4 -0.8438,0.32661 -1.6199,0.72437 -1.0952,0.5613 -1.6572,0.68518 -2.5103,0.5534 -2.1124,-0.32631 -2.4449,-0.78921 -6.7979,-9.46271 -2.2486,-4.48043 -4.1856,-8.20531 -4.3045,-8.2775 -0.3524,-0.21397 -18.0826,6.76382 -19.7509,7.77302 -3.1938,1.93209 -6.149,5.51798 -7.4571,9.0487 -0.6477,1.74799 -0.6511,1.83327 -0.7417,18.24089 -0.05,9.06658 -0.025,16.65694 0.056,16.86748 0.1196,0.31148 1.5283,0.36877 7.5623,0.30753 l 7.4154,-0.0752 z m 44.4825,12.57593 c 0.086,-0.22345 -0.2358,-2.7062 -0.7145,-5.51721 -0.7889,-4.63241 -0.8317,-5.1857 -0.4574,-5.90952 0.6823,-1.3194 1.9487,-1.52989 3.0939,-0.5142 0.6398,0.56747 0.8085,1.19018 1.5867,5.85611 0.4789,2.87161 0.9866,5.50686 1.1282,5.85611 l 0.2574,0.635 h 9.8493 c 8.1755,0 9.9059,-0.0683 10.1827,-0.40176 0.2388,-0.28777 0.3086,-2.0192 0.2462,-6.10267 l -0.087,-5.70092 -0.9878,-0.74025 c -6.1891,-4.63819 -10.4498,-11.83197 -11.5783,-19.54901 -0.4601,-3.1458 -0.2126,-8.11726 0.5585,-11.2207 0.3239,-1.30336 0.5303,-2.42827 0.4588,-2.49979 -0.072,-0.0715 -1.2672,2.13786 -2.657,4.90974 -2.5563,5.0983 -3.2149,6.02914 -4.6509,6.57323 -1.2081,0.45772 -1.9585,0.36815 -3.4182,-0.40797 -0.7334,-0.38995 -1.4492,-0.63747 -1.5906,-0.55005 -0.6358,0.39292 -1.9578,2.70709 -1.9575,3.42655 10e-5,0.4377 0.3811,2.99889 0.8466,5.69153 1.057,6.11404 1.0639,6.60448 0.1028,7.36047 -0.8506,0.66903 -1.2077,0.71248 -2.1874,0.2661 -0.9501,-0.4329 -1.1585,-1.08697 -2.0117,-6.31339 -1.0201,-6.24938 -0.7432,-5.82476 -3.7346,-5.726 l -2.4705,0.0816 -2.5871,15.23427 c -1.423,8.37885 -2.5267,15.33209 -2.4528,15.45166 0.074,0.11957 3.4963,0.2174 7.6054,0.2174 6.2413,0 7.4968,-0.0669 7.627,-0.40629 z m 44.3925,0.0131 c 0.2158,-0.26005 0.2992,-1.47253 0.2462,-3.58101 l -0.08,-3.18785 -3.2455,-0.0661 c -3.543,-0.0722 -6.6389,-0.61448 -9.5939,-1.68042 -1.0474,-0.37783 -1.9843,-0.68697 -2.082,-0.68697 -0.2387,0 -0.2284,9.16835 0.011,9.40741 0.1035,0.10348 3.3899,0.18815 7.3032,0.18815 5.7376,0 7.1782,-0.0761 7.4414,-0.39318 z m -47.7411,-36.39818 c 0.5045,-0.75485 0.9172,-1.52728 0.9172,-1.71653 0,-0.18924 -1.1499,-1.13965 -2.5555,-2.11203 l -2.5554,-1.76796 -1.184,0.77991 c -0.6512,0.42895 -1.8516,1.27136 -2.6675,1.87203 -1.475,1.08574 -1.4812,1.09678 -1.0686,1.89462 0.2282,0.44139 0.7518,1.20277 1.1634,1.69196 l 0.7484,0.88944 3.1424,-0.0795 3.1424,-0.0795 z m -12.0323,-5.34974 c 2.1108,-1.49514 3.9968,-2.91001 4.1911,-3.14416 0.2969,-0.35767 -0.1128,-1.00176 -2.5624,-4.02858 -5.0688,-6.26323 -5.8997,-7.25222 -6.2543,-7.44426 -0.5187,-0.28091 -7.1022,2.38498 -7.2051,2.91762 -0.047,0.24413 1.5155,3.64458 3.4727,7.55657 2.8358,5.66799 3.6562,7.08717 4.0394,6.98698 0.2644,-0.0692 2.2078,-1.34903 4.3186,-2.84417 z m 24.0909,-4.41279 c 2.0096,-4.02874 3.5535,-7.42599 3.4308,-7.54945 -0.1226,-0.12345 -1.7688,-0.81632 -3.6581,-1.53971 -2.6793,-1.02582 -3.522,-1.24352 -3.8295,-0.98929 -0.9702,0.80196 -8.7937,10.75756 -8.7196,11.09588 0.1042,0.47602 8.1158,6.27519 8.6949,6.29381 0.2822,0.009 1.6704,-2.47757 4.0815,-7.31124 z m -13.775,-5.02224 c 1.2342,-1.51342 3.3476,-4.11802 4.6966,-5.788 l 2.4526,-3.03632 v -2.53756 c 0,-1.84383 -0.096,-2.53658 -0.3528,-2.53396 -0.194,0.002 -1.3688,0.34573 -2.6106,0.76389 -2.0811,0.70081 -2.611,0.75997 -6.7733,0.75624 -4.0294,-0.004 -4.7658,-0.0812 -6.8402,-0.72049 -1.2786,-0.39404 -2.3899,-0.65131 -2.4695,-0.5717 -0.08,0.0796 -0.1447,1.23627 -0.1447,2.57034 v 2.42559 l 2.8571,3.52459 c 5.0461,6.22511 6.4674,7.89905 6.7067,7.89905 0.1288,0 1.244,-1.23825 2.4781,-2.75167 z m 3.057,-17.27398 c 5.4429,-1.71348 9.9134,-6.01421 11.8782,-11.4271 1.0069,-2.774 1.2451,-5.70753 1.2451,-15.33508 v -8.84374 l -1.4699,-1.60588 c -3.1165,-3.40505 -4.878,-5.13366 -5.2312,-5.13366 -0.2021,0 -1.3619,0.5778 -2.5773,1.284 -7.083,4.11554 -15.274,6.42038 -24.3422,6.84957 l -4.0561,0.19198 v 9.87778 9.87778 l 0.7951,2.25507 c 1.733,4.9148 4.8747,8.54014 9.2936,10.72426 1.4343,0.70893 3.4333,1.47327 4.4422,1.69853 2.6363,0.5886 7.4693,0.38912 10.0189,-0.41351 z m -28.9278,-24.99765 c 0,-6.1797 -0.012,-6.21388 -1.8814,-5.26033 -2.2904,1.16848 -3.4808,2.97132 -3.4808,5.27136 0,2.60204 2.3932,5.46833 4.5861,5.49257 l 0.7761,0.009 z m 49.3672,4.43375 c 1.5478,-1.25093 2.1289,-2.45544 2.134,-4.4232 0.01,-2.82519 -1.8168,-5.30937 -4.1802,-5.69288 l -1.0366,-0.16822 v 5.71829 5.7183 l 1.0366,-0.16822 c 0.5702,-0.0925 1.4909,-0.53536 2.0462,-0.98407 z m -49.858,-14.62597 c 0.2733,-0.077 0.6815,-0.49691 0.9071,-0.93309 0.2255,-0.43617 0.782,-1.10602 1.2366,-1.48854 0.7881,-0.66311 1.0546,-0.70349 5.7252,-0.86722 9.7007,-0.34008 16.6083,-2.34204 24.9318,-7.22579 2.1589,-1.26669 3.7549,-1.49987 5.1691,-0.7552 0.7502,0.39508 4.9776,4.78584 7.3238,7.60703 0.6598,0.79328 1.2789,1.8651 1.3758,2.38182 0.1868,0.9958 0.9125,1.46317 2.2718,1.46317 h 0.7181 l -0.1327,-5.15055 c -0.105,-4.07206 -0.2598,-5.62332 -0.7394,-7.40833 -1.9478,-7.24979 -6.948,-13.45305 -13.5057,-16.75533 -13.6977,-6.89773 -30.3768,-0.4656 -35.922,13.85296 -1.3087,3.37923 -1.6909,5.8879 -1.6909,11.09734 v 4.69098 l 0.9172,-0.1846 c 0.5044,-0.10153 1.1408,-0.24762 1.4142,-0.32465 z m 68.9296,89.07801 c -11.3367,-2.25489 -19.3923,-13.4433 -17.6625,-24.53145 0.8089,-5.18566 2.796,-9.07662 6.4999,-12.72793 4.8095,-4.74118 11.0772,-6.91721 17.7678,-6.16867 5.177,0.5792 9.205,2.59083 13.1628,6.57366 2.1421,2.15558 2.7635,2.99964 3.8654,5.24967 1.6505,3.37031 2.1737,5.32536 2.3821,8.90154 0.6217,10.66819 -6.8171,20.34645 -17.3552,22.57986 -2.0124,0.42652 -6.7936,0.4946 -8.6603,0.12332 z m 8.4358,-4.50348 c 5.934,-1.51766 10.8104,-6.1026 12.6153,-11.86124 2.9773,-9.4994 -2.8997,-19.98564 -12.5731,-22.43422 -2.1923,-0.55492 -6.5203,-0.54629 -8.6954,0.0173 -10.7469,2.78481 -16.3671,14.66616 -11.643,24.6138 3.6885,7.76705 12.084,11.76466 20.2962,9.66432 z m -6.4602,-10.49296 c -0.3104,-0.16934 -1.8027,-1.52835 -3.3161,-3.02001 -2.4995,-2.46355 -2.7517,-2.80814 -2.7517,-3.75975 0,-0.76265 0.1707,-1.16713 0.6273,-1.48696 1.2223,-0.85615 2.0784,-0.56977 4.1705,1.39511 1.0743,1.00894 2.0368,1.83444 2.139,1.83444 0.1021,0 2.0578,-1.83461 4.346,-4.07691 4.0726,-3.99091 5.0067,-4.63213 6.1977,-4.25413 0.9363,0.29718 1.544,1.72621 1.1444,2.69106 -0.3395,0.81948 -9.8213,10.09136 -10.9158,10.67402 -0.7468,0.39761 -0.9175,0.39794 -1.6413,0.003 z"
       id="path4067" /></g></svg>
