<?xml version="1.0" encoding="UTF-8" standalone="no"?>
<!-- Created with Inkscape (http://www.inkscape.org/) -->

<svg
   width="135.19879mm"
   height="135.42633mm"
   viewBox="0 0 135.19879 135.42633"
   version="1.1"
   id="svg5"
   xml:space="preserve"
   xmlns:inkscape="http://www.inkscape.org/namespaces/inkscape"
   xmlns:sodipodi="http://sodipodi.sourceforge.net/DTD/sodipodi-0.dtd"
   xmlns="http://www.w3.org/2000/svg"
   xmlns:svg="http://www.w3.org/2000/svg"><sodipodi:namedview
     id="namedview7"
     pagecolor="#ffffff"
     bordercolor="#000000"
     borderopacity="0.25"
     inkscape:showpageshadow="2"
     inkscape:pageopacity="0.0"
     inkscape:pagecheckerboard="0"
     inkscape:deskcolor="#d1d1d1"
     inkscape:document-units="mm"
     showgrid="false" /><defs
     id="defs2" /><g
     inkscape:label="Layer 1"
     inkscape:groupmode="layer"
     id="layer1"
     transform="translate(1134.4983,-64.79077)"><path
       style="fill:#0f0f0f;stroke-width:1"
       d="m -1123.4161,199.96565 c -3.3375,-0.6762 -6.8389,-3.08899 -8.8473,-6.09652 -2.866,-4.29182 -2.9893,-10.59974 -0.2903,-14.85342 0.9753,-1.53723 0.9862,-1.84235 0.1317,-3.7088 -1.1053,-2.41419 -2.0108,-6.3889 -2.0613,-9.04816 -0.044,-2.29004 0,-2.4674 1.0426,-4.63021 1.9036,-3.93504 5.5145,-8.24865 11.1525,-13.32302 6.507,-5.85641 7.4057,-6.40907 10.0788,-6.19748 1.2391,0.0981 2.5699,0.64357 7.8187,3.20477 3.479,1.69761 6.5483,3.08657 6.8206,3.08657 0.2723,0 1.2094,-0.36056 2.0824,-0.80123 0.8729,-0.44068 2.684,-1.1687 4.0246,-1.61783 2.103,-0.70458 2.7141,-0.80057 4.4553,-0.69977 2.3655,0.13693 3.7363,0.80864 5.4548,2.673 1.5176,1.64643 1.9857,2.68253 2.1313,4.71713 0.1549,2.16518 -0.5112,4.55633 -2.2136,7.94599 -0.642,1.27832 -1.1673,2.48765 -1.1673,2.68741 0,0.19976 1.487,3.40107 3.3044,7.11404 l 3.3043,6.75083 1.6566,0.32726 c 0.9111,0.18 3.4861,0.40812 5.7221,0.50695 4.0182,0.1776 4.0728,0.1882 4.6963,0.91312 0.7937,0.92263 0.7967,1.54004 0.012,2.45222 -0.6166,0.71673 -0.6314,0.71928 -3.9027,0.67067 -1.806,-0.0268 -4.5314,-0.23383 -6.0563,-0.45998 l -2.7725,-0.41119 -0.7993,1.00774 c -4.1672,5.25389 -11.4294,12.56288 -14.7555,14.85067 -1.1186,0.7694 -2.8414,1.78143 -3.8284,2.24896 -1.6659,0.78908 -1.9844,0.84828 -4.4404,0.82547 -2.9372,-0.0273 -5.6037,-0.61554 -8.8403,-1.9502 -1.0715,-0.44184 -2.0429,-0.80335 -2.1588,-0.80335 -0.1158,0 -0.784,0.35475 -1.4849,0.78834 -2.7718,1.71467 -7.0644,2.47955 -10.2702,1.83002 z m 5.3615,-4.05374 c 2.5222,-0.67143 5.2092,-2.74478 5.8951,-4.5488 0.3405,-0.89564 0.3176,-3.69115 -0.041,-4.99603 -0.4483,-1.63132 -2.0136,-4.69103 -3.5109,-6.86276 -1.7706,-2.56811 -5.1321,-6.4987 -5.5578,-6.4987 -0.6293,0 -7.4613,7.2089 -8.184,8.6355 -3.876,7.65091 3.1627,16.46323 11.3986,14.27079 z m 20.8795,-0.52845 c 2.3712,-1.29098 4.9644,-3.42416 8.6967,-7.15402 5.2376,-5.23422 8.0571,-8.65809 8.0571,-9.78426 0,-0.57727 -1.0022,-2.91884 -2.9494,-6.89147 l -2.9494,-6.01711 -1.8793,0.18205 c -1.0335,0.10013 -1.9818,0.28185 -2.1072,0.40382 -0.1265,0.12313 0.441,2.36684 1.2762,5.04486 0.9275,2.9743 1.4448,5.05904 1.3495,5.43858 -0.2004,0.79876 -5.5627,7.27715 -6.3873,7.7168 -0.7924,0.42251 -1.8552,0.17181 -2.3666,-0.55827 -0.7936,-1.13298 -0.5023,-1.84033 1.9906,-4.83481 1.3097,-1.57321 2.3793,-3.04368 2.377,-3.26771 0,-0.22404 -0.9165,-0.99429 -2.0315,-1.71169 -5.3931,-3.46989 -11.8092,-10.03162 -14.8013,-15.13736 -0.3717,-0.63419 -0.8273,-1.15308 -1.0125,-1.15308 -0.1852,0 -1.6324,1.0698 -3.216,2.37732 -2.3762,1.96196 -3.0374,2.37801 -3.7845,2.38125 -0.4978,0.002 -1.1229,-0.19311 -1.389,-0.43395 -0.6172,-0.55852 -0.6282,-1.98014 -0.021,-2.69223 0.5133,-0.60186 5.6684,-4.9139 6.629,-5.54492 0.9085,-0.59679 1.6279,-0.48335 6.3619,1.00316 2.3791,0.74708 4.4787,1.29962 4.6657,1.22787 0.267,-0.10246 0.9304,-2.7501 0.9304,-3.71336 0,-0.34128 -12.2796,-6.24188 -12.995,-6.24438 -0.8038,-0.003 -1.2557,0.32219 -4.9967,3.59351 -5.2282,4.57183 -10.6407,10.53852 -11.9787,13.20511 -0.8155,1.62518 -0.9799,2.78275 -0.6906,4.86268 0.3066,2.20409 1.4228,6.00346 1.8394,6.26095 0.1465,0.0905 1.6608,-1.19538 3.3653,-2.85752 l 3.099,-3.02206 3.3209,-0.0416 c 3.5022,-0.0438 5.4616,0.2936 7.3757,1.27008 0.9108,0.46466 1.2036,0.49019 2.6664,0.23253 1.9704,-0.34707 3.2835,-0.0423 4.2476,0.98599 0.5959,0.63553 0.6481,0.90578 0.6771,3.51018 0.026,2.33908 0.1494,3.13837 0.7208,4.67372 0.542,1.45615 0.6908,2.33814 0.6961,4.12576 0.011,3.75292 -1.1923,6.38064 -4.3472,9.49124 -0.8067,0.79539 -1.4668,1.59051 -1.4668,1.76693 0,0.38197 2.1991,1.23798 4.2334,1.64786 0.8003,0.16126 1.6933,0.34705 1.9843,0.41287 1.2559,0.284 3.5675,-0.0791 4.8098,-0.75537 z m -9.7775,-9.21482 c 0.3567,-0.65289 0.4698,-1.46497 0.4698,-3.37343 0,-2.33283 -0.064,-2.63651 -0.8846,-4.22382 -0.8211,-1.58732 -0.8719,-1.82986 -0.7066,-3.37344 0.1978,-1.84636 0.2214,-1.82553 -1.5624,-1.37635 -1.0402,0.26192 -1.2742,0.21862 -2.6969,-0.49898 -1.8002,-0.90807 -3.4811,-1.42358 -3.6661,-1.12433 -0.07,0.11395 0.4751,0.95867 1.2122,1.87715 3.1363,3.90788 5.3037,7.69529 6.3216,11.04627 0.3185,1.04875 0.6836,1.90683 0.8112,1.90683 0.1276,0 0.4434,-0.38695 0.7018,-0.8599 z m 12.7729,-17.69855 c 0,-0.16621 -0.2545,-1.14848 -0.5657,-2.18282 -0.3112,-1.03433 -0.6386,-2.5347 -0.7276,-3.33416 l -0.1619,-1.45356 -1.5875,-0.28738 c -0.8731,-0.15806 -2.5121,-0.56368 -3.6423,-0.90136 -1.1301,-0.33769 -2.1287,-0.54002 -2.2191,-0.44962 -0.3738,0.37374 3.8647,4.99787 7.1555,7.80663 1.3313,1.13631 1.7486,1.32779 1.7486,0.80227 z m 5.424,-6.7267 c 0.8731,-0.0996 1.7758,-0.27876 2.0059,-0.39802 0.9535,-0.49419 3.4181,-6.31073 3.4181,-8.06697 0,-0.51124 -0.1338,-0.91027 -0.3052,-0.91027 -0.389,0 -6.1265,5.61616 -7.1359,6.98501 -1.037,1.4061 -1.029,2.99034 0.014,2.69091 0.2288,-0.0657 1.1304,-0.20102 2.0035,-0.30066 z m -1.745,-8.43491 c 3.2446,-3.22347 3.7689,-3.85221 3.3471,-4.01407 -0.8535,-0.32753 -3.2961,0.36265 -5.9441,1.6796 l -2.5372,1.26182 -0.3183,1.71979 c -0.1751,0.94589 -0.324,2.04722 -0.3308,2.4474 -0.011,0.66424 0.073,0.7276 0.9619,0.7276 0.9,0 1.267,-0.291 4.8214,-3.82214 z m 52.1481,46.5579 c -7.3931,-1.40912 -15.5994,-5.41255 -19.6324,-9.57754 -1.8571,-1.91795 -1.7988,-1.34988 -1.7988,-17.5355 0,-10.66265 0.087,-14.88144 0.3246,-15.77038 l 0.3246,-1.2136 -3.8664,-3.75114 c -3.1484,-3.05454 -3.9289,-3.95996 -4.203,-4.87562 -0.6392,-2.1358 -0.2293,-2.79961 5.003,-8.1025 6.1378,-6.22054 6.8431,-6.78031 8.5437,-6.78031 0.7242,0 1.5767,0.1332 1.8945,0.296 0.3179,0.1628 2.3091,2.00414 4.425,4.09187 l 3.8471,3.79586 1.2882,-0.3877 c 1.0264,-0.30889 3.1869,-0.38769 10.6295,-0.38769 h 9.3414 l 0.34,-0.59532 c 0.479,-0.8385 0.4846,-12.24887 0.01,-13.08484 -0.3333,-0.58262 -0.3448,-0.58337 -10.1865,-0.66146 -9.5039,-0.0754 -9.8903,-0.0983 -10.9112,-0.64774 -0.5821,-0.31326 -1.3188,-0.84904 -1.6372,-1.19062 -0.8287,-0.88908 -1.6577,-2.84764 -1.6628,-3.92836 -0.01,-2.13404 0.4503,-2.91183 3.6592,-6.18283 1.6942,-1.72706 3.4635,-3.30464 3.9318,-3.50573 1.0975,-0.47131 3.0228,-0.46748 4.1615,0.008 0.4921,0.20563 1.603,1.02497 2.4686,1.82074 l 1.5738,1.44686 2.0208,-0.40209 c 1.5425,-0.30693 2.0208,-0.50579 2.0208,-0.84021 0,-0.64371 -3.046,-5.48845 -5.0054,-7.96142 -2.2114,-2.79081 -5.9956,-6.356148 -9.0048,-8.483917 -2.6451,-1.870273 -6.2653,-3.936981 -6.9054,-3.942185 -0.2793,-0.0024 -1.3051,1.950251 -3.211,6.111962 l -2.8006,6.1153 0.7636,1.6841 c 0.8142,1.7957 0.9969,3.69342 0.4852,5.03934 -0.4696,1.23518 -5.7368,6.37538 -7.0447,6.87488 -3.3996,1.29831 -7.9481,-1.75771 -8.4762,-5.69497 -0.092,-0.68868 0.8105,-4.50372 3.2142,-13.580651 3.6984,-13.966596 3.8067,-14.324773 4.756,-15.721757 2.0154,-2.965989 8.4208,-9.418114 12.1947,-12.283709 7.0662,-5.365517 13.5693,-6.542873 21.2911,-3.854659 l 1.9765,0.688087 2.3891,-0.764742 c 8.7088,-2.787631 15.6476,-1.201061 19.8776,4.545083 2.90116,3.940898 3.43501,9.648091 1.4989,16.023926 -0.8488,2.795327 -0.8471,3.296945 0.02,6.063762 1.02709,3.275991 1.3273,6.097272 0.98166,9.22573 -0.30091,2.72368 -1.31676,6.90291 -2.05336,8.44758 -0.5666,1.18808 -1.7377,1.69261 -2.6892,1.15854 -1.1708,-0.65714 -1.2712,-1.50331 -0.4895,-4.12576 1.2891,-4.32478 1.6306,-7.470784 1.1647,-10.729858 -0.2583,-1.807504 -0.6656,-1.949074 -1.5394,-0.535154 -1.0266,1.661017 -4.4999,5.894182 -6.9378,8.455552 l -2.3131,2.43029 -1.0763,3.25825 c -0.592,1.79204 -1.2844,3.47734 -1.5388,3.74511 -0.2674,0.28161 -1.3416,0.67236 -2.5478,0.92687 l -2.0855,0.44 v 2.90959 2.90959 l 4.2829,0.0726 4.2829,0.0726 0.977,-0.85788 c 0.5374,-0.47183 1.6178,-1.77221 2.4009,-2.88973 1.4473,-2.06557 1.7929,-2.35076 2.8485,-2.35076 0.7745,0 1.7442,1.04709 1.7442,1.88348 0,1.37951 -3.6724,6.22865 -5.5562,7.33651 -1.054,0.61984 -1.5247,0.71094 -4.1011,0.79365 l -2.9104,0.0934 v 7.09084 7.09083 l 2.9104,0.0934 c 2.5764,0.0827 3.0471,0.17381 4.1011,0.79365 2.0497,1.20545 5.1356,5.43249 7.407,10.14603 4.34275,9.01188 4.94637,16.93305 1.8517,24.29864 -0.4356,1.0368 -0.7921,2.09157 -0.7921,2.34393 0,0.25237 0.3615,1.02853 0.8033,1.72481 1.93355,3.04742 2.49957,7.88833 1.34368,11.49208 -1.94038,6.04963 -8.11798,10.19558 -14.39958,9.66387 -2.2412,-0.1897 -4.5783,-0.93885 -6.3519,-2.03603 -0.7009,-0.43359 -1.3691,-0.78834 -1.485,-0.78834 -0.1158,0 -1.0873,0.36151 -2.1587,0.80335 -4.5231,1.86517 -9.8138,2.51357 -13.9997,1.71574 z m 9.4323,-4.35621 c 2.2585,-0.63428 3.2677,-1.06916 3.2677,-1.40805 0,-0.1374 -1.3863,-1.69587 -3.0807,-3.46326 -5.9905,-6.24868 -8.2964,-10.64593 -8.2964,-15.82113 0,-1.125 -0.1109,-2.11404 -0.2466,-2.19787 -0.1356,-0.0838 -1.2369,0.50747 -2.4474,1.31399 -1.2104,0.80652 -3.0634,1.90987 -4.1178,2.4519 -1.6916,0.86956 -1.9173,1.07314 -1.9183,1.7305 0,1.38359 0.4009,1.70659 3.2116,2.57392 2.9712,0.91689 3.931,1.61705 3.931,2.86756 0,0.83516 -1.0136,1.88331 -1.8213,1.88331 -0.82,0 -7.7732,-2.45084 -8.2196,-2.89722 -0.3031,-0.30304 -0.824,-2.34582 -1.5942,-6.25094 -0.6292,-3.19044 -1.2639,-5.95447 -1.4103,-6.14228 -0.1841,-0.23604 -0.8459,-0.31774 -2.1433,-0.26459 l -1.8769,0.0769 -0.07,8.4379 -0.07,8.4379 1.1173,1.06288 c 1.5642,1.48794 5.0777,3.72628 7.9597,5.0709 6.6543,3.10453 12.728,3.9692 17.8253,2.53767 z m 19.8027,-0.24002 c 5.1271,-2.39927 7.1778,-8.20279 4.7626,-13.47833 -0.5272,-1.15161 -1.5175,-2.32457 -4.3103,-5.10561 -3.1577,-3.14437 -3.8308,-3.68675 -5.2133,-4.20095 -2.2922,-0.85253 -4.4393,-0.66234 -7.2121,0.63885 -1.925,0.90336 -2.1889,0.9623 -3.1335,0.70002 -1.7478,-0.48527 -1.7553,-0.4786 -1.557,1.37382 0.1653,1.54358 0.1145,1.78612 -0.7065,3.37344 -0.8213,1.5878 -0.8846,1.89028 -0.8839,4.22382 5e-4,2.14292 0.094,2.68909 0.6343,3.70416 0.8195,1.53997 6.6513,7.37816 8.3421,8.35117 2.9202,1.68054 6.2602,1.83161 9.2776,0.41961 z m -21.5758,-16.77442 c 0.5327,-1.36057 0.6371,-2.05194 0.5893,-3.90093 -0.053,-2.02954 -0.131,-2.33718 -0.8091,-3.175 -1.5952,-1.97091 -2.2698,-0.82076 -2.0943,3.5702 0.079,1.96588 0.2515,2.96881 0.6728,3.9026 0.3118,0.69123 0.663,1.25677 0.7804,1.25677 0.1174,0 0.5048,-0.74414 0.8609,-1.65364 z m 26.3098,-6.76835 c 1.3664,-4.32522 1.4089,-7.7891 0.1545,-12.57832 -1.379,-5.26506 -4.431,-11.15977 -7.3411,-14.17893 l -1.2925,-1.34092 -8.3132,0.07 -8.3131,0.07 v 2.11666 2.11667 l 6.0475,1.22619 c 4.4038,0.89293 6.1765,1.36035 6.5225,1.71979 0.634,0.65884 2.9557,7.85664 2.7347,8.478 -0.3305,0.92882 -0.961,1.40831 -1.852,1.40831 -1.2746,0 -1.7653,-0.64783 -2.7308,-3.6053 -0.9089,-2.78433 -1.5325,-3.61422 -2.619,-3.48548 -0.5372,0.0637 -0.935,0.5495 -2.0149,2.46057 -0.74,1.30969 -1.847,3.11886 -2.46,4.02038 -0.613,0.90152 -1.1145,1.6877 -1.1145,1.74707 0,0.0594 1.1013,0.1765 2.4474,0.26032 5.6726,0.3532 9.1674,2.31721 15.9921,8.9874 1.6287,1.59186 3.0835,2.81873 3.2329,2.72639 0.1494,-0.0923 0.5632,-1.09078 0.9195,-2.21876 z m -36.0755,-2.13811 c 3.009,-2.12535 6.7934,-5.68977 9.0074,-8.48392 1.9765,-2.49446 5.0054,-7.31969 5.0054,-7.97394 0,-0.35021 -0.4146,-0.52473 -1.8601,-0.78307 l -1.8601,-0.33242 -1.308,1.46753 c -0.813,0.91219 -1.7361,1.63587 -2.4394,1.91238 -0.8105,0.3187 -2.3183,1.62196 -5.3168,4.59555 -3.4316,3.40314 -4.3186,4.44069 -4.9246,5.76081 -0.5014,1.09207 -1.1416,1.94333 -1.9899,2.64583 l -1.2508,1.03573 0.1617,1.41689 c 0.089,0.77928 0.286,1.64924 0.438,1.93322 0.2649,0.49508 0.3517,0.47487 2.1057,-0.49084 1.0062,-0.55395 2.9104,-1.77064 4.2315,-2.70375 z m 18.9076,-0.62962 c 0.8731,-0.35551 1.8256,-0.73019 2.1166,-0.83264 l 0.5292,-0.18626 -0.5292,-0.38963 c -0.985,-0.72527 -3.3882,-1.26747 -5.5562,-1.25357 -2.0932,0.0134 -4.3656,0.45355 -4.3656,0.84554 0,0.11136 0.4222,0.61279 0.9383,1.11428 0.7648,0.74307 1.2666,0.96738 2.712,1.2122 2.047,0.34671 2.0527,0.346 4.1549,-0.50992 z m -27.4033,-3.48486 c 0.8632,-0.44642 1.0772,-0.8781 1.0772,-2.17315 0,-0.82218 -0.289,-1.21666 -2.5047,-3.41794 -2.2138,-2.19948 -2.6133,-2.48849 -3.4396,-2.48849 -0.5821,0 -1.1345,0.19968 -1.464,0.52916 -0.4763,0.47625 -0.5292,0.88195 -0.5292,4.05695 0,1.94028 0.079,3.60715 0.1764,3.70416 0.3639,0.36389 5.9109,0.18903 6.6839,-0.21069 z m 6.6675,-7.99517 c 1.291,-1.26326 2.3462,-2.48365 2.3449,-2.71198 0,-0.22833 -1.2006,-1.60577 -2.665,-3.06097 -1.4645,-1.45521 -2.8595,-3.00302 -3.1001,-3.43959 -0.2972,-0.53924 -0.4411,-1.45157 -0.4488,-2.84536 l -0.011,-2.05162 -3.4308,-3.43849 c -1.887,-1.89116 -3.6125,-3.43848 -3.8344,-3.43848 -0.2219,0 -2.5439,2.14294 -5.16,4.7621 l -4.7566,4.76211 3.6683,3.67528 3.6682,3.67528 1.8947,-0.0288 c 2.4512,-0.0373 3.4042,0.5129 6.7646,3.90521 1.3795,1.3927 2.5557,2.53219 2.6137,2.53219 0.058,0 1.1617,-1.03358 2.4526,-2.29684 z m 7.2809,-6.02838 c 1.0233,-0.71671 1.4163,-2.01894 1.4163,-4.69258 0,-1.58139 -0.1156,-2.60238 -0.3175,-2.80428 -0.4157,-0.41578 -6.2877,-0.43096 -7.1928,-0.0186 -0.7566,0.34474 -1.3421,1.54828 -1.1096,2.28091 0.088,0.27618 1.332,1.65418 2.7651,3.06221 2.7226,2.67487 3.3104,2.96255 4.4385,2.17234 z m 9.0363,-30.35686 c 0.3893,-0.38925 0.4339,-4.34183 0.052,-4.57803 -0.1462,-0.0904 -1.5165,0.0889 -3.0451,0.39833 -1.5287,0.30943 -3.0192,0.48646 -3.3124,0.3934 -0.2932,-0.0931 -0.9942,-0.79335 -1.5578,-1.5562 -1.103,-1.49307 -2.0924,-2.2775 -2.8726,-2.2775 -0.5925,0 -5.6151,5.04399 -5.6151,5.63903 0,0.72798 0.5668,1.70437 1.1546,1.98901 0.847,0.41009 14.7859,0.40271 15.1966,-0.008 z m -32.1762,-9.68661 c 1.6053,-1.60531 2.3312,-2.52423 2.3312,-2.95114 0,-0.34097 -0.4167,-1.3651 -0.926,-2.27586 -0.5093,-0.91075 -0.9261,-1.88799 -0.9261,-2.17164 0,-0.28365 0.3572,-1.30349 0.7938,-2.26631 0.4366,-0.96281 0.7937,-1.919098 0.7937,-2.125076 0,-0.528979 -3.7208,-1.543675 -4.1347,-1.127583 -0.3619,0.363799 -3.359,11.649719 -3.3606,12.655019 -5e-4,0.39242 0.1675,0.91773 0.3736,1.16735 0.4882,0.59111 1.8576,1.42418 2.3432,1.42544 0.2094,5.3e-4 1.4298,-1.04805 2.7119,-2.3302 z m 38.2133,-0.65128 c 0.1665,-0.17865 0.6888,-1.50035 1.1607,-2.93711 0.8437,-2.56879 0.9035,-2.6613 3.5894,-5.55625 7.7328,-8.33442 10.9798,-14.100619 11.7303,-20.83083 0.6325,-5.672445 -1.291,-9.591354 -5.7427,-11.70032 -1.7048,-0.807621 -1.8949,-0.838533 -4.9479,-0.804518 -3.4714,0.03868 -6.1154,0.648376 -9.5344,2.198623 -3.298,1.495386 -7.9715,4.835352 -12.0291,8.596706 -3.664,3.396473 -8.4667,8.208866 -8.4629,8.479909 0,0.244818 2.4153,1.723761 2.811,1.723761 0.093,0 1.8009,-1.605571 3.7958,-3.567937 2.7491,-2.704352 3.9925,-3.735285 5.1372,-4.259342 2.0492,-0.938145 4.699,-1.096683 8.9092,-0.53304 1.8083,0.242084 3.8236,0.505941 4.4784,0.58635 1.4034,0.17232 2.384,0.970648 2.3746,1.933111 0,0.374816 0.2588,2.615314 0.5832,4.978885 0.989,7.204287 0.4545,8.761452 -4.9015,14.278062 l -3.4633,3.56712 1.0227,1.89329 c 0.5625,1.04131 1.1473,2.05238 1.2996,2.24683 0.3192,0.40749 1.7103,0.22116 2.1897,-0.2933 z m -3.6732,-10.57311 c 1.6394,-1.634736 2.9807,-3.114288 2.9807,-3.287894 0,-0.173607 -0.6558,-0.615908 -1.4574,-0.98289 -1.3478,-0.617014 -1.579,-0.64584 -3.0713,-0.382961 -1.9391,0.341551 -3.2597,0.03124 -4.2184,-0.99115 -0.599,-0.638829 -0.6465,-0.892286 -0.6582,-3.51018 -0.014,-3.034253 -0.5124,-4.80601 -1.3534,-4.80601 -0.4945,0 -6.1746,5.493901 -6.1746,5.972156 0,0.172755 0.5655,0.768826 1.2567,1.324607 2.0406,1.640742 6.0884,5.654164 7.7845,7.718342 0.8668,1.05502 1.6559,1.91823 1.7534,1.91823 0.098,0 1.5186,-1.33751 3.158,-2.97225 z m -28.8051,-8.114101 1.491,-3.281138 6.5246,-6.284236 c 6.6079,-6.364521 9.8186,-9.19587 13.0124,-11.474898 0.9691,-0.69153 1.762,-1.360543 1.762,-1.486697 0,-0.385751 -1.8556,-0.650639 -4.4979,-0.642101 -4.0262,0.01301 -7.3819,1.472973 -12.0652,5.249192 -2.6541,2.14001 -9.4361,9.127267 -10.2817,10.59283 -0.7033,1.218824 -2.8089,8.956591 -2.5509,9.374021 0.1976,0.319619 3.9095,1.348571 4.6213,1.281001 0.3593,-0.03411 0.8984,-0.93826 1.9844,-3.327974 z m 32.5813,-0.489172 c 0,-1.193528 -0.5997,-4.937496 -0.8469,-5.262416 -0.1262,-0.165813 -1.208,-0.437765 -2.4041,-0.604338 -1.1961,-0.166573 -2.5021,-0.367789 -2.9023,-0.447148 -0.6015,-0.119272 -0.7276,-0.05152 -0.7276,0.390777 0,0.294286 0.2517,0.961617 0.5593,1.482957 0.481,0.815305 0.5336,1.187507 0.3758,2.660957 -0.2037,1.901652 -0.2311,1.876536 1.5589,1.425799 1.0228,-0.257538 1.2745,-0.21774 2.4323,0.384556 1.6622,0.864725 1.9525,0.8601 1.9546,-0.03114 z m -95.8177,45.463373 c -0.6223,-0.50604 -0.6245,-0.52918 -0.5961,-6.05806 l 0.029,-5.55007 -2.939,-0.0943 c -2.6066,-0.0837 -3.0736,-0.17354 -4.1296,-0.79456 -2.8963,-1.70332 -7.3962,-8.91226 -9.4713,-15.17311 -2.3892,-7.2088 -2.3257,-13.02183 0.2116,-19.358367 0.4361,-1.089318 0.793,-2.14604 0.793,-2.348273 0,-0.202232 -0.3614,-0.937376 -0.8032,-1.633654 -1.9336,-3.047423 -2.4996,-7.888336 -1.3437,-11.492087 1.946,-6.067092 8.1155,-10.195288 14.4379,-9.660848 2.3697,0.200315 5.0361,1.135012 6.9001,2.418794 0.7676,0.528666 2.9862,2.591686 4.9302,4.584488 3.9452,4.044246 4.9753,5.697698 5.5248,8.868381 0.3411,1.967613 0.063,4.204194 -0.7447,5.999688 -0.2843,0.631645 -0.4234,1.772863 -0.4377,3.589774 -0.019,2.383138 -0.09,2.764879 -0.6779,3.623923 -0.3613,0.528103 -1.1352,1.234424 -1.7198,1.569598 -0.9078,0.520497 -1.391,0.601999 -3.3118,0.558594 -1.8055,-0.0408 -2.6043,0.07659 -4.0507,0.595312 -3.1097,1.115224 -6.8339,0.77782 -9.7077,-0.87949 -0.6548,-0.377659 -2.172,-1.625185 -3.3715,-2.772286 -1.1995,-1.147098 -2.2972,-2.013802 -2.4392,-1.926008 -0.4166,0.257432 -1.5297,4.086074 -1.8431,6.33934 -0.6509,4.679841 1.3236,12.591651 3.4688,13.899561 1.913,1.16627 5.4231,0.46709 6.9872,-1.39179 0.6293,-0.74785 0.6789,-0.96028 0.505,-2.1622 -0.2847,-1.96723 -0.2364,-2.49891 0.2787,-3.06811 0.6039,-0.66731 2.0721,-0.67659 2.7314,-0.0173 0.2731,0.27305 0.8826,1.67203 1.3545,3.10886 0.4719,1.43682 0.9927,2.75682 1.1572,2.93333 0.1646,0.17651 0.7057,0.35511 1.2026,0.39688 0.8819,0.0741 0.9357,0.0192 2.2589,-2.30531 4.801,-8.43384 11.2612,-15.00757 19.0627,-19.397681 3.5612,-2.004001 3.464,-1.908195 3.1649,-3.119613 l -0.2545,-1.030613 -2.8944,-0.959122 c -3.0925,-1.02473 -3.8525,-1.594369 -3.8525,-2.887444 0,-1.038014 1.1662,-1.937435 2.2451,-1.73155 2.6305,0.501985 2.6436,0.501071 3.5341,-0.2483 1.1017,-0.926969 1.8187,-2.344534 2.0436,-4.040075 0.1446,-1.089428 0.068,-1.571297 -0.4012,-2.541558 -0.7094,-1.465339 -2.0744,-2.206859 -5.9664,-3.24118 -2.262,-0.601155 -3.2152,-0.706898 -6.5718,-0.729039 -3.7917,-0.02501 -3.9432,-0.04726 -4.4317,-0.650522 -0.5839,-0.721064 -0.6214,-1.081289 -0.2069,-1.990876 0.4916,-1.079003 1.5996,-1.354564 5.3896,-1.340342 2.8325,0.01063 3.9507,0.140354 6.3356,0.734974 6.3287,1.577922 12.7308,4.814105 16.6996,8.441347 2.1097,1.928095 2.3299,2.460727 2.4915,6.024313 l 0.1379,3.042708 1.0583,-0.02798 c 0.5821,-0.01539 2.3584,-0.06355 3.9473,-0.107021 2.856,-0.07814 2.8959,-0.07088 3.5057,0.638044 0.7772,0.903549 0.7793,1.527521 0.01,2.424085 -0.5828,0.677566 -0.7649,0.717842 -4.2792,0.946452 -2.0188,0.131323 -3.8284,0.369866 -4.0215,0.530094 -0.2616,0.217097 -0.351,1.251767 -0.351,4.060825 v 3.769497 l 1.0494,1.318054 c 3.6887,4.632713 3.8189,9.768993 0.3362,13.253683 -1.2654,1.26614 -3.323,2.33174 -4.9832,2.5807 -0.9688,0.14528 -1.5109,0.58707 -4.9602,4.04207 -3.682,3.68817 -3.8925,3.95604 -4.2806,5.44604 -1.0539,4.04609 -3.6012,6.52929 -7.1987,7.01748 -2.8472,0.38637 -5.4283,-0.39198 -8.1774,-2.46594 l -1.6238,-1.22504 h -3.857 c -3.701,0 -3.8695,0.0235 -4.1679,0.58107 -0.1898,0.35456 -0.3633,2.48883 -0.4451,5.4749 -0.128,4.66879 -0.1622,4.9219 -0.7446,5.50434 -0.7436,0.74351 -1.6882,0.78189 -2.5235,0.10254 z m 22.5305,-12.42131 c 1.2055,-0.64581 1.3771,-1.35821 0.327,-1.35821 -2.4705,0 -5.3437,-2.09676 -5.8998,-4.30554 -0.1745,-0.69284 -0.3978,-1.30953 -0.4964,-1.37042 -0.099,-0.0609 -3.9698,-0.73517 -8.6027,-1.49838 -7.4191,-1.22217 -8.5152,-1.46467 -9.1911,-2.0334 -0.6972,-0.5867 -0.8088,-0.60844 -1.2204,-0.23781 -0.8895,0.80099 -3.143,1.74688 -4.7959,2.01308 -0.9242,0.14883 -1.7486,0.33891 -1.8321,0.4224 -0.2617,0.26173 0.7213,1.81445 2.1851,3.45142 l 1.4078,1.57427 9.5289,0.0756 9.5289,0.0756 1.5474,1.35408 c 0.851,0.74474 2.0256,1.57131 2.61,1.83683 1.4122,0.64153 3.7063,0.64177 4.9033,5.3e-4 z m 2.0292,-5.60993 c 0.8057,-0.30608 8.9185,-8.18649 10.1684,-9.87704 1.0325,-1.39663 1.0632,-3.05747 0.075,-4.04598 l -0.6882,-0.68819 -6.6529,6.65291 c -7.1207,7.12066 -7.0805,7.06219 -5.4385,7.90664 0.7859,0.4042 1.5667,0.4201 2.5365,0.0517 z m -2e-4,-10.89568 5.5887,-5.62239 -0.8582,-5.095029 c -0.472,-2.802263 -0.9451,-5.181983 -1.0514,-5.288264 -0.2781,-0.278106 -3.0782,1.279814 -5.9789,3.326519 -3.0448,2.148369 -7.8432,6.827564 -9.9638,9.716184 -2.2563,3.07352 -4.1847,6.44685 -3.867,6.76454 0.2661,0.26611 8.2846,1.74208 9.74,1.79286 0.7058,0.0246 1.4717,-0.64586 6.3906,-5.59442 z m 16.3596,-1.86038 c 1.2028,-2.02709 0.453,-4.9746 -1.9435,-7.639196 l -1.2357,-1.373889 -0.1323,-9.642077 -0.1323,-9.642077 -1.0583,-0.924547 c -1.5255,-1.332656 -3.6251,-2.716677 -3.8812,-2.558405 -0.1209,0.07473 -0.2198,0.473489 -0.2198,0.886135 0,1.13612 -0.9601,3.989863 -1.7129,5.091447 -0.8022,1.173971 -0.7978,1.114329 -0.1467,2.009125 0.3966,0.544957 0.8432,2.684013 1.8622,8.918974 0.7372,4.511145 1.4315,8.370027 1.5427,8.575291 0.1113,0.205269 0.761,0.536139 1.444,0.735279 2.0432,0.59576 4.1325,3.19124 4.1486,5.15373 0.014,1.68647 0.609,1.85308 1.4652,0.41021 z m -38.3252,-13.920518 1.8957,-0.879226 1.3724,0.455842 c 1.0628,0.353029 1.5155,0.390634 2.0069,0.166727 0.7247,-0.330189 0.7564,-0.604551 0.3164,-2.735058 -0.3034,-1.468798 -0.2842,-1.609577 0.4115,-3.028277 0.4014,-0.818327 0.833,-2.03731 0.9591,-2.70885 0.2287,-1.218131 -0.057,-3.638786 -0.4796,-4.061309 -0.1172,-0.117198 -0.681,0.237332 -1.2529,0.787843 -0.5718,0.550511 -1.3213,1.181842 -1.6654,1.402957 -0.4657,0.299208 -0.6835,0.767403 -0.8516,1.830648 -0.4644,2.937796 -2.6786,5.144577 -5.4967,5.478342 -1.265,0.149821 -1.4574,0.265381 -2.1725,1.304746 -0.4316,0.627202 -1.0363,1.316666 -1.344,1.532143 -0.6755,0.473175 -0.4986,1.127022 0.354,1.308102 1.6878,0.358469 4.0691,0.01625 5.9467,-0.85463 z m -8.8842,-3.542094 c 0.5904,-0.453267 1.0354,-1.365062 1.0354,-2.121323 0,-0.353744 0.2553,-0.96775 0.5674,-1.364458 0.6004,-0.763248 0.5607,-0.760287 3.4598,-0.258221 0.8643,0.149669 1.0857,0.06929 1.8131,-0.658096 0.8668,-0.866738 0.8932,-1.12274 0.3715,-3.597035 -0.2175,-1.031801 0.6681,-2.245056 1.6388,-2.245056 2.1239,0 3.4254,-1.796162 2.5849,-3.567397 -0.654,-1.378085 -3.8727,-4.23218 -5.8964,-5.228455 -1.5838,-0.779731 -1.9762,-0.861315 -4.1366,-0.860122 -2.1296,0.0012 -2.5779,0.0917 -4.1597,0.839892 -5.1961,2.457739 -7.271,8.214439 -4.8593,13.482197 0.4374,0.955412 1.4185,2.218626 2.8624,3.685443 2.0324,2.064644 2.2756,2.231144 3.2479,2.22336 0.5781,-0.0046 1.2399,-0.153456 1.4708,-0.330729 z"
       id="path4065" /></g></svg>
