<?xml version="1.0" encoding="UTF-8" standalone="no"?>
<!-- Created with Inkscape (http://www.inkscape.org/) -->

<svg
   width="90.986938mm"
   height="118.39476mm"
   viewBox="0 0 90.986938 118.39476"
   version="1.1"
   id="svg5"
   xml:space="preserve"
   xmlns:inkscape="http://www.inkscape.org/namespaces/inkscape"
   xmlns:sodipodi="http://sodipodi.sourceforge.net/DTD/sodipodi-0.dtd"
   xmlns="http://www.w3.org/2000/svg"
   xmlns:svg="http://www.w3.org/2000/svg"><sodipodi:namedview
     id="namedview7"
     pagecolor="#ffffff"
     bordercolor="#000000"
     borderopacity="0.25"
     inkscape:showpageshadow="2"
     inkscape:pageopacity="0.0"
     inkscape:pagecheckerboard="0"
     inkscape:deskcolor="#d1d1d1"
     inkscape:document-units="mm"
     showgrid="false" /><defs
     id="defs2" /><g
     inkscape:label="Layer 1"
     inkscape:groupmode="layer"
     id="layer1"
     transform="translate(873.01174,93.284635)"><path
       style="fill:#0f0f0f;stroke-width:1"
       d="m -869.00411,24.806984 c -1.23455,-0.35534 -3.28585,-2.48704 -3.68427,-3.82867 -0.24409,-0.82191 -0.32341,-6.77948 -0.32341,-24.2886599 0,-19.8437501 0.056,-23.3079101 0.38709,-23.9481801 0.65694,-1.27038 2.15392,-1.47072 3.19681,-0.42782 l 0.64943,0.64943 V -3.7295359 19.577854 l 0.65543,0.65542 0.65542,0.65543 4.83468,-0.0721 4.83468,-0.0721 0.13229,-9.39271 c 0.12656,-8.9860299 0.15702,-9.4385299 0.70338,-10.45103987 0.66823,-1.23837 1.70468,-2.25603003 3.00079,-2.94636003 0.79782,-0.42493 1.67706,-0.50566 6.35,-0.58306 3.39619,-0.0563 5.92912,0.0219 6.77518,0.20894 1.79831,0.39765 3.27444,1.53082003 4.22183,3.24094003 l 0.77695,1.40245997 0.13229,9.2604099 0.13229,9.26042 h 5.29167 5.29166 l 0.0724,-44.45 c 0.0398,-24.4475 0.0129,-44.69747 -0.0598,-44.99995 -0.27891,-1.16024 -0.4593,-1.16984 -21.99749,-1.16984 h -20.50478 l -0.64943,0.64944 -0.64944,0.64943 v 17.34223 c 0,16.91499 -0.0129,17.35511 -0.52243,17.86467 -1.0818,1.08179 -2.4739,0.92919 -3.32128,-0.36409 -0.35418,-0.54054 -0.39506,-2.80416 -0.33073,-18.31308 0.0728,-17.54114 0.0784,-17.70558 0.64296,-18.75464 0.66004,-1.22644 1.43673,-1.98705 2.73773,-2.68103 0.88267,-0.47083 1.95469,-0.49397 22.88646,-0.49397 19.94801,0 22.03366,0.0402 22.75966,0.43846 1.10501,0.60619 2.20263,1.75154 2.79923,2.92097 0.47387,0.92886 0.50257,1.74066 0.50257,14.21551 0,12.80972 0.0163,13.23911 0.51177,13.50429 0.58152,0.31122 4.23308,0.36704 4.67086,0.0714 0.15831,-0.10692 0.43245,-0.77792 0.60919,-1.49113 0.59029,-2.38205 1.41729,-3.42697 3.67647,-4.64522 l 1.24733,-0.67262 1.52297,-6.18386 1.52296,-6.18385 -0.95336,-1.05526 c -1.27463,-1.41086 -1.69569,-2.513 -1.69569,-4.43845 0,-3.53838 2.58846,-6.06747 6.2177,-6.07508 4.48758,-0.009 7.4947,4.83588 5.49581,8.85525 -0.2171,0.43656 -0.80365,1.22093 -1.30343,1.74303 l -0.90868,0.94928 1.54682,6.19447 1.54682,6.19447 1.23367,0.67262 c 2.23844,1.22044 3.37685,2.6941 3.78215,4.89593 0.1059,0.57532 0.3242,1.1335 0.48511,1.24042 0.16091,0.10691 1.25146,0.19621 2.42343,0.19843 1.76657,0.003 2.37005,0.12325 3.52996,0.70126 1.69729,0.84579 2.79968,2.27408 3.20383,4.15098 0.20945,0.9727 0.27118,9.61078 0.21304,29.8122301 l -0.0819,28.4427099 -0.58619,1.09605 c -0.7414,1.38628 -2.41487,2.82948 -3.74198,3.22709 -0.56607,0.1696 -2.68304,0.30707 -4.72882,0.30707 -3.34654,0 -3.77121,-0.0529 -4.40108,-0.54837 -0.53773,-0.42298 -0.69714,-0.78159 -0.69714,-1.5683 0,-0.78671 0.15941,-1.14532 0.69714,-1.5683 0.62597,-0.49238 1.05667,-0.54837 4.21858,-0.54837 3.34099,0 3.55948,-0.0327 4.2638,-0.63851 l 0.74236,-0.63851 0.0739,-27.8703399 c 0.0406,-15.3286901 0.008,-28.1412601 -0.0729,-28.4723901 -0.0807,-0.33112 -0.38184,-0.83714 -0.66918,-1.12448 -0.50894,-0.50893 -0.94553,-0.52243 -16.8983,-0.52243 -14.68856,0 -16.3924,0.0431 -16.53645,0.41851 -0.20991,0.54701 -0.20991,57.88263 0,58.42964 0.14214,0.37042 1.2077,0.41851 9.27244,0.41851 h 9.11184 l 0.64943,0.64944 c 0.8592,0.85919 0.8592,2.07527 0,2.93446 l -0.64943,0.64944 -33.0188,-0.0239 c -20.3504,-0.0147 -33.35915,-0.12182 -33.9059,-0.2792 z m 28.74229,-12.66152 c 0.0407,-4.7294199 0.007,-8.8746899 -0.0756,-9.2116999 -0.28649,-1.17424 -1.53481,-1.41226 -6.93091,-1.32153 l -4.88836,0.0822 -0.63799,0.74236 -0.63799,0.74236 v 8.6723999 c 0,4.76982 0.0815,8.75384 0.18099,8.85338 0.0995,0.0995 3.04633,0.14915 6.54843,0.11024 l 6.36746,-0.0707 z m 43.70814,-55.02986 c 0.63031,-0.33734 0.42622,-1.16592 -0.45862,-1.86193 -0.61559,-0.48423 -1.08864,-0.52279 -6.41408,-0.52279 -5.41595,0 -5.78991,0.0318 -6.44661,0.54837 -0.73119,0.57516 -0.94358,1.68935 -0.36641,1.92224 0.63606,0.25665 13.19291,0.17785 13.68572,-0.0859 z m -4.95497,-6.94727 c 0.0942,-0.28261 -0.37267,-2.38052 -1.41348,-6.35151 -0.14304,-0.5457 -0.35979,-0.99219 -0.48169,-0.99219 -0.23656,0 -1.87464,6.23624 -1.87464,7.13681 0,0.48675 0.16849,0.53611 1.83003,0.53611 1.22436,0 1.86636,-0.10896 1.93978,-0.32922 z m -0.52867,-16.27954 c 0.63517,-0.55775 0.59892,-2.04077 -0.0661,-2.70582 -1.52229,-1.5223 -3.92624,0.48318 -2.89312,2.41357 0.55373,1.03464 1.9561,1.17314 2.95926,0.29225 z m -12.15353,75.0843701 c -1.02554,-0.42126 -1.14178,-1.07499 -1.14178,-6.42147 v -5.13065 l 0.68245,-0.64144 0.68244,-0.64143 9.89414,-0.0782 c 6.62755,-0.0523 10.25239,0.0183 10.97924,0.21403 1.70574,0.4593 1.89878,1.20306 1.79349,6.91012 -0.0829,4.49423 -0.11509,4.74246 -0.68939,5.31647 l -0.60242,0.60212 -10.51008,0.0539 c -5.78054,0.0297 -10.77018,-0.0529 -11.08809,-0.18351 z m 18.38194,-6.28655 0.0768,-2.18280997 h -7.68362 -7.68361 V 2.5763741 c 0,1.13991 0.0812,2.15376 0.18042,2.25299 0.0992,0.0992 3.52228,0.14885 7.60677,0.11025 l 7.42635,-0.0702 z m -67.55762,-12.35725 c -0.64532,-0.6453101 -0.64943,-0.6822401 -0.64943,-5.8328501 0,-6.96737 -0.48507,-6.4823 6.48229,-6.4823 5.15062,0 5.18754,0.004 5.83286,0.64944 0.64532,0.64532 0.64943,0.68224 0.64943,5.83286 0,6.9673601 0.48508,6.4822901 -6.48229,6.4822901 -5.15061,0 -5.18754,-0.004 -5.83286,-0.64944 z m 7.94953,-5.8328501 v -2.11667 h -2.11667 -2.11666 l -0.0792,1.82583 c -0.11313,2.60985 -0.14453,2.5753 2.25795,2.48485 l 2.05453,-0.0774 z m 13.70694,5.8443201 -0.74236,-0.6379601 -0.0837,-4.69797 c -0.0914,-5.12717 -0.0259,-5.69045 0.75191,-6.46825 0.48536,-0.48536 0.89794,-0.52244 5.8141,-0.52244 7.08449,0 6.69793,-0.41157 6.56601,6.99069 l -0.0837,4.69797 -0.74236,0.6379601 c -0.72787,0.62552 -0.83991,0.63797 -5.73994,0.63797 -4.90003,0 -5.01206,-0.0125 -5.73993,-0.63797 z m 7.96058,-4.0138801 c 0.208,-0.54203 0.208,-3.11886 0,-3.66089 -0.12741,-0.33204 -0.58623,-0.41851 -2.22065,-0.41851 -2.35535,0 -2.38125,0.0245 -2.38125,2.24896 0,2.2245 0.0259,2.24895 2.38125,2.24895 1.63442,0 2.09324,-0.0865 2.22065,-0.41851 z m 19.11399,-0.65902 -0.69714,-0.54837 v -5.38555 -5.38555 l 0.69714,-0.54837 c 0.67902,-0.53412 0.97364,-0.54838 11.33096,-0.54838 h 10.63383 l 0.64143,0.68278 c 0.6336,0.67443 0.64143,0.74582 0.64143,5.84374 v 5.16097 l -0.74235,0.63855 -0.74236,0.63855 h -10.5329 c -10.25522,0 -10.55128,-0.0145 -11.23004,-0.54837 z m 18.88203,-5.93798 v -2.25302 l -7.60677,0.0702 -7.60677,0.0702 -0.0792,1.82583 c -0.0435,1.00421 -0.0175,1.98648 0.0579,2.18282 0.11053,0.28804 1.59478,0.35697 7.68591,0.35697 h 7.54893 z m -67.12072,-9.65508 c -1.02171,-0.41165 -1.14178,-1.07367 -1.14178,-6.29508 0,-4.66663 0.0375,-5.05642 0.54837,-5.70593 l 0.54837,-0.69714 h 5.38555 5.38555 l 0.54837,0.69714 c 0.512,0.65089 0.54837,1.03782 0.54837,5.83285 0,6.89639 0.44555,6.44047 -6.27182,6.41782 -2.73513,-0.009 -5.23307,-0.12157 -5.55098,-0.24966 z m 7.45718,-6.21586 v -2.11667 h -2.11667 -2.11666 l -0.0792,1.82583 c -0.11313,2.60985 -0.14453,2.5753 2.25795,2.48485 l 2.05453,-0.0773 z m 13.70694,5.84432 -0.74236,-0.63796 -0.0837,-4.69797 c -0.0914,-5.12717 -0.0259,-5.69045 0.75191,-6.46825 0.48536,-0.48536 0.89794,-0.52243 5.8141,-0.52243 7.08449,0 6.69793,-0.41157 6.56601,6.99068 l -0.0837,4.69797 -0.74236,0.63796 c -0.72787,0.62552 -0.83991,0.63797 -5.73994,0.63797 -4.90003,0 -5.01206,-0.0125 -5.73993,-0.63797 z m 7.80368,-3.91286 c 0.32817,-0.32818 0.44056,-3.02272 0.1569,-3.76191 -0.12741,-0.33204 -0.58623,-0.41851 -2.22065,-0.41851 -1.63442,0 -2.09323,0.0865 -2.22065,0.41851 -0.28365,0.73919 -0.17127,3.43373 0.1569,3.76191 0.18281,0.1828 1.05834,0.3175 2.06375,0.3175 1.00542,0 1.88095,-0.1347 2.06375,-0.3175 z m -28.91895,-16.39219 c -1.13533,-0.62098 -1.19063,-0.90952 -1.19063,-6.21259 0,-5.00346 0.0113,-5.10725 0.63855,-5.83641 l 0.63855,-0.74235 h 5.20519 5.2052 l 0.63854,0.74235 c 0.62621,0.72801 0.63855,0.83885 0.63855,5.73305 0,2.74488 -0.074,5.18342 -0.16435,5.41899 -0.38313,0.99841 -1.47331,1.2028 -6.37094,1.19443 -2.89486,-0.005 -4.91339,-0.11956 -5.23866,-0.29747 z m 7.48518,-6.24292 0.0768,-2.18281 h -2.25966 -2.25966 v 2.07257 c 0,1.13991 0.0839,2.15651 0.18655,2.25911 0.10259,0.1026 1.08486,0.15221 2.18281,0.11024 l 1.99627,-0.0763 z m 13.63009,5.91045 -0.74236,-0.63799 -0.0823,-4.90013 c -0.11924,-7.09768 -0.16354,-7.05011 6.5646,-7.05011 6.72815,0 6.68384,-0.0476 6.56461,7.05011 l -0.0823,4.90013 -0.74236,0.63799 c -0.72788,0.62554 -0.83985,0.63799 -5.73994,0.63799 -4.90009,0 -5.01205,-0.0124 -5.73993,-0.63799 z m 7.80368,-3.91284 c 0.32817,-0.32817 0.44056,-3.02272 0.1569,-3.7619 -0.12741,-0.33205 -0.58623,-0.41852 -2.22065,-0.41852 -1.63442,0 -2.09323,0.0865 -2.22065,0.41852 -0.28365,0.73918 -0.17127,3.43373 0.1569,3.7619 0.18281,0.1828 1.05834,0.3175 2.06375,0.3175 1.00542,0 1.88095,-0.1347 2.06375,-0.3175 z m 24.66119,-20.97931 c -0.90142,-0.95952 -0.8128,-2.067656 0.25332,-3.167617 2.58558,-2.667643 7.66746,-2.852743 10.80358,-0.393505 1.48143,1.161689 1.76138,2.536682 0.72706,3.571002 -0.86529,0.86529 -1.86256,0.82013 -3.29298,-0.14914 -1.73217,-1.17373 -3.46945,-1.16527 -5.34117,0.026 -1.48593,0.94575 -2.33889,0.97641 -3.14981,0.11323 z m -3.35663,-4.142885 c -0.75016,-0.376005 -1.22144,-1.541255 -0.99241,-2.45378 0.36274,-1.44527 4.05458,-3.808806 7.05393,-4.515963 3.27369,-0.771839 6.14649,-0.377031 9.63033,1.323493 3.368,1.643983 4.6517,3.802305 3.15291,5.301094 -0.82409,0.824091 -1.6783,0.823345 -2.81717,-0.0025 -2.97443,-2.1568 -5.62312,-3.038895 -7.95788,-2.650221 -1.86025,0.30968 -3.75758,1.126799 -4.91319,2.115951 -1.19327,1.021399 -2.27514,1.323658 -3.15652,0.881887 z m -3.65685,-4.492767 c -0.83544,-0.467052 -1.19062,-1.057176 -1.19062,-1.978202 0,-1.787344 4.98781,-5.219288 9.26041,-6.371772 2.32533,-0.627229 7.17669,-0.630839 9.525,-0.0071 4.16803,1.107101 9.26042,4.561519 9.26042,6.281796 0,1.110856 -0.24644,1.55767 -1.10362,2.000934 -0.99712,0.515632 -1.58798,0.316198 -3.37434,-1.138962 -3.59525,-2.928669 -8.09535,-4.072223 -12.40993,-3.153579 -2.5212,0.536803 -4.26715,1.357291 -6.43755,3.025245 -1.93534,1.487318 -2.72934,1.789105 -3.52977,1.341627 z"
       id="path4063" /></g></svg>
