<?xml version="1.0" encoding="UTF-8" standalone="no"?>
<!-- Created with Inkscape (http://www.inkscape.org/) -->

<svg
   width="110mm"
   height="110mm"
   viewBox="0 0 110 110"
   version="1.1"
   id="svg6247"
   xml:space="preserve"
   inkscape:version="1.2.1 (9c6d41e, 2022-07-14)"
   sodipodi:docname="qrcode_tel03.svg"
   xmlns:inkscape="http://www.inkscape.org/namespaces/inkscape"
   xmlns:sodipodi="http://sodipodi.sourceforge.net/DTD/sodipodi-0.dtd"
   xmlns="http://www.w3.org/2000/svg"
   xmlns:svg="http://www.w3.org/2000/svg"><sodipodi:namedview
     id="namedview6249"
     pagecolor="#ffffff"
     bordercolor="#000000"
     borderopacity="0.25"
     inkscape:showpageshadow="2"
     inkscape:pageopacity="0.0"
     inkscape:pagecheckerboard="0"
     inkscape:deskcolor="#d1d1d1"
     inkscape:document-units="mm"
     showgrid="false"
     inkscape:zoom="1.0708779"
     inkscape:cx="227.38353"
     inkscape:cy="271.73966"
     inkscape:window-width="1920"
     inkscape:window-height="1024"
     inkscape:window-x="0"
     inkscape:window-y="0"
     inkscape:window-maximized="1"
     inkscape:current-layer="layer1" /><defs
     id="defs6244" /><g
     inkscape:label="Layer 1"
     inkscape:groupmode="layer"
     id="layer1"><g
       id="g8018"><path
         id="path4806"
         style="fill:#ffffff;stroke-width:0.0926045"
         d="M 4.9999999,4.9999995 V 8.6206891 25.517245 29.13793 H 8.6206894 25.51724 29.13793 V 25.517245 8.6206891 4.9999995 H 25.51724 8.6206894 Z m 27.5862061,0 v 3.4482758 3.4482757 3.448277 h 3.448276 V 11.896551 8.4482753 h 3.448276 V 4.9999995 h -3.448276 z m 3.448276,10.3448285 v 3.448275 h 3.448276 v -3.448275 z m 3.448276,0 h 3.448276 v 3.448275 h -3.448276 v 3.448276 h 3.448276 3.448277 V 18.793103 15.344828 11.896551 H 42.931034 39.482758 Z M 42.931034,4.9999995 v 3.4482758 h 3.448277 V 4.9999995 Z m 10.344824,0 v 3.4482758 3.4482757 h -3.44827 v 3.448277 3.448275 3.448276 3.448274 h 3.44827 v 3.448277 h 3.448277 v -3.448277 h 3.448277 v 3.448277 h 3.448277 v -3.448277 h 3.448277 v -3.448274 h 3.448277 3.44827 3.448277 v -3.448276 h -3.448277 -3.44827 -3.448277 v -3.448275 h -3.448277 v 3.448275 3.448276 h -3.448277 -3.448277 -3.448277 v -3.448276 -3.448275 h 3.448277 v -3.448277 h 3.448277 3.448277 V 8.4482753 H 60.172412 56.724135 V 4.9999995 Z m 10.344831,3.4482758 h 3.448277 3.448277 V 4.9999995 h -3.448277 -3.448277 z m -6.896554,6.8965527 v 3.448275 h 3.448277 v -3.448275 z m 10.344831,10.344825 v 3.448277 h -3.448277 v 3.448277 h 3.448277 3.448277 v 3.448277 h -3.448277 v 3.44827 3.448278 3.448277 h -3.448277 v 3.448277 h 3.448277 v 3.448277 h -3.448277 v 3.448277 h 3.448277 3.448277 v -3.448277 h 3.44827 v -3.448277 h -3.44827 v -3.448277 -3.448277 -3.448278 h 3.44827 v 3.448278 h 3.448277 v 3.448277 3.448277 3.448277 3.448277 h -3.448277 v 3.44827 h 3.448277 3.448277 3.448277 v -3.44827 h 3.448277 v -3.448277 h -3.448277 v -3.448277 h -3.448277 v -3.448277 h 3.448277 v -3.448277 -3.448278 h 3.448277 3.448277 v -3.44827 H 87.758621 V 32.586207 H 84.310344 80.862067 77.41379 V 29.13793 25.689653 h -3.448277 v 3.448277 h -3.44827 v -3.448277 z m 24.137932,13.793101 v 3.448278 h -3.448277 v 3.448277 h 3.448277 3.44827 v -3.448277 -3.448278 z m 3.44827,6.896555 v 3.448277 h 3.448277 v 3.448277 h 3.448275 V 49.827586 H 105 v -3.448277 h -3.44828 v -3.448277 h -3.448275 v 3.448277 z m 0,3.448277 h -3.44827 -3.448277 v 3.448277 h 3.448277 3.44827 z m -6.896547,0 v -3.448277 h -3.448277 v 3.448277 z m 0,6.896554 v 3.44827 h 3.448277 v 3.448278 H 87.758621 V 60.17241 h -3.448277 v 3.448278 3.448277 h 3.448277 3.448277 v 3.448277 h -3.448277 v 3.448277 h -3.448277 v -3.448277 -3.448277 h -3.448277 v 3.448277 3.448277 h -3.448277 -3.448277 -3.44827 -3.448277 -3.448277 -3.448277 -3.448277 -3.448277 -3.44827 v 3.44827 3.448277 h 3.44827 v -3.448277 h 3.448277 3.448277 v 3.448277 h -3.448277 -3.448277 v 3.448278 h 3.448277 v 3.448277 h 3.448277 v 3.448277 h 3.448277 v 3.448277 h 3.448277 3.448277 v 3.44827 3.448275 V 105 h 3.44827 v -3.44828 h 3.448277 v -3.448275 h 3.448277 V 101.55172 105 h 3.448277 v -3.44828 -3.448275 h 3.448277 V 101.55172 105 h 3.448277 3.44827 3.448277 v -3.44828 h -3.448277 v -3.448275 -3.44827 h -3.44827 -3.448277 v -3.448277 h 3.448277 3.44827 v 3.448277 h 3.448277 v -3.448277 -3.448277 h -3.448277 v -3.448277 h -3.44827 v -3.448278 h 3.44827 v -3.448277 h -3.44827 v -3.44827 h 3.44827 V 70.517242 67.068965 H 98.103445 101.55172 105 V 63.620688 60.17241 56.72414 h -3.44828 v 3.44827 3.448278 H 98.103445 V 60.17241 h -3.448277 v -3.44827 h -3.44827 z m 6.896547,17.241379 v 3.44827 h 3.448277 v -3.44827 z m 3.448277,3.44827 v 3.448277 3.448278 h 3.448275 V 80.862066 H 105 v -3.448277 h -3.44828 z m 0,17.241386 v 3.44827 3.448275 h 3.448275 v -3.448275 -3.44827 z m -41.37931,-6.896554 h -3.448277 v -3.448277 h -3.44827 -3.448277 v 3.448277 h 3.448277 v 3.448277 3.448277 3.44827 h -3.448277 v 3.448275 h 3.448277 V 105 h 3.44827 v -3.44828 h 3.448277 v -3.448275 h -3.448277 v -3.44827 h 3.448277 v -3.448277 z m 0,6.896554 v 3.44827 h 3.448277 v -3.44827 z m -10.344824,3.44827 v -3.44827 -3.448277 -3.448277 h -3.448277 v 3.448277 h -3.448276 -3.448276 v -3.448277 h -3.448276 v 3.448277 3.448277 3.44827 h 3.448276 V 101.55172 105 h 3.448276 3.448276 v -3.44828 h -3.448276 v -3.448275 -3.44827 h 3.448276 v 3.44827 z M 63.620689,53.275863 v -3.448277 h -3.448277 -3.448277 v -3.448277 h -3.448277 v 3.448277 3.448277 3.448277 h -3.44827 v 3.44827 h -3.448277 v 3.448278 h 3.448277 3.44827 3.448277 V 60.17241 56.72414 53.275863 h 3.448277 z m -6.896554,10.344825 v 3.448277 h 3.448277 3.448277 v -3.448277 h -3.448277 z m 0,3.448277 h -3.448277 -3.44827 -3.448277 v 3.448277 h 3.448277 3.44827 3.448277 z M 46.379311,70.517242 H 42.931034 V 67.068965 63.620688 H 39.482758 V 60.17241 h -3.448276 -3.448276 v 3.448278 H 29.13793 v 3.448277 h -3.448276 v 3.448277 h 3.448276 3.448276 3.448276 3.448276 v 3.448277 h 3.448276 v 3.44827 3.448277 h 3.448277 v -3.448277 -3.44827 z m -6.896553,3.448277 h -3.448276 v 3.44827 h -3.448276 v 3.448277 h 3.448276 3.448276 v -3.448277 z m -6.896552,3.44827 v -3.44827 H 29.13793 25.689654 22.241379 v 3.44827 h 3.448275 3.448276 z m -10.344827,-3.44827 v -3.448277 h -3.448276 v -3.448277 h -3.448276 -3.448276 v 3.448277 h 3.448276 v 3.448277 h 3.448276 z m -6.896552,0 h -3.448276 v 3.44827 h 3.448276 z M 11.896551,67.068965 V 63.620688 60.17241 H 8.4482755 4.9999999 v 3.448278 3.448277 3.448277 3.448277 3.44827 h 3.4482756 v -3.44827 -3.448277 -3.448277 z m 6.896552,0 h 3.448276 v -3.448277 h -3.448276 z m 3.448276,-3.448277 h 3.448275 3.448276 V 60.17241 h -3.448276 -3.448275 z m 0,-3.448278 v -3.44827 h -3.448276 v 3.44827 z m -3.448276,-3.44827 v -3.448277 h 3.448276 v -3.448277 h -3.448276 -3.448276 v -3.448277 h -3.448276 v 3.448277 H 8.4482755 v 3.448277 H 4.9999999 v 3.448277 h 3.4482756 3.4482755 v -3.448277 h 3.448276 V 56.72414 Z M 8.4482755,49.827586 v -3.448277 -3.448277 h 3.4482755 3.448276 v -3.448278 h 3.448276 v -3.44827 h 3.448276 v -3.448277 h -3.448276 -3.448276 -3.448276 v 3.448277 3.44827 H 8.4482755 4.9999999 v 3.448278 3.448277 3.448277 z m 6.8965515,-6.896554 v 3.448277 h 3.448276 3.448276 v -3.448277 h -3.448276 z m 6.896552,0 h 3.448275 3.448276 v -3.448278 h -3.448276 -3.448275 z m 6.896551,-3.448278 h 3.448276 v 3.448278 H 29.13793 v 3.448277 h -3.448276 -3.448275 v 3.448277 h 3.448275 3.448276 3.448276 v -3.448277 h 3.448276 v 3.448277 h 3.448276 v -3.448277 h 3.448276 3.448277 v -3.448277 h 3.448277 v -3.448278 h -3.448277 v -3.44827 h 3.448277 3.44827 3.448277 v -3.448277 h -3.448277 -3.44827 -3.448277 V 29.13793 h -3.448277 v 3.448277 H 39.482758 36.034482 V 29.13793 25.689653 22.241379 h -3.448276 v 3.448274 3.448277 3.448277 3.448277 H 29.13793 Z m 0,-3.44827 v -3.448277 h -3.448276 v 3.448277 z M 42.931034,29.13793 v -3.448277 h -3.448276 v 3.448277 z m 3.448277,0 h 3.448277 v -3.448277 h -3.448277 z m 10.344824,6.896554 v 3.44827 h 3.448277 v -3.44827 z m 3.448277,0 h 3.448277 v -3.448277 h -3.448277 z m 0,3.44827 v 3.448278 h -3.448277 v 3.448277 h 3.448277 3.448277 v -3.448277 -3.448278 z m -3.448277,3.448278 v -3.448278 h -3.448277 v 3.448278 z m -3.448277,0 h -3.44827 v 3.448277 h 3.44827 z m -3.44827,3.448277 h -3.448277 v 3.448277 h 3.448277 z m -3.448277,3.448277 h -3.448277 -3.448276 v 3.448277 h 3.448276 v 3.448277 h -3.448276 v 3.44827 h 3.448276 3.448277 v -3.44827 -3.448277 z m -6.896553,6.896554 v -3.448277 h -3.448276 v -3.448277 h -3.448276 v 3.448277 3.448277 h 3.448276 z M 22.241379,53.275863 v 3.448277 h 3.448275 3.448276 V 53.275863 H 25.689654 Z M 80.862067,4.9999995 V 8.6206891 25.517245 29.13793 H 84.482752 101.37931 105 V 25.517245 8.6206891 4.9999995 H 101.37931 84.482752 Z M 8.6206894,8.6206891 H 25.51724 V 25.517245 H 8.6206894 Z m 75.8620626,0 H 101.37931 V 25.517245 H 84.482752 Z M 11.896551,11.896551 V 22.241379 H 22.241379 V 11.896551 Z m 58.620692,0 v 3.448277 h 3.44827 v -3.448277 z m 17.241378,0 V 22.241379 H 98.103445 V 11.896551 Z m 6.896547,20.689656 v 3.448277 h 3.448277 3.448275 v 3.44827 H 105 v -3.44827 -3.448277 h -3.44828 -3.448275 z m -58.620686,3.448277 h 3.448276 v 3.44827 h 3.448276 v 3.448278 h -3.448276 -3.448276 v -3.448278 z m 41.379308,0 h 3.448277 v 3.44827 H 77.41379 Z m -6.896547,27.586204 v 3.448277 h 3.44827 v 3.448277 h 3.448277 v -3.448277 -3.448277 h -3.448277 z m 0,3.448277 h -3.448277 v 3.448277 h 3.448277 z m 31.034477,3.448277 v 3.448277 H 105 v -3.448277 z m -24.13793,6.896547 h 3.448277 3.448277 3.448277 v 3.448277 3.448278 3.448277 H 84.310344 80.862067 77.41379 V 84.310344 80.862066 Z M 4.9999999,80.862066 V 84.482759 101.37931 105 H 8.6206894 25.51724 29.13793 V 101.37931 84.482759 80.862066 H 25.51724 8.6206894 Z m 58.6206891,0 h 3.448277 3.448277 v 3.448278 h -3.448277 -3.448277 z m 17.241378,0 v 3.448278 h 3.448277 V 80.862066 Z M 8.6206894,84.482759 H 25.51724 V 101.37931 H 8.6206894 Z m 3.2758616,3.275862 V 98.103445 H 22.241379 V 87.758621 Z m 58.620692,0 h 3.44827 v 3.448277 h -3.44827 z m 10.344824,3.448277 h 3.448277 v 3.448277 h -3.448277 z m -17.241378,6.896547 v 3.448275 H 60.172412 V 105 h 3.448277 3.448277 v -3.44828 -3.448275 z" /><g
         style="fill:none;stroke-width:7.99618"
         id="g6447"
         transform="matrix(1.1029568,0,0,1.1029569,41.764523,41.764521)"><g
           id="g4143"
           style="stroke-width:7.99618"><circle
             style="fill:#ffffff;fill-opacity:1;fill-rule:evenodd;stroke:#ff0000;stroke-width:0;stroke-linecap:round;stroke-linejoin:round"
             id="path4087"
             cx="12"
             cy="12"
             r="7.0710497" /><path
             fill-rule="evenodd"
             clip-rule="evenodd"
             d="M 22,12 C 22,17.5228 17.5228,22 12,22 6.47715,22 2,17.5228 2,12 2,6.47715 6.47715,2 12,2 17.5228,2 22,6.47715 22,12 Z M 12.3583,9.38244 C 11.3857,9.787 9.44177,10.6243 6.52657,11.8944 6.05318,12.0827 5.8052,12.2669 5.78263,12.4469 c -0.03815,0.3044 0.34296,0.4242 0.86192,0.5874 0.0706,0.0222 0.14374,0.0452 0.21872,0.0695 0.51058,0.166 1.19741,0.3602 1.55446,0.3679 0.32388,0.007 0.68537,-0.1265 1.08446,-0.4006 2.72381,-1.8386 4.12981,-2.7679 4.21801,-2.788 0.0623,-0.0141 0.1486,-0.0319 0.2071,0.0201 0.0585,0.052 0.0527,0.1504 0.0465,0.1768 -0.0377,0.161 -1.5337,1.5518 -2.3079,2.2715 -0.2413,0.2244 -0.4125,0.3835 -0.4475,0.4199 -0.0784,0.0814 -0.1583,0.1584 -0.2351,0.2324 -0.4743,0.4573 -0.8301,0.8002 0.0197,1.3602 0.4084,0.2691 0.7351,0.4916 1.0611,0.7136 0.356,0.2425 0.7111,0.4843 1.1706,0.7855 0.117,0.0767 0.2288,0.1564 0.3377,0.234 0.4143,0.2954 0.7865,0.5608 1.2464,0.5184 0.2672,-0.0245 0.5432,-0.2758 0.6834,-1.0252 0.3313,-1.771 0.9825,-5.6083 1.133,-7.18949 C 16.6484,8.66228 16.6318,8.48498 16.6185,8.40715 16.6051,8.32932 16.5773,8.21842 16.4761,8.13633 16.3563,8.03911 16.1714,8.01861 16.0886,8.02 15.7125,8.0267 15.1354,8.22735 12.3583,9.38244 Z"
             fill="#000000"
             id="path1900"
             style="fill:#0096ff;fill-opacity:1;stroke-width:17.6239" /></g></g></g></g></svg>
